<svg width="231" height="49" viewBox="0 0 231 49" fill="none" xmlns="http://www.w3.org/2000/svg">
<path d="M97.0772 18.2942C97.3891 17.9739 97.5451 17.5736 97.5451 17.0973V1.70532C97.5451 1.20894 97.3931 0.80062 97.0932 0.480372C96.7893 0.160124 96.4095 0 95.9536 0C95.5858 0 95.2739 0.0960745 95.018 0.288223C94.7621 0.480372 94.4782 0.816633 94.1663 1.293L88.8043 9.77157L83.4422 1.293C83.1503 0.816633 82.8704 0.480372 82.6025 0.288223C82.3346 0.0960745 82.0308 0 81.6829 0C81.2071 0 80.8152 0.160124 80.5153 0.480372C80.2114 0.80062 80.0635 1.20894 80.0635 1.70532V17.0973C80.0635 17.5736 80.2194 17.9739 80.5313 18.2942C80.8432 18.6144 81.235 18.7746 81.7149 18.7746C82.1947 18.7746 82.5865 18.6144 82.8984 18.2942C83.2103 17.9739 83.3663 17.5736 83.3663 17.0973V7.02544L87.2169 13.1062C87.4568 13.4744 87.6967 13.7427 87.9446 13.9188C88.1925 14.0949 88.4804 14.179 88.8123 14.179C89.1441 14.179 89.436 14.0909 89.6919 13.9188C89.9479 13.7427 90.1878 13.4744 90.4077 13.1062L94.2583 7.02544V17.0973C94.2583 17.5736 94.4142 17.9739 94.7261 18.2942C95.038 18.6144 95.4298 18.7746 95.9097 18.7746C96.3895 18.7746 96.7813 18.6144 97.0932 18.2942H97.0772Z" fill="#1348BA"/>
<path d="M103.735 17.8258C104.834 18.4583 106.054 18.7745 107.393 18.7745C108.733 18.7745 109.929 18.4583 111.036 17.8258C112.144 17.1933 113.019 16.3326 113.663 15.2518C114.303 14.167 114.627 12.974 114.627 11.673C114.627 10.372 114.307 9.1791 113.663 8.10627C113.019 7.03344 112.148 6.18078 111.036 5.54429C109.925 4.9118 108.713 4.59555 107.393 4.59555C106.074 4.59555 104.858 4.90779 103.751 5.53228C102.639 6.15676 101.772 7.00942 101.14 8.09426C100.508 9.1791 100.192 10.372 100.192 11.673C100.192 12.974 100.508 14.171 101.14 15.2518C101.772 16.3366 102.639 17.1933 103.739 17.8258H103.735ZM104.051 9.60743C104.391 8.98295 104.854 8.49858 105.438 8.1463C106.026 7.79803 106.686 7.6219 107.417 7.6219C108.149 7.6219 108.777 7.80204 109.357 8.15831C109.937 8.51459 110.392 9.00297 110.732 9.61944C111.072 10.2359 111.24 10.9285 111.24 11.6971C111.24 12.4656 111.072 13.1342 110.732 13.7466C110.392 14.3631 109.937 14.8435 109.357 15.1918C108.781 15.54 108.125 15.7162 107.389 15.7162C106.654 15.7162 105.994 15.548 105.41 15.2078C104.822 14.8675 104.367 14.3911 104.035 13.7747C103.703 13.1582 103.539 12.4656 103.539 11.6971C103.539 10.9285 103.707 10.2279 104.047 9.60343L104.051 9.60743Z" fill="#1348BA"/>
<path d="M129.117 16.0204C129.281 15.7442 129.365 15.46 129.365 15.1678C129.365 14.7635 129.221 14.4152 128.938 14.123C128.654 13.8307 128.31 13.6826 127.906 13.6826C127.666 13.6826 127.462 13.7226 127.286 13.8067C127.11 13.8908 126.934 14.0229 126.75 14.207C126.33 14.6834 125.863 15.0597 125.347 15.3359C124.835 15.6121 124.263 15.7482 123.643 15.7482C122.892 15.7482 122.224 15.5721 121.636 15.2238C121.048 14.8755 120.585 14.3952 120.249 13.7787C119.909 13.1622 119.741 12.4617 119.741 11.6731C119.741 10.8844 119.909 10.2079 120.249 9.59545C120.589 8.97897 121.052 8.4986 121.636 8.15033C122.224 7.80206 122.892 7.62592 123.643 7.62592C124.283 7.62592 124.863 7.76203 125.375 8.03824C125.887 8.31446 126.346 8.69075 126.75 9.16712C127.042 9.51539 127.43 9.69152 127.906 9.69152C128.31 9.69152 128.654 9.54341 128.938 9.25118C129.221 8.95896 129.365 8.61069 129.365 8.20637C129.365 7.93016 129.265 7.63793 129.061 7.32569C128.53 6.50105 127.774 5.84054 126.794 5.34416C125.815 4.84777 124.755 4.59958 123.619 4.59958C122.28 4.59958 121.056 4.91582 119.949 5.54831C118.837 6.1808 117.97 7.03347 117.338 8.1103C116.706 9.18313 116.39 10.3721 116.39 11.6771C116.39 12.9821 116.706 14.179 117.338 15.2718C117.97 16.3647 118.841 17.2214 119.949 17.8458C121.056 18.4703 122.28 18.7826 123.619 18.7826C124.791 18.7826 125.855 18.5384 126.81 18.054C127.762 17.5696 128.534 16.8931 129.121 16.0284L129.117 16.0204Z" fill="#1348BA"/>
<path d="M143.516 18.3342C143.82 18.042 143.972 17.6817 143.972 17.2614C143.972 16.841 143.844 16.5088 143.588 16.2166L139.43 11.665L143.312 7.2376C143.624 6.88933 143.78 6.51304 143.78 6.10872C143.78 5.70441 143.632 5.32812 143.34 5.03589C143.048 4.74367 142.68 4.59555 142.241 4.59555C141.765 4.59555 141.377 4.75968 141.085 5.09194L136.411 10.4881C136.211 10.7283 136.063 10.9365 135.971 11.1206C135.879 11.3048 135.835 11.4889 135.835 11.673C135.835 11.8732 135.871 12.0733 135.947 12.2655C136.019 12.4576 136.147 12.6578 136.331 12.858L141.281 18.2822C141.593 18.6144 141.977 18.7785 142.437 18.7785C142.856 18.7785 143.22 18.6304 143.524 18.3382L143.516 18.3342Z" fill="#1348BA"/>
<path d="M133.548 18.7745C134.008 18.7745 134.392 18.6144 134.704 18.2942C135.015 17.9739 135.171 17.5736 135.171 17.0972V6.27285C135.171 5.79648 135.015 5.39617 134.704 5.07592C134.392 4.75567 134.008 4.59555 133.548 4.59555C133.088 4.59555 132.672 4.75567 132.352 5.07592C132.032 5.39617 131.873 5.79648 131.873 6.27285V17.0932C131.873 17.5696 132.032 17.9699 132.352 18.2902C132.672 18.6104 133.072 18.7705 133.548 18.7705V18.7745Z" fill="#1348BA"/>
<path d="M158.551 15.2518C159.19 14.167 159.514 12.974 159.514 11.673C159.514 10.372 159.194 9.1791 158.551 8.10627C157.907 7.03344 157.035 6.18078 155.924 5.54429C154.812 4.9118 153.6 4.59555 152.281 4.59555C150.961 4.59555 149.746 4.90779 148.638 5.53228C147.527 6.15676 146.659 7.00942 146.027 8.09426C145.395 9.1791 145.08 10.372 145.08 11.673C145.08 12.974 145.395 14.171 146.027 15.2518C146.659 16.3366 147.527 17.1933 148.626 17.8258C149.726 18.4583 150.945 18.7745 152.285 18.7745C153.624 18.7745 154.82 18.4583 155.928 17.8258C157.035 17.1933 157.911 16.3326 158.555 15.2518H158.551ZM155.62 13.7506C155.28 14.3671 154.824 14.8475 154.244 15.1958C153.668 15.544 153.013 15.7202 152.277 15.7202C151.541 15.7202 150.881 15.552 150.298 15.2118C149.71 14.8715 149.254 14.3951 148.922 13.7787C148.59 13.1622 148.426 12.4697 148.426 11.7011C148.426 10.9325 148.594 10.2319 148.934 9.60743C149.274 8.98295 149.738 8.49858 150.322 8.1463C150.909 7.79803 151.569 7.6219 152.301 7.6219C153.033 7.6219 153.66 7.80204 154.24 8.15831C154.82 8.51459 155.276 9.00297 155.616 9.61944C155.956 10.2359 156.124 10.9285 156.124 11.6971C156.124 12.4656 155.956 13.1342 155.616 13.7466L155.62 13.7506Z" fill="#1348BA"/>
<path d="M173.361 16.4768C173.773 15.8443 173.981 15.1317 173.981 14.3431C173.981 13.4264 173.693 12.6698 173.113 12.0693C172.75 11.6971 172.298 11.4048 171.774 11.1767C172.014 10.9765 172.222 10.7483 172.398 10.4841C172.754 9.95171 172.933 9.34724 172.933 8.66671C172.933 7.50981 172.498 6.5931 171.626 5.91258C170.754 5.23205 169.631 4.89178 168.255 4.89178H163.825C163.349 4.89178 162.945 5.05191 162.613 5.37216C162.281 5.69241 162.117 6.10072 162.117 6.59711V16.785C162.117 17.2614 162.281 17.6617 162.613 17.9819C162.945 18.3022 163.345 18.4623 163.825 18.4623H169.107C170.059 18.4623 170.902 18.2862 171.638 17.9379C172.37 17.5896 172.945 17.0972 173.357 16.4648L173.361 16.4768ZM165.316 7.45777H168.123C168.711 7.45777 169.151 7.57386 169.443 7.80204C169.735 8.03022 169.883 8.37448 169.883 8.83484C169.883 9.2952 169.731 9.64747 169.431 9.89566C169.131 10.1439 168.691 10.268 168.123 10.268H165.316V7.45777ZM170.334 15.484C169.959 15.7882 169.439 15.9363 168.779 15.9363H165.312V12.6578H168.779C169.439 12.6578 169.959 12.8019 170.334 13.0861C170.71 13.3704 170.898 13.7627 170.898 14.255C170.898 14.7474 170.71 15.1758 170.334 15.48V15.484Z" fill="#1348BA"/>
<path d="M188.832 15.1678C188.832 14.7635 188.688 14.4152 188.404 14.123C188.12 13.8307 187.776 13.6826 187.372 13.6826C187.132 13.6826 186.928 13.7226 186.752 13.8067C186.577 13.8908 186.401 14.0229 186.217 14.207C185.797 14.6834 185.329 15.0597 184.813 15.3359C184.301 15.6121 183.73 15.7482 183.11 15.7482C182.358 15.7482 181.69 15.5721 181.103 15.2238C180.515 14.8755 180.051 14.3952 179.715 13.7787C179.375 13.1622 179.207 12.4617 179.207 11.6731C179.207 10.8844 179.375 10.2079 179.715 9.59545C180.055 8.97897 180.519 8.4986 181.103 8.15033C181.69 7.80206 182.358 7.62592 183.11 7.62592C183.75 7.62592 184.329 7.76203 184.841 8.03824C185.353 8.31446 185.813 8.69075 186.217 9.16712C186.509 9.51539 186.896 9.69152 187.372 9.69152C187.776 9.69152 188.12 9.54341 188.404 9.25118C188.688 8.95896 188.832 8.61069 188.832 8.20637C188.832 7.93016 188.732 7.63793 188.528 7.32569C187.996 6.50105 187.24 5.84054 186.261 5.34416C185.281 4.84777 184.221 4.59958 183.086 4.59958C181.746 4.59958 180.523 4.91582 179.415 5.54831C178.304 6.1808 177.436 7.03347 176.804 8.1103C176.172 9.18313 175.856 10.3721 175.856 11.6771C175.856 12.9821 176.172 14.179 176.804 15.2718C177.436 16.3647 178.308 17.2214 179.415 17.8458C180.523 18.4703 181.746 18.7826 183.086 18.7826C184.257 18.7826 185.321 18.5384 186.277 18.054C187.228 17.5696 188 16.8931 188.588 16.0284C188.752 15.7522 188.836 15.468 188.836 15.1758L188.832 15.1678Z" fill="#1348BA"/>
<path d="M193.01 18.7745C193.47 18.7745 193.854 18.6144 194.166 18.2942C194.478 17.9739 194.634 17.5736 194.634 17.0972V6.27285C194.634 5.79648 194.478 5.39617 194.166 5.07592C193.854 4.75567 193.47 4.59555 193.01 4.59555C192.55 4.59555 192.134 4.75567 191.815 5.07592C191.495 5.39617 191.335 5.79648 191.335 6.27285V17.0932C191.335 17.5696 191.495 17.9699 191.815 18.2902C192.134 18.6104 192.534 18.7705 193.01 18.7705V18.7745Z" fill="#1348BA"/>
<path d="M198.892 11.665L202.774 7.2376C203.086 6.88933 203.242 6.51304 203.242 6.10872C203.242 5.70441 203.094 5.32812 202.802 5.03589C202.51 4.74367 202.143 4.59555 201.703 4.59555C201.227 4.59555 200.839 4.75968 200.547 5.09194L195.873 10.4881C195.673 10.7283 195.525 10.9365 195.433 11.1206C195.341 11.3048 195.297 11.4889 195.297 11.673C195.297 11.8732 195.333 12.0733 195.409 12.2655C195.481 12.4576 195.609 12.6578 195.793 12.858L200.743 18.2822C201.055 18.6144 201.439 18.7785 201.899 18.7785C202.319 18.7785 202.682 18.6304 202.986 18.3382C203.29 18.046 203.442 17.6857 203.442 17.2654C203.442 16.845 203.314 16.5128 203.058 16.2206L198.9 11.669L198.892 11.665Z" fill="#1348BA"/>
<path d="M210.972 4.59555C209.98 4.59555 209.06 4.75167 208.209 5.06391C207.357 5.37616 206.637 5.8165 206.049 6.38494C205.609 6.80927 205.39 7.25761 205.39 7.73398C205.39 8.10227 205.526 8.41851 205.801 8.68272C206.077 8.95093 206.405 9.08303 206.793 9.08303C206.977 9.08303 207.145 9.051 207.301 8.98695C207.457 8.9229 207.637 8.80681 207.837 8.64269C208.257 8.25839 208.704 7.97417 209.172 7.79003C209.64 7.60588 210.14 7.51381 210.672 7.51381C211.531 7.51381 212.203 7.74199 212.679 8.20235C213.155 8.6627 213.395 9.31521 213.395 10.1559V10.8724H209.764C208.205 10.8724 206.973 11.2247 206.065 11.9332C205.158 12.6418 204.706 13.5985 204.706 14.8115C204.706 16.0244 205.142 16.9651 206.013 17.6897C206.885 18.4143 208.017 18.7785 209.412 18.7785C210.404 18.7785 211.287 18.5944 212.067 18.2261C212.603 17.9739 213.067 17.6417 213.467 17.2454C213.491 17.6537 213.639 18.0059 213.922 18.2982C214.234 18.6184 214.63 18.7785 215.106 18.7785C215.582 18.7785 215.946 18.6224 216.246 18.3102C216.549 17.9979 216.701 17.6016 216.701 17.1253V10.324C216.701 8.50658 216.198 7.09749 215.19 6.09671C214.182 5.09594 212.779 4.59555 210.984 4.59555H210.972ZM212.967 14.8675C212.683 15.3079 212.299 15.6561 211.811 15.9123C211.323 16.1685 210.788 16.2966 210.204 16.2966C209.544 16.2966 209.02 16.1565 208.636 15.8683C208.253 15.5841 208.061 15.1838 208.061 14.6714C208.061 14.159 208.241 13.7987 208.596 13.5425C208.952 13.2863 209.492 13.1582 210.204 13.1582H213.395V13.3784C213.395 13.9308 213.251 14.4232 212.967 14.8635V14.8675Z" fill="#1348BA"/>
<path d="M230.512 5.38018C230.192 5.05993 229.784 4.89981 229.289 4.89981H225.026C223.395 4.89981 222.095 5.31613 221.136 6.15278C220.172 6.98943 219.692 8.10229 219.692 9.49938C219.692 10.8965 220.188 12.0253 221.176 12.83C221.527 13.1182 221.919 13.3504 222.351 13.5385L220.408 15.9444C220.224 16.1645 220.088 16.3687 219.996 16.5488C219.904 16.733 219.86 16.9331 219.86 17.1533C219.86 17.5936 220.02 17.9739 220.34 18.2942C220.66 18.6144 221.052 18.7746 221.507 18.7746C222.019 18.7746 222.435 18.5824 222.747 18.1981L225.99 14.0949H227.697V17.0973C227.697 17.5736 227.853 17.9739 228.165 18.2942C228.477 18.6144 228.873 18.7746 229.349 18.7746C229.824 18.7746 230.22 18.6144 230.532 18.2942C230.844 17.9739 231 17.5736 231 17.0973V6.60513C231 6.10875 230.84 5.70043 230.52 5.38018H230.512ZM227.693 11.3968H225.19C224.53 11.3968 224.007 11.2287 223.623 10.8885C223.239 10.5482 223.047 10.0958 223.047 9.52339C223.047 8.95095 223.239 8.51461 223.623 8.20237C224.007 7.89013 224.522 7.73401 225.162 7.73401H227.693V11.3968Z" fill="#1348BA"/>
<path d="M90.5437 31.9608C89.544 31.3563 88.4404 31.0521 87.2289 31.0521C85.8334 31.0521 84.6538 31.4204 83.6822 32.1529C83.1824 32.5292 82.7545 32.9696 82.3947 33.4619C82.4227 32.0929 82.5866 31.012 82.8985 30.2274C83.2384 29.3668 83.8381 28.7023 84.7018 28.2459C85.5615 27.7855 86.793 27.4653 88.3885 27.2812C89.1602 27.1891 89.8159 27.089 90.3557 26.9769C90.8955 26.8648 91.4433 26.7287 91.9911 26.5646C92.395 26.4525 92.7029 26.2804 92.9108 26.0402C93.1227 25.8 93.2267 25.4798 93.2267 25.0754C93.2267 24.6711 93.0787 24.3509 92.7868 24.0587C92.495 23.7664 92.1431 23.6183 91.7432 23.6183C91.5953 23.6183 91.3314 23.6543 90.9435 23.7264L90.4197 23.8625C89.9039 23.9906 89.1362 24.1467 88.1086 24.3309C85.9614 24.6431 84.254 25.1755 82.9784 25.9281C81.7029 26.6807 80.7793 27.7535 80.1995 29.1506C79.6237 30.5477 79.3318 32.3731 79.3318 34.6309V36.7525C79.3318 38.3858 79.6397 39.8029 80.2515 41.0078C80.8672 42.2087 81.7189 43.1294 82.8105 43.7619C83.9021 44.3944 85.1417 44.7107 86.5371 44.7107C87.9326 44.7107 89.1442 44.4064 90.2358 43.802C91.3274 43.1975 92.1751 42.3769 92.7789 41.336C93.3826 40.2992 93.6865 39.1464 93.6865 37.8814C93.6865 36.6164 93.4106 35.4875 92.8628 34.4387C92.311 33.3939 91.5393 32.5653 90.5397 31.9608H90.5437ZM89.7999 39.8229C89.4601 40.3993 89.0002 40.8597 88.4245 41.1999C87.8487 41.5402 87.2089 41.7083 86.5132 41.7083C85.8174 41.7083 85.1736 41.5402 84.5859 41.1999C83.9981 40.8597 83.5342 40.4033 83.1984 39.8229C82.8585 39.2464 82.6906 38.5979 82.6906 37.8814C82.6906 37.1648 82.8585 36.5403 83.1984 35.9519C83.5382 35.3634 83.9981 34.9071 84.5859 34.5748C85.1736 34.2425 85.8134 34.0784 86.5132 34.0784C87.2129 34.0784 87.8487 34.2425 88.4245 34.5748C89.0002 34.9071 89.4601 35.3634 89.7999 35.9519C90.1398 36.5403 90.3078 37.1808 90.3078 37.8814C90.3078 38.5819 90.1398 39.2424 89.7999 39.8229Z" fill="#1348BA"/>
<path d="M106.306 31.5084C105.194 30.8759 103.983 30.5597 102.663 30.5597C101.344 30.5597 100.128 30.8719 99.0206 31.4964C97.909 32.1209 97.0413 32.9736 96.4096 34.0584C95.7778 35.1432 95.4619 36.3362 95.4619 37.6372C95.4619 38.9382 95.7778 40.1351 96.4096 41.2159C97.0413 42.3008 97.909 43.1575 99.0086 43.7899C100.108 44.4224 101.328 44.7387 102.667 44.7387C104.007 44.7387 105.202 44.4224 106.31 43.7899C107.418 43.1575 108.293 42.2968 108.937 41.2159C109.577 40.1311 109.901 38.9382 109.901 37.6372C109.901 36.3362 109.581 35.1432 108.937 34.0704C108.293 32.9976 107.422 32.1449 106.31 31.5084H106.306ZM106.002 39.7148C105.662 40.3313 105.206 40.8116 104.627 41.1599C104.051 41.5082 103.395 41.6843 102.659 41.6843C101.924 41.6843 101.264 41.5162 100.68 41.1759C100.092 40.8357 99.6364 40.3593 99.3045 39.7428C98.9726 39.1263 98.8087 38.4338 98.8087 37.6652C98.8087 36.8966 98.9766 36.1961 99.3165 35.5716C99.6564 34.9471 100.12 34.4627 100.704 34.1104C101.292 33.7622 101.952 33.586 102.683 33.586C103.415 33.586 104.043 33.7662 104.623 34.1225C105.202 34.4787 105.658 34.9671 105.998 35.5836C106.338 36.2001 106.506 36.8926 106.506 37.6612C106.506 38.4298 106.338 39.0983 105.998 39.7108L106.002 39.7148Z" fill="#1348BA"/>
<path d="M122.324 30.8599H115.31C114.835 30.8599 114.435 31.02 114.115 31.3403C113.795 31.6605 113.635 32.0689 113.635 32.5652C113.615 33.0977 113.599 33.6381 113.579 34.1905C113.559 35.8798 113.483 37.2689 113.347 38.3617C113.211 39.4546 112.999 40.2792 112.715 40.8397C112.432 41.4001 112.052 41.6963 111.576 41.7364C111.464 41.7364 111.348 41.7724 111.22 41.8484C110.928 41.9045 110.684 42.0566 110.492 42.3008C110.3 42.545 110.204 42.8372 110.204 43.1695C110.204 43.5177 110.304 43.822 110.508 44.0782C110.708 44.3344 110.976 44.4905 111.308 44.5465C111.528 44.6186 111.776 44.6546 112.052 44.6546C113.151 44.6546 114.035 44.3063 114.707 43.6098C115.374 42.9133 115.87 41.8364 116.19 40.3873C116.51 38.9382 116.69 37.0207 116.726 34.6308V33.6941H120.74V43.0574C120.74 43.5337 120.896 43.9341 121.208 44.2543C121.52 44.5746 121.916 44.7347 122.392 44.7347C122.868 44.7347 123.236 44.5746 123.547 44.2543C123.859 43.9341 124.015 43.5337 124.015 43.0574V32.5652C124.015 32.0689 123.855 31.6605 123.535 31.3403C123.216 31.02 122.816 30.8599 122.34 30.8599H122.324Z" fill="#1348BA"/>
<path d="M136.271 35.5435C135.447 35.1592 134.5 34.9671 133.44 34.9671H130.773V32.241C130.773 31.7646 130.617 31.3643 130.305 31.0441C129.993 30.7238 129.609 30.5637 129.15 30.5637C128.69 30.5637 128.274 30.7238 127.954 31.0441C127.634 31.3643 127.474 31.7646 127.474 32.241V42.7611C127.474 43.2375 127.638 43.6378 127.97 43.9581C128.302 44.2783 128.702 44.4384 129.181 44.4384H133.444C134.508 44.4384 135.451 44.2503 136.275 43.874C137.099 43.4977 137.75 42.9493 138.226 42.2207C138.702 41.4962 138.942 40.6555 138.942 39.7028C138.942 38.75 138.702 37.8894 138.226 37.1848C137.75 36.4803 137.099 35.9318 136.275 35.5476L136.271 35.5435ZM134.963 41.1079C134.568 41.4401 134.024 41.6042 133.328 41.6042H130.769V37.8053H133.3C133.996 37.8053 134.548 37.9734 134.951 38.3137C135.355 38.654 135.555 39.1263 135.555 39.7308C135.555 40.3353 135.359 40.7756 134.963 41.1079Z" fill="#1348BA"/>
<path d="M151.921 30.5597C151.445 30.5597 151.049 30.7198 150.738 31.0401C150.426 31.3603 150.27 31.7606 150.27 32.237V35.9279H144.824V32.237C144.824 31.7606 144.672 31.3603 144.368 31.0401C144.064 30.7198 143.676 30.5597 143.2 30.5597C142.724 30.5597 142.325 30.7198 142.005 31.0401C141.685 31.3603 141.525 31.7606 141.525 32.237V43.0574C141.525 43.5337 141.685 43.9341 142.005 44.2543C142.325 44.5746 142.724 44.7347 143.2 44.7347C143.676 44.7347 144.068 44.5746 144.368 44.2543C144.668 43.9341 144.824 43.5337 144.824 43.0574V38.762H150.27V43.0574C150.27 43.5337 150.426 43.9341 150.738 44.2543C151.049 44.5746 151.441 44.7347 151.921 44.7347C152.401 44.7347 152.789 44.5746 153.089 44.2543C153.389 43.9341 153.54 43.5337 153.54 43.0574V32.237C153.54 31.7606 153.389 31.3603 153.089 31.0401C152.785 30.7198 152.397 30.5597 151.921 30.5597Z" fill="#1348BA"/>
<path d="M167.571 30.5597C166.984 30.5597 166.48 30.8359 166.06 31.3843L160.338 39.0743V32.237C160.338 31.7606 160.182 31.3603 159.87 31.04C159.558 30.7198 159.175 30.5597 158.715 30.5597C158.255 30.5597 157.839 30.7198 157.519 31.04C157.199 31.3603 157.039 31.7606 157.039 32.237V43.0574C157.039 43.5337 157.199 43.934 157.519 44.2543C157.839 44.5745 158.231 44.7347 158.687 44.7347C159.254 44.7347 159.75 44.4664 160.17 43.934L165.892 36.4202V43.0533C165.892 43.5297 166.052 43.93 166.372 44.2503C166.692 44.5705 167.084 44.7306 167.539 44.7306C167.995 44.7306 168.411 44.5705 168.723 44.2503C169.035 43.93 169.191 43.5297 169.191 43.0533V32.233C169.191 31.7566 169.035 31.3563 168.723 31.036C168.411 30.7158 168.027 30.5557 167.567 30.5557L167.571 30.5597Z" fill="#1348BA"/>
<path d="M184.953 41.6002L184.401 41.7924V32.237C184.401 31.7606 184.249 31.3603 183.945 31.0401C183.642 30.7198 183.254 30.5597 182.778 30.5597C182.302 30.5597 181.906 30.7198 181.594 31.0401C181.282 31.3603 181.126 31.7606 181.126 32.237V41.6002H175.984V32.237C175.984 31.7606 175.828 31.3603 175.517 31.0401C175.205 30.7198 174.821 30.5597 174.361 30.5597C173.901 30.5597 173.485 30.7198 173.165 31.0401C172.845 31.3603 172.686 31.7606 172.686 32.237V42.7571C172.686 43.2335 172.849 43.6338 173.181 43.9541C173.513 44.2743 173.913 44.4344 174.393 44.4344H183.47V47.1325C183.47 47.5929 183.622 47.9772 183.921 48.2894C184.225 48.6017 184.605 48.7578 185.061 48.7578C185.517 48.7578 185.897 48.6017 186.189 48.2894C186.48 47.9772 186.628 47.5929 186.628 47.1325V43.3056C186.628 42.8092 186.468 42.4009 186.149 42.0806C185.829 41.7604 185.429 41.6002 184.953 41.6002Z" fill="#1348BA"/>
<path d="M194.414 30.5597C193.422 30.5597 192.502 30.7158 191.651 31.0281C190.799 31.3403 190.079 31.7806 189.491 32.3491C189.052 32.7734 188.832 33.2218 188.832 33.6981C188.832 34.0664 188.968 34.3827 189.244 34.6469C189.519 34.9151 189.847 35.0472 190.235 35.0472C190.419 35.0472 190.587 35.0151 190.743 34.9511C190.899 34.887 191.079 34.771 191.279 34.6068C191.699 34.2225 192.146 33.9383 192.614 33.7542C193.082 33.57 193.582 33.478 194.114 33.478C194.973 33.478 195.645 33.7061 196.121 34.1665C196.597 34.6268 196.837 35.2793 196.837 36.12V36.8366H193.206C191.647 36.8366 190.415 37.1888 189.507 37.8974C188.6 38.6059 188.148 39.5627 188.148 40.7756C188.148 41.9885 188.584 42.9293 189.455 43.6538C190.327 44.3784 191.459 44.7427 192.854 44.7427C193.846 44.7427 194.73 44.5585 195.509 44.1903C196.045 43.9381 196.509 43.6058 196.909 43.2095C196.933 43.6178 197.081 43.9701 197.365 44.2623C197.676 44.5826 198.072 44.7427 198.548 44.7427C199.024 44.7427 199.388 44.5866 199.688 44.2743C199.992 43.9621 200.144 43.5658 200.144 43.0894V36.2881C200.144 34.4707 199.64 33.0616 198.632 32.0609C197.624 31.0601 196.221 30.5597 194.426 30.5597H194.414ZM196.409 40.8317C196.125 41.272 195.741 41.6203 195.253 41.8765C194.766 42.1327 194.23 42.2608 193.646 42.2608C192.986 42.2608 192.462 42.1207 192.079 41.8324C191.695 41.5482 191.503 41.1479 191.503 40.6355C191.503 40.1231 191.683 39.7628 192.039 39.5066C192.394 39.2504 192.934 39.1223 193.646 39.1223H196.837V39.3425C196.837 39.8949 196.693 40.3873 196.409 40.8277V40.8317Z" fill="#1348BA"/>
<path d="M28.0907 35.9822H17.432C16.3789 35.9822 15.8963 34.6643 16.7021 33.9854L20.5076 30.7666C24.2892 27.5997 26.9578 24.7602 28.5175 22.2523C30.0773 19.7443 30.8591 17.0606 30.8591 14.1972C30.8591 11.3338 30.2209 9.03748 28.9484 6.90092C27.6719 4.76834 25.9047 3.08305 23.639 1.84903C21.3732 0.619006 18.8122 0 15.9561 0C13.4071 0 11.0336 0.519166 8.83569 1.54951C6.63774 2.58385 4.8347 3.99359 3.43056 5.77472C2.02244 7.55586 1.12092 9.59259 0.726003 11.8809C0.506606 13.1149 0.462727 14.2132 0.594365 15.1796C0.682123 16.5015 1.13288 17.5558 1.94664 18.3465C2.76041 19.1373 3.7816 19.5366 5.01421 19.5366C6.24681 19.5366 7.19221 19.1852 7.98204 18.4823C8.77187 17.7794 9.25454 16.833 9.43405 15.6429L9.56568 14.8521C9.60956 14.5007 9.65344 14.1253 9.69732 13.7299C9.82896 12.5878 10.168 11.6054 10.7185 10.7907C11.269 9.97598 11.9591 9.34898 12.7968 8.90969C13.6305 8.4704 14.5998 8.25075 15.6968 8.25075C17.4999 8.25075 18.9479 8.83381 20.0488 9.99994C21.1458 11.1661 21.6963 12.7196 21.6963 14.6525C21.6963 16.4136 21.2136 18.051 20.2443 19.5686C19.275 21.0861 17.5836 22.9032 15.1663 25.0158L1.84692 36.3137C0.61431 37.328 0 38.5581 0 40.0117C0 41.2018 0.426826 42.2362 1.28447 43.1147C2.14211 43.9973 3.18723 44.4366 4.41585 44.4366L28.0867 44.3687C29.3632 44.3687 30.4044 43.9734 31.2181 43.1786C32.0319 42.3879 32.4388 41.3735 32.4388 40.1435C32.4388 38.9135 32.0319 37.967 31.2181 37.1723C30.4044 36.3816 29.3592 35.9822 28.0867 35.9822H28.0907Z" fill="#1348BA"/>
<path d="M49.859 34.9798H45.2875C44.011 34.9798 42.9898 34.5725 42.22 33.7578C41.4501 32.9431 41.0671 31.9886 41.0671 30.8864C41.0671 29.7882 41.4541 28.8177 42.22 27.9831C42.9898 27.1484 44.011 26.7291 45.2875 26.7291H49.859C50.4852 26.7291 50.9878 26.2219 50.9878 25.5989V20.9703C50.9878 19.6964 51.4147 18.6261 52.2723 17.7675C53.13 16.9089 54.1751 16.4815 55.4037 16.4815C56.6323 16.4815 57.7453 16.9089 58.6029 17.7675C59.4605 18.6261 59.8874 19.6924 59.8874 20.9703V25.5989C59.8874 26.2259 60.394 26.7291 61.0163 26.7291H65.5877C66.8642 26.7291 67.8854 27.1484 68.6552 27.9831C69.4251 28.8177 69.8081 29.7882 69.8081 30.8864C69.8081 31.9846 69.4211 32.9431 68.6552 33.7578C67.8854 34.5725 66.8642 34.9798 65.5877 34.9798H61.0163C60.39 34.9798 59.8874 35.487 59.8874 36.11V40.7985C59.8874 42.0764 59.4605 43.1547 58.6029 44.0333C57.7453 44.9119 56.6802 45.3552 55.4037 45.3552C54.2628 45.3552 53.1778 44.9239 52.3601 44.1251C51.4426 43.2306 50.9839 42.1204 50.9839 40.8025V36.114C50.9839 35.487 50.4773 34.9838 49.855 34.9838L49.859 34.9798Z" fill="#E30613"/>
<path d="M38.4302 29.3808L49.6673 6.07824C49.8867 5.55109 49.9984 5.02393 49.9984 4.49279C49.9984 3.26276 49.5596 2.20446 48.678 1.32587C47.7965 0.447286 46.7433 0.0039978 45.5147 0.0039978C44.5933 0.0039978 43.7675 0.279555 43.0415 0.83067C42.3155 1.38178 41.7571 2.07268 41.3622 2.91133L29.1637 28.4463C28.9004 29.1053 28.7688 29.7442 28.7688 30.3592C28.7688 31.5493 29.2076 32.5837 30.0892 33.4623C30.9668 34.3448 31.9999 34.7841 33.1886 34.7841H38.6177C39.0685 34.7841 39.3916 34.245 39.0924 33.9095C38.3265 33.0469 37.7122 30.9543 38.4422 29.3808H38.4302Z" fill="#1348BA"/>
</svg>
