<svg width="116" height="38" viewBox="0 0 116 38" fill="none" xmlns="http://www.w3.org/2000/svg">
<g id="Group">
<path id="Vector" d="M13.9636 14.3641C14.2012 14.1201 14.32 13.8151 14.32 13.4521V1.72495C14.32 1.34675 14.2043 1.03566 13.9758 0.791657C13.7442 0.547659 13.4548 0.425659 13.1075 0.425659C12.8272 0.425659 12.5896 0.498859 12.3946 0.645258C12.1997 0.791657 11.9834 1.04786 11.7457 1.4108L7.66038 7.87067L3.57502 1.4108C3.35263 1.04786 3.13937 0.791657 2.93526 0.645258C2.73114 0.498859 2.49961 0.425659 2.23457 0.425659C1.87203 0.425659 1.57348 0.547659 1.34499 0.791657C1.11345 1.03566 1.00073 1.34675 1.00073 1.72495V13.4521C1.00073 13.8151 1.11955 14.1201 1.35717 14.3641C1.5948 14.6081 1.89336 14.7301 2.25894 14.7301C2.62452 14.7301 2.92307 14.6081 3.1607 14.3641C3.39833 14.1201 3.51714 13.8151 3.51714 13.4521V5.77838L6.45092 10.4113C6.63371 10.6919 6.8165 10.8963 7.00538 11.0304C7.19427 11.1646 7.41362 11.2287 7.66648 11.2287C7.91934 11.2287 8.14173 11.1616 8.33671 11.0304C8.53168 10.8963 8.71447 10.6919 8.88203 10.4113L11.8158 5.77838V13.4521C11.8158 13.8151 11.9346 14.1201 12.1723 14.3641C12.4099 14.6081 12.7084 14.7301 13.074 14.7301C13.4396 14.7301 13.7382 14.6081 13.9758 14.3641H13.9636Z" fill="#1348BA"/>
<path id="Vector_2" d="M19.0359 14.0072C19.8737 14.4891 20.8028 14.73 21.8234 14.73C22.844 14.73 23.7549 14.4891 24.5988 14.0072C25.4427 13.5253 26.1098 12.8696 26.6003 12.0461C27.0878 11.2195 27.3345 10.3106 27.3345 9.31937C27.3345 8.32813 27.0908 7.41923 26.6003 6.60184C26.1098 5.78444 25.4457 5.1348 24.5988 4.64985C23.7519 4.16795 22.8288 3.927 21.8234 3.927C20.8181 3.927 19.8919 4.1649 19.0481 4.6407C18.2011 5.1165 17.54 5.76614 17.0587 6.59269C16.5773 7.41923 16.3367 8.32813 16.3367 9.31937C16.3367 10.3106 16.5773 11.2226 17.0587 12.0461C17.54 12.8726 18.2011 13.5253 19.0389 14.0072H19.0359ZM19.2765 7.74558C19.5355 7.26978 19.8889 6.90074 20.3337 6.63234C20.7815 6.36699 21.2842 6.23279 21.8417 6.23279C22.3992 6.23279 22.8775 6.37004 23.3193 6.64149C23.761 6.91293 24.1083 7.28503 24.3673 7.75473C24.6262 8.22443 24.7542 8.75207 24.7542 9.33767C24.7542 9.92327 24.6262 10.4326 24.3673 10.8993C24.1083 11.369 23.761 11.735 23.3193 12.0003C22.8806 12.2657 22.3809 12.3999 21.8204 12.3999C21.2598 12.3999 20.7571 12.2718 20.3123 12.0125C19.8645 11.7533 19.5172 11.3903 19.2644 10.9206C19.0115 10.4509 18.8866 9.92327 18.8866 9.33767C18.8866 8.75207 19.0145 8.21833 19.2735 7.74253L19.2765 7.74558Z" fill="#1348BA"/>
<path id="Vector_3" d="M38.3752 12.6317C38.5001 12.4212 38.5641 12.2047 38.5641 11.982C38.5641 11.674 38.4544 11.4086 38.2381 11.186C38.0218 10.9633 37.7598 10.8505 37.4521 10.8505C37.2694 10.8505 37.114 10.881 36.9799 10.945C36.8459 11.0091 36.7118 11.1097 36.5717 11.25C36.2518 11.613 35.8954 11.8997 35.5024 12.1101C35.1124 12.3206 34.6768 12.4243 34.2046 12.4243C33.6318 12.4243 33.1231 12.2901 32.6752 12.0247C32.2274 11.7594 31.874 11.3934 31.6181 10.9237C31.3591 10.454 31.2312 9.92022 31.2312 9.31937C31.2312 8.71853 31.3591 8.20308 31.6181 7.73643C31.877 7.26673 32.2304 6.90074 32.6752 6.63539C33.1231 6.37004 33.6318 6.23584 34.2046 6.23584C34.692 6.23584 35.1338 6.33954 35.5237 6.54999C35.9137 6.76044 36.264 7.04714 36.5717 7.41008C36.7941 7.67543 37.0896 7.80963 37.4521 7.80963C37.7598 7.80963 38.0218 7.69678 38.2381 7.47413C38.4544 7.25149 38.5641 6.98614 38.5641 6.67809C38.5641 6.46764 38.488 6.24499 38.3326 6.00709C37.9274 5.3788 37.3516 4.87555 36.6052 4.49735C35.8588 4.11915 35.0515 3.93005 34.1863 3.93005C33.1657 3.93005 32.2335 4.171 31.3896 4.6529C30.5427 5.1348 29.8816 5.78444 29.4002 6.60489C28.9189 7.42228 28.6782 8.32813 28.6782 9.32242C28.6782 10.3167 28.9189 11.2287 29.4002 12.0613C29.8816 12.894 30.5457 13.5466 31.3896 14.0224C32.2335 14.4982 33.1657 14.7361 34.1863 14.7361C35.0789 14.7361 35.8893 14.5501 36.6174 14.181C37.3425 13.812 37.9304 13.2966 38.3783 12.6378L38.3752 12.6317Z" fill="#1348BA"/>
<path id="Vector_4" d="M49.3455 14.3945C49.577 14.1719 49.6928 13.8974 49.6928 13.5771C49.6928 13.2569 49.5953 13.0038 49.4003 12.7811L46.232 9.31327L49.1901 5.93999C49.4277 5.67464 49.5466 5.38794 49.5466 5.0799C49.5466 4.77185 49.4338 4.48515 49.2114 4.2625C48.989 4.03985 48.7088 3.927 48.3737 3.927C48.0111 3.927 47.7156 4.05205 47.4932 4.3052L43.9319 8.41658C43.7795 8.59958 43.6668 8.75818 43.5967 8.89847C43.5267 9.03877 43.4932 9.17907 43.4932 9.31937C43.4932 9.47187 43.5206 9.62437 43.5785 9.77077C43.6333 9.91717 43.7308 10.0697 43.8709 10.2222L47.6425 14.3549C47.8801 14.608 48.1726 14.7331 48.5229 14.7331C48.8428 14.7331 49.12 14.6202 49.3516 14.3976L49.3455 14.3945Z" fill="#1348BA"/>
<path id="Vector_5" d="M41.7506 14.73C42.101 14.73 42.3934 14.608 42.631 14.364C42.8687 14.12 42.9875 13.815 42.9875 13.4521V5.20494C42.9875 4.842 42.8687 4.537 42.631 4.293C42.3934 4.049 42.101 3.927 41.7506 3.927C41.4003 3.927 41.0834 4.049 40.8397 4.293C40.596 4.537 40.4741 4.842 40.4741 5.20494V13.449C40.4741 13.812 40.596 14.117 40.8397 14.361C41.0834 14.605 41.3881 14.727 41.7506 14.727V14.73Z" fill="#1348BA"/>
<path id="Vector_6" d="M60.8005 12.0461C61.288 11.2195 61.5347 10.3106 61.5347 9.31937C61.5347 8.32813 61.291 7.41923 60.8005 6.60184C60.31 5.78444 59.6459 5.1348 58.799 4.64985C57.952 4.16795 57.029 3.927 56.0236 3.927C55.0183 3.927 54.0921 4.1649 53.2482 4.6407C52.4013 5.1165 51.7402 5.76614 51.2589 6.59269C50.7775 7.41923 50.5369 8.32813 50.5369 9.31937C50.5369 10.3106 50.7775 11.2226 51.2589 12.0461C51.7402 12.8726 52.4013 13.5253 53.2391 14.0072C54.0769 14.4891 55.0061 14.73 56.0267 14.73C57.0472 14.73 57.9581 14.4891 58.802 14.0072C59.6459 13.5253 60.3131 12.8696 60.8036 12.0461H60.8005ZM58.5674 10.9023C58.3085 11.372 57.9612 11.738 57.5194 12.0034C57.0807 12.2687 56.5811 12.4029 56.0206 12.4029C55.46 12.4029 54.9573 12.2748 54.5125 12.0156C54.0647 11.7563 53.7174 11.3934 53.4645 10.9237C53.2117 10.454 53.0868 9.92632 53.0868 9.34072C53.0868 8.75512 53.2147 8.22138 53.4737 7.74558C53.7326 7.26978 54.086 6.90074 54.5308 6.63234C54.9787 6.36699 55.4813 6.23279 56.0388 6.23279C56.5964 6.23279 57.0747 6.37004 57.5164 6.64149C57.9581 6.91293 58.3054 7.28503 58.5644 7.75473C58.8233 8.22443 58.9513 8.75207 58.9513 9.33767C58.9513 9.92327 58.8233 10.4326 58.5644 10.8993L58.5674 10.9023Z" fill="#1348BA"/>
<path id="Vector_7" d="M72.0846 12.9794C72.3984 12.4975 72.5568 11.9546 72.5568 11.3537C72.5568 10.6553 72.3374 10.0788 71.8957 9.62133C71.6185 9.33768 71.2742 9.11503 70.8751 8.94118C71.0579 8.78868 71.2163 8.61484 71.3504 8.41354C71.6215 8.00789 71.7586 7.54734 71.7586 7.02884C71.7586 6.1474 71.4265 5.44895 70.7624 4.93046C70.0983 4.41196 69.2422 4.15271 68.1942 4.15271H64.8187C64.4562 4.15271 64.1485 4.27471 63.8956 4.51871C63.6427 4.76271 63.5178 5.0738 63.5178 5.452V13.2142C63.5178 13.5772 63.6427 13.8822 63.8956 14.1262C64.1485 14.3702 64.4531 14.4922 64.8187 14.4922H68.8431C69.5682 14.4922 70.211 14.358 70.7715 14.0926C71.329 13.8273 71.7678 13.4521 72.0815 12.9702L72.0846 12.9794ZM65.955 6.10775H68.0937C68.5415 6.10775 68.8766 6.1962 69.099 6.37005C69.3214 6.5439 69.4341 6.8062 69.4341 7.15694C69.4341 7.50769 69.3184 7.77609 69.0899 7.96519C68.8614 8.15429 68.5263 8.24884 68.0937 8.24884H65.955V6.10775ZM69.7784 12.223C69.492 12.4548 69.096 12.5676 68.5933 12.5676H65.952V10.0697H68.5933C69.096 10.0697 69.492 10.1795 69.7784 10.396C70.0648 10.6126 70.2079 10.9115 70.2079 11.2866C70.2079 11.6618 70.0648 11.9881 69.7784 12.2199V12.223Z" fill="#1348BA"/>
<path id="Vector_8" d="M83.8715 11.982C83.8715 11.674 83.7618 11.4086 83.5455 11.186C83.3292 10.9633 83.0672 10.8505 82.7595 10.8505C82.5767 10.8505 82.4214 10.881 82.2873 10.945C82.1533 11.0091 82.0192 11.1097 81.8791 11.25C81.5592 11.613 81.2028 11.8997 80.8098 12.1101C80.4198 12.3206 79.9842 12.4243 79.5119 12.4243C78.9392 12.4243 78.4304 12.2901 77.9826 12.0247C77.5348 11.7594 77.1814 11.3934 76.9255 10.9237C76.6665 10.454 76.5386 9.92022 76.5386 9.31937C76.5386 8.71853 76.6665 8.20308 76.9255 7.73643C77.1844 7.26673 77.5378 6.90074 77.9826 6.63539C78.4304 6.37004 78.9392 6.23584 79.5119 6.23584C79.9994 6.23584 80.4411 6.33954 80.8311 6.54999C81.221 6.76044 81.5714 7.04714 81.8791 7.41008C82.1015 7.67543 82.397 7.80963 82.7595 7.80963C83.0672 7.80963 83.3292 7.69678 83.5455 7.47413C83.7618 7.25149 83.8715 6.98614 83.8715 6.67809C83.8715 6.46764 83.7953 6.24499 83.64 6.00709C83.2348 5.3788 82.659 4.87555 81.9126 4.49735C81.1662 4.11915 80.3589 3.93005 79.4937 3.93005C78.4731 3.93005 77.5409 4.171 76.697 4.6529C75.8501 5.1348 75.189 5.78444 74.7076 6.60489C74.2263 7.42228 73.9856 8.32813 73.9856 9.32242C73.9856 10.3167 74.2263 11.2287 74.7076 12.0613C75.189 12.894 75.8531 13.5466 76.697 14.0224C77.5409 14.4982 78.4731 14.7361 79.4937 14.7361C80.3863 14.7361 81.1967 14.5501 81.9248 14.181C82.6498 13.812 83.2378 13.2966 83.6857 12.6378C83.8106 12.4273 83.8745 12.2108 83.8745 11.9881L83.8715 11.982Z" fill="#1348BA"/>
<path id="Vector_9" d="M87.0553 14.73C87.4056 14.73 87.6981 14.608 87.9357 14.364C88.1734 14.12 88.2922 13.815 88.2922 13.4521V5.20494C88.2922 4.842 88.1734 4.537 87.9357 4.293C87.6981 4.049 87.4056 3.927 87.0553 3.927C86.7049 3.927 86.3881 4.049 86.1444 4.293C85.9007 4.537 85.7788 4.842 85.7788 5.20494V13.449C85.7788 13.812 85.9007 14.117 86.1444 14.361C86.3881 14.605 86.6928 14.727 87.0553 14.727V14.73Z" fill="#1348BA"/>
<path id="Vector_10" d="M91.5367 9.31327L94.4948 5.93999C94.7324 5.67464 94.8512 5.38794 94.8512 5.0799C94.8512 4.77185 94.7385 4.48515 94.5161 4.2625C94.2937 4.03985 94.0135 3.927 93.6783 3.927C93.3158 3.927 93.0203 4.05205 92.7979 4.3052L89.2365 8.41658C89.0842 8.59958 88.9715 8.75818 88.9014 8.89847C88.8314 9.03877 88.7979 9.17907 88.7979 9.31937C88.7979 9.47187 88.8253 9.62437 88.8832 9.77077C88.938 9.91717 89.0355 10.0697 89.1756 10.2222L92.9472 14.3549C93.1848 14.608 93.4773 14.7331 93.8276 14.7331C94.1475 14.7331 94.4247 14.6202 94.6563 14.3976C94.8878 14.1749 95.0036 13.9004 95.0036 13.5802C95.0036 13.2599 94.9061 13.0068 94.7111 12.7842L91.5428 9.31632L91.5367 9.31327Z" fill="#1348BA"/>
<path id="Vector_11" d="M100.74 3.927C99.9847 3.927 99.284 4.04595 98.635 4.28385C97.9861 4.52175 97.4378 4.85725 96.9899 5.29034C96.6548 5.61364 96.4873 5.95524 96.4873 6.31819C96.4873 6.59879 96.5909 6.83974 96.8011 7.04103C97.0113 7.24538 97.2611 7.34603 97.5566 7.34603C97.6967 7.34603 97.8247 7.32163 97.9435 7.27283C98.0623 7.22403 98.1994 7.13558 98.3517 7.01053C98.6716 6.71774 99.0128 6.50119 99.3693 6.36089C99.7257 6.22059 100.107 6.15044 100.512 6.15044C101.167 6.15044 101.678 6.32429 102.041 6.67504C102.404 7.02578 102.586 7.52293 102.586 8.16343V8.70938H99.8201C98.632 8.70938 97.6937 8.97777 97.0021 9.51762C96.3106 10.0575 95.9663 10.7864 95.9663 11.7106C95.9663 12.6347 96.2984 13.3514 96.9625 13.9035C97.6267 14.4555 98.4888 14.7331 99.552 14.7331C100.308 14.7331 100.981 14.5928 101.575 14.3122C101.983 14.12 102.337 13.8669 102.641 13.5649C102.659 13.876 102.772 14.1444 102.989 14.3671C103.226 14.6111 103.528 14.7331 103.89 14.7331C104.253 14.7331 104.53 14.6141 104.759 14.3762C104.99 14.1383 105.106 13.8364 105.106 13.4734V8.29153C105.106 6.90683 104.722 5.83324 103.954 5.07075C103.187 4.30825 102.117 3.927 100.749 3.927H100.74ZM102.26 11.7533C102.044 12.0888 101.752 12.3541 101.38 12.5493C101.008 12.7445 100.6 12.8421 100.155 12.8421C99.6526 12.8421 99.2535 12.7354 98.961 12.5158C98.6686 12.2992 98.5223 11.9942 98.5223 11.6038C98.5223 11.2134 98.6594 10.9389 98.9306 10.7437C99.2017 10.5485 99.613 10.4509 100.155 10.4509H102.586V10.6187C102.586 11.0396 102.477 11.4147 102.26 11.7502V11.7533Z" fill="#1348BA"/>
<path id="Vector_12" d="M115.628 4.52481C115.385 4.28081 115.074 4.15881 114.696 4.15881H111.449C110.206 4.15881 109.215 4.47601 108.484 5.11346C107.75 5.7509 107.385 6.5988 107.385 7.66324C107.385 8.72769 107.762 9.58778 108.515 10.2008C108.783 10.4204 109.081 10.5973 109.41 10.7407L107.93 12.5737C107.79 12.7415 107.686 12.897 107.616 13.0343C107.546 13.1746 107.512 13.3271 107.512 13.4948C107.512 13.8303 107.634 14.1201 107.878 14.3641C108.122 14.6081 108.42 14.7301 108.768 14.7301C109.158 14.7301 109.474 14.5837 109.712 14.2909L112.183 11.1646H113.484V13.4521C113.484 13.8151 113.602 14.1201 113.84 14.3641C114.078 14.6081 114.379 14.7301 114.742 14.7301C115.104 14.7301 115.406 14.6081 115.644 14.3641C115.881 14.1201 116 13.8151 116 13.4521V5.45811C116 5.07991 115.878 4.76881 115.634 4.52481H115.628ZM113.481 9.10894H111.573C111.071 9.10894 110.672 8.98084 110.379 8.72159C110.087 8.46234 109.941 8.11769 109.941 7.68154C109.941 7.2454 110.087 6.91295 110.379 6.67505C110.672 6.43715 111.065 6.3182 111.552 6.3182H113.481V9.10894Z" fill="#1348BA"/>
<path id="Vector_13" d="M8.9855 24.7767C8.22388 24.3161 7.38304 24.0843 6.45995 24.0843C5.39673 24.0843 4.49801 24.3649 3.75771 24.9231C3.3769 25.2098 3.05092 25.5453 2.77674 25.9204C2.79806 24.8773 2.92297 24.0538 3.16059 23.4561C3.41955 22.8003 3.87652 22.294 4.53456 21.9463C5.18956 21.5956 6.12788 21.3516 7.34344 21.2113C7.93141 21.1411 8.43104 21.0649 8.84232 20.9795C9.25359 20.8941 9.67097 20.7904 10.0883 20.6653C10.396 20.5799 10.6306 20.4488 10.789 20.2658C10.9505 20.0828 11.0297 19.8388 11.0297 19.5307C11.0297 19.2227 10.917 18.9787 10.6946 18.756C10.4722 18.5334 10.2041 18.4205 9.89945 18.4205C9.78673 18.4205 9.58566 18.448 9.29015 18.5029L8.89106 18.6066C8.49806 18.7042 7.91313 18.8231 7.13018 18.9634C5.49421 19.2013 4.19336 19.607 3.22152 20.1804C2.24969 20.7538 1.54595 21.5712 1.10421 22.6356C0.665509 23.7001 0.443115 25.0908 0.443115 26.811V28.4275C0.443115 29.6719 0.677697 30.7516 1.14381 31.6697C1.61297 32.5847 2.26188 33.2861 3.09357 33.768C3.92526 34.2499 4.86968 34.4909 5.93291 34.4909C6.99614 34.4909 7.91923 34.2591 8.75092 33.7985C9.58262 33.338 10.2285 32.7128 10.6885 31.9198C11.1485 31.1298 11.3801 30.2514 11.3801 29.2876C11.3801 28.3238 11.1698 27.4637 10.7525 26.6646C10.3321 25.8686 9.74408 25.2372 8.98246 24.7767H8.9855ZM8.41885 30.7669C8.1599 31.2061 7.80956 31.5568 7.37086 31.8161C6.93216 32.0753 6.44472 32.2034 5.91463 32.2034C5.38454 32.2034 4.89405 32.0753 4.44622 31.8161C3.99838 31.5568 3.64499 31.2091 3.38908 30.7669C3.13013 30.3277 3.00217 29.8336 3.00217 29.2876C3.00217 28.7417 3.13013 28.2659 3.38908 27.8175C3.64803 27.3692 3.99838 27.0215 4.44622 26.7683C4.89405 26.5152 5.3815 26.3901 5.91463 26.3901C6.44777 26.3901 6.93216 26.5152 7.37086 26.7683C7.80956 27.0215 8.1599 27.3692 8.41885 27.8175C8.67781 28.2659 8.80576 28.7539 8.80576 29.2876C8.80576 29.8214 8.67781 30.3246 8.41885 30.7669Z" fill="#1348BA"/>
<path id="Vector_14" d="M20.9948 24.4321C20.1479 23.9502 19.2248 23.7092 18.2194 23.7092C17.2141 23.7092 16.2879 23.9471 15.4441 24.4229C14.5971 24.8987 13.936 25.5484 13.4547 26.3749C12.9733 27.2015 12.7327 28.1104 12.7327 29.1016C12.7327 30.0928 12.9733 31.0048 13.4547 31.8283C13.936 32.6548 14.5971 33.3075 15.4349 33.7894C16.2727 34.2713 17.2019 34.5123 18.2225 34.5123C19.243 34.5123 20.1539 34.2713 20.9978 33.7894C21.8417 33.3075 22.5089 32.6518 22.9994 31.8283C23.4868 31.0017 23.7336 30.0928 23.7336 29.1016C23.7336 28.1104 23.4899 27.2015 22.9994 26.3841C22.5089 25.5667 21.8447 24.917 20.9978 24.4321H20.9948ZM20.7632 30.6845C20.5043 31.1542 20.157 31.5202 19.7152 31.7856C19.2765 32.0509 18.7769 32.1851 18.2164 32.1851C17.6558 32.1851 17.1531 32.057 16.7084 31.7978C16.2605 31.5385 15.9132 31.1756 15.6604 30.7059C15.4075 30.2362 15.2826 29.7085 15.2826 29.1229C15.2826 28.5374 15.4105 28.0036 15.6695 27.5278C15.9284 27.052 16.2818 26.683 16.7266 26.4146C17.1745 26.1492 17.6771 26.015 18.2347 26.015C18.7922 26.015 19.2705 26.1523 19.7122 26.4237C20.1539 26.6952 20.5012 27.0673 20.7602 27.537C21.0191 28.0067 21.1471 28.5343 21.1471 29.1199C21.1471 29.7055 21.0191 30.2148 20.7602 30.6815L20.7632 30.6845Z" fill="#1348BA"/>
<path id="Vector_15" d="M33.199 23.938H27.8555C27.4929 23.938 27.1883 24.06 26.9446 24.304C26.7008 24.548 26.579 24.8591 26.579 25.2373C26.5637 25.6429 26.5516 26.0547 26.5363 26.4756C26.5211 27.7627 26.4632 28.821 26.3596 29.6537C26.2561 30.4863 26.0946 31.1146 25.8783 31.5416C25.662 31.9686 25.3726 32.1943 25.01 32.2248C24.9247 32.2248 24.8364 32.2522 24.7389 32.3102C24.5165 32.3529 24.3307 32.4688 24.1844 32.6548C24.0382 32.8409 23.9651 33.0635 23.9651 33.3167C23.9651 33.582 24.0412 33.8138 24.1966 34.009C24.3489 34.2042 24.5531 34.3232 24.8059 34.3659C24.9735 34.4208 25.1624 34.4482 25.3726 34.4482C26.2104 34.4482 26.8836 34.1829 27.3954 33.6522C27.9042 33.1215 28.282 32.301 28.5257 31.1969C28.7694 30.0929 28.9065 28.6319 28.9339 26.8111V26.0974H31.9926V33.2313C31.9926 33.5942 32.1114 33.8992 32.3491 34.1432C32.5867 34.3872 32.8883 34.5092 33.2508 34.5092C33.6133 34.5092 33.8936 34.3872 34.1313 34.1432C34.3689 33.8992 34.4877 33.5942 34.4877 33.2313V25.2373C34.4877 24.8591 34.3658 24.548 34.1221 24.304C33.8784 24.06 33.5738 23.938 33.2112 23.938H33.199Z" fill="#1348BA"/>
<path id="Vector_16" d="M43.8253 27.5065C43.1978 27.2137 42.4757 27.0673 41.6684 27.0673H39.6364V24.9902C39.6364 24.6273 39.5176 24.3223 39.28 24.0783C39.0423 23.8343 38.7499 23.7123 38.3995 23.7123C38.0492 23.7123 37.7323 23.8343 37.4886 24.0783C37.2449 24.3223 37.123 24.6273 37.123 24.9902V33.0056C37.123 33.3685 37.248 33.6735 37.5008 33.9175C37.7537 34.1615 38.0583 34.2835 38.4239 34.2835H41.6715C42.4818 34.2835 43.2008 34.1402 43.8284 33.8535C44.456 33.5668 44.9525 33.1489 45.3151 32.5938C45.6776 32.0418 45.8604 31.4013 45.8604 30.6754C45.8604 29.9495 45.6776 29.2937 45.3151 28.7569C44.9525 28.2202 44.456 27.8023 43.8284 27.5095L43.8253 27.5065ZM42.8291 31.7459C42.5275 31.9991 42.1132 32.1241 41.5831 32.1241H39.6334V29.2297H41.5618C42.0919 29.2297 42.5123 29.3578 42.82 29.617C43.1277 29.8763 43.28 30.2362 43.28 30.6967C43.28 31.1573 43.1307 31.4928 42.8291 31.7459Z" fill="#1348BA"/>
<path id="Vector_17" d="M55.7493 23.7092C55.3867 23.7092 55.0851 23.8312 54.8475 24.0752C54.6099 24.3192 54.4911 24.6242 54.4911 24.9872V27.7993H50.3417V24.9872C50.3417 24.6242 50.226 24.3192 49.9944 24.0752C49.7629 23.8312 49.4674 23.7092 49.1049 23.7092C48.7423 23.7092 48.4377 23.8312 48.194 24.0752C47.9502 24.3192 47.8284 24.6242 47.8284 24.9872V33.2313C47.8284 33.5942 47.9502 33.8992 48.194 34.1432C48.4377 34.3872 48.7423 34.5092 49.1049 34.5092C49.4674 34.5092 49.7659 34.3872 49.9944 34.1432C50.2229 33.8992 50.3417 33.5942 50.3417 33.2313V29.9586H54.4911V33.2313C54.4911 33.5942 54.6099 33.8992 54.8475 34.1432C55.0851 34.3872 55.3837 34.5092 55.7493 34.5092C56.1149 34.5092 56.4104 34.3872 56.6389 34.1432C56.8673 33.8992 56.9831 33.5942 56.9831 33.2313V24.9872C56.9831 24.6242 56.8673 24.3192 56.6389 24.0752C56.4073 23.8312 56.1118 23.7092 55.7493 23.7092Z" fill="#1348BA"/>
<path id="Vector_18" d="M67.6734 23.7092C67.2256 23.7092 66.8417 23.9197 66.5218 24.3375L62.1623 30.1965V24.9872C62.1623 24.6242 62.0435 24.3192 61.8058 24.0752C61.5682 23.8312 61.2758 23.7092 60.9254 23.7092C60.5751 23.7092 60.2582 23.8312 60.0145 24.0752C59.7708 24.3192 59.6489 24.6242 59.6489 24.9872V33.2313C59.6489 33.5942 59.7708 33.8992 60.0145 34.1432C60.2582 34.3872 60.5568 34.5092 60.9041 34.5092C61.3367 34.5092 61.7144 34.3049 62.0343 33.8992L66.3939 28.1744V33.2282C66.3939 33.5912 66.5157 33.8962 66.7595 34.1402C67.0032 34.3842 67.3017 34.5062 67.649 34.5062C67.9963 34.5062 68.3132 34.3842 68.5508 34.1402C68.7884 33.8962 68.9072 33.5912 68.9072 33.2282V24.9841C68.9072 24.6212 68.7884 24.3162 68.5508 24.0722C68.3132 23.8282 68.0207 23.7062 67.6704 23.7062L67.6734 23.7092Z" fill="#1348BA"/>
<path id="Vector_19" d="M80.9165 32.1211L80.4961 32.2675V24.9872C80.4961 24.6242 80.3803 24.3192 80.1488 24.0752C79.9172 23.8312 79.6217 23.7092 79.2592 23.7092C78.8967 23.7092 78.5951 23.8312 78.3574 24.0752C78.1198 24.3192 78.001 24.6242 78.001 24.9872V32.1211H74.0832V24.9872C74.0832 24.6242 73.9644 24.3192 73.7268 24.0752C73.4891 23.8312 73.1967 23.7092 72.8463 23.7092C72.496 23.7092 72.1791 23.8312 71.9354 24.0752C71.6917 24.3192 71.5698 24.6242 71.5698 24.9872V33.0025C71.5698 33.3655 71.6947 33.6705 71.9476 33.9145C72.2005 34.1585 72.5051 34.2805 72.8707 34.2805H79.7862V36.3362C79.7862 36.6869 79.902 36.9797 80.1305 37.2176C80.362 37.4555 80.6514 37.5744 80.9987 37.5744C81.346 37.5744 81.6355 37.4555 81.8579 37.2176C82.0803 36.9797 82.193 36.6869 82.193 36.3362V33.4204C82.193 33.0422 82.0711 32.7311 81.8274 32.4871C81.5837 32.2431 81.279 32.1211 80.9165 32.1211Z" fill="#1348BA"/>
<path id="Vector_20" d="M88.1245 23.7092C87.3689 23.7092 86.6682 23.8282 86.0193 24.0661C85.3704 24.304 84.822 24.6395 84.3742 25.0726C84.0391 25.3959 83.8715 25.7375 83.8715 26.1004C83.8715 26.381 83.9751 26.622 84.1853 26.8233C84.3955 27.0276 84.6453 27.1283 84.9409 27.1283C85.081 27.1283 85.2089 27.1039 85.3278 27.0551C85.4466 27.0063 85.5837 26.9178 85.736 26.7928C86.0559 26.5 86.3971 26.2834 86.7535 26.1431C87.11 26.0028 87.4908 25.9327 87.896 25.9327C88.551 25.9327 89.0628 26.1065 89.4253 26.4573C89.7878 26.808 89.9706 27.3052 89.9706 27.9457V28.4916H87.2044C86.0163 28.4916 85.078 28.76 84.3864 29.2998C83.6948 29.8397 83.3506 30.5686 83.3506 31.4928C83.3506 32.4169 83.6827 33.1337 84.3468 33.6857C85.0109 34.2378 85.8731 34.5153 86.9363 34.5153C87.6918 34.5153 88.3651 34.375 88.9592 34.0944C89.3674 33.9023 89.7208 33.6491 90.0255 33.3472C90.0438 33.6583 90.1565 33.9267 90.3728 34.1493C90.6104 34.3933 90.912 34.5153 91.2745 34.5153C91.6371 34.5153 91.9143 34.3964 92.1428 34.1585C92.3743 33.9206 92.4901 33.6186 92.4901 33.2557V28.0738C92.4901 26.6891 92.1062 25.6155 91.3385 24.853C90.5708 24.0905 89.5015 23.7092 88.1336 23.7092H88.1245ZM89.6447 31.5355C89.4284 31.871 89.1359 32.1363 88.7642 32.3315C88.3925 32.5267 87.9843 32.6243 87.5395 32.6243C87.0369 32.6243 86.6378 32.5176 86.3453 32.298C86.0528 32.0814 85.9066 31.7764 85.9066 31.386C85.9066 30.9956 86.0437 30.7211 86.3148 30.5259C86.586 30.3307 86.9972 30.2331 87.5395 30.2331H89.9706V30.4009C89.9706 30.8218 89.861 31.1969 89.6447 31.5324V31.5355Z" fill="#1348BA"/>
</g>
</svg>
