<svg width="54" height="35" viewBox="0 0 54 35" fill="none" xmlns="http://www.w3.org/2000/svg">
<g id="Group 1">
<path id="Vector" d="M21.4025 27.8407H13.2816C12.4792 27.8407 12.1114 26.8366 12.7254 26.3193L15.6248 23.8669C18.506 21.454 20.5393 19.2906 21.7277 17.3798C22.916 15.4689 23.5117 13.4242 23.5117 11.2426C23.5117 9.06093 23.0254 7.31136 22.0559 5.6835C21.0833 4.05868 19.7369 2.77465 18.0106 1.83444C16.2843 0.897283 14.3331 0.425659 12.157 0.425659C10.2149 0.425659 8.40659 0.821214 6.73196 1.60624C5.05733 2.39431 3.68358 3.46839 2.61376 4.82545C1.5409 6.18251 0.854032 7.7343 0.553145 9.47779C0.385986 10.418 0.352554 11.2547 0.452849 11.9911C0.519713 12.9982 0.863149 13.8015 1.48316 14.404C2.10317 15.0064 2.88122 15.3107 3.82035 15.3107C4.75948 15.3107 5.47978 15.0429 6.08156 14.5074C6.68333 13.9719 7.05108 13.2508 7.18785 12.344L7.28814 11.7416C7.32157 11.4738 7.355 11.1878 7.38844 10.8866C7.48873 10.0164 7.74707 9.26784 8.16649 8.64712C8.5859 8.0264 9.1117 7.54869 9.74994 7.21399C10.3851 6.87929 11.1237 6.71194 11.9595 6.71194C13.3332 6.71194 14.4365 7.15618 15.2753 8.04466C16.1111 8.93314 16.5305 10.1168 16.5305 11.5894C16.5305 12.9313 16.1628 14.1788 15.4242 15.335C14.6857 16.4913 13.397 17.8757 11.5553 19.4853L1.40718 28.0932C0.468046 28.8661 0 29.8032 0 30.9108C0 31.8175 0.325201 32.6056 0.978641 33.275C1.63208 33.9474 2.42837 34.2821 3.36446 34.2821L21.3994 34.2304C22.372 34.2304 23.1652 33.9292 23.7852 33.3237C24.4052 32.7212 24.7152 31.9484 24.7152 31.0112C24.7152 30.074 24.4052 29.3529 23.7852 28.7474C23.1652 28.1449 22.3689 27.8407 21.3994 27.8407H21.4025Z" fill="#1348BA"/>
<path id="Vector_2" d="M37.9876 27.077H34.5046C33.532 27.077 32.754 26.7666 32.1674 26.1459C31.5808 25.5252 31.2891 24.798 31.2891 23.9582C31.2891 23.1214 31.5839 22.382 32.1674 21.7461C32.754 21.1102 33.532 20.7907 34.5046 20.7907H37.9876C38.4648 20.7907 38.8477 20.4043 38.8477 19.9296V16.4031C38.8477 15.4324 39.1729 14.617 39.8263 13.9628C40.4798 13.3086 41.2761 12.983 42.2122 12.983C43.1482 12.983 43.9962 13.3086 44.6496 13.9628C45.3031 14.617 45.6283 15.4294 45.6283 16.4031V19.9296C45.6283 20.4073 46.0143 20.7907 46.4884 20.7907H49.9714C50.9439 20.7907 51.722 21.1102 52.3086 21.7461C52.8951 22.382 53.1869 23.1214 53.1869 23.9582C53.1869 24.7949 52.8921 25.5252 52.3086 26.1459C51.722 26.7666 50.9439 27.077 49.9714 27.077H46.4884C46.0112 27.077 45.6283 27.4634 45.6283 27.9381V31.5102C45.6283 32.4839 45.3031 33.3054 44.6496 33.9748C43.9962 34.6442 43.1847 34.982 42.2122 34.982C41.3429 34.982 40.5162 34.6534 39.8932 34.0448C39.1942 33.3633 38.8447 32.5174 38.8447 31.5133V27.9411C38.8447 27.4634 38.4587 27.08 37.9846 27.08L37.9876 27.077Z" fill="#E30613"/>
<path id="Vector_3" d="M29.2803 22.811L37.8419 5.05671C38.009 4.65507 38.0941 4.25342 38.0941 3.84874C38.0941 2.91158 37.7598 2.10526 37.0881 1.43586C36.4164 0.766454 35.6141 0.428711 34.678 0.428711C33.9759 0.428711 33.3468 0.638659 32.7937 1.05856C32.2405 1.47845 31.815 2.00485 31.5141 2.64382L22.2201 22.099C22.0195 22.6011 21.9192 23.0879 21.9192 23.5565C21.9192 24.4632 22.2535 25.2513 22.9252 25.9207C23.5938 26.5932 24.381 26.9279 25.2867 26.9279H29.4231C29.7666 26.9279 30.0127 26.5171 29.7848 26.2615C29.2013 25.6043 28.7332 24.0099 29.2894 22.811H29.2803Z" fill="#1348BA"/>
</g>
</svg>
