<svg width="176" height="38" viewBox="0 0 176 38" fill="none" xmlns="http://www.w3.org/2000/svg">
<path d="M73.9635 14.364C74.2012 14.12 74.32 13.815 74.32 13.4521V1.72489C74.32 1.34669 74.2042 1.03559 73.9757 0.791596C73.7442 0.547597 73.4548 0.425598 73.1075 0.425598C72.8272 0.425598 72.5896 0.498798 72.3946 0.645197C72.1996 0.791596 71.9833 1.04779 71.7457 1.41074L67.6603 7.87061L63.575 1.41074C63.3526 1.04779 63.1393 0.791596 62.9352 0.645197C62.7311 0.498798 62.4996 0.425598 62.2345 0.425598C61.872 0.425598 61.5734 0.547597 61.3449 0.791596C61.1134 1.03559 61.0007 1.34669 61.0007 1.72489V13.4521C61.0007 13.815 61.1195 14.12 61.3571 14.364C61.5947 14.608 61.8933 14.73 62.2589 14.73C62.6245 14.73 62.923 14.608 63.1606 14.364C63.3983 14.12 63.5171 13.815 63.5171 13.4521V5.77832L66.4509 10.4112C66.6337 10.6918 66.8164 10.8962 67.0053 11.0304C67.1942 11.1646 67.4136 11.2286 67.6664 11.2286C67.9193 11.2286 68.1417 11.1615 68.3366 11.0304C68.5316 10.8962 68.7144 10.6918 68.882 10.4112L71.8158 5.77832V13.4521C71.8158 13.815 71.9346 14.12 72.1722 14.364C72.4098 14.608 72.7084 14.73 73.074 14.73C73.4395 14.73 73.7381 14.608 73.9757 14.364H73.9635Z" fill="#1348BA"/>
<path d="M79.036 14.0072C79.8738 14.4891 80.803 14.73 81.8235 14.73C82.8441 14.73 83.755 14.4891 84.5989 14.0072C85.4428 13.5253 86.11 12.8696 86.6005 12.0461C87.0879 11.2195 87.3347 10.3106 87.3347 9.31937C87.3347 8.32813 87.0909 7.41923 86.6005 6.60184C86.11 5.78444 85.4458 5.1348 84.5989 4.64985C83.752 4.16795 82.8289 3.927 81.8235 3.927C80.8182 3.927 79.8921 4.1649 79.0482 4.6407C78.2012 5.1165 77.5402 5.76614 77.0588 6.59269C76.5775 7.41923 76.3368 8.32813 76.3368 9.31937C76.3368 10.3106 76.5775 11.2226 77.0588 12.0461C77.5402 12.8726 78.2012 13.5253 79.039 14.0072H79.036ZM79.2767 7.74558C79.5356 7.26978 79.889 6.90074 80.3338 6.63234C80.7816 6.36699 81.2843 6.23279 81.8418 6.23279C82.3993 6.23279 82.8776 6.37004 83.3194 6.64149C83.7611 6.91294 84.1084 7.28503 84.3674 7.75473C84.6263 8.22443 84.7543 8.75207 84.7543 9.33767C84.7543 9.92327 84.6263 10.4326 84.3674 10.8993C84.1084 11.369 83.7611 11.735 83.3194 12.0003C82.8807 12.2657 82.381 12.3999 81.8205 12.3999C81.2599 12.3999 80.7573 12.2718 80.3125 12.0125C79.8646 11.7533 79.5173 11.3903 79.2645 10.9206C79.0116 10.4509 78.8867 9.92327 78.8867 9.33767C78.8867 8.75207 79.0147 8.21833 79.2736 7.74253L79.2767 7.74558Z" fill="#1348BA"/>
<path d="M98.3752 12.6317C98.5001 12.4212 98.5641 12.2047 98.5641 11.982C98.5641 11.674 98.4544 11.4086 98.2381 11.186C98.0218 10.9633 97.7598 10.8505 97.4521 10.8505C97.2693 10.8505 97.1139 10.881 96.9799 10.945C96.8458 11.0091 96.7118 11.1097 96.5716 11.25C96.2518 11.613 95.8953 11.8997 95.5023 12.1101C95.1124 12.3206 94.6767 12.4243 94.2045 12.4243C93.6318 12.4243 93.123 12.2901 92.6752 12.0247C92.2273 11.7594 91.8739 11.3934 91.618 10.9237C91.3591 10.454 91.2311 9.92022 91.2311 9.31937C91.2311 8.71853 91.3591 8.20308 91.618 7.73643C91.877 7.26673 92.2304 6.90074 92.6752 6.63539C93.123 6.37004 93.6318 6.23584 94.2045 6.23584C94.6919 6.23584 95.1337 6.33954 95.5236 6.54999C95.9136 6.76044 96.264 7.04714 96.5716 7.41008C96.794 7.67543 97.0895 7.80963 97.4521 7.80963C97.7598 7.80963 98.0218 7.69678 98.2381 7.47413C98.4544 7.25149 98.5641 6.98614 98.5641 6.67809C98.5641 6.46764 98.4879 6.24499 98.3325 6.00709C97.9273 5.3788 97.3515 4.87555 96.6052 4.49735C95.8588 4.11915 95.0514 3.93005 94.1862 3.93005C93.1657 3.93005 92.2334 4.171 91.3895 4.6529C90.5426 5.1348 89.8815 5.78444 89.4002 6.60489C88.9188 7.42228 88.6782 8.32813 88.6782 9.32242C88.6782 10.3167 88.9188 11.2287 89.4002 12.0613C89.8815 12.894 90.5457 13.5466 91.3895 14.0224C92.2334 14.4982 93.1657 14.7361 94.1862 14.7361C95.0789 14.7361 95.8892 14.5501 96.6173 14.181C97.3424 13.812 97.9304 13.2966 98.3782 12.6378L98.3752 12.6317Z" fill="#1348BA"/>
<path d="M109.346 14.3945C109.577 14.1719 109.693 13.8974 109.693 13.5771C109.693 13.2569 109.595 13.0038 109.4 12.7811L106.232 9.31327L109.19 5.93999C109.428 5.67464 109.547 5.38794 109.547 5.0799C109.547 4.77185 109.434 4.48515 109.212 4.2625C108.989 4.03985 108.709 3.927 108.374 3.927C108.011 3.927 107.716 4.05205 107.493 4.3052L103.932 8.41658C103.78 8.59958 103.667 8.75817 103.597 8.89847C103.527 9.03877 103.493 9.17907 103.493 9.31937C103.493 9.47187 103.521 9.62437 103.579 9.77077C103.633 9.91717 103.731 10.0697 103.871 10.2222L107.643 14.3549C107.88 14.608 108.173 14.7331 108.523 14.7331C108.843 14.7331 109.12 14.6202 109.352 14.3976L109.346 14.3945Z" fill="#1348BA"/>
<path d="M101.751 14.73C102.101 14.73 102.393 14.608 102.631 14.364C102.869 14.12 102.988 13.815 102.988 13.4521V5.20494C102.988 4.842 102.869 4.537 102.631 4.293C102.393 4.049 102.101 3.927 101.751 3.927C101.4 3.927 101.083 4.049 100.84 4.293C100.596 4.537 100.474 4.842 100.474 5.20494V13.449C100.474 13.812 100.596 14.117 100.84 14.361C101.083 14.605 101.388 14.727 101.751 14.727V14.73Z" fill="#1348BA"/>
<path d="M120.8 12.0461C121.288 11.2195 121.535 10.3106 121.535 9.31937C121.535 8.32813 121.291 7.41923 120.8 6.60184C120.31 5.78444 119.646 5.1348 118.799 4.64985C117.952 4.16795 117.029 3.927 116.024 3.927C115.018 3.927 114.092 4.1649 113.248 4.6407C112.401 5.1165 111.74 5.76614 111.259 6.59269C110.777 7.41923 110.537 8.32813 110.537 9.31937C110.537 10.3106 110.777 11.2226 111.259 12.0461C111.74 12.8726 112.401 13.5253 113.239 14.0072C114.077 14.4891 115.006 14.73 116.027 14.73C117.047 14.73 117.958 14.4891 118.802 14.0072C119.646 13.5253 120.313 12.8696 120.804 12.0461H120.8ZM118.567 10.9023C118.308 11.372 117.961 11.738 117.519 12.0034C117.081 12.2687 116.581 12.4029 116.021 12.4029C115.46 12.4029 114.957 12.2748 114.512 12.0156C114.065 11.7563 113.717 11.3934 113.464 10.9237C113.212 10.454 113.087 9.92632 113.087 9.34072C113.087 8.75512 113.215 8.22138 113.474 7.74558C113.733 7.26978 114.086 6.90074 114.531 6.63234C114.979 6.36699 115.481 6.23279 116.039 6.23279C116.596 6.23279 117.075 6.37004 117.516 6.64149C117.958 6.91294 118.305 7.28503 118.564 7.75473C118.823 8.22443 118.951 8.75207 118.951 9.33767C118.951 9.92327 118.823 10.4326 118.564 10.8993L118.567 10.9023Z" fill="#1348BA"/>
<path d="M132.085 12.9793C132.398 12.4974 132.557 11.9545 132.557 11.3537C132.557 10.6552 132.338 10.0788 131.896 9.62127C131.619 9.33762 131.274 9.11497 130.875 8.94112C131.058 8.78862 131.216 8.61477 131.35 8.41348C131.622 8.00783 131.759 7.54728 131.759 7.02878C131.759 6.14734 131.427 5.44889 130.763 4.93039C130.098 4.4119 129.242 4.15265 128.194 4.15265H124.819C124.456 4.15265 124.149 4.27465 123.896 4.51865C123.643 4.76265 123.518 5.07374 123.518 5.45194V13.2141C123.518 13.5771 123.643 13.8821 123.896 14.1261C124.149 14.3701 124.453 14.4921 124.819 14.4921H128.843C129.568 14.4921 130.211 14.3579 130.772 14.0925C131.329 13.8272 131.768 13.452 132.082 12.9701L132.085 12.9793ZM125.955 6.10769H128.094C128.542 6.10769 128.877 6.19614 129.099 6.36999C129.322 6.54384 129.434 6.80613 129.434 7.15688C129.434 7.50763 129.318 7.77603 129.09 7.96513C128.862 8.15423 128.526 8.24878 128.094 8.24878H125.955V6.10769ZM129.779 12.2229C129.492 12.4547 129.096 12.5676 128.593 12.5676H125.952V10.0696H128.593C129.096 10.0696 129.492 10.1794 129.779 10.396C130.065 10.6125 130.208 10.9114 130.208 11.2866C130.208 11.6617 130.065 11.9881 129.779 12.2199V12.2229Z" fill="#1348BA"/>
<path d="M143.872 11.982C143.872 11.674 143.762 11.4086 143.546 11.186C143.329 10.9633 143.067 10.8505 142.76 10.8505C142.577 10.8505 142.421 10.881 142.287 10.945C142.153 11.0091 142.019 11.1097 141.879 11.25C141.559 11.613 141.203 11.8997 140.81 12.1101C140.42 12.3206 139.984 12.4243 139.512 12.4243C138.939 12.4243 138.431 12.2901 137.983 12.0247C137.535 11.7594 137.181 11.3934 136.926 10.9237C136.667 10.454 136.539 9.92022 136.539 9.31937C136.539 8.71853 136.667 8.20308 136.926 7.73643C137.185 7.26673 137.538 6.90074 137.983 6.63539C138.431 6.37004 138.939 6.23584 139.512 6.23584C140 6.23584 140.441 6.33954 140.831 6.54999C141.221 6.76044 141.572 7.04714 141.879 7.41008C142.102 7.67543 142.397 7.80963 142.76 7.80963C143.067 7.80963 143.329 7.69678 143.546 7.47413C143.762 7.25149 143.872 6.98614 143.872 6.67809C143.872 6.46764 143.795 6.24499 143.64 6.00709C143.235 5.3788 142.659 4.87555 141.913 4.49735C141.166 4.11915 140.359 3.93005 139.494 3.93005C138.473 3.93005 137.541 4.171 136.697 4.6529C135.85 5.1348 135.189 5.78444 134.708 6.60489C134.226 7.42228 133.986 8.32813 133.986 9.32242C133.986 10.3167 134.226 11.2287 134.708 12.0613C135.189 12.894 135.853 13.5466 136.697 14.0224C137.541 14.4982 138.473 14.7361 139.494 14.7361C140.386 14.7361 141.197 14.5501 141.925 14.181C142.65 13.812 143.238 13.2966 143.686 12.6378C143.811 12.4273 143.875 12.2108 143.875 11.9881L143.872 11.982Z" fill="#1348BA"/>
<path d="M147.055 14.73C147.406 14.73 147.698 14.608 147.936 14.364C148.173 14.12 148.292 13.815 148.292 13.4521V5.20494C148.292 4.842 148.173 4.537 147.936 4.293C147.698 4.049 147.406 3.927 147.055 3.927C146.705 3.927 146.388 4.049 146.144 4.293C145.901 4.537 145.779 4.842 145.779 5.20494V13.449C145.779 13.812 145.901 14.117 146.144 14.361C146.388 14.605 146.693 14.727 147.055 14.727V14.73Z" fill="#1348BA"/>
<path d="M151.537 9.31327L154.495 5.93999C154.732 5.67464 154.851 5.38794 154.851 5.0799C154.851 4.77185 154.738 4.48515 154.516 4.2625C154.294 4.03985 154.013 3.927 153.678 3.927C153.316 3.927 153.02 4.05205 152.798 4.3052L149.236 8.41658C149.084 8.59958 148.971 8.75817 148.901 8.89847C148.831 9.03877 148.798 9.17907 148.798 9.31937C148.798 9.47187 148.825 9.62437 148.883 9.77077C148.938 9.91717 149.035 10.0697 149.176 10.2222L152.947 14.3549C153.185 14.608 153.477 14.7331 153.828 14.7331C154.147 14.7331 154.425 14.6202 154.656 14.3976C154.888 14.1749 155.004 13.9004 155.004 13.5802C155.004 13.2599 154.906 13.0068 154.711 12.7842L151.543 9.31632L151.537 9.31327Z" fill="#1348BA"/>
<path d="M160.74 3.927C159.985 3.927 159.284 4.04595 158.635 4.28385C157.986 4.52175 157.438 4.85725 156.99 5.29034C156.655 5.61364 156.487 5.95524 156.487 6.31819C156.487 6.59879 156.591 6.83974 156.801 7.04103C157.011 7.24538 157.261 7.34603 157.556 7.34603C157.697 7.34603 157.825 7.32163 157.943 7.27283C158.062 7.22403 158.199 7.13558 158.352 7.01053C158.671 6.71774 159.013 6.50119 159.369 6.36089C159.726 6.22059 160.106 6.15044 160.512 6.15044C161.167 6.15044 161.678 6.32429 162.041 6.67504C162.403 7.02578 162.586 7.52293 162.586 8.16343V8.70937H159.82C158.632 8.70937 157.694 8.97777 157.002 9.51762C156.31 10.0575 155.966 10.7864 155.966 11.7106C155.966 12.6347 156.298 13.3514 156.962 13.9035C157.627 14.4555 158.489 14.7331 159.552 14.7331C160.307 14.7331 160.981 14.5928 161.575 14.3122C161.983 14.12 162.336 13.8669 162.641 13.5649C162.659 13.876 162.772 14.1444 162.988 14.3671C163.226 14.6111 163.528 14.7331 163.89 14.7331C164.253 14.7331 164.53 14.6141 164.758 14.3762C164.99 14.1383 165.106 13.8364 165.106 13.4734V8.29153C165.106 6.90684 164.722 5.83324 163.954 5.07075C163.186 4.30825 162.117 3.927 160.749 3.927H160.74ZM162.26 11.7533C162.044 12.0888 161.751 12.3541 161.38 12.5493C161.008 12.7445 160.6 12.8421 160.155 12.8421C159.652 12.8421 159.253 12.7354 158.961 12.5158C158.668 12.2992 158.522 11.9942 158.522 11.6038C158.522 11.2134 158.659 10.9389 158.93 10.7437C159.202 10.5485 159.613 10.4509 160.155 10.4509H162.586V10.6187C162.586 11.0396 162.477 11.4147 162.26 11.7502V11.7533Z" fill="#1348BA"/>
<path d="M175.628 4.52475C175.385 4.28075 175.074 4.15875 174.696 4.15875H171.449C170.206 4.15875 169.215 4.47595 168.484 5.1134C167.75 5.75084 167.384 6.59874 167.384 7.66318C167.384 8.72763 167.762 9.58772 168.515 10.2008C168.783 10.4204 169.081 10.5973 169.41 10.7406L167.93 12.5737C167.79 12.7414 167.686 12.897 167.616 13.0342C167.546 13.1745 167.512 13.327 167.512 13.4948C167.512 13.8302 167.634 14.12 167.878 14.364C168.122 14.608 168.42 14.73 168.768 14.73C169.158 14.73 169.474 14.5836 169.712 14.2908L172.183 11.1646H173.484V13.4521C173.484 13.815 173.602 14.12 173.84 14.364C174.078 14.608 174.379 14.73 174.742 14.73C175.104 14.73 175.406 14.608 175.644 14.364C175.881 14.12 176 13.815 176 13.4521V5.45805C176 5.07985 175.878 4.76875 175.634 4.52475H175.628ZM173.481 9.10887H171.573C171.071 9.10887 170.672 8.98077 170.379 8.72153C170.087 8.46228 169.941 8.11763 169.941 7.68148C169.941 7.24533 170.087 6.91289 170.379 6.67499C170.672 6.43709 171.065 6.31814 171.552 6.31814H173.481V9.10887Z" fill="#1348BA"/>
<path d="M68.9856 24.7767C68.2239 24.3161 67.3831 24.0843 66.46 24.0843C65.3968 24.0843 64.4981 24.3649 63.7578 24.9231C63.377 25.2098 63.051 25.5453 62.7768 25.9204C62.7981 24.8773 62.923 24.0538 63.1607 23.4561C63.4196 22.8003 63.8766 22.294 64.5346 21.9463C65.1896 21.5956 66.1279 21.3516 67.3435 21.2113C67.9315 21.1411 68.4311 21.0649 68.8424 20.9795C69.2537 20.8941 69.671 20.7904 70.0884 20.6653C70.3961 20.5799 70.6307 20.4488 70.7891 20.2658C70.9506 20.0828 71.0298 19.8388 71.0298 19.5307C71.0298 19.2227 70.917 18.9787 70.6947 18.756C70.4723 18.5334 70.2042 18.4205 69.8995 18.4205C69.7868 18.4205 69.5857 18.448 69.2902 18.5029L68.8911 18.6066C68.4981 18.7042 67.9132 18.8231 67.1302 18.9634C65.4943 19.2013 64.1934 19.607 63.2216 20.1804C62.2497 20.7538 61.546 21.5712 61.1043 22.6356C60.6656 23.7001 60.4432 25.0908 60.4432 26.811V28.4275C60.4432 29.6719 60.6778 30.7516 61.1439 31.6697C61.613 32.5847 62.2619 33.2861 63.0936 33.768C63.9253 34.2499 64.8697 34.4909 65.933 34.4909C66.9962 34.4909 67.9193 34.2591 68.751 33.7985C69.5827 33.338 70.2285 32.7128 70.6886 31.9198C71.1486 31.1298 71.3801 30.2514 71.3801 29.2876C71.3801 28.3238 71.1699 27.4637 70.7525 26.6646C70.3321 25.8686 69.7441 25.2372 68.9825 24.7767H68.9856ZM68.4189 30.7669C68.16 31.2061 67.8096 31.5568 67.3709 31.8161C66.9322 32.0753 66.4448 32.2034 65.9147 32.2034C65.3846 32.2034 64.8941 32.0753 64.4463 31.8161C63.9984 31.5568 63.645 31.2091 63.3891 30.7669C63.1302 30.3277 63.0022 29.8336 63.0022 29.2876C63.0022 28.7417 63.1302 28.2659 63.3891 27.8175C63.6481 27.3692 63.9984 27.0215 64.4463 26.7683C64.8941 26.5152 65.3816 26.3901 65.9147 26.3901C66.4478 26.3901 66.9322 26.5152 67.3709 26.7683C67.8096 27.0215 68.16 27.3692 68.4189 27.8175C68.6779 28.2659 68.8058 28.7539 68.8058 29.2876C68.8058 29.8214 68.6779 30.3246 68.4189 30.7669Z" fill="#1348BA"/>
<path d="M80.9949 24.432C80.148 23.9501 79.2249 23.7092 78.2195 23.7092C77.2142 23.7092 76.2881 23.9471 75.4442 24.4229C74.5972 24.8987 73.9362 25.5483 73.4548 26.3749C72.9735 27.2014 72.7328 28.1103 72.7328 29.1015C72.7328 30.0928 72.9735 31.0047 73.4548 31.8282C73.9362 32.6548 74.5972 33.3075 75.435 33.7894C76.2728 34.2713 77.202 34.5122 78.2226 34.5122C79.2432 34.5122 80.1541 34.2713 80.9979 33.7894C81.8418 33.3075 82.509 32.6517 82.9995 31.8282C83.4869 31.0017 83.7337 30.0928 83.7337 29.1015C83.7337 28.1103 83.49 27.2014 82.9995 26.384C82.509 25.5666 81.8449 24.917 80.9979 24.432H80.9949ZM80.7634 30.6845C80.5044 31.1542 80.1571 31.5202 79.7154 31.7855C79.2767 32.0509 78.7771 32.1851 78.2165 32.1851C77.6559 32.1851 77.1533 32.057 76.7085 31.7977C76.2606 31.5385 75.9133 31.1755 75.6605 30.7058C75.4076 30.2361 75.2827 29.7085 75.2827 29.1229C75.2827 28.5373 75.4107 28.0035 75.6696 27.5277C75.9286 27.0519 76.282 26.6829 76.7268 26.4145C77.1746 26.1492 77.6773 26.015 78.2348 26.015C78.7923 26.015 79.2706 26.1522 79.7123 26.4237C80.1541 26.6951 80.5014 27.0672 80.7603 27.5369C81.0193 28.0066 81.1472 28.5342 81.1472 29.1198C81.1472 29.7054 81.0193 30.2148 80.7603 30.6814L80.7634 30.6845Z" fill="#1348BA"/>
<path d="M93.1992 23.9379H87.8556C87.4931 23.9379 87.1884 24.0599 86.9447 24.3039C86.701 24.5479 86.5791 24.859 86.5791 25.2372C86.5639 25.6429 86.5517 26.0546 86.5365 26.4755C86.5212 27.7626 86.4633 28.8209 86.3598 29.6536C86.2562 30.4862 86.0947 31.1145 85.8784 31.5415C85.6621 31.9685 85.3727 32.1942 85.0102 32.2247C84.9249 32.2247 84.8365 32.2522 84.739 32.3101C84.5166 32.3528 84.3308 32.4687 84.1846 32.6548C84.0383 32.8408 83.9652 33.0635 83.9652 33.3166C83.9652 33.582 84.0414 33.8138 84.1967 34.009C84.3491 34.2042 84.5532 34.3231 84.806 34.3658C84.9736 34.4207 85.1625 34.4482 85.3727 34.4482C86.2105 34.4482 86.8838 34.1828 87.3956 33.6521C87.9043 33.1214 88.2821 32.301 88.5258 31.1969C88.7695 30.0928 88.9066 28.6319 88.9341 26.811V26.0973H91.9927V33.2312C91.9927 33.5942 92.1115 33.8992 92.3492 34.1432C92.5868 34.3872 92.8884 34.5092 93.2509 34.5092C93.6135 34.5092 93.8938 34.3872 94.1314 34.1432C94.369 33.8992 94.4878 33.5942 94.4878 33.2312V25.2372C94.4878 24.859 94.366 24.5479 94.1222 24.3039C93.8785 24.0599 93.5739 23.9379 93.2113 23.9379H93.1992Z" fill="#1348BA"/>
<path d="M103.825 27.5064C103.198 27.2136 102.476 27.0672 101.668 27.0672H99.6364V24.9902C99.6364 24.6272 99.5176 24.3222 99.28 24.0782C99.0423 23.8342 98.7499 23.7122 98.3995 23.7122C98.0492 23.7122 97.7323 23.8342 97.4886 24.0782C97.2449 24.3222 97.123 24.6272 97.123 24.9902V33.0055C97.123 33.3685 97.248 33.6735 97.5008 33.9175C97.7537 34.1615 98.0583 34.2835 98.4239 34.2835H101.671C102.482 34.2835 103.201 34.1401 103.828 33.8534C104.456 33.5667 104.953 33.1489 105.315 32.5938C105.678 32.0417 105.86 31.4012 105.86 30.6753C105.86 29.9494 105.678 29.2937 105.315 28.7569C104.953 28.2201 104.456 27.8022 103.828 27.5094L103.825 27.5064ZM102.829 31.7459C102.528 31.999 102.113 32.1241 101.583 32.1241H99.6334V29.2296H101.562C102.092 29.2296 102.512 29.3577 102.82 29.617C103.128 29.8762 103.28 30.2361 103.28 30.6967C103.28 31.1572 103.131 31.4927 102.829 31.7459Z" fill="#1348BA"/>
<path d="M115.749 23.7092C115.387 23.7092 115.085 23.8312 114.848 24.0752C114.61 24.3192 114.491 24.6242 114.491 24.9871V27.7992H110.342V24.9871C110.342 24.6242 110.226 24.3192 109.994 24.0752C109.763 23.8312 109.467 23.7092 109.105 23.7092C108.742 23.7092 108.438 23.8312 108.194 24.0752C107.95 24.3192 107.828 24.6242 107.828 24.9871V33.2312C107.828 33.5942 107.95 33.8992 108.194 34.1432C108.438 34.3872 108.742 34.5092 109.105 34.5092C109.467 34.5092 109.766 34.3872 109.994 34.1432C110.223 33.8992 110.342 33.5942 110.342 33.2312V29.9586H114.491V33.2312C114.491 33.5942 114.61 33.8992 114.848 34.1432C115.085 34.3872 115.384 34.5092 115.749 34.5092C116.115 34.5092 116.41 34.3872 116.639 34.1432C116.867 33.8992 116.983 33.5942 116.983 33.2312V24.9871C116.983 24.6242 116.867 24.3192 116.639 24.0752C116.407 23.8312 116.112 23.7092 115.749 23.7092Z" fill="#1348BA"/>
<path d="M127.673 23.7092C127.226 23.7092 126.842 23.9196 126.522 24.3375L122.162 30.1965V24.9871C122.162 24.6242 122.043 24.3192 121.806 24.0752C121.568 23.8312 121.276 23.7092 120.925 23.7092C120.575 23.7092 120.258 23.8312 120.014 24.0752C119.771 24.3192 119.649 24.6242 119.649 24.9871V33.2312C119.649 33.5942 119.771 33.8992 120.014 34.1432C120.258 34.3872 120.557 34.5092 120.904 34.5092C121.337 34.5092 121.714 34.3048 122.034 33.8992L126.394 28.1743V33.2282C126.394 33.5911 126.516 33.8961 126.759 34.1401C127.003 34.3841 127.302 34.5061 127.649 34.5061C127.996 34.5061 128.313 34.3841 128.551 34.1401C128.788 33.8961 128.907 33.5911 128.907 33.2282V24.9841C128.907 24.6211 128.788 24.3161 128.551 24.0721C128.313 23.8281 128.021 23.7061 127.67 23.7061L127.673 23.7092Z" fill="#1348BA"/>
<path d="M140.916 32.121L140.496 32.2674V24.9871C140.496 24.6242 140.38 24.3192 140.149 24.0752C139.917 23.8312 139.622 23.7092 139.259 23.7092C138.897 23.7092 138.595 23.8312 138.357 24.0752C138.12 24.3192 138.001 24.6242 138.001 24.9871V32.121H134.083V24.9871C134.083 24.6242 133.964 24.3192 133.727 24.0752C133.489 23.8312 133.197 23.7092 132.846 23.7092C132.496 23.7092 132.179 23.8312 131.935 24.0752C131.692 24.3192 131.57 24.6242 131.57 24.9871V33.0025C131.57 33.3654 131.695 33.6704 131.948 33.9144C132.2 34.1584 132.505 34.2804 132.871 34.2804H139.786V36.3361C139.786 36.6868 139.902 36.9796 140.13 37.2175C140.362 37.4554 140.651 37.5744 140.999 37.5744C141.346 37.5744 141.635 37.4554 141.858 37.2175C142.08 36.9796 142.193 36.6868 142.193 36.3361V33.4203C142.193 33.0421 142.071 32.731 141.827 32.487C141.584 32.243 141.279 32.121 140.916 32.121Z" fill="#1348BA"/>
<path d="M148.125 23.7092C147.369 23.7092 146.668 23.8281 146.019 24.066C145.37 24.3039 144.822 24.6394 144.374 25.0725C144.039 25.3958 143.872 25.7374 143.872 26.1004C143.872 26.381 143.975 26.6219 144.185 26.8232C144.396 27.0275 144.645 27.1282 144.941 27.1282C145.081 27.1282 145.209 27.1038 145.328 27.055C145.447 27.0062 145.584 26.9177 145.736 26.7927C146.056 26.4999 146.397 26.2834 146.754 26.1431C147.11 26.0028 147.491 25.9326 147.896 25.9326C148.551 25.9326 149.063 26.1065 149.425 26.4572C149.788 26.808 149.971 27.3051 149.971 27.9456V28.4915H147.204C146.016 28.4915 145.078 28.7599 144.386 29.2998C143.695 29.8396 143.351 30.5686 143.351 31.4927C143.351 32.4169 143.683 33.1336 144.347 33.6857C145.011 34.2377 145.873 34.5153 146.936 34.5153C147.692 34.5153 148.365 34.375 148.959 34.0944C149.367 33.9022 149.721 33.6491 150.026 33.3471C150.044 33.6582 150.157 33.9266 150.373 34.1493C150.61 34.3933 150.912 34.5153 151.275 34.5153C151.637 34.5153 151.914 34.3963 152.143 34.1584C152.374 33.9205 152.49 33.6186 152.49 33.2556V28.0737C152.49 26.689 152.106 25.6154 151.339 24.8529C150.571 24.0904 149.502 23.7092 148.134 23.7092H148.125ZM149.645 31.5354C149.428 31.8709 149.136 32.1363 148.764 32.3315C148.393 32.5267 147.984 32.6243 147.54 32.6243C147.037 32.6243 146.638 32.5175 146.345 32.2979C146.053 32.0814 145.907 31.7764 145.907 31.386C145.907 30.9956 146.044 30.7211 146.315 30.5259C146.586 30.3307 146.997 30.2331 147.54 30.2331H149.971V30.4008C149.971 30.8217 149.861 31.1969 149.645 31.5324V31.5354Z" fill="#1348BA"/>
<path d="M21.4025 27.8406H13.2816C12.4792 27.8406 12.1114 26.8365 12.7254 26.3192L15.6248 23.8668C18.506 21.4539 20.5393 19.2905 21.7277 17.3797C22.916 15.4689 23.5117 13.4241 23.5117 11.2425C23.5117 9.06087 23.0254 7.3113 22.0559 5.68344C21.0833 4.05862 19.7369 2.77459 18.0106 1.83438C16.2843 0.897222 14.3331 0.425598 12.157 0.425598C10.2149 0.425598 8.40659 0.821153 6.73196 1.60618C5.05733 2.39425 3.68358 3.46833 2.61376 4.82539C1.5409 6.18245 0.854032 7.73424 0.553145 9.47773C0.385986 10.4179 0.352554 11.2547 0.452849 11.991C0.519713 12.9982 0.863149 13.8014 1.48316 14.4039C2.10317 15.0064 2.88122 15.3106 3.82035 15.3106C4.75948 15.3106 5.47978 15.0429 6.08156 14.5074C6.68333 13.9718 7.05108 13.2507 7.18785 12.344L7.28814 11.7415C7.32157 11.4738 7.355 11.1877 7.38844 10.8865C7.48873 10.0163 7.74707 9.26778 8.16649 8.64706C8.5859 8.02634 9.1117 7.54863 9.74994 7.21393C10.3851 6.87923 11.1237 6.71188 11.9595 6.71188C13.3332 6.71188 14.4365 7.15612 15.2753 8.0446C16.1111 8.93308 16.5305 10.1167 16.5305 11.5894C16.5305 12.9312 16.1628 14.1787 15.4242 15.335C14.6857 16.4912 13.397 17.8757 11.5553 19.4853L1.40718 28.0932C0.468046 28.866 0 29.8032 0 30.9107C0 31.8175 0.325201 32.6055 0.978641 33.2749C1.63208 33.9474 2.42837 34.2821 3.36446 34.2821L21.3994 34.2304C22.372 34.2304 23.1652 33.9291 23.7852 33.3236C24.4052 32.7212 24.7152 31.9483 24.7152 31.0111C24.7152 30.074 24.4052 29.3528 23.7852 28.7473C23.1652 28.1449 22.3689 27.8406 21.3994 27.8406H21.4025Z" fill="#1348BA"/>
<path d="M37.9877 27.0769H34.5047C33.5322 27.0769 32.7541 26.7665 32.1675 26.1458C31.581 25.5251 31.2892 24.7979 31.2892 23.9581C31.2892 23.1214 31.584 22.382 32.1675 21.746C32.7541 21.1101 33.5322 20.7906 34.5047 20.7906H37.9877C38.4649 20.7906 38.8478 20.4042 38.8478 19.9295V16.403C38.8478 15.4324 39.173 14.6169 39.8265 13.9627C40.4799 13.3085 41.2762 12.983 42.2123 12.983C43.1484 12.983 43.9963 13.3085 44.6498 13.9627C45.3032 14.6169 45.6284 15.4293 45.6284 16.403V19.9295C45.6284 20.4072 46.0144 20.7906 46.4885 20.7906H49.9715C50.9441 20.7906 51.7221 21.1101 52.3087 21.746C52.8953 22.382 53.187 23.1214 53.187 23.9581C53.187 24.7949 52.8922 25.5251 52.3087 26.1458C51.7221 26.7665 50.9441 27.0769 49.9715 27.0769H46.4885C46.0114 27.0769 45.6284 27.4633 45.6284 27.938V31.5102C45.6284 32.4838 45.3032 33.3054 44.6498 33.9748C43.9963 34.6442 43.1848 34.9819 42.2123 34.9819C41.3431 34.9819 40.5164 34.6533 39.8933 34.0448C39.1943 33.3632 38.8448 32.5173 38.8448 31.5132V27.941C38.8448 27.4633 38.4588 27.0799 37.9847 27.0799L37.9877 27.0769Z" fill="#E30613"/>
<path d="M29.2802 22.811L37.8418 5.05664C38.009 4.655 38.0941 4.25336 38.0941 3.84868C38.0941 2.91152 37.7597 2.1052 37.0881 1.43579C36.4164 0.766393 35.614 0.42865 34.6779 0.42865C33.9759 0.42865 33.3467 0.638598 32.7936 1.0585C32.2404 1.47839 31.815 2.00479 31.5141 2.64376L22.22 22.099C22.0194 22.601 21.9191 23.0879 21.9191 23.5565C21.9191 24.4632 22.2534 25.2513 22.9251 25.9207C23.5938 26.5931 24.3809 26.9278 25.2866 26.9278H29.4231C29.7665 26.9278 30.0127 26.517 29.7847 26.2614C29.2012 25.6042 28.7331 24.0098 29.2893 22.811H29.2802Z" fill="#1348BA"/>
</svg>
