<svg width="60" height="60" viewBox="0 0 60 60" fill="none" xmlns="http://www.w3.org/2000/svg">
<rect width="60" height="60" rx="30" fill="white"/>
<path d="M28.0834 36.8061H22.309C21.7384 36.8061 21.4769 36.0933 21.9135 35.726L23.9751 33.9849C26.0238 32.2718 27.4696 30.7358 28.3146 29.3792C29.1596 28.0226 29.5831 26.5709 29.5831 25.022C29.5831 23.4731 29.2374 22.2309 28.548 21.0752C27.8564 19.9216 26.8991 19.01 25.6716 18.3425C24.4441 17.6771 23.0567 17.3423 21.5094 17.3423C20.1284 17.3423 18.8426 17.6231 17.6518 18.1805C16.4611 18.74 15.4843 19.5025 14.7236 20.466C13.9607 21.4295 13.4723 22.5312 13.2584 23.769C13.1395 24.4365 13.1157 25.0306 13.187 25.5534C13.2346 26.2684 13.4788 26.8387 13.9197 27.2665C14.3605 27.6942 14.9137 27.9102 15.5815 27.9102C16.2493 27.9102 16.7615 27.7201 17.1894 27.3399C17.6173 26.9597 17.8787 26.4477 17.976 25.804L18.0473 25.3763C18.0711 25.1862 18.0949 24.9831 18.1186 24.7692C18.1899 24.1514 18.3736 23.62 18.6719 23.1793C18.9701 22.7386 19.344 22.3994 19.7978 22.1618C20.2494 21.9242 20.7746 21.8054 21.3689 21.8054C22.3457 21.8054 23.1302 22.1208 23.7266 22.7516C24.3209 23.3823 24.6191 24.2227 24.6191 25.2682C24.6191 26.2209 24.3577 27.1066 23.8325 27.9275C23.3074 28.7484 22.3911 29.7313 21.0815 30.8741L13.8656 36.9854C13.1979 37.5341 12.865 38.1995 12.865 38.9858C12.865 39.6296 13.0963 40.1891 13.5609 40.6644C14.0255 41.1418 14.5917 41.3794 15.2574 41.3794L28.0812 41.3427C28.7727 41.3427 29.3368 41.1288 29.7776 40.6989C30.2185 40.2712 30.4389 39.7225 30.4389 39.0571C30.4389 38.3918 30.2185 37.8798 29.7776 37.4499C29.3368 37.0222 28.7706 36.8061 28.0812 36.8061H28.0834Z" fill="#1348BA"/>
<path d="M39.8764 36.2639H37.3998C36.7082 36.2639 36.155 36.0436 35.7379 35.6029C35.3208 35.1622 35.1133 34.6459 35.1133 34.0497C35.1133 33.4556 35.323 32.9306 35.7379 32.4792C36.155 32.0277 36.7082 31.8008 37.3998 31.8008H39.8764C40.2156 31.8008 40.4879 31.5265 40.4879 31.1895V28.6858C40.4879 27.9966 40.7192 27.4177 41.1838 26.9532C41.6484 26.4888 42.2146 26.2576 42.8803 26.2576C43.5459 26.2576 44.1488 26.4888 44.6134 26.9532C45.0781 27.4177 45.3093 27.9945 45.3093 28.6858V31.1895C45.3093 31.5286 45.5838 31.8008 45.9209 31.8008H48.3975C49.089 31.8008 49.6423 32.0277 50.0594 32.4792C50.4764 32.9306 50.6839 33.4556 50.6839 34.0497C50.6839 34.6437 50.4743 35.1622 50.0594 35.6029C49.6423 36.0436 49.089 36.2639 48.3975 36.2639H45.9209C45.5816 36.2639 45.3093 36.5383 45.3093 36.8753V39.4114C45.3093 40.1027 45.0781 40.6859 44.6134 41.1612C44.1488 41.6365 43.5718 41.8762 42.8803 41.8762C42.2622 41.8762 41.6744 41.6429 41.2314 41.2109C40.7343 40.727 40.4858 40.1264 40.4858 39.4136V36.8774C40.4858 36.5383 40.2113 36.2661 39.8742 36.2661L39.8764 36.2639Z" fill="#E30613"/>
<path d="M33.6848 33.2353L39.7726 20.6302C39.8915 20.345 39.952 20.0599 39.952 19.7726C39.952 19.1072 39.7143 18.5348 39.2367 18.0595C38.7591 17.5842 38.1885 17.3445 37.5229 17.3445C37.0237 17.3445 36.5764 17.4935 36.183 17.7916C35.7897 18.0897 35.4872 18.4635 35.2732 18.9171L28.6647 32.7298C28.522 33.0862 28.4507 33.4318 28.4507 33.7645C28.4507 34.4083 28.6884 34.9678 29.166 35.443C29.6415 35.9205 30.2012 36.1581 30.8452 36.1581H33.7864C34.0306 36.1581 34.2057 35.8664 34.0436 35.685C33.6287 35.2184 33.2959 34.0864 33.6913 33.2353H33.6848Z" fill="#1348BA"/>
</svg>
