<svg width="167" height="24" viewBox="0 0 167 24" fill="none" xmlns="http://www.w3.org/2000/svg">
<g clip-path="url(#clip0_2001_10769)">
<path d="M17.9602 3.43692C17.6014 3.15384 17.2426 2.91121 16.8658 2.70901C16.8658 3.17406 16.8658 3.72 16.8658 4.28615C16.9914 4.36703 17.099 4.44791 17.2246 4.54901C18.5523 5.62066 19.8979 8.4312 18.2293 11.7675C17.6911 12.8391 17.2784 13.4659 16.794 14.0725C16.1481 14.9015 15.574 15.589 14.354 16.8629C13.0801 18.1771 11.1962 19.5116 10.1198 20.2396C9.04326 19.5116 7.1594 18.1771 5.88555 16.8629C4.66552 15.589 4.07345 14.9015 3.4455 14.0725C2.96108 13.4457 2.54842 12.8189 2.01017 11.7675C0.34161 8.41098 1.68723 5.60044 3.0149 4.54901C3.14049 4.44791 3.24814 4.36703 3.37373 4.28615V2.70901C3.0149 2.91121 2.63813 3.13362 2.2793 3.43692C0.628675 4.79164 -1.1296 8.30989 0.933681 12.4549C1.43604 13.4457 1.88458 14.1938 2.51254 15.0026C3.17638 15.8721 3.78639 16.5798 5.06024 17.8941C6.74674 19.633 9.33033 21.3516 10.1198 21.8571C10.9271 21.3314 13.5107 19.6127 15.1972 17.8941C16.4711 16.5798 17.0631 15.8721 17.7449 15.0026C18.3729 14.1938 18.8214 13.4659 19.3238 12.4549C21.3871 8.30989 19.6467 4.79164 17.9602 3.43692Z" fill="white"/>
<path d="M17.8517 7.03605C17.6185 6.40923 17.2597 5.90374 16.8829 5.51956C16.8829 6.77319 16.8829 7.9055 16.8829 8.28967C16.8829 8.37055 16.8829 8.45143 16.8829 8.53231C16.8829 8.89627 16.8291 9.28044 16.7214 9.70506C16.5958 10.1701 16.4343 10.5947 16.237 10.9789C16.1832 11.1002 16.1114 11.2215 16.0217 11.3631C16.0037 11.4035 15.9679 11.444 15.9499 11.4844C15.9499 11.4844 15.932 11.5248 15.914 11.5451C15.8781 11.6057 15.8243 11.6866 15.7884 11.7473C15.7526 11.8079 15.7167 11.8484 15.6808 11.909C15.304 12.4347 14.8375 13.0413 14.3172 13.6479C14.0661 13.9512 13.8149 14.2343 13.5457 14.5174C13.456 14.6185 13.3484 14.7196 13.2587 14.8207C12.1284 15.9934 10.9263 16.9235 10.1727 17.4492C9.41919 16.9033 8.23505 15.9934 7.08679 14.8207C6.99708 14.7196 6.88943 14.6185 6.79972 14.5174C6.5306 14.2343 6.27942 13.9512 6.02824 13.6479C5.50793 13.0413 5.02351 12.4347 4.66468 11.909C4.62879 11.8484 4.59291 11.8079 4.55703 11.7473C4.52115 11.6866 4.46732 11.6259 4.43144 11.5451C4.43144 11.5451 4.4135 11.5046 4.39556 11.4844C4.37761 11.444 4.34173 11.4035 4.32379 11.3631C4.23408 11.2215 4.16231 11.08 4.10849 10.9789C3.91113 10.5947 3.73172 10.1701 3.62407 9.70506C3.51642 9.28044 3.46259 8.89627 3.46259 8.53231C3.46259 8.45143 3.46259 8.37055 3.46259 8.28967C3.46259 7.9055 3.46259 6.77319 3.46259 5.51956C3.08582 5.90374 2.72699 6.40923 2.49375 7.03605C2.00933 8.37055 2.18874 9.90725 3.04994 11.6259C3.58818 12.7178 5.13116 14.5982 6.29736 15.8114C7.94798 17.5099 9.67037 18.6826 10.2266 19.0668C10.7827 18.7029 12.5051 17.5301 14.1558 15.8114C15.322 14.5982 16.8649 12.7178 17.4032 11.6259C18.2644 9.90725 18.4438 8.35033 17.9594 7.03605" fill="white"/>
<path d="M15.8959 2.32483C14.9271 2.06198 13.8685 2.10242 12.6664 2.44615C11.6079 2.74945 10.7646 3.35604 10.1367 3.94242C9.50872 3.35604 8.66546 2.74945 7.60691 2.44615C6.40483 2.10242 5.36422 2.06198 4.37743 2.32483C4.35949 2.32483 4.30566 2.32483 4.30566 2.32483V8.24923C4.30566 9.64439 4.87979 10.6149 5.52569 11.4642V3.53802C6.06394 3.5178 6.63807 3.59868 7.28396 3.78066C8.71929 4.20527 9.68813 5.29714 10.1367 5.92395C10.5852 5.29714 11.5361 4.20527 12.9714 3.78066C13.6173 3.59868 14.1915 3.5178 14.7297 3.53802V11.5046C15.3756 10.6352 15.9497 9.68483 15.9497 8.28967V2.34505C15.9497 2.34505 15.8959 2.34505 15.878 2.34505" fill="white"/>
<path d="M12.8641 4.91297C11.9132 5.37802 10.7291 6.79341 10.137 7.7033C9.54493 6.77319 8.36079 5.3578 7.40989 4.91297C7.12282 4.77143 6.79987 4.69055 6.45898 4.65011V12.6571C6.8537 13.1424 7.24841 13.5873 7.67901 14.0321V6.81362C8.62991 7.52132 9.41934 8.81538 10.1191 9.90725V9.94769L10.1549 9.90725C10.8547 8.81538 11.6262 7.52132 12.5771 6.81362V14.0321C13.0077 13.6075 13.4024 13.1424 13.7971 12.6571V4.65011C13.4741 4.69055 13.1332 4.77143 12.8462 4.91297" fill="white"/>
<path d="M32.8153 9.80177C33.8559 8.36616 34.9683 7.31474 36.601 7.09232V17H34.8966V9.96353L32.8692 12.3899H32.7436L30.7162 9.96353V17.0202H29.0117V7.0721C30.6444 7.29452 31.7568 8.36616 32.7974 9.78155L32.8153 9.80177Z" fill="white"/>
<path d="M38.0898 12.0259C38.0898 8.97275 39.9558 6.93056 42.5393 6.93056C45.1229 6.93056 47.0068 8.99297 47.0068 12.0259C47.0068 15.0589 45.105 17.1213 42.5393 17.1213C39.9737 17.1213 38.0898 14.9174 38.0898 12.0259ZM45.1947 12.0259C45.1947 10.2264 44.1182 8.9121 42.5573 8.9121C40.9964 8.9121 39.9199 10.2264 39.9199 12.0259C39.9199 13.8255 40.9964 15.1398 42.5573 15.1398C44.1182 15.1398 45.1947 13.8255 45.1947 12.0259Z" fill="white"/>
<path d="M48.2627 12.0259C48.2627 8.9121 50.2004 6.93056 52.8378 6.93056C53.1966 6.93056 53.4837 6.95078 53.7708 7.05188V9.01319C53.4837 8.93232 53.2325 8.89188 52.8557 8.89188C51.2231 8.89188 50.0927 10.1051 50.0927 12.0057C50.0927 13.9064 51.2231 15.1196 52.8557 15.1196C53.2325 15.1196 53.4837 15.0993 53.7708 14.9983V16.9393C53.4837 17.0607 53.1966 17.1011 52.8378 17.1011C50.2004 17.1011 48.2627 14.978 48.2627 12.0057V12.0259Z" fill="white"/>
<path d="M57.6105 12.7336H57.0902V17H55.3857V7.0721H57.0902V10.8734H57.6643L58.7408 7.0721H60.4811L59.0279 11.8035L60.6606 16.9798H58.8305L57.5925 12.7134L57.6105 12.7336Z" fill="white"/>
<path d="M61.2344 12.0259C61.2344 8.97275 63.1003 6.93056 65.6839 6.93056C68.2675 6.93056 70.1513 8.99297 70.1513 12.0259C70.1513 15.0589 68.2495 17.1213 65.6839 17.1213C63.1182 17.1213 61.2344 14.9174 61.2344 12.0259ZM68.3392 12.0259C68.3392 10.2264 67.2627 8.9121 65.7018 8.9121C64.1409 8.9121 63.0644 10.2264 63.0644 12.0259C63.0644 13.8255 64.1409 15.1398 65.7018 15.1398C67.2627 15.1398 68.3392 13.8255 68.3392 12.0259Z" fill="white"/>
<path d="M71.6406 7.0721H73.0221C75.1572 7.0721 76.2516 8.04265 76.2516 9.74111C76.2516 10.6106 75.9287 11.298 75.2648 11.6822C76.2516 12.0866 76.6284 12.9358 76.6284 14.1086C76.6284 15.9486 75.4981 17 73.2733 17H71.6406V7.0721ZM74.601 9.88265C74.601 9.1143 74.1345 8.79078 73.2733 8.79078V10.9947C74.1166 10.9947 74.601 10.5903 74.601 9.88265ZM74.9778 13.967C74.9778 13.0774 74.4754 12.673 73.2733 12.673V15.2813C74.4574 15.2813 74.9778 14.8769 74.9778 13.9873V13.967Z" fill="white"/>
<path d="M77.6875 12.0259C77.6875 8.9121 79.6252 6.93056 82.2626 6.93056C82.6214 6.93056 82.9085 6.95078 83.1956 7.05188V9.01319C82.9085 8.93232 82.6573 8.89188 82.2805 8.89188C80.6479 8.89188 79.5175 10.1051 79.5175 12.0057C79.5175 13.9064 80.6479 15.1196 82.2805 15.1196C82.6573 15.1196 82.9085 15.0993 83.1956 14.9983V16.9393C82.9085 17.0607 82.6214 17.1011 82.2626 17.1011C79.6252 17.1011 77.6875 14.978 77.6875 12.0057V12.0259Z" fill="white"/>
<path d="M87.0343 12.7336H86.514V17H84.8096V7.0721H86.514V10.8734H87.0881L88.1646 7.0721H89.905L88.4517 11.8035L90.0844 16.9798H88.2543L87.0164 12.7134L87.0343 12.7336Z" fill="white"/>
<path d="M94.6238 6.93056H94.8749L98.9118 16.9798H97.0459L96.4897 15.4835H92.9731L92.4169 16.9798H90.5869L94.6238 6.93056ZM95.8258 13.7244L94.7314 10.7723L93.637 13.7244H95.8258Z" fill="white"/>
<path d="M102.859 13.4413L101.549 17H99.6475L101.262 13.0167C100.257 12.4506 99.8628 11.4194 99.8628 10.2668C99.8628 8.14375 101.19 7.0721 103.702 7.0721H104.904V16.9798H103.2V13.4413H102.859ZM101.567 10.2668C101.567 11.1969 102.195 11.6418 103.2 11.6418V8.89188C102.195 8.89188 101.567 9.33671 101.567 10.2668Z" fill="white"/>
<path d="M113.193 9.80177C114.234 8.36616 115.346 7.31474 116.979 7.09232V17H115.274V9.96353L113.247 12.3899H113.121L111.094 9.96353V17.0202H109.39V7.0721C111.022 7.29452 112.135 8.36616 113.175 9.78155L113.193 9.80177Z" fill="white"/>
<path d="M118.737 7.0721H122.828V8.9121H120.496V10.8734H122.379V12.7134H120.496V15.1398H123.007V16.9798H118.737V7.0721Z" fill="white"/>
<path d="M124.748 14.0075L124.963 7.09232H129.484V15.16H129.987V18.5569H128.354V17H125.519V18.5569H123.887V15.16C124.389 15.16 124.73 14.8567 124.748 14.0075ZM127.78 15.16V8.89188H126.578L126.434 14.0075C126.434 14.4523 126.345 14.8365 126.237 15.16H127.78Z" fill="white"/>
<path d="M131.351 7.0721H132.983V11.9653L136.267 6.93056H136.518V16.9798H134.885V12.0866L131.602 17.1213H131.351V7.0721Z" fill="white"/>
<path d="M138.275 7.0721H140.034V15.1398H141.792V7.0721H143.55V15.1398H144.053V18.5367H142.42V16.9798H138.275V7.0721Z" fill="white"/>
<path d="M145.435 7.0721H147.067V11.9653L150.351 6.93056H150.602V16.9798H148.969V12.0866L145.686 17.1213H145.435V7.0721Z" fill="white"/>
<path d="M155.858 12.7134H154.1V17H152.342V7.0721H154.1V10.8734H155.858V7.0721H157.617V16.9798H155.858V12.6932V12.7134Z" fill="white"/>
<path d="M162.713 6.93056H162.964L167.001 16.9798H165.135L164.579 15.4835H161.062L160.506 16.9798H158.676L162.713 6.93056ZM163.915 13.7244L162.82 10.7723L161.726 13.7244H163.915Z" fill="white"/>
</g>
<defs>
<clipPath id="clip0_2001_10769">
<rect width="167" height="24" fill="white"/>
</clipPath>
</defs>
</svg>
