<svg width="176" height="39" viewBox="0 0 176 39" fill="none" xmlns="http://www.w3.org/2000/svg">
<path d="M73.9636 14.864C74.2012 14.62 74.32 14.315 74.32 13.9521V2.22489C74.32 1.84669 74.2042 1.53559 73.9757 1.2916C73.7442 1.0476 73.4548 0.925598 73.1075 0.925598C72.8272 0.925598 72.5896 0.998798 72.3946 1.1452C72.1996 1.2916 71.9833 1.54779 71.7457 1.91074L67.6604 8.37061L63.575 1.91074C63.3526 1.54779 63.1393 1.2916 62.9352 1.1452C62.7311 0.998798 62.4996 0.925598 62.2345 0.925598C61.872 0.925598 61.5734 1.0476 61.345 1.2916C61.1134 1.53559 61.0007 1.84669 61.0007 2.22489V13.9521C61.0007 14.315 61.1195 14.62 61.3571 14.864C61.5948 15.108 61.8933 15.23 62.2589 15.23C62.6245 15.23 62.923 15.108 63.1607 14.864C63.3983 14.62 63.5171 14.315 63.5171 13.9521V6.27832L66.4509 10.9112C66.6337 11.1918 66.8165 11.3962 67.0054 11.5304C67.1942 11.6646 67.4136 11.7286 67.6664 11.7286C67.9193 11.7286 68.1417 11.6615 68.3367 11.5304C68.5317 11.3962 68.7144 11.1918 68.882 10.9112L71.8158 6.27832V13.9521C71.8158 14.315 71.9346 14.62 72.1722 14.864C72.4098 15.108 72.7084 15.23 73.074 15.23C73.4396 15.23 73.7381 15.108 73.9757 14.864H73.9636Z" fill="#1348BA"/>
<path d="M79.036 14.5072C79.8738 14.9891 80.803 15.23 81.8235 15.23C82.8441 15.23 83.755 14.9891 84.5989 14.5072C85.4428 14.0253 86.11 13.3695 86.6004 12.546C87.0879 11.7195 87.3347 10.8106 87.3347 9.81934C87.3347 8.8281 87.0909 7.9192 86.6004 7.10181C86.11 6.28441 85.4458 5.63476 84.5989 5.14982C83.752 4.66792 82.8289 4.42697 81.8235 4.42697C80.8182 4.42697 79.892 4.66487 79.0482 5.14067C78.2012 5.61646 77.5402 6.26611 77.0588 7.09266C76.5775 7.9192 76.3368 8.8281 76.3368 9.81934C76.3368 10.8106 76.5775 11.7225 77.0588 12.546C77.5402 13.3726 78.2012 14.0253 79.039 14.5072H79.036ZM79.2767 8.24555C79.5356 7.76975 79.889 7.4007 80.3338 7.13231C80.7816 6.86696 81.2843 6.73276 81.8418 6.73276C82.3993 6.73276 82.8776 6.87001 83.3194 7.14146C83.7611 7.4129 84.1084 7.785 84.3674 8.2547C84.6263 8.7244 84.7543 9.25204 84.7543 9.83764C84.7543 10.4232 84.6263 10.9326 84.3674 11.3992C84.1084 11.8689 83.7611 12.2349 83.3194 12.5003C82.8807 12.7656 82.381 12.8998 81.8205 12.8998C81.2599 12.8998 80.7573 12.7717 80.3125 12.5125C79.8646 12.2532 79.5173 11.8903 79.2645 11.4206C79.0116 10.9509 78.8867 10.4232 78.8867 9.83764C78.8867 9.25204 79.0147 8.7183 79.2736 8.2425L79.2767 8.24555Z" fill="#1348BA"/>
<path d="M98.3752 13.1316C98.5001 12.9212 98.5641 12.7046 98.5641 12.482C98.5641 12.1739 98.4544 11.9086 98.2381 11.6859C98.0218 11.4633 97.7598 11.3504 97.4521 11.3504C97.2693 11.3504 97.1139 11.3809 96.9799 11.445C96.8458 11.509 96.7118 11.6097 96.5716 11.75C96.2518 12.1129 95.8953 12.3996 95.5023 12.6101C95.1124 12.8205 94.6767 12.9242 94.2045 12.9242C93.6318 12.9242 93.123 12.79 92.6752 12.5247C92.2273 12.2593 91.8739 11.8933 91.618 11.4236C91.3591 10.9539 91.2311 10.4202 91.2311 9.81934C91.2311 9.2185 91.3591 8.70305 91.618 8.2364C91.877 7.7667 92.2304 7.40071 92.6752 7.13536C93.123 6.87001 93.6318 6.73581 94.2045 6.73581C94.6919 6.73581 95.1337 6.83951 95.5236 7.04996C95.9136 7.26041 96.264 7.54711 96.5716 7.91005C96.794 8.1754 97.0895 8.3096 97.4521 8.3096C97.7598 8.3096 98.0218 8.19675 98.2381 7.9741C98.4544 7.75145 98.5641 7.48611 98.5641 7.17806C98.5641 6.96761 98.4879 6.74496 98.3325 6.50706C97.9273 5.87876 97.3515 5.37552 96.6052 4.99732C95.8588 4.61912 95.0514 4.43002 94.1862 4.43002C93.1657 4.43002 92.2334 4.67097 91.3895 5.15287C90.5426 5.63477 89.8815 6.28441 89.4002 7.10486C88.9188 7.92225 88.6782 8.8281 88.6782 9.82239C88.6782 10.8167 88.9188 11.7286 89.4002 12.5613C89.8815 13.3939 90.5457 14.0466 91.3895 14.5224C92.2334 14.9982 93.1657 15.2361 94.1862 15.2361C95.0789 15.2361 95.8892 15.0501 96.6173 14.681C97.3424 14.312 97.9304 13.7965 98.3782 13.1377L98.3752 13.1316Z" fill="#1348BA"/>
<path d="M109.346 14.8945C109.577 14.6719 109.693 14.3974 109.693 14.0771C109.693 13.7569 109.595 13.5037 109.4 13.2811L106.232 9.81324L109.19 6.43996C109.428 6.17461 109.547 5.88791 109.547 5.57987C109.547 5.27182 109.434 4.98512 109.212 4.76247C108.989 4.53982 108.709 4.42697 108.374 4.42697C108.011 4.42697 107.716 4.55202 107.493 4.80517L103.932 8.91655C103.78 9.09955 103.667 9.25814 103.597 9.39844C103.527 9.53874 103.493 9.67904 103.493 9.81934C103.493 9.97184 103.521 10.1243 103.579 10.2707C103.633 10.4171 103.731 10.5696 103.871 10.7221L107.643 14.8549C107.88 15.108 108.173 15.2331 108.523 15.2331C108.843 15.2331 109.12 15.1202 109.352 14.8976L109.346 14.8945Z" fill="#1348BA"/>
<path d="M101.751 15.23C102.101 15.23 102.394 15.108 102.631 14.864C102.869 14.62 102.988 14.315 102.988 13.9521V5.70491C102.988 5.34197 102.869 5.03697 102.631 4.79297C102.394 4.54897 102.101 4.42697 101.751 4.42697C101.4 4.42697 101.084 4.54897 100.84 4.79297C100.596 5.03697 100.474 5.34197 100.474 5.70491V13.949C100.474 14.312 100.596 14.617 100.84 14.861C101.084 15.105 101.388 15.227 101.751 15.227V15.23Z" fill="#1348BA"/>
<path d="M120.8 12.546C121.288 11.7195 121.535 10.8106 121.535 9.81934C121.535 8.8281 121.291 7.9192 120.8 7.10181C120.31 6.28441 119.646 5.63476 118.799 5.14982C117.952 4.66792 117.029 4.42697 116.024 4.42697C115.018 4.42697 114.092 4.66487 113.248 5.14067C112.401 5.61646 111.74 6.26611 111.259 7.09266C110.777 7.9192 110.537 8.8281 110.537 9.81934C110.537 10.8106 110.777 11.7225 111.259 12.546C111.74 13.3726 112.401 14.0253 113.239 14.5072C114.077 14.9891 115.006 15.23 116.027 15.23C117.047 15.23 117.958 14.9891 118.802 14.5072C119.646 14.0253 120.313 13.3695 120.804 12.546H120.8ZM118.567 11.4023C118.308 11.872 117.961 12.238 117.519 12.5033C117.081 12.7687 116.581 12.9029 116.021 12.9029C115.46 12.9029 114.957 12.7748 114.512 12.5155C114.065 12.2563 113.717 11.8933 113.464 11.4236C113.212 10.9539 113.087 10.4263 113.087 9.84069C113.087 9.25509 113.215 8.72135 113.474 8.24555C113.733 7.76975 114.086 7.4007 114.531 7.13231C114.979 6.86696 115.481 6.73276 116.039 6.73276C116.596 6.73276 117.075 6.87001 117.516 7.14146C117.958 7.4129 118.305 7.785 118.564 8.2547C118.823 8.7244 118.951 9.25204 118.951 9.83764C118.951 10.4232 118.823 10.9326 118.564 11.3992L118.567 11.4023Z" fill="#1348BA"/>
<path d="M132.085 13.4793C132.398 12.9974 132.557 12.4545 132.557 11.8537C132.557 11.1552 132.338 10.5788 131.896 10.1213C131.619 9.83765 131.274 9.615 130.875 9.44115C131.058 9.28865 131.216 9.1148 131.35 8.91351C131.622 8.50786 131.759 8.04731 131.759 7.52881C131.759 6.64737 131.427 5.94892 130.763 5.43043C130.098 4.91193 129.242 4.65268 128.194 4.65268H124.819C124.456 4.65268 124.149 4.77468 123.896 5.01868C123.643 5.26268 123.518 5.57377 123.518 5.95197V13.7142C123.518 14.0771 123.643 14.3821 123.896 14.6261C124.149 14.8701 124.453 14.9921 124.819 14.9921H128.843C129.568 14.9921 130.211 14.8579 130.772 14.5926C131.329 14.3272 131.768 13.9521 132.082 13.4702L132.085 13.4793ZM125.955 6.60772H128.094C128.542 6.60772 128.877 6.69617 129.099 6.87002C129.322 7.04387 129.434 7.30616 129.434 7.65691C129.434 8.00766 129.318 8.27606 129.09 8.46516C128.862 8.65426 128.526 8.74881 128.094 8.74881H125.955V6.60772ZM129.779 12.7229C129.492 12.9547 129.096 13.0676 128.593 13.0676H125.952V10.5696H128.593C129.096 10.5696 129.492 10.6794 129.779 10.896C130.065 11.1125 130.208 11.4114 130.208 11.7866C130.208 12.1617 130.065 12.4881 129.779 12.7199V12.7229Z" fill="#1348BA"/>
<path d="M143.872 12.482C143.872 12.1739 143.762 11.9086 143.546 11.6859C143.329 11.4633 143.067 11.3504 142.76 11.3504C142.577 11.3504 142.421 11.3809 142.287 11.445C142.153 11.509 142.019 11.6097 141.879 11.75C141.559 12.1129 141.203 12.3996 140.81 12.6101C140.42 12.8205 139.984 12.9242 139.512 12.9242C138.939 12.9242 138.431 12.79 137.983 12.5247C137.535 12.2593 137.181 11.8933 136.926 11.4236C136.667 10.9539 136.539 10.4202 136.539 9.81934C136.539 9.2185 136.667 8.70305 136.926 8.2364C137.185 7.7667 137.538 7.40071 137.983 7.13536C138.431 6.87001 138.939 6.73581 139.512 6.73581C140 6.73581 140.441 6.83951 140.831 7.04996C141.221 7.26041 141.572 7.54711 141.879 7.91005C142.102 8.1754 142.397 8.3096 142.76 8.3096C143.067 8.3096 143.329 8.19675 143.546 7.9741C143.762 7.75145 143.872 7.48611 143.872 7.17806C143.872 6.96761 143.795 6.74496 143.64 6.50706C143.235 5.87876 142.659 5.37552 141.913 4.99732C141.166 4.61912 140.359 4.43002 139.494 4.43002C138.473 4.43002 137.541 4.67097 136.697 5.15287C135.85 5.63477 135.189 6.28441 134.708 7.10486C134.226 7.92225 133.986 8.8281 133.986 9.82239C133.986 10.8167 134.226 11.7286 134.708 12.5613C135.189 13.3939 135.853 14.0466 136.697 14.5224C137.541 14.9982 138.473 15.2361 139.494 15.2361C140.386 15.2361 141.197 15.0501 141.925 14.681C142.65 14.312 143.238 13.7965 143.686 13.1377C143.811 12.9273 143.875 12.7107 143.875 12.4881L143.872 12.482Z" fill="#1348BA"/>
<path d="M147.055 15.23C147.406 15.23 147.698 15.108 147.936 14.864C148.173 14.62 148.292 14.315 148.292 13.9521V5.70491C148.292 5.34197 148.173 5.03697 147.936 4.79297C147.698 4.54897 147.406 4.42697 147.055 4.42697C146.705 4.42697 146.388 4.54897 146.144 4.79297C145.901 5.03697 145.779 5.34197 145.779 5.70491V13.949C145.779 14.312 145.901 14.617 146.144 14.861C146.388 15.105 146.693 15.227 147.055 15.227V15.23Z" fill="#1348BA"/>
<path d="M151.537 9.81324L154.495 6.43996C154.732 6.17461 154.851 5.88791 154.851 5.57987C154.851 5.27182 154.738 4.98512 154.516 4.76247C154.294 4.53982 154.013 4.42697 153.678 4.42697C153.316 4.42697 153.02 4.55202 152.798 4.80517L149.237 8.91655C149.084 9.09955 148.971 9.25814 148.901 9.39844C148.831 9.53874 148.798 9.67904 148.798 9.81934C148.798 9.97184 148.825 10.1243 148.883 10.2707C148.938 10.4171 149.035 10.5696 149.176 10.7221L152.947 14.8549C153.185 15.108 153.477 15.2331 153.828 15.2331C154.147 15.2331 154.425 15.1202 154.656 14.8976C154.888 14.6749 155.004 14.4004 155.004 14.0802C155.004 13.7599 154.906 13.5068 154.711 13.2841L151.543 9.81629L151.537 9.81324Z" fill="#1348BA"/>
<path d="M160.74 4.42697C159.985 4.42697 159.284 4.54592 158.635 4.78382C157.986 5.02172 157.438 5.35722 156.99 5.79031C156.655 6.11361 156.487 6.45521 156.487 6.81816C156.487 7.09876 156.591 7.33971 156.801 7.541C157.011 7.74535 157.261 7.846 157.557 7.846C157.697 7.846 157.825 7.8216 157.943 7.7728C158.062 7.724 158.199 7.63555 158.352 7.5105C158.672 7.21771 159.013 7.00116 159.369 6.86086C159.726 6.72056 160.106 6.65041 160.512 6.65041C161.167 6.65041 161.678 6.82426 162.041 7.17501C162.403 7.52575 162.586 8.0229 162.586 8.6634V9.20934H159.82C158.632 9.20934 157.694 9.47774 157.002 10.0176C156.31 10.5574 155.966 11.2864 155.966 12.2105C155.966 13.1347 156.298 13.8514 156.962 14.4035C157.627 14.9555 158.489 15.2331 159.552 15.2331C160.307 15.2331 160.981 15.0928 161.575 14.8122C161.983 14.62 162.336 14.3669 162.641 14.0649C162.659 14.376 162.772 14.6444 162.988 14.8671C163.226 15.1111 163.528 15.2331 163.89 15.2331C164.253 15.2331 164.53 15.1141 164.758 14.8762C164.99 14.6383 165.106 14.3364 165.106 13.9734V8.7915C165.106 7.4068 164.722 6.33321 163.954 5.57071C163.186 4.80822 162.117 4.42697 160.749 4.42697H160.74ZM162.26 12.2532C162.044 12.5887 161.752 12.8541 161.38 13.0493C161.008 13.2445 160.6 13.3421 160.155 13.3421C159.652 13.3421 159.253 13.2353 158.961 13.0157C158.668 12.7992 158.522 12.4942 158.522 12.1038C158.522 11.7134 158.659 11.4389 158.93 11.2437C159.202 11.0485 159.613 10.9509 160.155 10.9509H162.586V11.1186C162.586 11.5395 162.477 11.9147 162.26 12.2502V12.2532Z" fill="#1348BA"/>
<path d="M175.628 5.02478C175.385 4.78078 175.074 4.65878 174.696 4.65878H171.449C170.206 4.65878 169.215 4.97598 168.484 5.61343C167.75 6.25087 167.384 7.09877 167.384 8.16321C167.384 9.22766 167.762 10.0878 168.515 10.7008C168.783 10.9204 169.081 11.0973 169.41 11.2406L167.93 13.0737C167.79 13.2414 167.686 13.397 167.616 13.5342C167.546 13.6745 167.512 13.827 167.512 13.9948C167.512 14.3303 167.634 14.62 167.878 14.864C168.122 15.108 168.42 15.23 168.768 15.23C169.158 15.23 169.474 15.0836 169.712 14.7908L172.183 11.6646H173.484V13.9521C173.484 14.315 173.602 14.62 173.84 14.864C174.078 15.108 174.379 15.23 174.742 15.23C175.104 15.23 175.406 15.108 175.644 14.864C175.881 14.62 176 14.315 176 13.9521V5.95808C176 5.57988 175.878 5.26878 175.634 5.02478H175.628ZM173.481 9.6089H171.573C171.071 9.6089 170.672 9.48081 170.379 9.22156C170.087 8.96231 169.941 8.61766 169.941 8.18151C169.941 7.74537 170.087 7.41292 170.379 7.17502C170.672 6.93712 171.065 6.81817 171.552 6.81817H173.481V9.6089Z" fill="#1348BA"/>
<path d="M68.9856 25.2767C68.224 24.8161 67.3831 24.5843 66.46 24.5843C65.3968 24.5843 64.4981 24.8649 63.7578 25.4231C63.377 25.7098 63.051 26.0453 62.7768 26.4204C62.7981 25.3773 62.923 24.5538 63.1607 23.956C63.4196 23.3003 63.8766 22.794 64.5346 22.4463C65.1896 22.0955 66.128 21.8515 67.3435 21.7112C67.9315 21.6411 68.4311 21.5648 68.8424 21.4794C69.2537 21.394 69.671 21.2903 70.0884 21.1653C70.3961 21.0799 70.6307 20.9487 70.7891 20.7657C70.9506 20.5827 71.0298 20.3387 71.0298 20.0307C71.0298 19.7226 70.9171 19.4786 70.6947 19.256C70.4723 19.0334 70.2042 18.9205 69.8995 18.9205C69.7868 18.9205 69.5857 18.948 69.2902 19.0029L68.8911 19.1065C68.4981 19.2041 67.9132 19.3231 67.1303 19.4634C65.4943 19.7013 64.1934 20.1069 63.2216 20.6803C62.2498 21.2537 61.546 22.0711 61.1043 23.1356C60.6656 24.2 60.4432 25.5908 60.4432 27.311V28.9275C60.4432 30.1719 60.6778 31.2516 61.1439 32.1696C61.613 33.0846 62.262 33.7861 63.0936 34.268C63.9253 34.7499 64.8698 34.9909 65.933 34.9909C66.9962 34.9909 67.9193 34.7591 68.751 34.2985C69.5827 33.838 70.2286 33.2127 70.6886 32.4197C71.1486 31.6298 71.3801 30.7514 71.3801 29.7876C71.3801 28.8238 71.1699 27.9637 70.7526 27.1646C70.3321 26.3686 69.7442 25.7372 68.9825 25.2767H68.9856ZM68.4189 31.2668C68.16 31.706 67.8096 32.0568 67.3709 32.316C66.9322 32.5753 66.4448 32.7034 65.9147 32.7034C65.3846 32.7034 64.8941 32.5753 64.4463 32.316C63.9985 32.0568 63.6451 31.7091 63.3892 31.2668C63.1302 30.8276 63.0023 30.3335 63.0023 29.7876C63.0023 29.2416 63.1302 28.7658 63.3892 28.3175C63.6481 27.8692 63.9985 27.5215 64.4463 27.2683C64.8941 27.0152 65.3816 26.8901 65.9147 26.8901C66.4478 26.8901 66.9322 27.0152 67.3709 27.2683C67.8096 27.5215 68.16 27.8692 68.4189 28.3175C68.6779 28.7658 68.8058 29.2538 68.8058 29.7876C68.8058 30.3213 68.6779 30.8246 68.4189 31.2668Z" fill="#1348BA"/>
<path d="M80.9949 24.932C80.148 24.4501 79.2249 24.2092 78.2195 24.2092C77.2142 24.2092 76.288 24.4471 75.4442 24.9229C74.5972 25.3987 73.9361 26.0483 73.4548 26.8749C72.9734 27.7014 72.7328 28.6103 72.7328 29.6015C72.7328 30.5928 72.9734 31.5047 73.4548 32.3282C73.9361 33.1548 74.5972 33.8075 75.435 34.2894C76.2728 34.7713 77.202 35.0122 78.2226 35.0122C79.2431 35.0122 80.154 34.7713 80.9979 34.2894C81.8418 33.8075 82.509 33.1517 82.9995 32.3282C83.4869 31.5017 83.7337 30.5928 83.7337 29.6015C83.7337 28.6103 83.49 27.7014 82.9995 26.884C82.509 26.0666 81.8449 25.417 80.9979 24.932H80.9949ZM80.7633 31.1845C80.5044 31.6542 80.1571 32.0202 79.7154 32.2855C79.2767 32.5509 78.777 32.6851 78.2165 32.6851C77.6559 32.6851 77.1532 32.557 76.7085 32.2977C76.2606 32.0385 75.9133 31.6755 75.6605 31.2058C75.4076 30.7361 75.2827 30.2085 75.2827 29.6229C75.2827 29.0373 75.4106 28.5035 75.6696 28.0277C75.9286 27.5519 76.2819 27.1829 76.7267 26.9145C77.1746 26.6492 77.6772 26.515 78.2348 26.515C78.7923 26.515 79.2706 26.6522 79.7123 26.9237C80.154 27.1951 80.5013 27.5672 80.7603 28.0369C81.0193 28.5066 81.1472 29.0342 81.1472 29.6198C81.1472 30.2054 81.0193 30.7148 80.7603 31.1814L80.7633 31.1845Z" fill="#1348BA"/>
<path d="M93.1992 24.4379H87.8556C87.4931 24.4379 87.1884 24.5599 86.9447 24.8039C86.701 25.0479 86.5791 25.359 86.5791 25.7372C86.5639 26.1429 86.5517 26.5546 86.5365 26.9755C86.5212 28.2626 86.4634 29.3209 86.3598 30.1536C86.2562 30.9862 86.0947 31.6145 85.8784 32.0415C85.6621 32.4685 85.3727 32.6942 85.0102 32.7247C84.9249 32.7247 84.8365 32.7522 84.739 32.8101C84.5166 32.8528 84.3308 32.9687 84.1846 33.1548C84.0383 33.3408 83.9652 33.5635 83.9652 33.8166C83.9652 34.082 84.0414 34.3138 84.1968 34.509C84.3491 34.7042 84.5532 34.8231 84.8061 34.8658C84.9736 34.9207 85.1625 34.9482 85.3727 34.9482C86.2105 34.9482 86.8838 34.6828 87.3956 34.1521C87.9043 33.6214 88.2821 32.801 88.5258 31.6969C88.7696 30.5928 88.9066 29.1319 88.9341 27.311V26.5973H91.9928V33.7312C91.9928 34.0942 92.1116 34.3992 92.3492 34.6432C92.5868 34.8872 92.8884 35.0092 93.251 35.0092C93.6135 35.0092 93.8938 34.8872 94.1314 34.6432C94.369 34.3992 94.4878 34.0942 94.4878 33.7312V25.7372C94.4878 25.359 94.366 25.0479 94.1223 24.8039C93.8785 24.5599 93.5739 24.4379 93.2114 24.4379H93.1992Z" fill="#1348BA"/>
<path d="M103.825 28.0064C103.198 27.7136 102.476 27.5672 101.668 27.5672H99.6364V25.4902C99.6364 25.1272 99.5176 24.8222 99.28 24.5782C99.0424 24.3342 98.7499 24.2122 98.3995 24.2122C98.0492 24.2122 97.7324 24.3342 97.4886 24.5782C97.2449 24.8222 97.1231 25.1272 97.1231 25.4902V33.5055C97.1231 33.8685 97.248 34.1735 97.5008 34.4175C97.7537 34.6615 98.0583 34.7835 98.4239 34.7835H101.671C102.482 34.7835 103.201 34.6401 103.828 34.3534C104.456 34.0667 104.953 33.6489 105.315 33.0938C105.678 32.5417 105.86 31.9012 105.86 31.1753C105.86 30.4494 105.678 29.7937 105.315 29.2569C104.953 28.7201 104.456 28.3022 103.828 28.0094L103.825 28.0064ZM102.829 32.2459C102.528 32.499 102.113 32.6241 101.583 32.6241H99.6334V29.7296H101.562C102.092 29.7296 102.512 29.8577 102.82 30.117C103.128 30.3762 103.28 30.7361 103.28 31.1967C103.28 31.6572 103.131 31.9927 102.829 32.2459Z" fill="#1348BA"/>
<path d="M115.749 24.2092C115.387 24.2092 115.085 24.3312 114.848 24.5752C114.61 24.8192 114.491 25.1242 114.491 25.4871V28.2992H110.342V25.4871C110.342 25.1242 110.226 24.8192 109.995 24.5752C109.763 24.3312 109.467 24.2092 109.105 24.2092C108.742 24.2092 108.438 24.3312 108.194 24.5752C107.95 24.8192 107.828 25.1242 107.828 25.4871V33.7312C107.828 34.0942 107.95 34.3992 108.194 34.6432C108.438 34.8872 108.742 35.0092 109.105 35.0092C109.467 35.0092 109.766 34.8872 109.995 34.6432C110.223 34.3992 110.342 34.0942 110.342 33.7312V30.4586H114.491V33.7312C114.491 34.0942 114.61 34.3992 114.848 34.6432C115.085 34.8872 115.384 35.0092 115.749 35.0092C116.115 35.0092 116.41 34.8872 116.639 34.6432C116.867 34.3992 116.983 34.0942 116.983 33.7312V25.4871C116.983 25.1242 116.867 24.8192 116.639 24.5752C116.407 24.3312 116.112 24.2092 115.749 24.2092Z" fill="#1348BA"/>
<path d="M127.673 24.2092C127.226 24.2092 126.842 24.4196 126.522 24.8375L122.162 30.6965V25.4871C122.162 25.1242 122.043 24.8192 121.806 24.5752C121.568 24.3312 121.276 24.2092 120.925 24.2092C120.575 24.2092 120.258 24.3312 120.014 24.5752C119.771 24.8192 119.649 25.1242 119.649 25.4871V33.7312C119.649 34.0942 119.771 34.3992 120.014 34.6432C120.258 34.8872 120.557 35.0092 120.904 35.0092C121.337 35.0092 121.714 34.8048 122.034 34.3992L126.394 28.6743V33.7282C126.394 34.0911 126.516 34.3961 126.759 34.6401C127.003 34.8841 127.302 35.0061 127.649 35.0061C127.996 35.0061 128.313 34.8841 128.551 34.6401C128.788 34.3961 128.907 34.0911 128.907 33.7282V25.4841C128.907 25.1211 128.788 24.8161 128.551 24.5721C128.313 24.3281 128.021 24.2061 127.67 24.2061L127.673 24.2092Z" fill="#1348BA"/>
<path d="M140.917 32.621L140.496 32.7674V25.4871C140.496 25.1242 140.38 24.8192 140.149 24.5752C139.917 24.3312 139.622 24.2092 139.259 24.2092C138.897 24.2092 138.595 24.3312 138.357 24.5752C138.12 24.8192 138.001 25.1242 138.001 25.4871V32.621H134.083V25.4871C134.083 25.1242 133.964 24.8192 133.727 24.5752C133.489 24.3312 133.197 24.2092 132.846 24.2092C132.496 24.2092 132.179 24.3312 131.935 24.5752C131.692 24.8192 131.57 25.1242 131.57 25.4871V33.5025C131.57 33.8654 131.695 34.1704 131.948 34.4144C132.2 34.6584 132.505 34.7804 132.871 34.7804H139.786V36.8361C139.786 37.1868 139.902 37.4796 140.131 37.7175C140.362 37.9554 140.651 38.0744 140.999 38.0744C141.346 38.0744 141.635 37.9554 141.858 37.7175C142.08 37.4796 142.193 37.1868 142.193 36.8361V33.9203C142.193 33.5421 142.071 33.231 141.827 32.987C141.584 32.743 141.279 32.621 140.917 32.621Z" fill="#1348BA"/>
<path d="M148.125 24.2092C147.369 24.2092 146.668 24.3281 146.019 24.566C145.371 24.8039 144.822 25.1394 144.374 25.5725C144.039 25.8958 143.872 26.2374 143.872 26.6004C143.872 26.881 143.975 27.1219 144.185 27.3232C144.396 27.5275 144.645 27.6282 144.941 27.6282C145.081 27.6282 145.209 27.6038 145.328 27.555C145.447 27.5062 145.584 27.4177 145.736 27.2927C146.056 26.9999 146.397 26.7834 146.754 26.6431C147.11 26.5028 147.491 26.4326 147.896 26.4326C148.551 26.4326 149.063 26.6065 149.425 26.9572C149.788 27.308 149.971 27.8051 149.971 28.4456V28.9915H147.204C146.016 28.9915 145.078 29.2599 144.386 29.7998C143.695 30.3396 143.351 31.0686 143.351 31.9927C143.351 32.9169 143.683 33.6336 144.347 34.1857C145.011 34.7377 145.873 35.0153 146.936 35.0153C147.692 35.0153 148.365 34.875 148.959 34.5944C149.368 34.4022 149.721 34.1491 150.026 33.8471C150.044 34.1582 150.157 34.4266 150.373 34.6493C150.61 34.8933 150.912 35.0153 151.275 35.0153C151.637 35.0153 151.914 34.8963 152.143 34.6584C152.374 34.4205 152.49 34.1186 152.49 33.7556V28.5737C152.49 27.189 152.106 26.1154 151.339 25.3529C150.571 24.5904 149.502 24.2092 148.134 24.2092H148.125ZM149.645 32.0354C149.428 32.3709 149.136 32.6363 148.764 32.8315C148.393 33.0267 147.984 33.1243 147.54 33.1243C147.037 33.1243 146.638 33.0175 146.345 32.7979C146.053 32.5814 145.907 32.2764 145.907 31.886C145.907 31.4956 146.044 31.2211 146.315 31.0259C146.586 30.8307 146.997 30.7331 147.54 30.7331H149.971V30.9008C149.971 31.3217 149.861 31.6969 149.645 32.0324V32.0354Z" fill="#1348BA"/>
<path d="M21.4025 28.3406H13.2816C12.4792 28.3406 12.1114 27.3365 12.7254 26.8192L15.6248 24.3668C18.506 21.9539 20.5393 19.7905 21.7277 17.8797C22.916 15.9689 23.5117 13.9241 23.5117 11.7425C23.5117 9.56087 23.0254 7.8113 22.0559 6.18344C21.0833 4.55862 19.7369 3.27459 18.0106 2.33438C16.2843 1.39722 14.3331 0.925598 12.157 0.925598C10.2149 0.925598 8.40659 1.32115 6.73196 2.10618C5.05733 2.89425 3.68358 3.96833 2.61376 5.32539C1.5409 6.68245 0.854032 8.23424 0.553145 9.97773C0.385986 10.9179 0.352554 11.7547 0.452849 12.491C0.519713 13.4982 0.863149 14.3014 1.48316 14.9039C2.10317 15.5064 2.88122 15.8106 3.82035 15.8106C4.75948 15.8106 5.47978 15.5429 6.08156 15.0074C6.68333 14.4718 7.05108 13.7507 7.18785 12.844L7.28814 12.2415C7.32157 11.9738 7.355 11.6877 7.38844 11.3865C7.48873 10.5163 7.74707 9.76778 8.16649 9.14706C8.5859 8.52634 9.1117 8.04863 9.74994 7.71393C10.3851 7.37923 11.1237 7.21188 11.9595 7.21188C13.3332 7.21188 14.4365 7.65612 15.2753 8.5446C16.1111 9.43308 16.5305 10.6167 16.5305 12.0894C16.5305 13.4312 16.1628 14.6787 15.4242 15.835C14.6857 16.9912 13.397 18.3757 11.5553 19.9853L1.40718 28.5932C0.468046 29.366 0 30.3032 0 31.4107C0 32.3175 0.325201 33.1055 0.978641 33.7749C1.63208 34.4474 2.42837 34.7821 3.36446 34.7821L21.3994 34.7304C22.372 34.7304 23.1652 34.4291 23.7852 33.8236C24.4052 33.2212 24.7152 32.4483 24.7152 31.5111C24.7152 30.574 24.4052 29.8528 23.7852 29.2473C23.1652 28.6449 22.3689 28.3406 21.3994 28.3406H21.4025Z" fill="#1348BA"/>
<path d="M37.9877 27.5769H34.5047C33.5321 27.5769 32.7541 27.2665 32.1675 26.6458C31.5809 26.0251 31.2892 25.2979 31.2892 24.4581C31.2892 23.6213 31.584 22.8819 32.1675 22.246C32.7541 21.6101 33.5321 21.2906 34.5047 21.2906H37.9877C38.4649 21.2906 38.8478 20.9042 38.8478 20.4295V16.903C38.8478 15.9323 39.173 15.1169 39.8264 14.4627C40.4799 13.8085 41.2762 13.4829 42.2123 13.4829C43.1483 13.4829 43.9963 13.8085 44.6497 14.4627C45.3032 15.1169 45.6284 15.9293 45.6284 16.903V20.4295C45.6284 20.9072 46.0144 21.2906 46.4885 21.2906H49.9715C50.944 21.2906 51.7221 21.6101 52.3087 22.246C52.8952 22.8819 53.187 23.6213 53.187 24.4581C53.187 25.2948 52.8922 26.0251 52.3087 26.6458C51.7221 27.2665 50.944 27.5769 49.9715 27.5769H46.4885C46.0113 27.5769 45.6284 27.9633 45.6284 28.438V32.0101C45.6284 32.9838 45.3032 33.8053 44.6497 34.4748C43.9963 35.1441 43.1848 35.4819 42.2123 35.4819C41.343 35.4819 40.5163 35.1533 39.8933 34.5447C39.1943 33.8632 38.8448 33.0173 38.8448 32.0132V28.441C38.8448 27.9633 38.4588 27.5799 37.9846 27.5799L37.9877 27.5769Z" fill="#E30613"/>
<path d="M29.2802 23.311L37.8418 5.55664C38.009 5.155 38.0941 4.75336 38.0941 4.34868C38.0941 3.41152 37.7597 2.6052 37.0881 1.93579C36.4164 1.26639 35.614 0.92865 34.6779 0.92865C33.9759 0.92865 33.3467 1.1386 32.7936 1.5585C32.2404 1.97839 31.815 2.50479 31.5141 3.14376L22.22 22.599C22.0194 23.101 21.9191 23.5879 21.9191 24.0565C21.9191 24.9632 22.2534 25.7513 22.9251 26.4207C23.5938 27.0931 24.3809 27.4278 25.2866 27.4278H29.4231C29.7665 27.4278 30.0127 27.017 29.7847 26.7614C29.2012 26.1042 28.7331 24.5098 29.2893 23.311H29.2802Z" fill="#1348BA"/>
</svg>
