<svg width="238" height="238" viewBox="0 0 238 238" fill="none" xmlns="http://www.w3.org/2000/svg">
<rect width="238" height="238" rx="16" fill="#F5F5F5"/>
<path d="M111.312 64.0208H75.5042L78.1314 57.2179L78.1315 57.2178C78.7641 55.5793 80.3375 54.5 82.0907 54.5H105.511C107.432 54.5 109.115 55.7928 109.611 57.6531L110.095 57.5241L109.611 57.6531L111.312 64.0208Z" fill="#D9D9D9" stroke="#757575"/>
<path d="M106.227 60.1194L107.527 64.8026H79.5672L81.5729 59.8023C81.573 59.8022 81.573 59.8022 81.573 59.8022C82.0521 58.6083 83.2509 57.8076 84.6024 57.8076H103.09C104.572 57.8076 105.852 58.7666 106.227 60.1194Z" fill="#FCF2E3" stroke="#757575"/>
<path d="M73.0899 119.017C71.3779 119.017 69.9827 117.621 69.9827 115.905V64.5709C69.9827 62.8547 71.3774 61.4589 73.0899 61.4589H164.91C166.622 61.4589 168.017 62.8547 168.017 64.5709V115.905C168.017 117.621 166.622 119.017 164.91 119.017H73.0899Z" fill="#D9D9D9" stroke="#757575"/>
<mask id="path-5-inside-1_1577_40300" fill="white">
<path d="M164.91 61.4424C166.636 61.4424 168.035 62.8433 168.035 64.5714V115.905C168.035 117.633 166.636 119.034 164.91 119.034H73.0901C71.3646 119.034 69.9656 117.633 69.9656 115.905V64.5709C69.9656 62.8429 71.3646 61.4419 73.0901 61.4419L164.91 61.4424ZM164.91 60.4753H73.0901C70.835 60.4753 69 62.3125 69 64.5709V115.904C69 118.163 70.8345 120 73.0901 120H164.91C167.165 120 169 118.163 169 115.904V64.5709C169 62.3125 167.165 60.4753 164.91 60.4753Z"/>
</mask>
<path d="M164.91 61.4424C166.636 61.4424 168.035 62.8433 168.035 64.5714V115.905C168.035 117.633 166.636 119.034 164.91 119.034H73.0901C71.3646 119.034 69.9656 117.633 69.9656 115.905V64.5709C69.9656 62.8429 71.3646 61.4419 73.0901 61.4419L164.91 61.4424ZM164.91 60.4753H73.0901C70.835 60.4753 69 62.3125 69 64.5709V115.904C69 118.163 70.8345 120 73.0901 120H164.91C167.165 120 169 118.163 169 115.904V64.5709C169 62.3125 167.165 60.4753 164.91 60.4753Z" fill="#FCF2E3"/>
<path d="M164.91 61.4424L164.91 62.4424H164.91V61.4424ZM73.0901 61.4419L73.0901 60.4419H73.0901V61.4419ZM164.91 62.4424C166.082 62.4424 167.035 63.3943 167.035 64.5714H169.035C169.035 62.2924 167.19 60.4424 164.91 60.4424V62.4424ZM167.035 64.5714V115.905H169.035V64.5714H167.035ZM167.035 115.905C167.035 117.082 166.082 118.034 164.91 118.034V120.034C167.19 120.034 169.035 118.184 169.035 115.905H167.035ZM164.91 118.034H73.0901V120.034H164.91V118.034ZM73.0901 118.034C71.9182 118.034 70.9656 117.082 70.9656 115.905H68.9656C68.9656 118.184 70.8109 120.034 73.0901 120.034V118.034ZM70.9656 115.905V64.5709H68.9656V115.905H70.9656ZM70.9656 64.5709C70.9656 63.3938 71.9182 62.4419 73.0901 62.4419V60.4419C70.8109 60.4419 68.9656 62.2919 68.9656 64.5709H70.9656ZM73.0901 62.4419L164.91 62.4424L164.91 60.4424L73.0901 60.4419L73.0901 62.4419ZM164.91 59.4753H73.0901V61.4753H164.91V59.4753ZM73.0901 59.4753C70.2815 59.4753 68 61.7615 68 64.5709H70C70 62.8636 71.3885 61.4753 73.0901 61.4753V59.4753ZM68 64.5709V115.904H70V64.5709H68ZM68 115.904C68 118.714 70.281 121 73.0901 121V119C71.3881 119 70 117.612 70 115.904H68ZM73.0901 121H164.91V119H73.0901V121ZM164.91 121C167.719 121 170 118.714 170 115.904H168C168 117.612 166.612 119 164.91 119V121ZM170 115.904V64.5709H168V115.904H170ZM170 64.5709C170 61.7616 167.719 59.4753 164.91 59.4753V61.4753C166.612 61.4753 168 62.8635 168 64.5709H170Z" fill="#757575" mask="url(#path-5-inside-1_1577_40300)"/>
<path d="M159.733 60.9424H147.588V59.3944C147.588 58.3909 148.401 57.5789 149.401 57.5789H157.921C158.921 57.5789 159.733 58.3908 159.733 59.3944V60.9424Z" fill="#D9D9D9" stroke="#757575"/>
<path d="M160.514 72.5739H152.419C151.676 72.5739 151.073 71.9708 151.073 71.2254V66.9294C151.073 66.1839 151.676 65.5809 152.419 65.5809H160.514C161.257 65.5809 161.86 66.1839 161.86 66.9294V71.2254C161.86 71.9705 161.256 72.5739 160.514 72.5739Z" fill="#FCF2E3" stroke="#757575"/>
<path d="M139.631 90.2379C139.631 101.649 130.393 110.899 119 110.899C107.607 110.899 98.3704 101.649 98.3704 90.2379C98.3704 78.8266 107.607 69.5772 119 69.5772C130.393 69.5772 139.631 78.8266 139.631 90.2379Z" fill="#FCF2E3" stroke="#757575"/>
<path d="M129.609 90.2379C129.609 96.1063 124.858 100.862 119 100.862C113.142 100.862 108.392 96.1063 108.392 90.2379C108.392 84.3695 113.142 79.6135 119 79.6135C124.858 79.6135 129.609 84.3695 129.609 90.2379Z" fill="#D9D9D9" stroke="#757575"/>
<path d="M128.727 85.4367C128.727 86.8222 127.605 87.9442 126.223 87.9442C124.842 87.9442 123.72 86.8221 123.72 85.4367C123.72 84.0513 124.842 82.9292 126.223 82.9292C127.605 82.9292 128.727 84.0513 128.727 85.4367Z" fill="#FCF2E3" stroke="#757575"/>
<path d="M77.6816 65.4571L77.6817 65.4571C79.0094 65.4567 80.0875 66.5351 80.0875 67.8672C80.0875 69.1992 79.0095 70.2774 77.6816 70.2774C76.3533 70.2774 75.2756 69.1988 75.2756 67.8672C75.2756 66.5352 76.3536 65.4571 77.6816 65.4571Z" fill="#FCF2E3" stroke="#757575"/>
<path d="M86.5253 65.4571L86.5255 65.4571C87.8531 65.4567 88.9312 66.5351 88.9312 67.8672C88.9312 69.1992 87.8532 70.2774 86.5253 70.2774C85.197 70.2774 84.1194 69.1988 84.1194 67.8672C84.1194 66.5352 85.1974 65.4571 86.5253 65.4571Z" fill="#FCF2E3" stroke="#757575"/>
<path d="M119.001 108.94C129.314 108.94 137.675 100.567 137.675 90.2379C137.675 79.9091 129.314 71.5359 119.001 71.5359C108.687 71.5359 100.326 79.9091 100.326 90.2379C100.326 100.567 108.687 108.94 119.001 108.94Z" stroke="#757575" stroke-width="5" stroke-miterlimit="10"/>
<rect x="98.2336" y="69.3987" width="42" height="42" rx="21" fill="#1348BA"/>
<path d="M117.892 95.163H113.85C113.451 95.163 113.268 94.664 113.573 94.4069L115.016 93.1881C116.45 91.9889 117.462 90.9138 118.054 89.9641C118.645 89.0145 118.942 87.9983 118.942 86.9141C118.942 85.8298 118.7 84.9603 118.217 84.1513C117.733 83.3438 117.063 82.7057 116.204 82.2384C115.345 81.7727 114.373 81.5383 113.29 81.5383C112.324 81.5383 111.424 81.7349 110.59 82.125C109.756 82.5166 109.073 83.0504 108.54 83.7249C108.006 84.3993 107.664 85.1705 107.515 86.037C107.431 86.5043 107.415 86.9201 107.465 87.286C107.498 87.7866 107.669 88.1858 107.977 88.4852C108.286 88.7846 108.673 88.9358 109.141 88.9358C109.608 88.9358 109.967 88.8028 110.266 88.5366C110.566 88.2705 110.749 87.9121 110.817 87.4615L110.867 87.162C110.883 87.029 110.9 86.8868 110.917 86.7371C110.967 86.3046 111.095 85.9327 111.304 85.6242C111.513 85.3157 111.774 85.0783 112.092 84.9119C112.408 84.7456 112.776 84.6624 113.192 84.6624C113.876 84.6624 114.425 84.8832 114.842 85.3248C115.258 85.7663 115.467 86.3545 115.467 87.0864C115.467 87.7533 115.284 88.3733 114.916 88.9479C114.549 89.5226 113.907 90.2106 112.991 91.0105L107.94 95.2885C107.472 95.6726 107.239 96.1383 107.239 96.6888C107.239 97.1394 107.401 97.531 107.726 97.8637C108.052 98.1979 108.448 98.3642 108.914 98.3642L117.891 98.3385C118.375 98.3385 118.769 98.1888 119.078 97.8879C119.387 97.5885 119.541 97.2044 119.541 96.7387C119.541 96.2729 119.387 95.9145 119.078 95.6136C118.769 95.3142 118.373 95.163 117.891 95.163H117.892Z" fill="white"/>
<path d="M126.147 94.7834H124.413C123.929 94.7834 123.542 94.6291 123.25 94.3207C122.958 94.0122 122.813 93.6508 122.813 93.2334C122.813 92.8176 122.96 92.4501 123.25 92.1341C123.542 91.818 123.929 91.6592 124.413 91.6592H126.147C126.385 91.6592 126.575 91.4672 126.575 91.2313V89.4787C126.575 88.9963 126.737 88.591 127.062 88.2659C127.388 87.9408 127.784 87.779 128.25 87.779C128.716 87.779 129.138 87.9408 129.463 88.2659C129.788 88.591 129.95 88.9948 129.95 89.4787V91.2313C129.95 91.4687 130.142 91.6592 130.378 91.6592H132.112C132.596 91.6592 132.983 91.818 133.275 92.1341C133.567 92.4501 133.712 92.8176 133.712 93.2334C133.712 93.6493 133.566 94.0122 133.275 94.3207C132.983 94.6291 132.596 94.7834 132.112 94.7834H130.378C130.141 94.7834 129.95 94.9754 129.95 95.2113V96.9866C129.95 97.4705 129.788 97.8788 129.463 98.2115C129.138 98.5442 128.734 98.712 128.25 98.712C127.817 98.712 127.406 98.5487 127.096 98.2463C126.748 97.9075 126.574 97.4872 126.574 96.9881V95.2128C126.574 94.9754 126.382 94.7849 126.146 94.7849L126.147 94.7834Z" fill="#E30613"/>
<path d="M121.813 92.6634L126.075 83.8398C126.158 83.6402 126.2 83.4406 126.2 83.2395C126.2 82.7737 126.034 82.373 125.7 82.0403C125.365 81.7076 124.966 81.5398 124.5 81.5398C124.151 81.5398 123.837 81.6441 123.562 81.8528C123.287 82.0615 123.075 82.3231 122.925 82.6407L118.299 92.3095C118.199 92.559 118.149 92.801 118.149 93.0338C118.149 93.4845 118.316 93.8761 118.65 94.2088C118.983 94.543 119.375 94.7093 119.826 94.7093H121.884C122.055 94.7093 122.178 94.5052 122.064 94.3782C121.774 94.0515 121.541 93.2592 121.818 92.6634H121.813Z" fill="white"/>
<path d="M53.0294 155.176C52.0161 155.176 51.0881 154.936 50.2454 154.456C49.4134 153.965 48.7521 153.304 48.2614 152.472C47.7814 151.64 47.5414 150.723 47.5414 149.72C47.5414 148.717 47.7814 147.8 48.2614 146.968C48.7521 146.136 49.4134 145.48 50.2454 145C51.0881 144.509 52.0161 144.264 53.0294 144.264C53.8401 144.264 54.6081 144.429 55.3334 144.76C56.0588 145.091 56.6614 145.555 57.1414 146.152C57.2908 146.355 57.3654 146.531 57.3654 146.68C57.3654 146.829 57.3068 146.963 57.1894 147.08C57.0828 147.187 56.9494 147.24 56.7894 147.24C56.5868 147.24 56.4108 147.155 56.2614 146.984C55.8454 146.472 55.3654 146.083 54.8214 145.816C54.2774 145.549 53.6854 145.416 53.0454 145.416C52.2561 145.416 51.5414 145.608 50.9014 145.992C50.2614 146.365 49.7548 146.883 49.3814 147.544C49.0188 148.195 48.8374 148.92 48.8374 149.72C48.8374 150.531 49.0188 151.261 49.3814 151.912C49.7548 152.563 50.2614 153.08 50.9014 153.464C51.5414 153.837 52.2561 154.024 53.0454 154.024C53.6854 154.024 54.2774 153.891 54.8214 153.624C55.3654 153.357 55.8454 152.968 56.2614 152.456C56.4108 152.285 56.5868 152.2 56.7894 152.2C56.9494 152.2 57.0828 152.259 57.1894 152.376C57.3068 152.483 57.3654 152.611 57.3654 152.76C57.3654 152.909 57.2908 153.085 57.1414 153.288C56.6828 153.875 56.0854 154.339 55.3494 154.68C54.6241 155.011 53.8508 155.176 53.0294 155.176ZM65.2669 155.176C65.0856 155.176 64.9363 155.117 64.8189 155L61.3949 151.544C61.3416 151.48 61.2989 151.411 61.2669 151.336C61.2456 151.251 61.2349 151.171 61.2349 151.096C61.2349 151.021 61.2456 150.947 61.2669 150.872C61.2989 150.797 61.3469 150.728 61.4109 150.664L64.6269 147.208C64.7336 147.091 64.8776 147.032 65.0589 147.032C65.2296 147.032 65.3736 147.091 65.4909 147.208C65.6083 147.325 65.6669 147.464 65.6669 147.624C65.6669 147.805 65.6083 147.955 65.4909 148.072L62.0829 151.688V150.536L65.6989 154.152C65.8163 154.259 65.8749 154.403 65.8749 154.584C65.8749 154.755 65.8109 154.893 65.6829 155C65.5656 155.117 65.4269 155.176 65.2669 155.176ZM60.1949 155.176C60.0136 155.176 59.8643 155.117 59.7469 155C59.6296 154.872 59.5709 154.717 59.5709 154.536V147.672C59.5709 147.501 59.6296 147.352 59.7469 147.224C59.8643 147.096 60.0136 147.032 60.1949 147.032C60.3656 147.032 60.5096 147.096 60.6269 147.224C60.7443 147.352 60.8029 147.501 60.8029 147.672V154.536C60.8029 154.717 60.7443 154.872 60.6269 155C60.5096 155.117 60.3656 155.176 60.1949 155.176ZM70.9972 147.032C71.7439 147.032 72.4265 147.213 73.0452 147.576C73.6745 147.939 74.1705 148.429 74.5332 149.048C74.8959 149.667 75.0772 150.349 75.0772 151.096C75.0772 151.832 74.8959 152.515 74.5332 153.144C74.1705 153.763 73.6745 154.253 73.0452 154.616C72.4159 154.979 71.7279 155.16 70.9812 155.16C70.2345 155.16 69.5519 154.979 68.9332 154.616C68.3145 154.253 67.8239 153.763 67.4612 153.144C67.0985 152.515 66.9172 151.832 66.9172 151.096C66.9172 150.349 67.0985 149.667 67.4612 149.048C67.8239 148.419 68.3145 147.928 68.9332 147.576C69.5625 147.213 70.2505 147.032 70.9972 147.032ZM70.9972 148.168C70.4745 148.168 69.9945 148.296 69.5572 148.552C69.1305 148.808 68.7945 149.165 68.5492 149.624C68.3039 150.072 68.1812 150.568 68.1812 151.112C68.1812 151.667 68.3039 152.163 68.5492 152.6C68.7945 153.037 69.1305 153.384 69.5572 153.64C69.9839 153.896 70.4585 154.024 70.9812 154.024C71.5145 154.024 71.9945 153.896 72.4212 153.64C72.8479 153.384 73.1839 153.037 73.4292 152.6C73.6852 152.152 73.8132 151.656 73.8132 151.112C73.8132 150.568 73.6852 150.072 73.4292 149.624C73.1839 149.165 72.8479 148.808 72.4212 148.552C72.0052 148.296 71.5305 148.168 70.9972 148.168ZM77.8668 158.072C77.6855 158.072 77.5361 158.008 77.4188 157.88C77.3015 157.763 77.2428 157.613 77.2428 157.432V147.64C77.2428 147.469 77.3015 147.325 77.4188 147.208C77.5361 147.08 77.6855 147.016 77.8668 147.016C78.0375 147.016 78.1815 147.08 78.2988 147.208C78.4161 147.325 78.4748 147.469 78.4748 147.64V149.864L77.8988 149.912C77.9201 149.368 78.0855 148.877 78.3948 148.44C78.7041 148.003 79.1148 147.661 79.6268 147.416C80.1495 147.16 80.7201 147.032 81.3388 147.032C82.0641 147.032 82.7201 147.208 83.3068 147.56C83.8935 147.912 84.3521 148.397 84.6828 149.016C85.0241 149.635 85.1948 150.328 85.1948 151.096C85.1948 151.864 85.0241 152.563 84.6828 153.192C84.3521 153.811 83.8935 154.296 83.3068 154.648C82.7201 155 82.0641 155.176 81.3388 155.176C80.7201 155.176 80.1495 155.053 79.6268 154.808C79.1148 154.552 78.7041 154.205 78.3948 153.768C78.0855 153.32 77.9201 152.829 77.8988 152.296L78.4748 152.264V157.432C78.4748 157.624 78.4161 157.779 78.2988 157.896C78.1815 158.013 78.0375 158.072 77.8668 158.072ZM81.1628 154.04C81.6961 154.04 82.1708 153.912 82.5868 153.656C83.0028 153.4 83.3281 153.053 83.5628 152.616C83.8081 152.168 83.9308 151.667 83.9308 151.112C83.9308 150.557 83.8081 150.056 83.5628 149.608C83.3281 149.16 83.0028 148.808 82.5868 148.552C82.1708 148.296 81.6961 148.168 81.1628 148.168C80.6401 148.168 80.1708 148.291 79.7548 148.536C79.3388 148.781 79.0188 149.128 78.7948 149.576C78.5708 150.024 78.4588 150.531 78.4588 151.096C78.4588 151.683 78.5708 152.2 78.7948 152.648C79.0188 153.085 79.3335 153.427 79.7388 153.672C80.1548 153.917 80.6295 154.04 81.1628 154.04ZM90.8722 147.032C91.6189 147.032 92.3015 147.213 92.9202 147.576C93.5495 147.939 94.0455 148.429 94.4082 149.048C94.7709 149.667 94.9522 150.349 94.9522 151.096C94.9522 151.832 94.7709 152.515 94.4082 153.144C94.0455 153.763 93.5495 154.253 92.9202 154.616C92.2909 154.979 91.6029 155.16 90.8562 155.16C90.1095 155.16 89.4269 154.979 88.8082 154.616C88.1895 154.253 87.6989 153.763 87.3362 153.144C86.9735 152.515 86.7922 151.832 86.7922 151.096C86.7922 150.349 86.9735 149.667 87.3362 149.048C87.6989 148.419 88.1895 147.928 88.8082 147.576C89.4375 147.213 90.1255 147.032 90.8722 147.032ZM90.8722 148.168C90.3495 148.168 89.8695 148.296 89.4322 148.552C89.0055 148.808 88.6695 149.165 88.4242 149.624C88.1789 150.072 88.0562 150.568 88.0562 151.112C88.0562 151.667 88.1789 152.163 88.4242 152.6C88.6695 153.037 89.0055 153.384 89.4322 153.64C89.8589 153.896 90.3335 154.024 90.8562 154.024C91.3895 154.024 91.8695 153.896 92.2962 153.64C92.7229 153.384 93.0589 153.037 93.3042 152.6C93.5602 152.152 93.6882 151.656 93.6882 151.112C93.6882 150.568 93.5602 150.072 93.3042 149.624C93.0589 149.165 92.7229 148.808 92.2962 148.552C91.8802 148.296 91.4055 148.168 90.8722 148.168ZM103.954 155.176C103.368 155.176 102.84 155.064 102.37 154.84C101.912 154.616 101.538 154.339 101.25 154.008C101.069 153.827 100.978 153.661 100.978 153.512C100.978 153.363 101.032 153.235 101.138 153.128C101.256 153.011 101.394 152.952 101.554 152.952C101.65 152.952 101.736 152.973 101.81 153.016C101.885 153.048 101.965 153.107 102.05 153.192C102.253 153.405 102.498 153.603 102.786 153.784C103.085 153.955 103.469 154.04 103.938 154.04C104.482 154.04 104.898 153.917 105.186 153.672C105.485 153.427 105.634 153.101 105.634 152.696C105.634 152.312 105.49 152.003 105.202 151.768C104.914 151.533 104.493 151.416 103.938 151.416H103.394C103.245 151.416 103.112 151.368 102.994 151.272C102.888 151.165 102.834 151.032 102.834 150.872C102.834 150.723 102.888 150.595 102.994 150.488C103.112 150.381 103.245 150.328 103.394 150.328H103.922C104.381 150.328 104.722 150.232 104.946 150.04C105.17 149.848 105.282 149.581 105.282 149.24C105.282 148.909 105.16 148.648 104.914 148.456C104.68 148.264 104.338 148.168 103.89 148.168C103.528 148.168 103.208 148.227 102.93 148.344C102.664 148.451 102.424 148.605 102.21 148.808C102.072 148.947 101.922 149.016 101.762 149.016C101.602 149.016 101.469 148.963 101.362 148.856C101.256 148.749 101.202 148.616 101.202 148.456C101.202 148.307 101.282 148.152 101.442 147.992C102.104 147.352 102.936 147.032 103.938 147.032C104.728 147.032 105.352 147.224 105.81 147.608C106.269 147.981 106.498 148.499 106.498 149.16C106.498 149.629 106.365 150.04 106.098 150.392C105.832 150.733 105.437 150.968 104.914 151.096L105.106 150.68C105.672 150.819 106.109 151.075 106.418 151.448C106.738 151.811 106.898 152.248 106.898 152.76C106.898 153.496 106.626 154.083 106.082 154.52C105.549 154.957 104.84 155.176 103.954 155.176ZM114.356 148.312H110.756L111.396 148.056L111.332 149.416C111.31 150.515 111.22 151.453 111.06 152.232C110.9 153 110.692 153.56 110.436 153.912H109.14C109.481 153.56 109.721 153.027 109.86 152.312C110.009 151.587 110.11 150.616 110.164 149.4C110.185 148.867 110.201 148.344 110.212 147.832C110.212 147.661 110.276 147.517 110.404 147.4C110.532 147.272 110.681 147.208 110.852 147.208H114.948C115.118 147.208 115.268 147.272 115.396 147.4C115.524 147.528 115.588 147.677 115.588 147.848V154.264H114.356V148.312ZM108.884 157.432C108.713 157.432 108.564 157.368 108.436 157.24C108.318 157.123 108.26 156.973 108.26 156.792V154.552C108.26 154.371 108.324 154.221 108.452 154.104C108.58 153.976 108.729 153.912 108.9 153.912H116.212C116.393 153.912 116.542 153.976 116.66 154.104C116.788 154.221 116.852 154.371 116.852 154.552V156.792C116.852 156.984 116.793 157.139 116.676 157.256C116.569 157.373 116.425 157.432 116.244 157.432C116.073 157.432 115.924 157.368 115.796 157.24C115.678 157.123 115.62 156.973 115.62 156.792V155H109.492V156.792C109.492 156.984 109.433 157.139 109.316 157.256C109.209 157.373 109.065 157.432 108.884 157.432ZM122.295 155.176C121.517 155.176 120.813 155 120.183 154.648C119.554 154.296 119.058 153.811 118.695 153.192C118.343 152.573 118.167 151.88 118.167 151.112C118.167 150.365 118.343 149.683 118.695 149.064C119.047 148.435 119.527 147.939 120.135 147.576C120.754 147.213 121.426 147.032 122.151 147.032C122.834 147.032 123.442 147.187 123.975 147.496C124.519 147.805 124.941 148.232 125.239 148.776C125.549 149.32 125.703 149.939 125.703 150.632V150.712C125.703 150.968 125.634 151.16 125.495 151.288C125.367 151.416 125.186 151.48 124.951 151.48H119.223V150.392H124.727L124.423 150.712C124.466 150.221 124.391 149.784 124.199 149.4C124.018 149.005 123.746 148.701 123.383 148.488C123.031 148.264 122.61 148.152 122.119 148.152C121.618 148.152 121.159 148.28 120.743 148.536C120.338 148.781 120.018 149.133 119.783 149.592C119.549 150.04 119.431 150.541 119.431 151.096C119.431 151.672 119.554 152.184 119.799 152.632C120.045 153.069 120.386 153.416 120.823 153.672C121.261 153.917 121.757 154.04 122.311 154.04C122.695 154.04 123.058 153.976 123.399 153.848C123.751 153.72 124.066 153.533 124.343 153.288C124.482 153.171 124.621 153.112 124.759 153.112C124.909 153.112 125.037 153.165 125.143 153.272C125.25 153.368 125.303 153.496 125.303 153.656C125.303 153.763 125.277 153.859 125.223 153.944C125.181 154.019 125.106 154.109 124.999 154.216C124.615 154.525 124.194 154.765 123.735 154.936C123.277 155.096 122.797 155.176 122.295 155.176ZM131.388 155.176C130.641 155.176 129.953 154.995 129.324 154.632C128.705 154.269 128.214 153.779 127.852 153.16C127.489 152.531 127.308 151.843 127.308 151.096C127.308 150.349 127.489 149.667 127.852 149.048C128.214 148.429 128.705 147.939 129.324 147.576C129.953 147.213 130.641 147.032 131.388 147.032C132.07 147.032 132.684 147.181 133.228 147.48C133.782 147.768 134.225 148.163 134.556 148.664C134.63 148.771 134.668 148.883 134.668 149C134.668 149.149 134.609 149.283 134.492 149.4C134.385 149.507 134.257 149.56 134.108 149.56C133.937 149.56 133.788 149.485 133.66 149.336C133.361 148.973 133.025 148.691 132.652 148.488C132.289 148.275 131.873 148.168 131.404 148.168C130.881 148.168 130.401 148.296 129.964 148.552C129.537 148.808 129.196 149.16 128.94 149.608C128.694 150.056 128.572 150.552 128.572 151.096C128.572 151.651 128.694 152.152 128.94 152.6C129.196 153.037 129.537 153.389 129.964 153.656C130.401 153.912 130.881 154.04 131.404 154.04C131.873 154.04 132.289 153.939 132.652 153.736C133.025 153.523 133.361 153.235 133.66 152.872C133.734 152.797 133.804 152.744 133.868 152.712C133.942 152.68 134.017 152.664 134.092 152.664C134.252 152.664 134.385 152.717 134.492 152.824C134.609 152.931 134.668 153.064 134.668 153.224C134.668 153.331 134.625 153.443 134.54 153.56C134.209 154.051 133.772 154.445 133.228 154.744C132.684 155.032 132.07 155.176 131.388 155.176ZM137.32 155C137.139 155 136.984 154.941 136.856 154.824C136.739 154.696 136.68 154.541 136.68 154.36V147.672C136.68 147.501 136.739 147.352 136.856 147.224C136.974 147.096 137.123 147.032 137.304 147.032C137.475 147.032 137.619 147.096 137.736 147.224C137.854 147.352 137.912 147.501 137.912 147.672V149.896H139.768C140.355 149.896 140.867 150.003 141.304 150.216C141.742 150.429 142.078 150.728 142.312 151.112C142.558 151.496 142.68 151.939 142.68 152.44C142.68 152.941 142.558 153.389 142.312 153.784C142.078 154.168 141.742 154.467 141.304 154.68C140.867 154.893 140.355 155 139.768 155H137.32ZM139.688 153.912C140.232 153.912 140.654 153.779 140.952 153.512C141.262 153.245 141.416 152.893 141.416 152.456C141.416 152.008 141.262 151.651 140.952 151.384C140.643 151.117 140.222 150.984 139.688 150.984H137.912V153.912H139.688ZM152.953 155.16C152.195 155.16 151.513 154.984 150.905 154.632C150.297 154.28 149.817 153.773 149.465 153.112C149.113 152.44 148.937 151.661 148.937 150.776V149.416C148.937 148.115 149.091 147.064 149.401 146.264C149.721 145.464 150.222 144.845 150.905 144.408C151.598 143.971 152.542 143.651 153.737 143.448C154.686 143.267 155.363 143.112 155.769 142.984L155.929 142.936C156.025 142.904 156.115 142.888 156.201 142.888C156.35 142.888 156.483 142.947 156.601 143.064C156.718 143.181 156.777 143.309 156.777 143.448C156.777 143.587 156.734 143.704 156.649 143.8C156.574 143.896 156.478 143.965 156.361 144.008C155.998 144.125 155.625 144.232 155.241 144.328C154.857 144.424 154.403 144.509 153.881 144.584C152.91 144.723 152.158 144.952 151.625 145.272C151.091 145.581 150.707 146.029 150.473 146.616C150.249 147.192 150.137 147.981 150.137 148.984V150.024L149.673 149.832C149.907 149.117 150.329 148.52 150.937 148.04C151.555 147.56 152.286 147.32 153.129 147.32C153.833 147.32 154.483 147.496 155.081 147.848C155.678 148.2 156.147 148.68 156.489 149.288C156.841 149.885 157.017 150.536 157.017 151.24C157.017 151.955 156.835 152.611 156.473 153.208C156.121 153.805 155.635 154.28 155.017 154.632C154.398 154.984 153.71 155.16 152.953 155.16ZM152.969 154.024C153.47 154.024 153.934 153.901 154.361 153.656C154.787 153.4 155.123 153.059 155.369 152.632C155.625 152.205 155.753 151.741 155.753 151.24C155.753 150.728 155.625 150.259 155.369 149.832C155.123 149.405 154.787 149.069 154.361 148.824C153.945 148.579 153.481 148.456 152.969 148.456C152.457 148.456 151.987 148.579 151.561 148.824C151.145 149.069 150.809 149.405 150.553 149.832C150.307 150.259 150.185 150.728 150.185 151.24C150.185 151.741 150.307 152.205 150.553 152.632C150.809 153.059 151.145 153.4 151.561 153.656C151.987 153.901 152.457 154.024 152.969 154.024ZM159.31 158.056C159.086 158.056 158.873 158.04 158.67 158.008C158.542 157.987 158.43 157.923 158.334 157.816C158.249 157.709 158.206 157.592 158.206 157.464C158.206 157.315 158.265 157.187 158.382 157.08C158.5 156.973 158.628 156.92 158.766 156.92H158.942C159.017 156.931 159.108 156.936 159.214 156.936C159.609 156.936 159.95 156.829 160.238 156.616C160.537 156.413 160.788 156.083 160.99 155.624L161.518 154.456V155.016L158.334 147.928C158.292 147.821 158.27 147.725 158.27 147.64C158.27 147.48 158.329 147.341 158.446 147.224C158.574 147.096 158.718 147.032 158.878 147.032C159.006 147.032 159.124 147.069 159.23 147.144C159.337 147.208 159.412 147.299 159.454 147.416L162.302 153.8L161.774 153.912L164.766 147.416C164.809 147.299 164.884 147.208 164.99 147.144C165.097 147.069 165.214 147.032 165.342 147.032C165.502 147.032 165.641 147.096 165.758 147.224C165.886 147.341 165.95 147.48 165.95 147.64C165.95 147.736 165.934 147.827 165.902 147.912L162.174 155.864C161.812 156.621 161.401 157.176 160.942 157.528C160.494 157.88 159.95 158.056 159.31 158.056ZM171.778 148.312H168.178L168.818 148.056L168.754 149.416C168.732 150.515 168.642 151.453 168.482 152.232C168.322 153 168.114 153.56 167.858 153.912H166.562C166.903 153.56 167.143 153.027 167.282 152.312C167.431 151.587 167.532 150.616 167.586 149.4C167.607 148.867 167.623 148.344 167.634 147.832C167.634 147.661 167.698 147.517 167.826 147.4C167.954 147.272 168.103 147.208 168.274 147.208H172.37C172.54 147.208 172.69 147.272 172.818 147.4C172.946 147.528 173.01 147.677 173.01 147.848V154.264H171.778V148.312ZM166.306 157.432C166.135 157.432 165.986 157.368 165.858 157.24C165.74 157.123 165.682 156.973 165.682 156.792V154.552C165.682 154.371 165.746 154.221 165.874 154.104C166.002 153.976 166.151 153.912 166.322 153.912H173.634C173.815 153.912 173.964 153.976 174.082 154.104C174.21 154.221 174.274 154.371 174.274 154.552V156.792C174.274 156.984 174.215 157.139 174.098 157.256C173.991 157.373 173.847 157.432 173.666 157.432C173.495 157.432 173.346 157.368 173.218 157.24C173.1 157.123 173.042 156.973 173.042 156.792V155H166.914V156.792C166.914 156.984 166.855 157.139 166.738 157.256C166.631 157.373 166.487 157.432 166.306 157.432ZM179.717 155.176C178.938 155.176 178.234 155 177.605 154.648C176.976 154.296 176.48 153.811 176.117 153.192C175.765 152.573 175.589 151.88 175.589 151.112C175.589 150.365 175.765 149.683 176.117 149.064C176.469 148.435 176.949 147.939 177.557 147.576C178.176 147.213 178.848 147.032 179.573 147.032C180.256 147.032 180.864 147.187 181.397 147.496C181.941 147.805 182.362 148.232 182.661 148.776C182.97 149.32 183.125 149.939 183.125 150.632V150.712C183.125 150.968 183.056 151.16 182.917 151.288C182.789 151.416 182.608 151.48 182.373 151.48H176.645V150.392H182.149L181.845 150.712C181.888 150.221 181.813 149.784 181.621 149.4C181.44 149.005 181.168 148.701 180.805 148.488C180.453 148.264 180.032 148.152 179.541 148.152C179.04 148.152 178.581 148.28 178.165 148.536C177.76 148.781 177.44 149.133 177.205 149.592C176.97 150.04 176.853 150.541 176.853 151.096C176.853 151.672 176.976 152.184 177.221 152.632C177.466 153.069 177.808 153.416 178.245 153.672C178.682 153.917 179.178 154.04 179.733 154.04C180.117 154.04 180.48 153.976 180.821 153.848C181.173 153.72 181.488 153.533 181.765 153.288C181.904 153.171 182.042 153.112 182.181 153.112C182.33 153.112 182.458 153.165 182.565 153.272C182.672 153.368 182.725 153.496 182.725 153.656C182.725 153.763 182.698 153.859 182.645 153.944C182.602 154.019 182.528 154.109 182.421 154.216C182.037 154.525 181.616 154.765 181.157 154.936C180.698 155.096 180.218 155.176 179.717 155.176ZM187.517 155.176C187.346 155.176 187.202 155.117 187.085 155C186.967 154.872 186.909 154.717 186.909 154.536V148.312H184.637C184.477 148.312 184.338 148.259 184.221 148.152C184.114 148.045 184.061 147.912 184.061 147.752C184.061 147.603 184.114 147.475 184.221 147.368C184.338 147.261 184.477 147.208 184.637 147.208H190.397C190.557 147.208 190.69 147.261 190.797 147.368C190.903 147.475 190.957 147.603 190.957 147.752C190.957 147.912 190.903 148.045 190.797 148.152C190.69 148.259 190.557 148.312 190.397 148.312H188.125V154.536C188.125 154.717 188.066 154.872 187.949 155C187.831 155.117 187.687 155.176 187.517 155.176ZM54.5605 177.176C53.6965 177.144 52.9285 176.963 52.2565 176.632C51.5845 176.301 51.0565 175.837 50.6725 175.24C50.2992 174.632 50.1125 173.923 50.1125 173.112C50.1125 172.301 50.2992 171.597 50.6725 171C51.0565 170.403 51.5845 169.939 52.2565 169.608C52.9392 169.277 53.7072 169.096 54.5605 169.064L54.5445 170.168C53.9045 170.189 53.3445 170.323 52.8645 170.568C52.3952 170.803 52.0272 171.139 51.7605 171.576C51.5045 172.013 51.3765 172.531 51.3765 173.128C51.3765 173.736 51.5045 174.253 51.7605 174.68C52.0272 175.107 52.3952 175.443 52.8645 175.688C53.3445 175.923 53.9045 176.056 54.5445 176.088L54.5605 177.176ZM55.1365 180.056C54.9552 180.056 54.8058 179.992 54.6885 179.864C54.5712 179.747 54.5125 179.597 54.5125 179.416V176.712L54.5285 176.456V169.816L54.5125 169.544V165.464C54.5125 165.283 54.5712 165.133 54.6885 165.016C54.8058 164.888 54.9552 164.824 55.1365 164.824C55.3178 164.824 55.4618 164.883 55.5685 165C55.6858 165.117 55.7445 165.272 55.7445 165.464V169.528L55.7285 169.8V176.376L55.7445 176.744V179.416C55.7445 179.608 55.6858 179.763 55.5685 179.88C55.4618 179.997 55.3178 180.056 55.1365 180.056ZM55.7125 176.088C56.3632 176.056 56.9232 175.923 57.3925 175.688C57.8618 175.443 58.2245 175.107 58.4805 174.68C58.7472 174.243 58.8805 173.72 58.8805 173.112C58.8805 172.515 58.7472 172.003 58.4805 171.576C58.2245 171.139 57.8618 170.803 57.3925 170.568C56.9232 170.323 56.3632 170.189 55.7125 170.168L55.6965 169.064C56.5605 169.096 57.3285 169.277 58.0005 169.608C58.6725 169.939 59.1952 170.408 59.5685 171.016C59.9525 171.613 60.1445 172.317 60.1445 173.128C60.1445 173.939 59.9525 174.643 59.5685 175.24C59.1952 175.837 58.6672 176.301 57.9845 176.632C57.3125 176.963 56.5498 177.144 55.6965 177.176L55.7125 176.088ZM65.8331 169.032C66.5798 169.032 67.2625 169.213 67.8811 169.576C68.5105 169.939 69.0065 170.429 69.3691 171.048C69.7318 171.667 69.9131 172.349 69.9131 173.096C69.9131 173.832 69.7318 174.515 69.3691 175.144C69.0065 175.763 68.5105 176.253 67.8811 176.616C67.2518 176.979 66.5638 177.16 65.8171 177.16C65.0705 177.16 64.3878 176.979 63.7691 176.616C63.1505 176.253 62.6598 175.763 62.2971 175.144C61.9345 174.515 61.7531 173.832 61.7531 173.096C61.7531 172.349 61.9345 171.667 62.2971 171.048C62.6598 170.419 63.1505 169.928 63.7691 169.576C64.3985 169.213 65.0865 169.032 65.8331 169.032ZM65.8331 170.168C65.3105 170.168 64.8305 170.296 64.3931 170.552C63.9665 170.808 63.6305 171.165 63.3851 171.624C63.1398 172.072 63.0171 172.568 63.0171 173.112C63.0171 173.667 63.1398 174.163 63.3851 174.6C63.6305 175.037 63.9665 175.384 64.3931 175.64C64.8198 175.896 65.2945 176.024 65.8171 176.024C66.3505 176.024 66.8305 175.896 67.2571 175.64C67.6838 175.384 68.0198 175.037 68.2651 174.6C68.5211 174.152 68.6491 173.656 68.6491 173.112C68.6491 172.568 68.5211 172.072 68.2651 171.624C68.0198 171.165 67.6838 170.808 67.2571 170.552C66.8411 170.296 66.3665 170.168 65.8331 170.168ZM74.3058 177.176C74.1351 177.176 73.9911 177.117 73.8738 177C73.7564 176.872 73.6978 176.717 73.6978 176.536V170.312H71.4258C71.2658 170.312 71.1271 170.259 71.0098 170.152C70.9031 170.045 70.8498 169.912 70.8498 169.752C70.8498 169.603 70.9031 169.475 71.0098 169.368C71.1271 169.261 71.2658 169.208 71.4258 169.208H77.1858C77.3458 169.208 77.4791 169.261 77.5858 169.368C77.6924 169.475 77.7458 169.603 77.7458 169.752C77.7458 169.912 77.6924 170.045 77.5858 170.152C77.4791 170.259 77.3458 170.312 77.1858 170.312H74.9138V176.536C74.9138 176.717 74.8551 176.872 74.7378 177C74.6204 177.117 74.4764 177.176 74.3058 177.176ZM82.8956 169.032C83.6423 169.032 84.325 169.213 84.9436 169.576C85.573 169.939 86.069 170.429 86.4316 171.048C86.7943 171.667 86.9756 172.349 86.9756 173.096C86.9756 173.832 86.7943 174.515 86.4316 175.144C86.069 175.763 85.573 176.253 84.9436 176.616C84.3143 176.979 83.6263 177.16 82.8796 177.16C82.133 177.16 81.4503 176.979 80.8316 176.616C80.213 176.253 79.7223 175.763 79.3596 175.144C78.997 174.515 78.8156 173.832 78.8156 173.096C78.8156 172.349 78.997 171.667 79.3596 171.048C79.7223 170.419 80.213 169.928 80.8316 169.576C81.461 169.213 82.149 169.032 82.8956 169.032ZM82.8956 170.168C82.373 170.168 81.893 170.296 81.4556 170.552C81.029 170.808 80.693 171.165 80.4476 171.624C80.2023 172.072 80.0796 172.568 80.0796 173.112C80.0796 173.667 80.2023 174.163 80.4476 174.6C80.693 175.037 81.029 175.384 81.4556 175.64C81.8823 175.896 82.357 176.024 82.8796 176.024C83.413 176.024 83.893 175.896 84.3196 175.64C84.7463 175.384 85.0823 175.037 85.3276 174.6C85.5836 174.152 85.7116 173.656 85.7116 173.112C85.7116 172.568 85.5836 172.072 85.3276 171.624C85.0823 171.165 84.7463 170.808 84.3196 170.552C83.9036 170.296 83.429 170.168 82.8956 170.168ZM97.1456 177.176C96.399 177.176 95.711 176.995 95.0816 176.632C94.463 176.269 93.9723 175.779 93.6096 175.16C93.247 174.531 93.0656 173.843 93.0656 173.096C93.0656 172.349 93.247 171.667 93.6096 171.048C93.9723 170.429 94.463 169.939 95.0816 169.576C95.711 169.213 96.399 169.032 97.1456 169.032C97.8283 169.032 98.4416 169.181 98.9856 169.48C99.5403 169.768 99.983 170.163 100.314 170.664C100.388 170.771 100.426 170.883 100.426 171C100.426 171.149 100.367 171.283 100.25 171.4C100.143 171.507 100.015 171.56 99.8656 171.56C99.695 171.56 99.5456 171.485 99.4176 171.336C99.119 170.973 98.783 170.691 98.4096 170.488C98.047 170.275 97.631 170.168 97.1616 170.168C96.639 170.168 96.159 170.296 95.7216 170.552C95.295 170.808 94.9536 171.16 94.6976 171.608C94.4523 172.056 94.3296 172.552 94.3296 173.096C94.3296 173.651 94.4523 174.152 94.6976 174.6C94.9536 175.037 95.295 175.389 95.7216 175.656C96.159 175.912 96.639 176.04 97.1616 176.04C97.631 176.04 98.047 175.939 98.4096 175.736C98.783 175.523 99.119 175.235 99.4176 174.872C99.4923 174.797 99.5616 174.744 99.6256 174.712C99.7003 174.68 99.775 174.664 99.8496 174.664C100.01 174.664 100.143 174.717 100.25 174.824C100.367 174.931 100.426 175.064 100.426 175.224C100.426 175.331 100.383 175.443 100.298 175.56C99.967 176.051 99.5296 176.445 98.9856 176.744C98.4416 177.032 97.8283 177.176 97.1456 177.176ZM103.046 177.176C102.875 177.176 102.731 177.117 102.614 177C102.497 176.883 102.438 176.739 102.438 176.568V169.816C102.438 169.645 102.497 169.501 102.614 169.384C102.731 169.267 102.875 169.208 103.046 169.208H108.054C108.225 169.208 108.369 169.267 108.486 169.384C108.603 169.501 108.662 169.645 108.662 169.816V176.568C108.662 176.749 108.598 176.893 108.47 177C108.353 177.117 108.203 177.176 108.022 177.176C107.851 177.176 107.707 177.117 107.59 177C107.473 176.883 107.414 176.739 107.414 176.568V170.312H103.67V176.568C103.67 176.749 103.606 176.893 103.478 177C103.361 177.117 103.217 177.176 103.046 177.176ZM114.944 177.176C114.165 177.176 113.461 177 112.832 176.648C112.202 176.296 111.706 175.811 111.344 175.192C110.992 174.573 110.816 173.88 110.816 173.112C110.816 172.365 110.992 171.683 111.344 171.064C111.696 170.435 112.176 169.939 112.784 169.576C113.402 169.213 114.074 169.032 114.8 169.032C115.482 169.032 116.09 169.187 116.624 169.496C117.168 169.805 117.589 170.232 117.888 170.776C118.197 171.32 118.352 171.939 118.352 172.632V172.712C118.352 172.968 118.282 173.16 118.144 173.288C118.016 173.416 117.834 173.48 117.6 173.48H111.872V172.392H117.376L117.072 172.712C117.114 172.221 117.04 171.784 116.848 171.4C116.666 171.005 116.394 170.701 116.032 170.488C115.68 170.264 115.258 170.152 114.768 170.152C114.266 170.152 113.808 170.28 113.392 170.536C112.986 170.781 112.666 171.133 112.432 171.592C112.197 172.04 112.08 172.541 112.08 173.096C112.08 173.672 112.202 174.184 112.448 174.632C112.693 175.069 113.034 175.416 113.472 175.672C113.909 175.917 114.405 176.04 114.96 176.04C115.344 176.04 115.706 175.976 116.048 175.848C116.4 175.72 116.714 175.533 116.992 175.288C117.13 175.171 117.269 175.112 117.408 175.112C117.557 175.112 117.685 175.165 117.792 175.272C117.898 175.368 117.952 175.496 117.952 175.656C117.952 175.763 117.925 175.859 117.872 175.944C117.829 176.019 117.754 176.109 117.648 176.216C117.264 176.525 116.842 176.765 116.384 176.936C115.925 177.096 115.445 177.176 114.944 177.176ZM127.38 179.432C127.21 179.432 127.06 179.368 126.932 179.24C126.815 179.123 126.756 178.973 126.756 178.792V177H121.156C120.975 177 120.82 176.941 120.692 176.824C120.575 176.696 120.516 176.541 120.516 176.36V169.672C120.516 169.501 120.575 169.352 120.692 169.224C120.81 169.096 120.959 169.032 121.14 169.032C121.3 169.032 121.439 169.096 121.556 169.224C121.684 169.352 121.748 169.501 121.748 169.672V175.912H125.492V169.672C125.492 169.501 125.551 169.352 125.668 169.224C125.786 169.096 125.935 169.032 126.116 169.032C126.287 169.032 126.431 169.096 126.548 169.224C126.666 169.352 126.724 169.501 126.724 169.672V175.912H127.348C127.53 175.912 127.679 175.976 127.796 176.104C127.924 176.221 127.988 176.371 127.988 176.552V178.792C127.988 178.973 127.93 179.123 127.812 179.24C127.706 179.368 127.562 179.432 127.38 179.432ZM130.624 177.176C130.454 177.176 130.31 177.117 130.192 177C130.075 176.872 130.016 176.717 130.016 176.536V169.672C130.016 169.501 130.075 169.352 130.192 169.224C130.31 169.096 130.459 169.032 130.64 169.032C130.8 169.032 130.939 169.096 131.056 169.224C131.184 169.352 131.248 169.501 131.248 169.672V175.608L130.912 175.496L135.264 169.4C135.424 169.155 135.616 169.032 135.84 169.032C136 169.032 136.139 169.096 136.256 169.224C136.384 169.352 136.448 169.501 136.448 169.672V176.536C136.448 176.717 136.384 176.872 136.256 177C136.139 177.117 135.995 177.176 135.824 177.176C135.654 177.176 135.51 177.117 135.392 177C135.275 176.872 135.216 176.717 135.216 176.536V170.744L135.552 170.856L131.2 176.84C131.03 177.064 130.838 177.176 130.624 177.176ZM141.221 177.176C140.41 177.176 139.754 176.979 139.253 176.584C138.752 176.179 138.501 175.645 138.501 174.984C138.501 174.333 138.752 173.811 139.253 173.416C139.765 173.011 140.448 172.808 141.301 172.808H144.053V173.816H141.445C140.89 173.816 140.469 173.912 140.181 174.104C139.904 174.285 139.765 174.563 139.765 174.936C139.765 175.309 139.909 175.608 140.197 175.832C140.496 176.045 140.89 176.152 141.381 176.152C141.808 176.152 142.202 176.056 142.565 175.864C142.938 175.672 143.232 175.416 143.445 175.096C143.658 174.765 143.765 174.408 143.765 174.024V172.136C143.765 171.507 143.6 171.021 143.269 170.68C142.938 170.339 142.474 170.168 141.877 170.168C141.504 170.168 141.152 170.243 140.821 170.392C140.49 170.541 140.192 170.76 139.925 171.048C139.84 171.133 139.754 171.197 139.669 171.24C139.594 171.272 139.52 171.288 139.445 171.288C139.296 171.288 139.162 171.235 139.045 171.128C138.938 171.021 138.885 170.904 138.885 170.776C138.885 170.605 138.96 170.429 139.109 170.248C139.44 169.853 139.856 169.555 140.357 169.352C140.858 169.139 141.392 169.032 141.957 169.032C142.896 169.032 143.637 169.315 144.181 169.88C144.725 170.435 144.997 171.208 144.997 172.2V176.536C144.997 176.728 144.938 176.883 144.821 177C144.704 177.117 144.56 177.176 144.389 177.176C144.208 177.176 144.058 177.117 143.941 177C143.824 176.872 143.765 176.717 143.765 176.536V175.016L144.453 174.328C144.4 174.904 144.229 175.411 143.941 175.848C143.664 176.275 143.29 176.605 142.821 176.84C142.362 177.064 141.829 177.176 141.221 177.176ZM152.906 177.176C152.735 177.176 152.591 177.117 152.474 177C152.357 176.872 152.298 176.717 152.298 176.536V170.312H148.698L149.386 170.12L149.354 171.272C149.311 172.595 149.21 173.672 149.05 174.504C148.89 175.336 148.629 175.971 148.266 176.408C147.914 176.845 147.434 177.064 146.826 177.064C146.794 177.064 146.762 177.064 146.73 177.064C146.57 177.064 146.437 177.011 146.33 176.904C146.234 176.797 146.186 176.669 146.186 176.52C146.186 176.371 146.239 176.248 146.346 176.152C146.453 176.045 146.581 175.992 146.73 175.992C146.751 175.992 146.778 175.992 146.81 175.992C147.13 175.992 147.386 175.8 147.578 175.416C147.77 175.021 147.909 174.483 147.994 173.8C148.079 173.117 148.143 172.264 148.186 171.24C148.197 170.76 148.207 170.296 148.218 169.848C148.229 169.677 148.293 169.528 148.41 169.4C148.527 169.272 148.677 169.208 148.858 169.208H152.874C153.045 169.208 153.194 169.272 153.322 169.4C153.45 169.528 153.514 169.677 153.514 169.848V176.536C153.514 176.717 153.45 176.872 153.322 177C153.205 177.117 153.066 177.176 152.906 177.176ZM156.827 177.176C156.657 177.176 156.513 177.117 156.395 177C156.278 176.872 156.219 176.717 156.219 176.536V169.672C156.219 169.501 156.278 169.352 156.395 169.224C156.513 169.096 156.662 169.032 156.843 169.032C157.003 169.032 157.142 169.096 157.259 169.224C157.387 169.352 157.451 169.501 157.451 169.672V175.608L157.115 175.496L161.467 169.4C161.627 169.155 161.819 169.032 162.043 169.032C162.203 169.032 162.342 169.096 162.459 169.224C162.587 169.352 162.651 169.501 162.651 169.672V176.536C162.651 176.717 162.587 176.872 162.459 177C162.342 177.117 162.198 177.176 162.027 177.176C161.857 177.176 161.713 177.117 161.595 177C161.478 176.872 161.419 176.717 161.419 176.536V170.744L161.755 170.856L157.403 176.84C157.233 177.064 157.041 177.176 156.827 177.176ZM168.88 177.176C168.133 177.176 167.445 176.995 166.816 176.632C166.197 176.269 165.707 175.779 165.344 175.16C164.981 174.531 164.8 173.843 164.8 173.096C164.8 172.349 164.981 171.667 165.344 171.048C165.707 170.429 166.197 169.939 166.816 169.576C167.445 169.213 168.133 169.032 168.88 169.032C169.563 169.032 170.176 169.181 170.72 169.48C171.275 169.768 171.717 170.163 172.048 170.664C172.123 170.771 172.16 170.883 172.16 171C172.16 171.149 172.101 171.283 171.984 171.4C171.877 171.507 171.749 171.56 171.6 171.56C171.429 171.56 171.28 171.485 171.152 171.336C170.853 170.973 170.517 170.691 170.144 170.488C169.781 170.275 169.365 170.168 168.896 170.168C168.373 170.168 167.893 170.296 167.456 170.552C167.029 170.808 166.688 171.16 166.432 171.608C166.187 172.056 166.064 172.552 166.064 173.096C166.064 173.651 166.187 174.152 166.432 174.6C166.688 175.037 167.029 175.389 167.456 175.656C167.893 175.912 168.373 176.04 168.896 176.04C169.365 176.04 169.781 175.939 170.144 175.736C170.517 175.523 170.853 175.235 171.152 174.872C171.227 174.797 171.296 174.744 171.36 174.712C171.435 174.68 171.509 174.664 171.584 174.664C171.744 174.664 171.877 174.717 171.984 174.824C172.101 174.931 172.16 175.064 172.16 175.224C172.16 175.331 172.117 175.443 172.032 175.56C171.701 176.051 171.264 176.445 170.72 176.744C170.176 177.032 169.563 177.176 168.88 177.176ZM176.525 177.176C176.354 177.176 176.21 177.117 176.093 177C175.975 176.872 175.917 176.717 175.917 176.536V170.312H173.645C173.485 170.312 173.346 170.259 173.229 170.152C173.122 170.045 173.069 169.912 173.069 169.752C173.069 169.603 173.122 169.475 173.229 169.368C173.346 169.261 173.485 169.208 173.645 169.208H179.405C179.565 169.208 179.698 169.261 179.805 169.368C179.911 169.475 179.965 169.603 179.965 169.752C179.965 169.912 179.911 170.045 179.805 170.152C179.698 170.259 179.565 170.312 179.405 170.312H177.133V176.536C177.133 176.717 177.074 176.872 176.957 177C176.839 177.117 176.695 177.176 176.525 177.176ZM183.658 177.176C182.848 177.176 182.192 176.979 181.69 176.584C181.189 176.179 180.938 175.645 180.938 174.984C180.938 174.333 181.189 173.811 181.69 173.416C182.202 173.011 182.885 172.808 183.738 172.808H186.49V173.816H183.882C183.328 173.816 182.906 173.912 182.618 174.104C182.341 174.285 182.202 174.563 182.202 174.936C182.202 175.309 182.346 175.608 182.634 175.832C182.933 176.045 183.328 176.152 183.818 176.152C184.245 176.152 184.64 176.056 185.002 175.864C185.376 175.672 185.669 175.416 185.882 175.096C186.096 174.765 186.202 174.408 186.202 174.024V172.136C186.202 171.507 186.037 171.021 185.706 170.68C185.376 170.339 184.912 170.168 184.314 170.168C183.941 170.168 183.589 170.243 183.258 170.392C182.928 170.541 182.629 170.76 182.362 171.048C182.277 171.133 182.192 171.197 182.106 171.24C182.032 171.272 181.957 171.288 181.882 171.288C181.733 171.288 181.6 171.235 181.482 171.128C181.376 171.021 181.322 170.904 181.322 170.776C181.322 170.605 181.397 170.429 181.546 170.248C181.877 169.853 182.293 169.555 182.794 169.352C183.296 169.139 183.829 169.032 184.394 169.032C185.333 169.032 186.074 169.315 186.618 169.88C187.162 170.435 187.434 171.208 187.434 172.2V176.536C187.434 176.728 187.376 176.883 187.258 177C187.141 177.117 186.997 177.176 186.826 177.176C186.645 177.176 186.496 177.117 186.378 177C186.261 176.872 186.202 176.717 186.202 176.536V175.016L186.89 174.328C186.837 174.904 186.666 175.411 186.378 175.848C186.101 176.275 185.728 176.605 185.258 176.84C184.8 177.064 184.266 177.176 183.658 177.176Z" fill="black"/>
</svg>
