<?xml version="1.0" encoding="UTF-8"?>
<svg id="_Слой_1" data-name="Слой 1" xmlns="http://www.w3.org/2000/svg" viewBox="0 0 32 32">
  <defs>
    <style>
      .cls-1 {
        fill: #ececec;
      }

      .cls-1, .cls-2, .cls-3 {
        stroke-width: 0px;
      }

      .cls-2 {
        fill: #3d587e;
      }

      .cls-3 {
        fill: #e6333f;
      }
    </style>
  </defs>
  <rect class="cls-1" width="32" height="32" rx="5.72" ry="5.72"/>
  <g>
    <path class="cls-2" d="m13.45,21h-3.99c-.39,0-.57-.49-.27-.75l1.42-1.2c1.41-1.18,2.41-2.24,2.99-3.18.58-.94.88-1.94.88-3.01s-.24-1.93-.71-2.72c-.48-.8-1.14-1.43-1.98-1.89-.85-.46-1.8-.69-2.87-.69-.95,0-1.84.19-2.66.58-.82.39-1.5.91-2.02,1.58-.53.67-.86,1.43-1.01,2.28-.08.46-.1.87-.05,1.23.03.49.2.89.51,1.18.3.3.69.44,1.15.44s.81-.13,1.11-.39c.3-.26.48-.62.54-1.06l.05-.3c.02-.13.03-.27.05-.42.05-.43.18-.79.38-1.1.21-.3.46-.54.78-.7.31-.16.67-.25,1.08-.25.67,0,1.22.22,1.63.65.41.44.62,1.01.62,1.74,0,.66-.18,1.27-.54,1.84-.36.57-.99,1.24-1.9,2.03l-4.98,4.22c-.46.38-.69.84-.69,1.38,0,.44.16.83.48,1.16.32.33.71.49,1.17.49l8.85-.02c.48,0,.87-.15,1.17-.44.3-.3.46-.67.46-1.13s-.15-.81-.46-1.11c-.3-.3-.69-.44-1.17-.44Z"/>
    <path class="cls-3" d="m21.59,20.56h-1.71c-.48,0-.86-.15-1.15-.46-.29-.3-.43-.66-.43-1.07s.14-.77.43-1.08c.29-.31.67-.47,1.15-.47h1.71c.23,0,.42-.19.42-.42v-1.73c0-.48.16-.88.48-1.2.32-.32.71-.48,1.17-.48s.88.16,1.2.48c.32.32.48.72.48,1.2v1.73c0,.23.19.42.42.42h1.71c.48,0,.86.16,1.15.47.29.31.43.67.43,1.08s-.14.77-.43,1.07c-.29.3-.67.46-1.15.46h-1.71c-.23,0-.42.19-.42.42v1.75c0,.48-.16.88-.48,1.21-.32.33-.72.49-1.2.49-.43,0-.83-.16-1.14-.46-.34-.33-.51-.75-.51-1.24v-1.75c0-.23-.19-.42-.42-.42Z"/>
    <path class="cls-2" d="m17.32,18.54l4.2-8.7c.08-.2.12-.39.12-.59,0-.46-.16-.85-.49-1.18-.33-.33-.72-.49-1.18-.49-.35,0-.65.1-.92.31-.27.21-.48.46-.63.78l-4.56,9.54c-.1.25-.15.48-.15.71,0,.44.16.83.49,1.16.33.33.71.49,1.16.49h2.03c.17,0,.29-.2.18-.33-.29-.32-.52-1.1-.24-1.69Z"/>
  </g>
</svg>