<svg width="218" height="28" viewBox="0 0 218 28" fill="none" xmlns="http://www.w3.org/2000/svg">
<g clip-path="url(#clip0_189_9813)">
<path d="M23.4442 4.00975C22.9758 3.6795 22.5074 3.39642 22.0155 3.16052C22.0155 3.70309 22.0155 4.34001 22.0155 5.00052C22.1795 5.09488 22.32 5.18924 22.484 5.30719C24.2171 6.55745 25.9736 9.83642 23.7955 13.7287C23.0929 14.979 22.5542 15.7103 21.9219 16.418C21.0787 17.3851 20.3293 18.1872 18.7366 19.6733C17.0738 21.2067 14.6146 22.7636 13.2094 23.6128C11.8041 22.7636 9.34494 21.2067 7.68207 19.6733C6.08946 18.1872 5.31657 17.3851 4.49685 16.418C3.86449 15.6867 3.32581 14.9554 2.62319 13.7287C0.445066 9.81283 2.20162 6.53386 3.93475 5.30719C4.0987 5.18924 4.23922 5.09488 4.40317 5.00052V3.16052C3.93475 3.39642 3.44292 3.65591 2.9745 4.00975C0.819797 5.59027 -1.47543 9.69488 1.21795 14.5308C1.87373 15.6867 2.45925 16.5595 3.27897 17.5031C4.14554 18.5174 4.94184 19.3431 6.60471 20.8764C8.80626 22.9051 12.1788 24.9103 13.2094 25.5C14.2633 24.8867 17.6359 22.8815 19.8374 20.8764C21.5003 19.3431 22.2732 18.5174 23.1632 17.5031C23.9829 16.5595 24.5684 15.7103 25.2242 14.5308C27.9176 9.69488 25.6458 5.59027 23.4442 4.00975Z" fill="white"/>
<path d="M23.3037 8.20868C22.9993 7.4774 22.5308 6.88766 22.039 6.43945C22.039 7.90202 22.039 9.22304 22.039 9.67125C22.039 9.76561 22.039 9.85997 22.039 9.95433C22.039 10.3789 21.9688 10.8271 21.8282 11.3225C21.6643 11.8651 21.4535 12.3605 21.1959 12.8087C21.1256 12.9502 21.0319 13.0918 20.9148 13.2569C20.8914 13.3041 20.8446 13.3512 20.8211 13.3984C20.8211 13.3984 20.7977 13.4456 20.7743 13.4692C20.7275 13.54 20.6572 13.6343 20.6104 13.7051C20.5635 13.7759 20.5167 13.823 20.4698 13.8938C19.978 14.5071 19.3691 15.2148 18.6899 15.9225C18.362 16.2764 18.0341 16.6066 17.6828 16.9369C17.5657 17.0548 17.4251 17.1728 17.308 17.2907C15.8325 18.6589 14.2633 19.7441 13.2797 20.3574C12.296 19.7205 10.7502 18.6589 9.25131 17.2907C9.1342 17.1728 8.99368 17.0548 8.87657 16.9369C8.52526 16.6066 8.19737 16.2764 7.86948 15.9225C7.19028 15.2148 6.55792 14.5071 6.08951 13.8938C6.04267 13.823 5.99583 13.7759 5.94899 13.7051C5.90214 13.6343 5.83188 13.5636 5.78504 13.4692C5.78504 13.4692 5.76162 13.422 5.7382 13.3984C5.71478 13.3512 5.66794 13.3041 5.64452 13.2569C5.52741 13.0918 5.43373 12.9266 5.36347 12.8087C5.10584 12.3605 4.87163 11.8651 4.73111 11.3225C4.59058 10.8271 4.52032 10.3789 4.52032 9.95433C4.52032 9.85997 4.52032 9.76561 4.52032 9.67125C4.52032 9.22304 4.52032 7.90202 4.52032 6.43945C4.02849 6.88766 3.56007 7.4774 3.2556 8.20868C2.62324 9.76561 2.85745 11.5584 3.98165 13.5636C4.68427 14.8374 6.69845 17.0312 8.22079 18.4466C10.3755 20.4282 12.6239 21.7964 13.3499 22.2446C14.076 21.82 16.3244 20.4518 18.4791 18.4466C20.0014 17.0312 22.0156 14.8374 22.7182 13.5636C23.8424 11.5584 24.0766 9.74202 23.4443 8.20868" fill="white"/>
<path d="M20.7509 2.71227C19.4862 2.40561 18.1043 2.45279 16.5351 2.85381C15.1533 3.20766 14.0526 3.91535 13.2328 4.59945C12.4131 3.91535 11.3123 3.20766 9.9305 2.85381C8.36132 2.45279 7.00292 2.40561 5.71478 2.71227C5.69136 2.71227 5.62109 2.71227 5.62109 2.71227V9.62407C5.62109 11.2518 6.37056 12.3841 7.2137 13.3748V4.12766C7.91632 4.10407 8.66579 4.19843 9.50893 4.41073C11.3826 4.90612 12.6473 6.17997 13.2328 6.91125C13.8183 6.17997 15.0596 4.90612 16.9333 4.41073C17.7764 4.19843 18.5259 4.10407 19.2285 4.12766V13.422C20.0717 12.4077 20.8211 11.2989 20.8211 9.67125V2.73586C20.8211 2.73586 20.7509 2.73586 20.7275 2.73586" fill="white"/>
<path d="M16.7926 5.73184C15.5513 6.2744 14.0055 7.92568 13.2326 8.98722C12.4598 7.90209 10.914 6.25081 9.67269 5.73184C9.29796 5.56671 8.87639 5.47235 8.4314 5.42517V14.7667C8.94665 15.3329 9.46191 15.8518 10.024 16.3708V7.94927C11.2653 8.77491 12.2958 10.2847 13.2092 11.5585V11.6057L13.2561 11.5585C14.1695 10.2847 15.1766 8.77491 16.4179 7.94927V16.3708C16.98 15.8754 17.4952 15.3329 18.0105 14.7667V5.42517C17.5889 5.47235 17.1439 5.56671 16.7692 5.73184" fill="white"/>
<path d="M42.8365 11.4355C44.1949 9.7606 45.647 8.53393 47.7783 8.27444V19.8334H45.5533V11.6242L42.9068 14.455H42.7428L40.0963 11.6242V19.857H37.8713V8.25085C40.0026 8.51034 41.4547 9.7606 42.8131 11.4119L42.8365 11.4355Z" fill="white"/>
<path d="M49.7222 14.0303C49.7222 10.4683 52.1579 8.08569 55.5305 8.08569C58.9031 8.08569 61.3623 10.4918 61.3623 14.0303C61.3623 17.5688 58.8797 19.9749 55.5305 19.9749C52.1813 19.9749 49.7222 17.4036 49.7222 14.0303ZM58.9968 14.0303C58.9968 11.9308 57.5915 10.3975 55.5539 10.3975C53.5163 10.3975 52.1111 11.9308 52.1111 14.0303C52.1111 16.1298 53.5163 17.6631 55.5539 17.6631C57.5915 17.6631 58.9968 16.1298 58.9968 14.0303Z" fill="white"/>
<path d="M63.0017 14.0303C63.0017 10.3975 65.5311 8.08569 68.974 8.08569C69.4424 8.08569 69.8171 8.10928 70.1919 8.22723V10.5154C69.8171 10.4211 69.4892 10.3739 68.9974 10.3739C66.8661 10.3739 65.3906 11.7893 65.3906 14.0067C65.3906 16.2242 66.8661 17.6395 68.9974 17.6395C69.4892 17.6395 69.8171 17.616 70.1919 17.498V19.7626C69.8171 19.9042 69.4424 19.9513 68.974 19.9513C65.5311 19.9513 63.0017 17.4744 63.0017 14.0067V14.0303Z" fill="white"/>
<path d="M75.204 14.856H74.5248V19.8334H72.2998V8.25085H74.5248V12.6857H75.2742L76.6795 8.25085H78.9513L77.0542 13.7709L79.1855 19.8098H76.7966L75.1805 14.8324L75.204 14.856Z" fill="white"/>
<path d="M79.9351 14.0303C79.9351 10.4683 82.3708 8.08569 85.7434 8.08569C89.116 8.08569 91.5751 10.4918 91.5751 14.0303C91.5751 17.5688 89.0926 19.9749 85.7434 19.9749C82.3942 19.9749 79.9351 17.4036 79.9351 14.0303ZM89.2097 14.0303C89.2097 11.9308 87.8044 10.3975 85.7668 10.3975C83.7292 10.3975 82.324 11.9308 82.324 14.0303C82.324 16.1298 83.7292 17.6631 85.7668 17.6631C87.8044 17.6631 89.2097 16.1298 89.2097 14.0303Z" fill="white"/>
<path d="M93.519 8.25085H95.3224C98.1095 8.25085 99.5382 9.38316 99.5382 11.3647C99.5382 12.3791 99.1166 13.1811 98.25 13.6293C99.5382 14.1011 100.03 15.0919 100.03 16.4601C100.03 18.6068 98.5545 19.8334 95.6503 19.8334H93.519V8.25085ZM97.3835 11.5298C97.3835 10.6334 96.7745 10.256 95.6503 10.256V12.8273C96.7511 12.8273 97.3835 12.3555 97.3835 11.5298ZM97.8753 16.295C97.8753 15.257 97.2195 14.7852 95.6503 14.7852V17.8283C97.1961 17.8283 97.8753 17.3565 97.8753 16.3185V16.295Z" fill="white"/>
<path d="M101.412 14.0303C101.412 10.3975 103.941 8.08569 107.384 8.08569C107.852 8.08569 108.227 8.10928 108.602 8.22723V10.5154C108.227 10.4211 107.899 10.3739 107.407 10.3739C105.276 10.3739 103.801 11.7893 103.801 14.0067C103.801 16.2242 105.276 17.6395 107.407 17.6395C107.899 17.6395 108.227 17.616 108.602 17.498V19.7626C108.227 19.9042 107.852 19.9513 107.384 19.9513C103.941 19.9513 101.412 17.4744 101.412 14.0067V14.0303Z" fill="white"/>
<path d="M113.614 14.856H112.935V19.8334H110.71V8.25085H112.935V12.6857H113.684L115.089 8.25085H117.361L115.464 13.7709L117.595 19.8098H115.206L113.59 14.8324L113.614 14.856Z" fill="white"/>
<path d="M123.521 8.08569H123.849L129.118 19.8098H126.683L125.957 18.0642H121.366L120.64 19.8098H118.251L123.521 8.08569ZM125.09 16.0118L123.661 12.5677L122.233 16.0118H125.09Z" fill="white"/>
<path d="M134.271 15.6816L132.561 19.8334H130.079L132.186 15.1862C130.875 14.5257 130.36 13.3226 130.36 11.978C130.36 9.50111 132.093 8.25085 135.372 8.25085H136.941V19.8098H134.716V15.6816H134.271ZM132.585 11.978C132.585 13.0632 133.404 13.5821 134.716 13.5821V10.3739C133.404 10.3739 132.585 10.8929 132.585 11.978Z" fill="white"/>
<path d="M147.761 11.4355C149.12 9.7606 150.572 8.53393 152.703 8.27444V19.8334H150.478V11.6242L147.832 14.455H147.668L145.021 11.6242V19.857H142.796V8.25085C144.927 8.51034 146.38 9.7606 147.738 11.4119L147.761 11.4355Z" fill="white"/>
<path d="M154.998 8.25085H160.338V10.3975H157.294V12.6857H159.753V14.8324H157.294V17.6632H160.572V19.8098H154.998V8.25085Z" fill="white"/>
<path d="M162.844 16.3421L163.125 8.27441H169.027V17.6867H169.683V21.6498H167.552V19.8334H163.851V21.6498H161.72V17.6867C162.376 17.6867 162.821 17.3329 162.844 16.3421ZM166.802 17.6867V10.3739H165.233L165.046 16.3421C165.046 16.8611 164.929 17.3093 164.788 17.6867H166.802Z" fill="white"/>
<path d="M171.463 8.25082H173.594V13.9595L177.88 8.08569H178.208V19.8098H176.077V14.1011L171.791 19.9749H171.463V8.25082Z" fill="white"/>
<path d="M180.503 8.25085H182.799V17.6632H185.094V8.25085H187.389V17.6632H188.045V21.6262H185.914V19.8098H180.503V8.25085Z" fill="white"/>
<path d="M189.848 8.25082H191.98V13.9595L196.266 8.08569H196.594V19.8098H194.462V14.1011L190.176 19.9749H189.848V8.25082Z" fill="white"/>
<path d="M203.456 14.8324H201.16V19.8334H198.865V8.25085H201.16V12.6857H203.456V8.25085H205.751V19.8098H203.456V14.8088V14.8324Z" fill="white"/>
<path d="M212.402 8.08569H212.73L218 19.8098H215.564L214.838 18.0642H210.248L209.522 19.8098H207.133L212.402 8.08569ZM213.972 16.0118L212.543 12.5677L211.114 16.0118H213.972Z" fill="white"/>
</g>
<defs>
<clipPath id="clip0_189_9813">
<rect width="218" height="28" fill="white"/>
</clipPath>
</defs>
</svg>
