<svg width="552" height="408" viewBox="0 0 552 408" fill="none" xmlns="http://www.w3.org/2000/svg">
<path d="M124.788 397.268C124.788 397.268 32.4428 375.886 41.411 303.67C50.3793 231.454 72.7896 229.26 73.5774 208.769C74.3665 188.278 79.2616 116.166 130.663 107.439C182.063 98.7126 187.085 92.2813 204.401 73.4492C221.716 54.6171 299.553 36.2443 337.736 71.1528C375.919 106.061 395.502 142.806 419 150.156C442.497 157.504 458.652 201.361 446.903 230.188C435.155 259.013 443.313 278.228 457.182 309.08C471.053 339.93 449.35 400.024 395.99 402.321C342.631 404.617 342.631 404.617 342.631 404.617L124.788 397.268Z" fill="#E3FBFF"/>
<path d="M480.731 344.826C474.962 348.491 470.219 350.986 466.437 353.152L461.432 379.141L471.423 373.707C471.423 373.707 472.871 372.924 475.175 371.447C490.34 361.73 497.259 351.633 497.259 351.633C501.428 345.635 508.805 335.024 505.059 324.323C503.839 320.837 501.773 318.296 500.167 316.666C499.249 318.972 495.682 327.748 490.961 334.949C488.59 338.563 486.568 340.806 484.051 342.661C483.447 343.104 482.54 343.676 480.731 344.826Z" fill="#2CBF7B"/>
<path d="M463.275 369.576C466.926 371.142 471.086 371.695 475.176 371.446C480.437 368.078 490.154 361.104 497.26 351.632C494.544 350.794 491.638 350.191 489.693 349.47C486.305 348.212 483.425 346.635 480.733 344.826C474.963 348.491 470.219 350.986 466.438 353.152L463.275 369.576Z" fill="#2DA66D"/>
<path d="M287.074 205.995C286.565 217.26 288.745 226.616 292.785 232.837L309.528 239.426C310.476 238.508 311.344 237.243 312.138 235.707C319.321 221.812 320.489 185.952 320.489 185.952C320.489 185.952 319.048 179.207 315.444 170.999C312.609 164.536 308.437 157.168 302.572 151.466C302.157 151.064 291.498 173.434 287.865 197.9C287.452 200.689 287.191 203.392 287.074 205.995Z" fill="#2CBF7B"/>
<path d="M300.895 197.988C300.886 198.002 300.878 198.016 300.869 198.029C299.581 200.07 298.16 202.113 296.12 203.517C293.539 205.292 290.325 205.828 287.074 205.995C286.565 217.26 288.745 226.616 292.785 232.837L306.55 238.254C308.488 237.595 310.358 236.733 312.138 235.707C319.321 221.812 320.489 185.952 320.489 185.952C320.489 185.952 319.048 179.207 315.444 170.998C312.982 175.71 310.522 180.423 308.06 185.135C307.854 185.528 307.648 185.922 307.442 186.315C307.112 179.69 305.962 162.448 302.573 151.471C302.616 151.825 305.117 172.429 303.848 189.057C303.607 192.206 302.608 195.269 300.895 197.988Z" fill="#2DA66D"/>
<path d="M304.287 156.576L303.613 156.717C310.918 187.673 309.396 214.461 299.09 236.334L299.722 236.596C305.251 224.861 308.29 211.536 308.755 196.988C309.157 184.44 307.654 170.843 304.287 156.576Z" fill="#027369"/>
<path d="M309.129 217.011C308.93 217.743 308.75 218.454 308.591 219.143C307.726 222.854 307.399 225.944 307.419 228.521L319.326 236.498L352.441 215.419C352.441 215.419 353.456 212.45 354.264 207.586C354.32 207.248 354.376 206.899 354.428 206.542C355.943 196.487 356.324 179.421 346.309 163.463C345.981 162.944 345.642 162.423 345.292 161.905C345.292 161.903 345.292 161.903 345.292 161.903C344.514 160.748 330.039 168.983 314.76 202.025C312.077 207.827 310.276 212.781 309.129 217.011Z" fill="#2CBF7B"/>
<path d="M320.591 216.116C316.976 216.556 313.356 216.848 309.745 216.989C309.539 216.997 309.335 217.005 309.129 217.01C308.93 217.742 308.75 218.453 308.591 219.142C307.726 222.853 307.399 225.943 307.419 228.52L319.326 236.497L352.441 215.418C352.441 215.418 353.456 212.449 354.264 207.585C354.32 207.247 354.376 206.897 354.428 206.541C353.447 207.105 352.438 207.641 351.397 208.144C346.777 210.379 341.881 211.88 336.965 213.099C336.557 213.2 336.148 213.3 335.738 213.396C337.784 206.319 345.015 180.406 346.307 163.462C345.98 162.942 345.641 162.421 345.291 161.904C345.241 162.17 339.655 191.559 330.936 209.053C329.015 212.916 325.098 215.569 320.591 216.116Z" fill="#2DA66D"/>
<path d="M346.093 164.836L345.403 164.812C344.538 186.854 338.549 208.991 328.081 228.828L328.7 229.116C333.92 219.222 338.069 208.635 341.029 197.649C343.962 186.762 345.667 175.722 346.093 164.836Z" fill="#027369"/>
<path d="M505.285 348.389C495.056 352.286 488.565 361.47 483.023 370.899C480.484 375.219 475.277 384.434 472.058 393.29C472.041 393.336 472.024 393.38 472.008 393.426C470.981 396.265 470.169 399.06 469.71 401.644H506.122C509.13 398.725 511.933 395.665 514.537 392.465C515.025 391.864 515.508 391.256 515.983 390.645C516.808 389.587 517.609 388.514 518.389 387.427C518.901 386.717 519.401 386.002 519.893 385.281C530.697 369.456 537.286 350.747 540.316 329.743C529.427 337.66 517.798 343.624 505.285 348.389Z" fill="#2CBF7B"/>
<path d="M484.857 392.903C482.596 396.154 480.586 399.111 478.891 401.644H506.119C508.845 398.975 511.222 396.087 513.749 393.28C514 393.002 514.262 392.73 514.537 392.465C515.025 391.864 515.508 391.256 515.983 390.645C516.808 389.587 517.609 388.514 518.389 387.427C514.422 389.019 510.185 390.012 505.886 390.351C505.844 390.355 505.8 390.358 505.755 390.362C501.331 390.698 498.186 389.273 498.558 384.785C498.833 381.495 500.644 378.228 502.399 375.496C506.028 369.842 510.942 364.609 515.299 359.435C519.21 354.786 523.208 350.202 527.277 345.673C531.346 341.144 535.459 336.645 539.712 332.268C522.533 341.356 498.903 372.697 484.857 392.903Z" fill="#2DA66D"/>
<path d="M478.891 401.644C480.588 399.111 482.596 396.154 484.857 392.903C480.6 393.24 476.328 393.369 472.057 393.29C472.039 393.336 472.022 393.38 472.007 393.426C470.98 396.265 470.168 399.06 469.709 401.644H478.891Z" fill="#2DA66D"/>
<path d="M462.59 367.588L462.444 368.345C474.513 363.703 487.394 357.604 495.163 347.329C499.055 342.181 501.806 335.861 503.819 327.442L503.145 327.301C501.153 335.634 498.438 341.879 494.601 346.954C487.023 356.975 474.452 363 462.59 367.588Z" fill="#027369"/>
<path d="M539.257 331.779C520.091 347.616 488.22 385.889 479.923 401.644H480.694C493.561 377.323 513.313 354.08 539.714 332.266L539.257 331.779Z" fill="#027369"/>
<path d="M80.2272 181.096C90.5812 186.819 100.405 189.419 108.156 189.002L122.233 178.242C121.814 177.025 121.033 175.711 119.964 174.331C110.278 161.845 77.1051 144.001 77.1051 144.001C77.1051 144.001 70.0851 142.018 60.6688 141.139C53.2579 140.444 44.3652 140.43 36.2432 142.602C35.6697 142.757 51.6895 162.11 72.9869 176.631C75.4161 178.287 77.8357 179.775 80.2272 181.096Z" fill="#2CBF7B"/>
<path d="M79.2032 165.887C79.2117 165.901 79.2202 165.914 79.23 165.927C80.5426 167.954 81.7956 170.091 82.1561 172.442C82.6103 175.414 81.602 178.327 80.2285 181.096C90.5824 186.819 100.407 189.419 108.157 189.002L119.729 180.157C120.021 178.242 120.091 176.288 119.964 174.332C110.279 161.846 77.1051 144.002 77.1051 144.002C77.1051 144.002 70.0852 142.02 60.6688 141.14C63.9407 145.396 67.2138 149.651 70.487 153.905C70.7597 154.261 71.0325 154.616 71.3065 154.972C64.9197 152.128 48.1656 144.966 36.2469 142.605C36.6 142.736 57.1521 150.362 72.1917 159.239C75.0423 160.92 77.4534 163.188 79.2032 165.887Z" fill="#2DA66D"/>
<path d="M41.8567 143.587L41.6704 144.211C74.2191 152.733 98.6934 166.6 114.412 185.426L114.957 185.026C106.524 174.926 95.4227 166.139 81.9624 158.907C70.3518 152.67 56.8586 147.515 41.8567 143.587Z" fill="#027369"/>
<path d="M100.967 168.023C101.562 168.533 102.146 169.016 102.719 169.472C105.801 171.934 108.554 173.661 110.986 174.855L124.092 168.751L119.856 131.416C119.856 131.416 117.542 129.178 113.347 126.22C113.055 126.014 112.753 125.804 112.442 125.591C103.701 119.605 87.8304 111.257 68.1112 112.039C67.4683 112.065 66.8193 112.099 66.1666 112.146C66.1642 112.145 66.1642 112.145 66.1642 112.145C64.7115 112.246 65.6442 128.105 89.523 156.305C93.718 161.26 97.5305 165.083 100.967 168.023Z" fill="#2CBF7B"/>
<path d="M105.521 158.113C104.233 161.313 102.803 164.447 101.237 167.502C101.148 167.676 101.058 167.85 100.967 168.022C101.562 168.532 102.146 169.015 102.719 169.471C105.801 171.933 108.554 173.659 110.986 174.853L124.092 168.75L119.856 131.415C119.856 131.415 117.542 129.177 113.347 126.219C113.055 126.013 112.753 125.803 112.442 125.59C112.512 126.669 112.541 127.755 112.524 128.853C112.451 133.73 111.558 138.49 110.392 143.132C110.294 143.518 110.196 143.904 110.093 144.289C104.401 139.264 83.4371 121.082 68.1113 112.038C67.4683 112.064 66.8193 112.098 66.1666 112.145C66.3931 112.312 91.4007 130.768 103.749 146.22C106.476 149.633 107.127 154.125 105.521 158.113Z" fill="#2DA66D"/>
<path d="M69.2997 112.866L68.9527 113.426C89.2747 124.515 107.272 139.892 120.999 157.894L121.56 157.517C114.713 148.539 106.709 140.122 97.7717 132.5C88.9154 124.948 79.3359 118.342 69.2997 112.866Z" fill="#027369"/>
<path fill-rule="evenodd" clip-rule="evenodd" d="M180.812 356.827V364.658C180.812 384.787 198.342 401.25 219.835 401.25H337.093V356.827H180.812Z" fill="#CC293D"/>
<path fill-rule="evenodd" clip-rule="evenodd" d="M337.093 401.25H454.395C475.85 401.25 493.379 384.787 493.379 364.658V356.827H337.093V401.25Z" fill="#CC293D"/>
<path fill-rule="evenodd" clip-rule="evenodd" d="M337.093 195.418H284.879V195.334H263.963V195.418H219.835C198.343 195.418 180.812 209.346 180.812 229.476V242.46H337.093V195.418Z" fill="#CC293D"/>
<path fill-rule="evenodd" clip-rule="evenodd" d="M454.395 195.417H410.248H389.348H337.093V242.459H493.379V229.476C493.379 209.345 475.85 195.419 454.395 195.417Z" fill="#CC293D"/>
<path fill-rule="evenodd" clip-rule="evenodd" d="M337.093 336.614H324.545V313.052H299.444V283.615H324.545V260.071H337.093V242.459H180.812V356.827H337.093V336.614Z" fill="#FD5B68"/>
<path fill-rule="evenodd" clip-rule="evenodd" d="M337.093 260.071H349.648V283.615H374.75V313.052H349.637V336.614H337.093V356.827H493.379V242.459H337.093V260.071Z" fill="#FD5B68"/>
<path fill-rule="evenodd" clip-rule="evenodd" d="M324.545 283.615H299.444V313.052H324.545V336.614H337.093V260.071H324.545V283.615Z" fill="#CC293D"/>
<path fill-rule="evenodd" clip-rule="evenodd" d="M349.637 336.614V313.052H374.75V283.615H349.648V260.071H337.093V336.614H349.637Z" fill="#CC293D"/>
<path fill-rule="evenodd" clip-rule="evenodd" d="M296.972 191.244C296.972 193.682 294.866 195.656 292.273 195.656H273.839C271.25 195.656 269.137 193.683 269.137 191.245C269.137 188.815 271.25 186.842 273.839 186.842H292.273C294.866 186.842 296.97 188.815 296.972 191.244Z" fill="#D2F3F7"/>
<path fill-rule="evenodd" clip-rule="evenodd" d="M404.779 191.244C404.779 193.682 402.67 195.656 400.086 195.656H381.648C379.05 195.656 376.949 193.683 376.949 191.245C376.95 188.815 379.048 186.842 381.648 186.842H400.086C402.672 186.842 404.779 188.815 404.779 191.244Z" fill="#D2F3F7"/>
<path d="M287.866 169.979H278.249V189.684H287.866V169.979Z" fill="#D2F3F7"/>
<path d="M395.669 169.979H386.058V189.684H395.669V169.979Z" fill="#D2F3F7"/>
<path fill-rule="evenodd" clip-rule="evenodd" d="M274.973 171.849C274.973 171.849 280.773 143.128 337.774 143.128C394.762 143.127 401.71 171.849 401.71 171.849H381.413C381.413 171.849 378.564 154.65 338.344 154.65C298.119 154.65 295.268 171.849 295.268 171.849H274.973Z" fill="#D2F3F7"/>
<path fill-rule="evenodd" clip-rule="evenodd" d="M548.499 347.546L552 347.096L548.493 347.546H548.499Z" fill="black"/>
<path d="M294.22 130.402V408H294.218H83.0571H83.0547V130.402H83.0571H294.218H294.22Z" fill="#A5C8E4"/>
<path d="M283.936 140.106H92.1642V398.004H283.936V140.106Z" fill="white"/>
<path d="M189.865 104.481C183.673 104.481 178.653 109.191 178.653 115.002V144.023H201.078V115.002C201.078 109.192 196.058 104.481 189.865 104.481ZM189.865 118.992C186.805 118.992 184.324 116.664 184.324 113.793C184.324 110.922 186.805 108.593 189.865 108.593C192.925 108.593 195.407 110.922 195.407 113.793C195.407 116.664 192.926 118.992 189.865 118.992Z" fill="#293F60"/>
<path d="M229.66 128.8V142.231C229.66 144.103 227.924 145.62 225.783 145.62H152.762C150.622 145.62 148.885 144.103 148.885 142.231V128.8C148.885 126.929 150.622 125.411 152.762 125.411H225.783C227.924 125.411 229.66 126.929 229.66 128.8Z" fill="#293F60"/>
<path d="M238.206 241.049H137.175V243.768H238.206V241.049Z" fill="#D1EAF3"/>
<path d="M238.206 249.748H137.175V252.467H238.206V249.748Z" fill="#D1EAF3"/>
<path d="M238.206 258.448H137.175V261.167H238.206V258.448Z" fill="#D1EAF3"/>
<path d="M238.206 276.874H137.175V279.594H238.206V276.874Z" fill="#D1EAF3"/>
<path d="M238.206 285.575H137.175V288.294H238.206V285.575Z" fill="#D1EAF3"/>
<path d="M238.206 294.274H137.175V296.993H238.206V294.274Z" fill="#D1EAF3"/>
<path d="M238.206 313.689H137.175V316.408H238.206V313.689Z" fill="#D1EAF3"/>
<path d="M238.206 322.388H137.175V325.107H238.206V322.388Z" fill="#D1EAF3"/>
<path d="M238.206 331.087H137.175V333.806H238.206V331.087Z" fill="#D1EAF3"/>
<path d="M242.134 369.923C233.5 373.906 223.022 370.555 218.776 362.454C214.531 354.352 218.102 344.521 226.737 340.537C235.371 336.554 245.85 339.905 250.096 348.006C254.339 356.109 250.769 365.941 242.134 369.923ZM227.298 341.611C219.294 345.303 215.983 354.417 219.918 361.927C223.852 369.437 233.567 372.543 241.571 368.852C249.576 365.159 252.885 356.045 248.951 348.535C245.017 341.025 235.303 337.918 227.298 341.611Z" fill="#D1EAF3"/>
<path d="M240.481 366.77C233.699 369.898 225.47 367.267 222.136 360.904C218.802 354.542 221.607 346.821 228.389 343.692C235.17 340.564 243.4 343.195 246.734 349.558C250.068 355.921 247.262 363.642 240.481 366.77ZM228.951 344.764C222.8 347.601 220.255 354.604 223.28 360.376C226.304 366.148 233.769 368.535 239.919 365.697C246.07 362.859 248.615 355.857 245.59 350.085C242.567 344.314 235.102 341.926 228.951 344.764Z" fill="#D1EAF3"/>
<path d="M241.885 352.526L227.946 358.955C227.599 359.115 227.18 358.981 227.01 358.656C226.839 358.33 226.982 357.937 227.329 357.777L241.267 351.348C241.614 351.188 242.033 351.322 242.204 351.648C242.374 351.972 242.232 352.366 241.885 352.526Z" fill="#D1EAF3"/>
<path d="M239.312 350.451L227.767 355.777C227.452 355.922 227.069 355.801 226.915 355.504C226.76 355.207 226.889 354.849 227.206 354.704L238.75 349.379C239.066 349.233 239.448 349.355 239.603 349.652C239.758 349.948 239.627 350.305 239.312 350.451Z" fill="#D1EAF3"/>
<path d="M240.797 355.826L231.394 360.163C231.109 360.294 230.765 360.185 230.625 359.917C230.485 359.65 230.602 359.327 230.887 359.195L240.29 354.858C240.574 354.727 240.919 354.837 241.059 355.104C241.2 355.371 241.082 355.695 240.797 355.826Z" fill="#D1EAF3"/>
<path d="M58.4928 232.085C55.4498 234.207 53.6245 237.475 53.4857 241.039C52.8976 257.128 50.5998 285.498 41.8897 294.685C41.1725 295.438 41.2394 296.603 42.0492 297.275C42.2879 297.477 42.5631 297.608 42.848 297.685C43.5372 297.846 44.3056 297.658 44.8146 297.129C53.8608 287.581 56.6517 261.428 57.3957 241.165C57.4894 238.726 58.74 236.488 60.8271 235.034C62.9142 233.581 65.5493 233.11 68.0663 233.736C68.4437 233.824 68.8164 233.81 69.1573 233.701L69.8295 231.215C69.8745 231.045 69.9378 230.881 70.0121 230.726C69.7637 230.473 69.4459 230.275 69.0721 230.189C65.3983 229.276 61.5492 229.962 58.4928 232.085Z" fill="#A5C8E4"/>
<path d="M73.3266 229.259C71.9677 228.935 70.5869 229.578 70.0121 230.725C69.9366 230.88 69.8733 231.044 69.8295 231.214L69.1573 233.7L50.9602 301.168L50.9639 301.17L66.5295 304.867L85.4024 234.91C85.7897 233.468 84.8569 231.999 83.3165 231.632L81.6739 231.244L74.9693 229.649L73.3266 229.259Z" fill="#72A2BA"/>
<path d="M76.9614 222.274L74.9692 229.649L81.6738 231.243L81.6762 231.24L83.6647 223.863L76.9614 222.274Z" fill="#A5C8E4"/>
<path d="M50.959 301.168L49.0107 308.399L49.0143 308.401L64.5776 312.103L66.5295 304.868L50.9638 301.171L50.959 301.168Z" fill="#A5C8E4"/>
<path d="M49.0143 308.401L49.0107 308.399L33.7518 364.962C32.1713 370.816 31.3749 376.831 31.3701 382.869L31.3688 384.3C35.0353 383.864 38.6981 384.421 41.5645 386.798L42.3317 385.473C45.3917 380.162 47.7394 374.514 49.3163 368.659L64.5763 312.103L49.0143 308.401Z" fill="#72A2BA"/>
<path d="M31.37 384.3L31.3603 400.343C31.3603 401.441 32.9226 401.811 33.4791 400.846L40.9532 387.87L41.5657 386.798C38.6993 384.421 35.0353 383.864 31.37 384.3Z" fill="#A5C8E4"/>
<path d="M204.172 164.342C190.077 167.734 176.315 167.589 162.845 164.348C160.632 163.816 158.477 165.379 158.477 167.522V203.464C158.477 205.218 158.824 206.959 159.539 208.581C162.705 215.762 170.362 223.133 182.306 229.475C194.379 223.562 201.736 217.477 206.708 209.087C207.902 207.072 208.518 204.802 208.518 202.498V167.524C208.518 165.389 206.376 163.812 204.172 164.342Z" fill="#72A2BA"/>
<path d="M200.686 169.802C188.967 172.623 177.525 172.502 166.325 169.808C164.485 169.365 162.694 170.665 162.694 172.447V202.33C162.694 203.788 162.982 205.236 163.577 206.583C166.209 212.555 172.25 218.471 182.18 223.744C192.219 218.829 198.661 213.98 202.795 207.004C203.787 205.329 204.3 203.442 204.3 201.526V172.447C204.3 170.673 202.518 169.361 200.686 169.802Z" fill="#B2DCF7"/>
<path d="M166.225 169.79C166.13 169.771 166.035 169.753 165.941 169.743C166.036 169.758 166.13 169.774 166.225 169.79Z" fill="white"/>
<path d="M200.686 169.802C199.872 169.999 199.06 170.176 198.249 170.344C198.361 170.634 198.423 170.948 198.423 171.279V200.357C198.423 202.273 197.91 204.161 196.918 205.835C193.071 212.326 187.222 216.976 178.34 221.55C179.55 222.292 180.826 223.024 182.18 223.743C192.219 218.828 198.661 213.979 202.795 207.003C203.787 205.328 204.3 203.44 204.3 201.524V172.446C204.3 170.673 202.518 169.361 200.686 169.802Z" fill="#E5E5E4"/>
<path d="M199.569 191.845H185.029V178.202C185.029 177.409 184.343 176.766 183.498 176.766C182.653 176.766 181.967 177.409 181.967 178.202V191.845H167.427C166.582 191.845 165.896 192.488 165.896 193.281C165.896 194.074 166.582 194.717 167.427 194.717H181.967V208.36C181.967 209.153 182.653 209.796 183.498 209.796C184.343 209.796 185.029 209.153 185.029 208.36V194.717H199.569C200.414 194.717 201.1 194.074 201.1 193.281C201.1 192.488 200.414 191.845 199.569 191.845Z" fill="#72A2BA"/>
<path d="M166.808 174.945C164.841 176.791 164.155 179.139 165.275 180.191C166.396 181.242 168.899 180.599 170.867 178.753C172.835 176.907 173.52 174.559 172.4 173.506C171.278 172.454 168.775 173.099 166.808 174.945Z" fill="#CBCBCB"/>
<path d="M2.16382 206.855H16.0442V193.832H32.4355V206.855H46.3159V222.235H32.4355V235.258H16.0442V222.235H2.16382V206.855Z" fill="#E3FBFF"/>
<path d="M401.511 58.0983H413.687V46.6743H428.066V58.0983H440.242V71.5903H428.066V83.0144H413.687V71.5903H401.511V58.0983Z" fill="#E3FBFF"/>
<path d="M30.7819 174.796H40.6646V165.524H52.3361V174.796H62.2189V185.747H52.3361V195.02H40.6646V185.747H30.7819V174.796Z" fill="#E3FBFF"/>
<path d="M206.421 94.7514H215.937V85.8226H227.175V94.7514H236.692V105.297H227.175V114.226H215.937V105.297H206.421V94.7514Z" fill="white"/>
<path d="M242.512 29.5559L242.993 30.9384L243.962 33.7352C243.956 33.7398 243.945 33.7387 243.939 33.7432C243.098 34.0037 241.972 34.3876 240.677 34.8755C235.301 36.9263 227.109 40.8314 224.793 45.3158C224.102 46.6537 224.019 47.9276 224.529 49.2243C227.858 57.6356 270.907 102.973 287.219 119.737L286.05 120.737L283.761 122.7C277.697 116.465 224.384 61.4984 220.141 50.7507C219.179 48.3092 219.321 45.8414 220.578 43.4066C223.505 37.7363 232.183 33.5033 237.711 31.2868C239.004 30.7715 240.122 30.3568 240.951 30.0689C241.832 29.773 242.396 29.5936 242.512 29.5559Z" fill="#B2DCF7"/>
<path d="M446.864 108.054C444.506 105.525 442.459 104.448 442.189 104.311L439.947 108.241C440.011 108.27 441.691 109.168 443.663 111.432C444.405 112.282 445.193 113.33 445.946 114.599C450.026 121.481 453.213 134.88 444.067 159.12C438.985 172.577 431.599 170.55 429.17 169.881C427.646 169.461 426.093 168.775 424.527 167.885C425.927 161.444 425.742 154.674 424.366 148.697C421.344 135.568 413.116 126.357 402.887 124.656C401.408 124.408 400.071 124.463 398.931 124.793C396.843 125.386 395.382 126.894 394.815 129.17C392.674 137.726 404.963 159.912 419.151 169.854C417.328 175.749 413.863 181.08 408.346 184.633C404.437 187.146 400.471 187.845 396.234 186.769C387.437 184.552 379.539 175.288 374.499 167.973C370.957 162.841 368.819 158.679 368.772 158.574L364.476 160.486C364.7 160.925 367.004 165.431 370.825 170.888C375.109 177 381.295 184.315 388.589 188.44C388.594 188.446 388.594 188.446 388.594 188.446C390.647 189.602 392.783 190.513 394.993 191.073C400.581 192.492 405.974 191.559 411.029 188.307C417.125 184.379 421.068 178.672 423.276 172.357C424.026 172.739 424.775 173.082 425.525 173.38C426.302 173.686 427.068 173.943 427.835 174.154C430.693 174.947 434.866 175.357 438.989 173.153C439.564 172.846 440.13 172.489 440.696 172.077C443.582 169.976 446.358 166.417 448.541 160.611C458.591 133.989 454.555 119.18 449.562 111.506C449.134 110.845 448.698 110.245 448.261 109.692C447.788 109.088 447.32 108.546 446.864 108.054ZM399.431 130.191C399.518 129.842 399.618 129.473 399.95 129.229C400.302 128.973 400.913 128.852 402.06 129.046C410.341 130.424 417.116 138.319 419.72 149.639C420.821 154.435 421.098 159.786 420.279 164.96C408.563 155.629 397.77 136.83 399.431 130.191Z" fill="#B2DCF7"/>
<path d="M375.837 164.573C375.774 165.038 375.241 168.47 371.915 170.369C369.563 171.713 367.198 171.498 366.456 171.402C357.642 160.741 348.826 150.08 340.011 139.418L349.393 132.589L375.837 164.573Z" fill="#72A2BA"/>
<path d="M346.072 77.3395L342.155 79.7456C328.907 60.7581 292.802 10.3617 284.943 5.24894C283.737 4.46403 282.397 4.2241 280.847 4.51773C274.384 5.74251 266.586 15.4288 264.126 19.0597L260.174 16.7027C260.579 16.1063 270.196 2.05332 279.92 0.211581C282.746 -0.323117 285.333 0.15674 287.611 1.63859C297.652 8.17036 341.147 70.2787 346.072 77.3395Z" fill="#B2DCF7"/>
<path d="M346.074 77.3429L344.545 78.2786C339.231 70.682 296.149 9.18718 286.159 2.69654C283.877 1.21584 281.294 0.732553 278.469 1.26954C276.094 1.71855 273.729 2.8942 271.509 4.42746C274.141 2.39035 277.031 0.759976 279.924 0.210425C282.743 -0.321988 285.332 0.156727 287.614 1.63743C297.649 8.17034 341.151 70.2776 346.074 77.3429Z" fill="#72A2BA"/>
<path d="M260.173 16.7005L263.639 18.765C263.259 19.2735 262.936 19.7305 262.672 20.1166L258.717 17.7585C259.027 17.3095 264.601 9.1656 271.508 4.42529C265.294 9.22844 260.462 16.2858 260.173 16.7005Z" fill="#72A2BA"/>
<path d="M266.846 22.4118C265.376 23.4812 263.242 23.2287 262.101 21.8497L257.078 15.7749C255.938 14.3959 256.207 12.3931 257.677 11.3226C259.147 10.2532 261.281 10.5056 262.422 11.8847L267.445 17.9594C268.586 19.3385 268.316 21.3424 266.846 22.4118Z" fill="#72A2BA"/>
<path d="M262.422 11.8835L267.445 17.9582C268.584 19.335 268.315 21.3389 266.846 22.4072C266.637 22.5603 266.414 22.6848 266.179 22.7819C267.141 21.6646 267.201 20.0273 266.224 18.8471L261.201 12.7723C260.631 12.0834 259.813 11.6789 258.954 11.5716C258.341 11.4984 257.707 11.5807 257.128 11.8355C257.287 11.6458 257.471 11.4744 257.681 11.3213C258.415 10.7878 259.315 10.5856 260.176 10.6827C261.034 10.7901 261.854 11.1945 262.422 11.8835Z" fill="#72A2BA"/>
<path d="M243.111 31.2777C243.395 32.0969 243.68 32.9172 243.963 33.7364C243.957 33.741 243.946 33.7398 243.94 33.7444C243.099 34.0049 241.974 34.3888 240.678 34.8766C235.302 36.9275 227.111 40.8326 224.795 45.317C224.103 46.6549 224.02 47.9288 224.53 49.2255C227.859 57.6367 270.908 102.974 287.22 119.738L286.051 120.738C282.479 116.861 225.837 55.3574 223.599 50.8022C222.7 48.973 222.815 47.241 222.815 47.241C222.929 45.4986 223.777 44.1265 224.606 43.0605C229.131 37.2359 236.773 35.7872 239.252 33.1514C239.481 32.9081 240.377 31.8981 241.879 31.4719C242.407 31.3211 242.858 31.2869 243.111 31.2777Z" fill="#72A2BA"/>
<path d="M333.411 74.1781L346.639 90.1756C357.274 103.037 354.767 121.628 341.065 131.601C327.358 141.58 307.548 139.233 296.914 126.372L283.685 110.374L274.301 117.206L287.529 133.204C290.83 137.196 294.78 140.457 299.122 142.949C299.138 142.955 299.154 142.962 299.17 142.97C299.221 143.008 299.277 143.04 299.34 143.068C299.737 143.298 300.132 143.512 300.536 143.727C300.541 143.732 300.552 143.733 300.557 143.739C301.024 143.982 301.498 144.221 301.974 144.45C302.434 144.671 302.899 144.888 303.362 145.09C303.389 145.098 303.416 145.107 303.436 145.119C303.852 145.299 304.273 145.475 304.695 145.639C305.37 145.918 306.058 146.176 306.756 146.41C307.064 146.52 307.378 146.625 307.687 146.725C307.874 146.783 308.05 146.841 308.232 146.894C308.632 147.019 309.034 147.135 309.441 147.246C309.505 147.264 309.559 147.28 309.623 147.298C310.009 147.407 310.397 147.505 310.79 147.599C311.301 147.726 311.809 147.84 312.323 147.947C312.598 148.005 312.875 148.065 313.158 148.108C313.537 148.185 313.912 148.254 314.287 148.315C314.788 148.395 315.284 148.469 315.792 148.535C315.803 148.537 315.814 148.538 315.825 148.539C316.338 148.61 316.854 148.661 317.364 148.716C317.403 148.716 317.436 148.719 317.469 148.723C317.985 148.773 318.492 148.813 319.006 148.837C319.54 148.875 320.082 148.896 320.615 148.908C321.103 148.924 321.585 148.934 322.071 148.924C323.322 148.92 324.577 148.861 325.82 148.752C326.135 148.727 326.438 148.701 326.744 148.663C326.924 148.643 327.117 148.625 327.297 148.604C327.483 148.579 327.682 148.556 327.868 148.531C329.211 148.35 330.549 148.117 331.863 147.819C332.047 147.778 332.23 147.737 332.414 147.697C332.758 147.612 333.104 147.528 333.444 147.437C333.714 147.37 333.969 147.296 334.234 147.223C336.072 146.71 337.876 146.073 339.647 145.322C339.889 145.22 340.142 145.109 340.386 144.997C341.409 144.549 342.41 144.052 343.395 143.511L343.4 143.516C344.527 142.909 345.629 142.246 346.709 141.534C346.959 141.371 347.205 141.202 347.45 141.032C347.744 140.827 348.045 140.618 348.341 140.402C349.932 139.243 351.412 137.999 352.778 136.69C367.677 122.406 369.436 99.5774 356.017 83.3491L342.79 67.3516L333.411 74.1781Z" fill="#72A2BA"/>
<path d="M341.938 67.9708L353.573 82.042C366.758 97.987 365.283 120.322 351.086 134.642C349.509 136.235 347.784 137.723 345.897 139.096C344.595 140.043 343.262 140.902 341.888 141.689C328.658 149.271 312.381 149.452 299.17 142.97C299.221 143.008 299.277 143.04 299.34 143.068C299.737 143.298 300.132 143.512 300.536 143.727C300.541 143.732 300.552 143.733 300.557 143.739C301.024 143.982 301.498 144.221 301.974 144.45C302.434 144.671 302.899 144.888 303.362 145.09C303.389 145.098 303.416 145.107 303.436 145.119C303.852 145.299 304.273 145.475 304.695 145.639C305.37 145.918 306.058 146.176 306.756 146.41C307.064 146.52 307.378 146.625 307.687 146.725C307.874 146.783 308.05 146.841 308.232 146.894C308.632 147.019 309.034 147.135 309.441 147.246C309.505 147.264 309.559 147.28 309.623 147.298C310.009 147.407 310.397 147.505 310.79 147.599C311.301 147.726 311.809 147.84 312.323 147.947C312.598 148.005 312.875 148.065 313.158 148.108C313.537 148.185 313.912 148.254 314.287 148.315C314.788 148.395 315.284 148.469 315.792 148.535C315.803 148.537 315.814 148.538 315.825 148.539C316.334 148.604 316.848 148.666 317.364 148.716C317.403 148.716 317.436 148.719 317.469 148.723C317.985 148.773 318.492 148.813 319.006 148.837C319.54 148.875 320.082 148.896 320.615 148.908C321.103 148.924 321.585 148.934 322.071 148.924C323.322 148.92 324.577 148.861 325.82 148.752C326.135 148.727 326.438 148.701 326.744 148.663C326.924 148.643 327.117 148.625 327.297 148.604C327.483 148.579 327.682 148.556 327.868 148.531C329.211 148.35 330.549 148.117 331.863 147.819C332.047 147.778 332.23 147.737 332.414 147.697C332.758 147.612 333.104 147.528 333.444 147.437C333.714 147.37 333.969 147.296 334.234 147.223C336.072 146.71 337.876 146.073 339.647 145.322C339.889 145.22 340.142 145.109 340.386 144.997C341.409 144.549 342.41 144.052 343.395 143.511L343.4 143.516C344.527 142.909 345.629 142.246 346.709 141.534C346.959 141.371 347.205 141.202 347.45 141.032C347.744 140.827 348.045 140.618 348.341 140.402C349.932 139.243 351.412 137.999 352.778 136.69C367.677 122.406 369.436 99.5774 356.017 83.3491L342.79 67.3516L341.938 67.9708Z" fill="#72A2BA"/>
<path d="M242.321 26.517L247.344 32.5918C247.664 32.9791 247.867 33.4155 247.967 33.8714C248.23 35.0139 247.808 36.2581 246.764 37.027L246.746 37.0408C245.278 38.109 243.143 37.8565 242.004 36.4786L236.981 30.4039C236.411 29.7149 236.197 28.8706 236.3 28.0629C236.415 27.2574 236.846 26.4885 237.58 25.9549C238.85 25.0306 240.622 25.0934 241.809 26.028C241.994 26.1697 242.167 26.3319 242.321 26.517Z" fill="#72A2BA"/>
<path d="M242.321 26.5169L247.344 32.5916C247.664 32.9789 247.867 33.4154 247.967 33.8712C248.23 35.0138 247.808 36.258 246.764 37.0269L246.746 37.0406C245.482 37.9603 243.732 37.8998 242.542 36.9869C243.347 37.0406 244.172 36.8304 244.85 36.3368L244.868 36.3231C245.912 35.5542 246.335 34.31 246.071 33.1674C245.971 32.7116 245.768 32.2751 245.448 31.8878L240.425 25.8131C240.271 25.628 240.098 25.4669 239.912 25.3241C239.907 25.3184 239.891 25.3115 239.886 25.3058C240.587 25.3526 241.26 25.5937 241.808 26.029C241.994 26.1695 242.167 26.3318 242.321 26.5169Z" fill="#72A2BA"/>
<path d="M424.365 148.696C425.741 154.673 425.926 161.444 424.525 167.885C424.525 167.885 425.571 170.071 425.521 173.378C424.771 173.081 424.023 172.736 423.272 172.356C421.066 178.67 417.122 184.377 411.025 188.305C405.97 191.558 400.577 192.49 394.989 191.071C392.778 190.511 390.642 189.601 388.59 188.445C398.467 190.987 412.003 191.291 418.674 177.343C429.897 153.881 419.271 139.836 412.831 130.854C409.693 126.475 403.975 125.076 398.928 124.792C400.068 124.463 401.405 124.407 402.885 124.654C413.113 126.357 421.341 135.568 424.365 148.696Z" fill="#72A2BA"/>
<path d="M448.257 109.691C448.694 110.244 449.131 110.844 449.559 111.505C454.55 119.179 458.588 133.989 448.537 160.61C446.354 166.416 443.577 169.975 440.693 172.076C440.125 172.488 439.56 172.845 438.985 173.152C440.754 170.845 442.069 168.841 442.96 167.386C459.756 140.164 450.002 113.269 449.327 111.832C448.821 110.755 448.257 109.691 448.257 109.691Z" fill="#72A2BA"/>
<path d="M449.102 100.762C451.753 103.967 451.804 108.295 449.559 111.505C449.487 111.622 449.406 111.727 449.326 111.833C448.785 112.542 448.125 113.19 447.355 113.751C446.904 114.078 446.432 114.366 445.944 114.602C441.78 116.697 436.498 115.732 433.508 112.116C430.164 108.071 430.946 102.256 435.257 99.1183C436.416 98.274 437.709 97.713 439.05 97.4228C442.691 96.6162 446.658 97.8055 449.102 100.762Z" fill="#72A2BA"/>
<path d="M449.102 100.762C451.753 103.967 451.804 108.295 449.559 111.505C449.487 111.622 449.406 111.727 449.326 111.833C448.785 112.542 448.125 113.189 447.355 113.75C446.904 114.078 446.432 114.366 445.945 114.602C443.6 115.779 440.908 115.989 438.463 115.302C440.369 115.48 442.329 115.139 444.095 114.252C444.582 114.018 445.056 113.729 445.505 113.402C446.276 112.841 446.936 112.193 447.476 111.485C447.557 111.38 447.638 111.275 447.709 111.158C449.954 107.949 449.902 103.621 447.252 100.415C445.946 98.836 444.206 97.7574 442.307 97.2307C444.901 97.4729 447.38 98.6794 449.102 100.762Z" fill="#72A2BA"/>
<path d="M447.06 107.125C447.463 104.128 445.2 101.392 442.006 101.014C438.813 100.636 435.897 102.759 435.494 105.756C435.091 108.752 437.353 111.488 440.547 111.866C443.741 112.244 446.657 110.122 447.06 107.125Z" fill="#B2DCF7"/>
<path d="M350.637 204.579C350.63 205.214 350.556 205.83 350.423 206.414C349.755 209.352 347.607 211.493 345.085 211.468L344.913 211.466C341.89 211.436 339.475 208.304 339.519 204.468L339.645 193.327L349.958 191.786L350.637 204.579Z" fill="#F4B3B3"/>
<path fill-rule="evenodd" clip-rule="evenodd" d="M345.198 178.967C345.198 178.967 342.047 179.676 340.042 182.557C338.048 185.423 336.526 193.897 342.813 197.836C349.093 201.774 354.181 196.178 354.384 190.722C354.596 185.266 353.555 177.997 345.198 178.967Z" fill="#F4B3B3"/>
<path fill-rule="evenodd" clip-rule="evenodd" d="M355.593 189.008C355.028 190.315 353.924 191.147 353.146 190.829C352.362 190.53 352.2 189.209 352.767 187.901C353.344 186.58 354.442 185.764 355.226 186.066C356.005 186.363 356.172 187.687 355.593 189.008Z" fill="#F4B3B3"/>
<path d="M347.759 191.865C347.771 191.865 347.783 191.865 347.795 191.864C348.127 191.829 349.784 191.611 349.903 190.778C350.008 190.049 348.795 187.808 348.55 187.367C348.486 187.25 348.331 187.204 348.207 187.266C348.082 187.326 348.033 187.471 348.099 187.588C348.636 188.559 349.462 190.266 349.398 190.715C349.348 191.06 348.379 191.321 347.738 191.39C347.598 191.405 347.498 191.524 347.514 191.655C347.528 191.773 347.635 191.862 347.759 191.865Z" fill="#EC724C"/>
<path d="M351.889 187.802C351.911 188.211 351.608 188.558 351.213 188.576C350.819 188.594 350.48 188.278 350.458 187.87C350.437 187.461 350.74 187.115 351.134 187.096C351.53 187.078 351.869 187.395 351.889 187.802Z" fill="black"/>
<path d="M343.011 185.697C343.072 185.698 343.133 185.68 343.183 185.64C344.313 184.738 345.712 185.449 345.725 185.456C345.848 185.52 346.004 185.479 346.072 185.363C346.141 185.248 346.097 185.102 345.973 185.038C345.903 185.001 344.248 184.161 342.852 185.275C342.744 185.361 342.731 185.512 342.822 185.612C342.872 185.667 342.942 185.696 343.011 185.697Z" fill="black"/>
<path d="M350.061 185.278C350.116 185.279 350.172 185.264 350.22 185.231C350.258 185.205 351.148 184.604 351.999 185.201C352.112 185.28 352.272 185.258 352.356 185.153C352.44 185.047 352.417 184.897 352.304 184.818C351.375 184.168 350.335 184.553 349.915 184.847C349.802 184.926 349.779 185.075 349.863 185.182C349.913 185.242 349.986 185.275 350.061 185.278Z" fill="black"/>
<path d="M345.205 193.21C348.709 193.915 350.228 193.306 350.228 193.306C350.228 193.306 350.376 195.361 348.331 195.563C345.409 195.849 345.205 193.21 345.205 193.21Z" fill="black"/>
<path d="M350.107 193.346C350.107 193.346 350.021 193.728 349.987 193.804C349.951 193.88 349.615 194.105 348.185 194.198C346.976 194.278 345.717 193.963 345.36 193.865C345.226 193.495 345.205 193.211 345.205 193.211C345.41 193.253 345.608 193.288 345.801 193.321C348.347 193.756 349.707 193.461 350.104 193.346C350.107 193.346 350.107 193.346 350.107 193.346Z" fill="white"/>
<path d="M345.226 189.099C345.633 189.08 345.945 188.723 345.923 188.302C345.901 187.881 345.553 187.555 345.146 187.574C344.739 187.593 344.427 187.95 344.449 188.371C344.471 188.792 344.819 189.118 345.226 189.099Z" fill="black"/>
<path fill-rule="evenodd" clip-rule="evenodd" d="M353.646 185.726C354.53 185.267 356.415 184.118 357.155 182.003C357.618 180.678 357.815 178.452 356.789 177.963C356.351 177.754 355.794 177.911 355.333 178.126C356.317 176.894 356.005 175.189 354.843 174.407C353.593 173.565 351.603 173.954 350.769 175.42C350.678 175.253 349.408 173.024 346.675 172.752C344.739 172.56 342.831 173.425 341.744 174.984C339.002 173.719 335.931 174.186 334.285 175.952C332.886 177.454 332.998 179.377 333.042 179.871C331.044 181.569 330.531 183.206 330.368 184.028C329.552 188.123 333.183 193.079 339.677 195.648C339.598 192.525 339.52 189.401 339.441 186.277C340.274 185.27 342.701 182.617 346.878 181.608C349.055 181.082 350.947 181.187 352.183 181.359L353.646 185.726Z" fill="#063E8E"/>
<path fill-rule="evenodd" clip-rule="evenodd" d="M340.717 189.84C341.143 191.255 340.693 192.653 339.698 192.968C338.711 193.265 337.555 192.36 337.131 190.944C336.7 189.528 337.155 188.132 338.142 187.836C339.129 187.537 340.286 188.423 340.717 189.84Z" fill="#F4B3B3"/>
<path d="M350.496 198.937C351.087 200.036 352.884 203.403 354.099 205.87C355.57 208.862 358.88 228.295 359.248 232.434C359.315 233.191 359.466 236.456 359.669 241.284C359.754 243.35 359.852 245.702 359.952 248.266C359.966 248.604 359.98 248.944 359.992 249.29C359.998 249.427 360.003 249.565 360.009 249.703C360.037 250.391 360.064 251.092 360.092 251.805H360.093C360.2 254.534 360.312 257.441 360.429 260.454C360.439 260.715 360.448 260.974 360.459 261.237C360.484 261.862 360.506 262.49 360.53 263.124C360.571 264.206 360.614 265.299 360.655 266.4C360.687 267.217 360.717 268.038 360.749 268.861C361 275.467 361.253 282.245 361.487 288.519C362.044 303.513 362.483 315.631 362.483 315.631C369.572 316.406 375.889 314.773 375.889 314.773C375.889 314.773 375.274 299.134 374.469 279.726C374.367 277.284 374.262 274.78 374.156 272.243C374.054 269.831 373.951 267.386 373.847 264.928C373.811 264.09 373.775 263.251 373.739 262.411C373.681 261.022 373.621 259.633 373.562 258.245C373.528 257.44 373.491 256.636 373.457 255.834C373.446 255.557 373.433 255.28 373.422 255.003C373.401 254.549 373.381 254.095 373.362 253.64C372.318 229.574 371.264 207.333 370.897 206.243C370.229 204.254 357.071 202.093 352.136 199.95C351.358 199.611 350.785 199.274 350.496 198.937Z" fill="white"/>
<path d="M256.463 341.912L254.16 326.133L260.168 324.731L262.555 341.084C258.667 341.625 256.463 341.912 256.463 341.912Z" fill="#F4B3B3"/>
<path d="M253.958 324.747L237.806 326.822C236.478 326.992 235.552 328.137 235.733 329.38L240.086 359.206C240.268 360.447 241.488 361.317 242.815 361.147C243.06 361.116 243.994 361.067 245.087 360.293C246.144 359.544 247.353 358.117 248.24 355.37C249.503 351.463 250.049 349.708 251.858 346.671C252.644 345.352 253.744 344.468 256.709 343.603L253.958 324.747Z" fill="#15EADF"/>
<path d="M240.159 326.52L237.806 326.823C236.479 326.993 235.553 328.138 235.734 329.381L240.087 359.207C240.269 360.448 241.489 361.318 242.816 361.148C243.061 361.117 243.995 361.068 245.088 360.294L240.159 326.52Z" fill="white"/>
<path d="M250.055 350.343C249.998 350.343 249.943 350.317 249.911 350.269C249.896 350.246 248.393 348.071 246.033 348.233C245.942 348.241 245.857 348.173 245.85 348.084C245.842 347.996 245.913 347.919 246.008 347.912C248.567 347.733 250.135 349.999 250.199 350.096C250.25 350.172 250.226 350.27 250.146 350.318C250.119 350.335 250.087 350.343 250.055 350.343Z" fill="black"/>
<path d="M251.175 347.976C251.117 347.976 251.063 347.949 251.03 347.901C251.015 347.88 249.509 345.704 247.153 345.865C247.061 345.872 246.976 345.806 246.969 345.717C246.961 345.629 247.032 345.551 247.127 345.544C249.684 345.362 251.254 347.632 251.319 347.729C251.371 347.804 251.346 347.903 251.266 347.951C251.238 347.968 251.206 347.976 251.175 347.976Z" fill="black"/>
<path d="M252.527 345.823C252.47 345.823 252.415 345.797 252.382 345.749C252.368 345.727 250.865 343.552 248.505 343.713C248.413 343.723 248.329 343.653 248.321 343.564C248.314 343.476 248.385 343.399 248.48 343.392C251.037 343.212 252.606 345.479 252.671 345.576C252.722 345.652 252.698 345.75 252.617 345.798C252.591 345.815 252.559 345.823 252.527 345.823Z" fill="black"/>
<path d="M345.66 300.433C345.66 300.433 327.044 330.857 324.771 333.321C323.117 335.112 291.015 340.26 273.587 342.942C271.319 343.292 269.296 343.601 267.628 343.852C264.468 344.329 262.556 344.611 262.556 344.611L258.14 323.714L263.561 322.736L269.486 321.669L309.196 314.518L327.613 275.06C341.653 282.394 345.66 300.433 345.66 300.433Z" fill="#062C59"/>
<path d="M396.653 383.664H379.678L379.013 377.889H396.605C396.649 381.578 396.653 383.664 396.653 383.664Z" fill="#F4B3B3"/>
<path d="M378.188 383.664V398.96C378.188 400.217 379.27 401.234 380.607 401.234H412.692C414.029 401.234 415.111 400.218 415.111 398.96C415.111 398.728 415.187 397.854 414.518 396.732C413.871 395.649 412.528 394.331 409.748 393.135C405.793 391.43 404.014 390.684 401.053 388.591C399.769 387.681 398.983 386.538 398.473 383.664H378.188Z" fill="#15EADF"/>
<path d="M378.188 396.732V398.96C378.188 400.217 379.27 401.234 380.607 401.234H412.692C414.029 401.234 415.111 400.218 415.111 398.96C415.111 398.728 415.187 397.854 414.518 396.732H378.188Z" fill="white"/>
<path d="M401.74 394.369C401.736 394.369 401.733 394.369 401.729 394.369C401.635 394.363 401.562 394.287 401.568 394.198C401.725 391.79 404.333 390.645 404.443 390.598C404.53 390.562 404.631 390.597 404.67 390.677C404.709 390.758 404.671 390.853 404.586 390.89C404.56 390.9 402.055 392.004 401.911 394.218C401.906 394.302 401.83 394.369 401.74 394.369Z" fill="black"/>
<path d="M399.392 393.007C399.389 393.007 399.385 393.007 399.381 393.007C399.286 393.001 399.215 392.926 399.221 392.837C399.378 390.428 401.985 389.283 402.096 389.237C402.182 389.2 402.283 389.235 402.322 389.315C402.361 389.397 402.323 389.491 402.238 389.528C402.213 389.538 399.708 390.642 399.563 392.856C399.558 392.942 399.482 393.007 399.392 393.007Z" fill="black"/>
<path d="M397.303 391.457C397.299 391.457 397.295 391.457 397.292 391.457C397.198 391.452 397.125 391.376 397.131 391.287C397.289 388.879 399.895 387.734 400.006 387.687C400.093 387.651 400.194 387.686 400.233 387.766C400.272 387.847 400.234 387.942 400.149 387.978C400.123 387.989 397.618 389.092 397.473 391.307C397.468 391.391 397.393 391.457 397.303 391.457Z" fill="black"/>
<path d="M398.183 378.883H376.832L375.499 374.054L373.933 368.388L360.646 320.264C360.646 320.264 338.856 291.45 330.079 279.78C324.751 272.696 325.892 261.207 327.612 253.271H363.01C362.729 256.683 362.417 260.367 362.177 262.87C361.612 268.771 385.321 308.936 389.259 315.534C392.124 320.331 395.541 351.657 397.192 368.388C397.404 370.548 397.589 372.469 397.736 374.054C398.022 377.07 398.183 378.883 398.183 378.883Z" fill="#063E8E"/>
<path d="M385.145 365.581C385.064 365.581 384.991 365.525 384.976 365.447C384.901 365.027 377.442 323.38 376.665 320.137C375.893 316.917 344.369 270.433 344.05 269.963C343.999 269.888 344.023 269.789 344.102 269.742C344.182 269.694 344.288 269.716 344.338 269.791C345.639 271.708 376.214 316.793 376.999 320.066C377.778 323.317 385.238 364.973 385.314 365.393C385.329 365.481 385.266 365.564 385.173 365.578C385.164 365.58 385.155 365.581 385.145 365.581Z" fill="white"/>
<path d="M438.738 226.744C439.446 227.081 444.329 226.134 444.342 227.239C444.354 228.343 436.328 228.905 436.328 228.905C436.328 228.905 438.487 229.3 438.993 229.312C439.499 229.323 441.696 228.89 441.471 230.079C441.247 231.269 435.492 230.752 434.901 230.669C434.312 230.585 433.423 230.787 432.723 230.598C432.024 230.411 429.403 229.964 428.571 229.975C428.378 229.979 428.077 230.09 427.732 230.259C426.583 230.818 424.921 232.015 424.921 232.015C424.619 231.886 422.486 227.643 424.004 225.954C424.004 225.954 424.356 225.756 424.87 225.453C426.082 224.74 428.199 223.444 428.776 222.773C429.597 221.817 436.951 218.368 437.427 218.725C438.602 219.602 436.24 221.178 435.379 221.444C434.519 221.709 432.893 222.641 432.893 222.641C432.893 222.641 434.338 222.934 435.141 222.929C435.944 222.924 437.58 222.708 439.543 222.153C441.505 221.596 443.488 220.715 444.421 221.83C445.353 222.945 437.214 224.802 437.214 224.802C438.073 224.983 440.386 224.417 441.37 224.228C442.352 224.04 445.604 223.314 445.727 224.319C445.854 225.387 438.738 226.744 438.738 226.744Z" fill="#F4B3B3"/>
<path d="M427.73 230.259C426.582 230.818 424.92 232.015 424.92 232.015C424.618 231.885 422.485 227.643 424.003 225.954C424.003 225.954 424.355 225.756 424.869 225.453C426.079 226.311 427.215 228.936 427.73 230.259Z" fill="#15EADF"/>
<path d="M356.859 215.253C356.859 215.253 357.041 215.571 357.387 216.142C357.421 216.196 357.455 216.255 357.492 216.313C357.515 216.353 357.538 216.393 357.564 216.433C357.58 216.457 357.594 216.483 357.61 216.508C357.646 216.57 357.687 216.634 357.727 216.699C357.829 216.868 357.942 217.051 358.065 217.246C358.117 217.328 358.168 217.411 358.221 217.498C358.231 217.514 358.241 217.529 358.25 217.543C358.309 217.636 358.366 217.729 358.428 217.827C358.74 218.319 359.096 218.872 359.49 219.477C359.606 219.654 359.724 219.834 359.848 220.019C359.863 220.041 359.876 220.062 359.889 220.083C360.026 220.288 360.167 220.5 360.313 220.717C360.508 221.006 360.71 221.306 360.92 221.611C361.36 222.255 361.832 222.93 362.331 223.632C362.595 224.001 362.867 224.379 363.148 224.764C363.276 224.941 363.407 225.118 363.54 225.297C363.656 225.454 363.773 225.613 363.893 225.773C363.965 225.87 364.038 225.968 364.112 226.064C364.412 226.47 364.721 226.876 365.039 227.286C365.147 227.429 365.258 227.571 365.369 227.713C365.561 227.961 365.756 228.211 365.954 228.458C366.033 228.562 366.113 228.662 366.195 228.764C367.652 230.598 369.241 232.478 370.936 234.312C371.125 234.517 371.315 234.721 371.505 234.922C371.694 235.123 371.884 235.322 372.075 235.52C372.076 235.524 372.079 235.526 372.081 235.527C372.245 235.698 372.412 235.871 372.579 236.041C372.719 236.185 372.861 236.33 373.004 236.473C373.422 236.891 373.842 237.306 374.268 237.712C374.381 237.821 374.494 237.929 374.608 238.037C374.623 238.052 374.639 238.065 374.655 238.081C374.776 238.194 374.895 238.305 375.017 238.417C375.275 238.657 375.534 238.895 375.796 239.129C375.929 239.251 376.065 239.371 376.202 239.49C376.356 239.627 376.513 239.764 376.67 239.9C376.827 240.037 376.985 240.172 377.144 240.306C377.267 240.41 377.391 240.514 377.514 240.617C377.708 240.777 377.903 240.939 378.099 241.095C379.27 242.039 380.465 242.921 381.68 243.715C384.619 245.639 387.67 247.062 390.736 247.676C391.698 247.869 392.659 247.981 393.622 248.004C394.047 248.017 394.472 248.01 394.898 247.986C395.233 247.965 395.565 247.942 395.896 247.915C397.293 247.802 398.658 247.626 399.988 247.396C400.463 247.314 400.934 247.226 401.4 247.132C416.534 244.062 426.829 234.405 426.829 234.405L426.807 234.143C426.77 233.679 426.722 233.219 426.666 232.761C426.466 231.099 426.158 229.469 425.744 227.896C425.458 226.804 425.122 225.736 424.737 224.702C424.416 223.836 424.059 222.994 423.671 222.181C422.689 222.719 421.734 223.225 420.807 223.697C411.662 228.356 405.047 229.91 399.989 229.958C398.664 229.973 397.444 229.883 396.315 229.717C395.358 229.576 394.463 229.383 393.623 229.154C393.213 229.043 392.816 228.922 392.432 228.794C390.996 228.319 389.72 227.756 388.543 227.206C385.081 225.595 381.007 220.337 377.483 215.335C375.333 212.282 373.39 209.325 371.913 207.349C371.528 206.83 371.176 206.383 370.858 206.013L370.791 206.059L363.08 211.148L362.083 211.806L359.594 213.448L358.862 213.93L357.118 215.081L356.859 215.253Z" fill="white"/>
<path d="M333.982 202.235C335.655 207.709 357.723 208.082 351.232 200.634C353.885 203.279 357.469 207.405 360.342 213.096C364.424 221.178 364.957 228.222 365.363 234.417C366.265 248.22 366.789 261.482 367.009 274.191C359.568 274.191 352.127 274.191 344.685 274.191L333.982 202.235Z" fill="#15EADF"/>
<path d="M310.11 312.075C310.454 314.412 310.078 312.365 310.157 312.436C311.15 313.325 310.724 312.811 312.009 313.311C313.857 314.031 316.502 314.692 318.905 315.274C319.776 315.486 321.171 315.782 322.472 316.002C324.577 316.359 326.783 316.672 329.228 316.871C333.144 317.191 337.625 317.039 341.639 316.754C341.918 308.664 341.849 303.919 342.654 294.932C343.117 289.761 344.455 279.381 345.168 273.067C345.347 271.485 345.634 269.088 345.815 267.443C345.845 267.174 345.886 266.824 345.919 266.534C346.016 265.664 346.121 264.736 346.215 263.862C346.254 263.502 346.298 263.117 346.332 262.778C346.416 261.96 346.514 260.997 346.59 260.229C346.942 256.672 347.26 253.16 347.542 249.658C347.581 249.169 347.608 248.823 347.643 248.371C347.716 247.419 347.851 245.4 347.896 244.723C347.962 243.733 347.959 243.541 347.998 242.889C348.018 242.539 348.006 242.218 348.013 242.026C348.421 231.327 348.139 218.191 343.686 208.998C341.734 204.97 340.736 204.226 339.16 201.488C338.135 199.709 337.844 199.561 337.092 198.338C336.716 197.727 336.703 197.762 336.514 197.483C336.324 197.204 336.458 197.189 336.292 197.176C336.126 197.161 336.253 197.421 336.209 197.566C336.048 198.102 335.806 198.619 335.419 199.107C335.268 199.296 335.013 199.569 334.812 199.755C334.797 199.77 334.783 199.787 334.756 199.81C334.329 200.174 334.128 200.369 333.602 200.729C333.077 201.089 332.699 201.352 331.961 201.773C331.223 202.195 330.319 202.683 329.308 203.173C328.298 203.663 326.841 204.331 325.644 204.843C325.117 205.069 324.265 205.431 323.691 205.662C323.742 209.848 323.789 213.791 323.762 218.087C323.761 218.37 323.755 219.09 323.739 219.706C323.601 224.906 323.324 230.256 322.726 235.549C322.595 236.7 322.448 238.031 322.303 239.271C322.119 240.842 321.923 242.554 321.728 244.164C321.665 244.691 321.588 245.265 321.519 245.805C321.51 245.871 321.506 245.918 321.492 246.014C321.479 246.11 321.459 246.287 321.44 246.414C321.339 247.059 321.263 247.845 321.159 248.542C319.225 261.431 317 276.116 314.512 288.408C312.761 297.053 309.072 305.001 310.11 312.075Z" fill="white"/>
<path d="M331.853 202.609C331.958 202.286 332.101 201.953 332.319 201.608C332.664 201.063 333.198 200.491 334.07 199.905C334.49 199.336 334.7 198.814 334.806 198.302C332.934 199.267 331.424 200.535 330.842 202.316C330.799 202.445 330.762 202.577 330.731 202.709C330.038 205.595 331.754 209.432 335.966 214.419L336.795 213.802C332.621 208.862 331.005 205.2 331.853 202.609Z" fill="#2E353D"/>
<path d="M363.193 215.962C363.293 215.157 363.377 214.145 363.382 213.018C363.399 208.423 362.048 205.621 360.914 204.08C359.181 201.727 356.577 200.305 353.178 199.851L353.029 200.834C356.124 201.246 358.483 202.527 360.042 204.641C361.94 207.215 362.331 210.603 362.325 212.99C362.322 214.059 362.242 215.029 362.147 215.804C361.09 215.903 360.264 216.738 360.264 217.756C360.264 218.839 361.2 219.716 362.354 219.716C363.508 219.716 364.444 218.839 364.444 217.756C364.442 216.955 363.929 216.266 363.193 215.962Z" fill="#2E353D"/>
<path d="M379.727 263.747C381.08 263.747 380.932 277.706 375.663 276.636C370.393 275.565 374.083 263.747 379.727 263.747Z" fill="#2E353D"/>
<path d="M389.894 274.158C390.648 274.929 393.485 275.908 394.651 276.377C395.816 276.847 399.222 278.023 398.907 279.691C398.591 281.36 394.844 279.113 394.327 278.705C393.809 278.297 389.985 277.211 389.985 277.211C390.459 278.043 396.258 280.367 395.423 281.521C394.586 282.676 388.903 279.533 388.467 279.043C388.039 278.562 385.887 277.844 385.82 277.824C385.879 277.88 387.765 279.7 388.274 280.051C388.79 280.406 391.404 281.443 390.256 282.525C389.108 283.61 383.53 279.173 382.98 278.688C382.432 278.202 381.355 277.809 380.772 277.138C380.303 276.599 378.67 275.043 377.597 274.17C377.338 273.958 377.11 273.787 376.939 273.679C376.065 273.127 371.58 273.322 371.58 273.322C371.366 272.983 372.534 265.96 375.41 265.232C375.41 265.232 377.392 265.768 379.344 266.119C380.7 266.362 382.043 266.515 382.694 266.336C384.282 265.898 387.767 265.966 389.367 266.924C390.97 267.883 395.358 266.291 394.792 267.992C394.225 269.694 391.671 269.736 390.574 269.427C389.477 269.121 387.072 268.987 387.072 268.987C387.072 268.987 388.346 270.27 389.183 270.809C390.021 271.346 391.887 272.232 394.352 272.984C396.819 273.736 399.556 274.164 399.666 275.954C399.776 277.744 389.894 274.158 389.894 274.158Z" fill="#F4B3B3"/>
<path d="M379.346 266.119C376.784 268.633 376.413 271.863 377.598 274.17C377.339 273.958 377.111 273.787 376.941 273.679C376.066 273.127 371.582 273.322 371.582 273.322C371.367 272.983 372.535 265.96 375.411 265.232C375.411 265.232 377.392 265.769 379.346 266.119Z" fill="#15EADF"/>
<path d="M316.393 220.651C316.436 221.245 316.491 221.853 316.556 222.471C316.876 225.552 317.446 228.912 318.213 232.346C319.378 237.571 320.998 242.965 322.884 247.793C322.916 247.875 322.95 247.959 322.981 248.041C325.787 255.161 329.168 261.022 332.52 263.25C337.248 266.395 347.882 269.769 357.409 272.343C358.31 272.587 359.2 272.822 360.073 273.052C362.92 273.793 365.599 274.45 367.907 274.993C372.398 276.046 375.484 276.669 375.662 276.636C375.662 276.636 374.018 269.558 376.407 265.864C376.787 265.277 377.268 264.775 377.875 264.402C378.396 264.081 379.007 263.852 379.727 263.746C379.727 263.746 376.976 263.047 373.086 261.996C371.348 261.526 369.386 260.987 367.339 260.405C364.956 259.729 362.46 259.001 360.075 258.269C358.864 257.895 357.681 257.521 356.555 257.152C355.941 256.949 355.343 256.749 354.768 256.551C351.448 255.408 348.879 254.349 347.993 253.576C347.546 253.186 347.053 252.02 346.5 250.294C345.171 246.147 343.504 238.772 341.315 231.166C340.168 227.184 338.878 223.14 337.418 219.464C334.851 212.996 331.761 207.664 328.004 205.812C326.739 205.187 325.397 204.958 323.975 205.212C323.975 205.212 323.958 205.212 323.926 205.216C323.411 205.244 318.855 205.66 317.067 210.898C316.677 212.044 316.434 213.46 316.326 215.086C316.216 216.745 316.242 218.623 316.393 220.651Z" fill="white"/>
<path d="M337.914 224.192C338.231 224.963 338.565 225.773 338.91 226.607H338.911C339.052 226.73 339.195 226.849 339.341 226.968C340.436 227.857 341.56 228.571 342.669 229.093C342.253 230.005 341.726 230.766 341.108 231.342C341.03 231.322 340.951 231.311 340.868 231.309C340.947 231.497 341.026 231.686 341.104 231.874C341.186 232.067 341.267 232.26 341.348 232.451C341.429 232.644 341.511 232.838 341.593 233.03C341.787 232.848 341.908 232.595 341.908 232.316C341.908 232.218 341.892 232.124 341.864 232.035C342.567 231.376 343.162 230.518 343.628 229.501C343.822 229.574 344.015 229.639 344.206 229.7L343.194 227.675C343.145 227.841 343.094 228.002 343.039 228.162C342.044 227.681 341.029 227.029 340.03 226.219C339.267 225.595 338.552 224.909 337.914 224.192ZM334.011 219.51C334.021 219.553 334.034 219.595 334.045 219.64C334.576 221.557 335.906 223.651 337.724 225.499L337.725 225.5C337.795 225.573 337.868 225.645 337.941 225.716L337.942 225.717C338.252 226.022 338.574 226.319 338.91 226.607H338.911C339.052 226.73 339.195 226.849 339.341 226.968C340.436 227.857 341.56 228.571 342.669 229.093C342.253 230.005 341.726 230.766 341.108 231.342C341.03 231.322 340.951 231.311 340.868 231.309C340.857 231.307 340.845 231.307 340.834 231.307C340.241 231.307 339.759 231.759 339.759 232.316V232.324C339.76 232.486 339.804 232.641 339.877 232.776C340.055 233.101 340.416 233.324 340.833 233.324C341.129 233.324 341.396 233.212 341.591 233.03C341.786 232.848 341.907 232.595 341.907 232.316C341.907 232.218 341.891 232.124 341.863 232.035C342.565 231.376 343.161 230.518 343.627 229.501C343.821 229.574 344.013 229.639 344.204 229.7H344.206C345.05 229.965 345.871 230.108 346.651 230.123C346.824 230.463 347.191 230.698 347.62 230.698C347.955 230.698 348.253 230.556 348.452 230.331C348.603 230.156 348.695 229.933 348.695 229.691C348.695 229.349 348.515 229.047 348.239 228.865C348.065 228.749 347.85 228.682 347.621 228.682C347.247 228.682 346.919 228.861 346.726 229.133C345.876 229.125 344.957 228.934 344.004 228.577C344.396 227.473 344.655 226.224 344.762 224.873C345.022 221.61 344.365 218.358 343.004 216.175C342.268 214.995 341.366 214.183 340.322 213.763C340.232 213.727 340.14 213.693 340.047 213.663C339.08 213.346 338.041 213.37 336.945 213.734C336.945 213.734 336.867 213.759 336.78 213.79C336.713 213.814 336.64 213.842 336.591 213.862C336.561 213.874 336.503 213.9 336.503 213.9C336.338 213.973 336.181 214.052 336.033 214.135C335.961 214.173 335.891 214.214 335.823 214.256C335.218 214.628 334.743 215.088 334.405 215.633C334.3 215.8 334.208 215.976 334.129 216.159C333.723 217.113 333.681 218.239 334.011 219.51ZM334.854 217.844C334.858 217.553 334.893 217.258 334.97 216.973V216.972C335.138 216.327 335.51 215.718 336.196 215.228C336.431 215.061 336.703 214.908 337.016 214.772C338.177 214.319 339.138 214.37 339.925 214.691C340.892 215.085 341.599 215.887 342.091 216.675C343.329 218.662 343.949 221.775 343.708 224.798C343.625 225.835 343.451 226.799 343.195 227.674L343.194 227.675C343.145 227.841 343.095 228.002 343.04 228.162C342.046 227.681 341.03 227.029 340.031 226.219C339.266 225.596 338.551 224.91 337.913 224.194L337.911 224.193C337.751 224.014 337.597 223.833 337.448 223.65C337.373 223.56 337.3 223.469 337.23 223.378C337.23 223.378 337.23 223.377 337.228 223.377C336.185 222.048 335.419 220.658 335.069 219.393C334.937 218.905 334.845 218.375 334.854 217.844ZM337.914 224.192C338.231 224.963 338.565 225.773 338.91 226.607H338.911C339.052 226.73 339.195 226.849 339.341 226.968C340.436 227.857 341.56 228.571 342.669 229.093C342.253 230.005 341.726 230.766 341.108 231.342C341.03 231.322 340.951 231.311 340.868 231.309C340.947 231.497 341.026 231.686 341.104 231.874C341.186 232.067 341.267 232.26 341.348 232.451C341.429 232.644 341.511 232.838 341.593 233.03C341.787 232.848 341.908 232.595 341.908 232.316C341.908 232.218 341.892 232.124 341.864 232.035C342.567 231.376 343.162 230.518 343.628 229.501C343.822 229.574 344.015 229.639 344.206 229.7L343.194 227.675C343.145 227.841 343.094 228.002 343.039 228.162C342.044 227.681 341.029 227.029 340.03 226.219C339.267 225.595 338.552 224.909 337.914 224.192Z" fill="#2E353D"/>
<path d="M479.134 160.804L503.585 228.153C504.546 230.801 503.036 233.682 500.214 234.584L474.228 242.89L446.293 165.948L472.279 157.641C475.102 156.739 478.172 158.153 479.134 160.804Z" fill="#A5C8E4"/>
<path d="M446.294 165.946L474.229 242.889L448.24 251.195C445.417 252.097 442.347 250.68 441.386 248.033L416.934 180.684C415.972 178.033 417.484 175.155 420.305 174.252L446.294 165.946Z" fill="#B9D9EF"/>
<path d="M472.583 173.196C473.049 174.481 473.003 175.851 472.466 177.097L461.787 172.167C462.509 171.008 463.637 170.139 465.007 169.702C466.516 169.22 468.136 169.317 469.568 169.977C470.997 170.639 472.069 171.78 472.583 173.196Z" fill="#CC293D"/>
<path d="M481.458 197.643C481.925 198.926 481.878 200.296 481.341 201.543L470.663 196.615C471.407 195.42 472.569 194.57 473.884 194.149C475.331 193.687 476.965 193.743 478.443 194.423C479.872 195.084 480.944 196.227 481.458 197.643Z" fill="#CC293D"/>
<path d="M490.333 222.088C490.799 223.374 490.753 224.744 490.216 225.988L479.538 221.06C480.283 219.867 481.444 219.017 482.76 218.597C484.207 218.134 485.841 218.188 487.318 218.869C488.747 219.529 489.819 220.672 490.333 222.088Z" fill="#CC293D"/>
<path d="M456.605 229.006C459.276 230.475 460.328 233.66 458.94 236.305C457.553 238.952 454.222 240.114 451.353 239.025L456.605 229.006Z" fill="#CC293D"/>
<path d="M447.728 204.559C450.399 206.028 451.451 209.212 450.063 211.86C448.676 214.507 445.345 215.666 442.478 214.58L447.728 204.559Z" fill="#CC293D"/>
<path d="M438.854 180.114C441.524 181.582 442.576 184.767 441.188 187.414C439.8 190.059 436.471 191.221 433.602 190.134L438.854 180.114Z" fill="#CC293D"/>
<path d="M461.398 172.909L472.076 177.836C470.511 180.342 467.119 181.328 464.299 180.028C461.478 178.725 460.239 175.601 461.398 172.909Z" fill="#FD5B68"/>
<path d="M470.274 197.354L480.953 202.284C479.388 204.787 475.996 205.776 473.174 204.474C470.353 203.171 469.115 200.047 470.274 197.354Z" fill="#FD5B68"/>
<path d="M479.15 221.801L489.827 226.728C489.105 227.888 487.977 228.756 486.607 229.194C485.098 229.676 483.478 229.579 482.049 228.917C479.229 227.618 477.989 224.492 479.15 221.801Z" fill="#FD5B68"/>
<path d="M455.815 228.642L450.563 238.661C447.893 237.193 446.841 234.007 448.226 231.361C448.955 229.975 450.214 228.997 451.66 228.536C452.975 228.115 454.449 228.124 455.815 228.642Z" fill="#FD5B68"/>
<path d="M446.941 204.197L441.689 214.215C439.018 212.747 437.966 209.562 439.352 206.916C440.08 205.53 441.339 204.551 442.785 204.088C444.1 203.668 445.573 203.677 446.941 204.197Z" fill="#FD5B68"/>
<path d="M438.065 179.749L432.813 189.768C430.143 188.3 429.092 185.117 430.477 182.47C431.181 181.127 432.401 180.123 433.91 179.64C435.279 179.204 436.736 179.245 438.065 179.749Z" fill="#FD5B68"/>
<path d="M469.954 169.237C471.596 169.993 472.825 171.305 473.415 172.929C474.005 174.554 473.885 176.296 473.077 177.836C472.244 179.428 470.801 180.55 469.14 181.08C467.482 181.61 465.605 181.55 463.911 180.766C460.524 179.203 459.123 175.344 460.789 172.166C461.597 170.627 462.995 169.474 464.726 168.92C466.455 168.367 468.313 168.479 469.954 169.237ZM472.466 177.097C473.003 175.851 473.049 174.481 472.583 173.196C472.069 171.78 470.997 170.639 469.568 169.977C468.136 169.317 466.517 169.22 465.007 169.702C463.637 170.139 462.509 171.008 461.787 172.167L472.466 177.097ZM472.077 177.836L461.399 172.909C460.24 175.601 461.478 178.727 464.3 180.028C467.119 181.327 470.512 180.341 472.077 177.836Z" fill="#76AAD9"/>
<path d="M478.828 193.682C480.472 194.441 481.701 195.752 482.29 197.377C482.879 198.999 482.76 200.744 481.951 202.284C481.119 203.873 479.676 204.998 478.015 205.528C476.356 206.058 474.48 205.995 472.786 205.214C469.398 203.648 467.998 199.791 469.663 196.612C471.328 193.433 475.442 192.119 478.828 193.682ZM481.341 201.543C481.878 200.296 481.925 198.926 481.458 197.643C480.944 196.228 479.872 195.084 478.442 194.423C476.964 193.742 475.33 193.687 473.883 194.149C472.568 194.57 471.406 195.421 470.662 196.615L481.341 201.543ZM480.953 202.283L470.274 197.353C469.115 200.047 470.353 203.171 473.174 204.472C475.995 205.775 479.387 204.786 480.953 202.283Z" fill="#76AAD9"/>
<path d="M487.705 218.13C489.348 218.886 490.576 220.198 491.167 221.822C491.756 223.447 491.637 225.189 490.828 226.729C490.021 228.268 488.623 229.421 486.892 229.975C485.16 230.528 483.303 230.416 481.662 229.659C478.274 228.096 476.874 224.237 478.539 221.059C480.204 217.878 484.316 216.565 487.705 218.13ZM490.216 225.988C490.754 224.744 490.799 223.374 490.333 222.089C489.819 220.673 488.746 219.529 487.317 218.868C485.838 218.187 484.204 218.134 482.759 218.596C481.444 219.016 480.282 219.868 479.537 221.059L490.216 225.988ZM489.827 226.728L479.15 221.801C477.99 224.492 479.229 227.618 482.05 228.919C483.48 229.58 485.099 229.677 486.608 229.195C487.977 228.756 489.105 227.888 489.827 226.728Z" fill="#76AAD9"/>
<path d="M438.855 179.177C440.495 179.934 441.724 181.246 442.315 182.87C442.904 184.495 442.785 186.237 441.977 187.778C441.144 189.369 439.699 190.491 438.04 191.021C436.38 191.552 434.506 191.491 432.812 190.707C429.422 189.144 428.021 185.286 429.69 182.107C430.497 180.568 431.895 179.416 433.626 178.861C435.357 178.307 437.215 178.419 438.855 179.177ZM441.188 187.414C442.575 184.767 441.523 181.582 438.854 180.114L433.602 190.132C436.471 191.221 439.8 190.059 441.188 187.414ZM432.813 189.769L438.065 179.75C436.736 179.246 435.279 179.204 433.91 179.642C432.401 180.124 431.181 181.128 430.477 182.472C429.092 185.118 430.143 188.301 432.813 189.769Z" fill="#76AAD9"/>
<path d="M456.605 228.069C458.246 228.826 459.474 230.138 460.065 231.762C460.654 233.387 460.535 235.129 459.727 236.669C458.895 238.259 457.449 239.383 455.791 239.913C454.13 240.444 452.256 240.38 450.562 239.599C447.172 238.036 445.772 234.178 447.44 230.999C449.106 227.818 453.218 226.505 456.605 228.069ZM458.938 236.305C460.327 233.66 459.274 230.475 456.604 229.007L451.352 239.025C454.222 240.114 457.551 238.952 458.938 236.305ZM450.563 238.661L455.815 228.642C454.449 228.125 452.975 228.115 451.66 228.536C450.214 228.999 448.955 229.977 448.226 231.361C446.842 234.007 447.894 237.194 450.563 238.661Z" fill="#76AAD9"/>
<path d="M447.73 203.622C451.117 205.187 452.518 209.044 450.853 212.224C450.02 213.813 448.573 214.935 446.915 215.465C445.254 215.997 443.38 215.935 441.686 215.153C438.296 213.589 436.896 209.732 438.563 206.551C440.23 203.373 444.343 202.059 447.73 203.622ZM450.064 211.86C451.451 209.212 450.4 206.029 447.73 204.559L442.479 214.58C445.347 215.666 448.676 214.507 450.064 211.86ZM441.689 214.215L446.941 204.197C445.574 203.677 444.101 203.668 442.786 204.088C441.339 204.551 440.08 205.53 439.353 206.916C437.966 209.563 439.018 212.748 441.689 214.215Z" fill="#76AAD9"/>
<path d="M45.36 391.79C50.2295 396.465 53.6901 400.401 56.6345 403.508H84.7813L77.3059 395.248C77.3059 395.248 76.2271 394.051 74.269 392.186C61.381 379.912 49.5597 375.319 49.5597 375.319C42.5276 372.536 30.0877 367.612 19.5292 372.973C16.0892 374.72 13.7927 377.079 12.368 378.852C14.9495 379.29 24.7884 381.023 33.1794 384.101C37.3926 385.647 40.1044 387.115 42.496 389.11C43.0719 389.589 43.833 390.324 45.36 391.79Z" fill="#2CBF7B"/>
<path d="M74.4225 403.509C75.4161 399.857 75.2566 395.919 74.2678 392.188C69.8001 387.93 60.7588 380.197 49.5598 375.321C49.164 377.978 49.0484 380.768 48.638 382.691C47.9208 386.043 46.7798 388.983 45.36 391.791C50.2307 396.466 53.6902 400.402 56.6345 403.509H74.4225Z" fill="#2DA66D"/>
<path d="M57.493 380.828C61.6673 391.4 67.5341 399.238 73.8234 403.509H91.9791C92.4735 402.317 92.7523 400.837 92.8522 399.132C93.7484 383.711 80.0434 350.218 80.0434 350.218C80.0434 350.218 75.9349 344.522 69.2279 338.259C63.9504 333.327 57.0656 328.048 49.3065 324.917C48.7574 324.697 48.1497 349.195 54.8848 373.074C55.6543 375.798 56.5274 378.386 57.493 380.828Z" fill="#2CBF7B"/>
<path d="M66.9374 368.429C66.935 368.445 66.9325 368.46 66.9301 368.476C66.583 370.825 66.1155 373.225 64.8125 375.26C63.1638 377.834 60.4216 379.494 57.4918 380.828C61.666 391.4 67.5328 399.238 73.8222 403.509H88.7486C90.2646 402.197 91.6333 400.725 92.8522 399.132C93.7484 383.711 80.0433 350.218 80.0433 350.218C80.0433 350.218 75.9349 344.522 69.2279 338.259C68.9003 343.497 68.574 348.735 68.2452 353.974C68.2172 354.411 68.1904 354.849 68.1624 355.287C65.1267 349.296 56.9585 333.814 49.3077 324.921C49.4928 325.232 60.2925 343.324 65.9766 359.12C67.0555 362.112 67.3977 365.3 66.9374 368.429Z" fill="#2DA66D"/>
<path d="M52.996 329.009L52.4323 329.382C71.9286 355.279 81.5678 380.534 81.0807 404.446L81.7712 404.458C82.0318 391.631 79.3419 378.239 73.7746 364.655C68.9733 352.936 61.9813 340.943 52.996 329.009Z" fill="#027369"/>
<path d="M79.5307 393.21C79.8229 393.915 80.1164 394.59 80.4135 395.239C82.0074 398.731 83.6562 401.425 85.2684 403.51H99.8989L113.794 368.301C113.794 368.301 112.782 365.33 110.427 360.932C110.263 360.626 110.092 360.311 109.914 359.992C104.921 350.983 94.6604 336.886 76.6265 329.359C76.0371 329.115 75.4405 328.875 74.8341 328.645L74.8328 328.644C73.4836 328.129 66.8046 342.724 74.8328 377.944C76.2417 384.128 77.8442 389.143 79.5307 393.21Z" fill="#2CBF7B"/>
<path d="M88.3054 386.233C85.635 388.562 82.8696 390.772 80.019 392.856C79.8571 392.975 79.6939 393.093 79.5307 393.209C79.823 393.914 80.1164 394.589 80.4135 395.238C82.0075 398.73 83.6562 401.424 85.2684 403.509H99.8989L113.794 368.3C113.794 368.3 112.782 365.329 110.427 360.931C110.263 360.624 110.092 360.31 109.914 359.99C109.465 360.986 108.977 361.97 108.441 362.947C106.065 367.284 103.01 371.177 99.765 374.849C99.4959 375.154 99.2243 375.458 98.9504 375.759C96.2325 368.885 86.0697 343.852 76.6265 329.358C76.0372 329.114 75.4405 328.874 74.8341 328.644C74.9583 328.889 88.6134 355.851 92.3529 374.843C93.1785 379.035 91.6333 383.33 88.3054 386.233Z" fill="#2DA66D"/>
<path d="M77.2999 330.594L76.7239 330.951C89.6716 349.36 98.5071 370.642 102.273 392.494L102.955 392.39C101.076 381.491 97.8958 370.613 93.5 360.058C89.1455 349.599 83.694 339.687 77.2999 330.594Z" fill="#027369"/>
<path d="M127.723 350.254C117.494 354.151 111.003 363.334 105.461 372.764C102.922 377.084 97.7156 386.299 94.496 395.155C94.479 395.2 94.4619 395.245 94.4461 395.291C93.4196 398.13 92.6074 400.924 92.1483 403.509H128.561C131.568 400.59 134.372 397.53 136.975 394.33C137.463 393.729 137.947 393.121 138.422 392.51C139.246 391.452 140.047 390.379 140.828 389.291C141.339 388.582 141.84 387.867 142.332 387.146C153.135 371.321 159.724 352.612 162.753 331.608C151.865 339.524 140.236 345.488 127.723 350.254Z" fill="#2CBF7B"/>
<path d="M107.295 394.766C105.034 398.018 103.025 400.975 101.33 403.508H128.557C131.284 400.839 133.66 397.95 136.187 395.143C136.438 394.866 136.7 394.594 136.975 394.329C137.463 393.728 137.947 393.12 138.422 392.509C139.246 391.451 140.047 390.378 140.828 389.29C136.861 390.883 132.623 391.876 128.325 392.215C128.282 392.218 128.238 392.222 128.193 392.225C123.769 392.561 120.624 391.136 120.997 386.649C121.272 383.358 123.082 380.092 124.837 377.36C128.466 371.706 133.38 366.473 137.737 361.299C141.648 356.65 145.646 352.066 149.716 347.537C153.784 343.008 157.897 338.509 162.151 334.132C144.972 343.22 121.34 374.562 107.295 394.766Z" fill="#2DA66D"/>
<path d="M101.33 403.509C103.026 400.976 105.034 398.019 107.295 394.767C103.038 395.104 98.7664 395.234 94.4948 395.155C94.4777 395.2 94.4607 395.245 94.4449 395.291C93.4184 398.13 92.6062 400.924 92.1471 403.509H101.33Z" fill="#2DA66D"/>
<path d="M72.4596 404.494H73.2803C66.2664 394.176 57.5782 383.366 45.4209 378.02C39.33 375.342 32.2126 373.927 23.024 373.565L22.9948 374.212C32.0884 374.57 39.1218 375.966 45.1274 378.608C56.984 383.821 65.5382 394.357 72.4596 404.494Z" fill="#027369"/>
<path d="M161.695 333.644C142.529 349.48 110.658 387.753 102.361 403.509H103.132C115.999 379.188 135.751 355.945 162.152 334.131L161.695 333.644Z" fill="#027369"/>
<path d="M521.585 398.181H0V404.858H521.585V398.181Z" fill="#293F60"/>
<rect x="104.234" y="159.416" width="170" height="70" fill="white"/>
<path d="M179.663 191.171C179.825 191.001 179.906 190.787 179.906 190.533V182.325C179.906 182.061 179.827 181.843 179.672 181.672C179.514 181.501 179.316 181.416 179.08 181.416C178.888 181.416 178.726 181.467 178.593 181.57C178.461 181.672 178.313 181.851 178.151 182.106L175.366 186.627L172.58 182.106C172.428 181.851 172.283 181.672 172.144 181.57C172.005 181.467 171.847 181.416 171.666 181.416C171.419 181.416 171.215 181.501 171.06 181.672C170.902 181.843 170.825 182.061 170.825 182.325V190.533C170.825 190.787 170.906 191.001 171.068 191.171C171.23 191.342 171.433 191.428 171.683 191.428C171.932 191.428 172.136 191.342 172.298 191.171C172.46 191.001 172.541 190.787 172.541 190.533V185.162L174.541 188.405C174.666 188.601 174.79 188.744 174.919 188.838C175.048 188.932 175.197 188.977 175.37 188.977C175.542 188.977 175.694 188.93 175.827 188.838C175.96 188.744 176.084 188.601 176.199 188.405L178.199 185.162V190.533C178.199 190.787 178.28 191.001 178.442 191.171C178.604 191.342 178.807 191.428 179.057 191.428C179.306 191.428 179.509 191.342 179.672 191.171H179.663Z" fill="#1348BA"/>
<path d="M183.122 190.922C183.693 191.259 184.326 191.427 185.022 191.427C185.718 191.427 186.339 191.259 186.915 190.922C187.49 190.584 187.945 190.125 188.279 189.549C188.612 188.971 188.78 188.334 188.78 187.641C188.78 186.947 188.614 186.311 188.279 185.739C187.945 185.167 187.492 184.712 186.915 184.372C186.337 184.035 185.708 183.867 185.022 183.867C184.337 183.867 183.705 184.033 183.13 184.366C182.553 184.699 182.102 185.154 181.774 185.732C181.445 186.311 181.281 186.947 181.281 187.641C181.281 188.334 181.445 188.973 181.774 189.549C182.102 190.127 182.553 190.584 183.124 190.922H183.122ZM183.286 186.539C183.462 186.206 183.703 185.948 184.007 185.76C184.312 185.574 184.655 185.48 185.035 185.48C185.415 185.48 185.741 185.576 186.042 185.766C186.343 185.956 186.58 186.217 186.757 186.546C186.933 186.874 187.021 187.244 187.021 187.653C187.021 188.063 186.933 188.42 186.757 188.746C186.58 189.075 186.343 189.331 186.042 189.517C185.743 189.703 185.402 189.797 185.02 189.797C184.638 189.797 184.295 189.707 183.992 189.526C183.687 189.344 183.45 189.09 183.277 188.761C183.105 188.433 183.02 188.063 183.02 187.653C183.02 187.244 183.107 186.87 183.284 186.537L183.286 186.539Z" fill="#1348BA"/>
<path d="M196.308 189.959C196.393 189.812 196.436 189.66 196.436 189.504C196.436 189.289 196.362 189.103 196.214 188.947C196.067 188.791 195.888 188.712 195.678 188.712C195.554 188.712 195.448 188.734 195.356 188.778C195.265 188.823 195.173 188.894 195.078 188.992C194.86 189.246 194.617 189.447 194.349 189.594C194.083 189.741 193.786 189.814 193.464 189.814C193.073 189.814 192.726 189.72 192.421 189.534C192.116 189.348 191.875 189.092 191.7 188.764C191.524 188.435 191.437 188.061 191.437 187.641C191.437 187.22 191.524 186.859 191.7 186.533C191.877 186.204 192.118 185.948 192.421 185.762C192.726 185.576 193.073 185.483 193.464 185.483C193.796 185.483 194.097 185.555 194.363 185.702C194.629 185.85 194.868 186.05 195.078 186.304C195.229 186.49 195.431 186.584 195.678 186.584C195.888 186.584 196.067 186.505 196.214 186.349C196.362 186.193 196.436 186.008 196.436 185.792C196.436 185.645 196.384 185.489 196.278 185.322C196.002 184.883 195.61 184.531 195.101 184.266C194.592 184.001 194.041 183.869 193.451 183.869C192.756 183.869 192.12 184.037 191.545 184.375C190.967 184.712 190.516 185.167 190.188 185.741C189.86 186.313 189.696 186.947 189.696 187.643C189.696 188.339 189.86 188.977 190.188 189.56C190.516 190.143 190.969 190.599 191.545 190.932C192.12 191.265 192.756 191.432 193.451 191.432C194.06 191.432 194.613 191.302 195.109 191.043C195.603 190.785 196.004 190.424 196.31 189.963L196.308 189.959Z" fill="#1348BA"/>
<path d="M203.787 191.193C203.945 191.037 204.024 190.845 204.024 190.621C204.024 190.396 203.958 190.219 203.825 190.063L201.664 187.636L203.681 185.275C203.843 185.09 203.924 184.889 203.924 184.673C203.924 184.458 203.848 184.257 203.696 184.101C203.544 183.946 203.353 183.867 203.125 183.867C202.878 183.867 202.676 183.954 202.524 184.131L200.096 187.009C199.992 187.137 199.916 187.248 199.868 187.346C199.82 187.444 199.797 187.542 199.797 187.641C199.797 187.747 199.816 187.854 199.855 187.957C199.893 188.059 199.959 188.166 200.055 188.272L202.626 191.165C202.788 191.342 202.988 191.43 203.227 191.43C203.445 191.43 203.634 191.351 203.791 191.195L203.787 191.193Z" fill="#1348BA"/>
<path d="M198.609 191.427C198.848 191.427 199.047 191.342 199.209 191.171C199.371 191.001 199.452 190.787 199.452 190.533V184.761C199.452 184.507 199.371 184.294 199.209 184.123C199.047 183.952 198.848 183.867 198.609 183.867C198.37 183.867 198.154 183.952 197.988 184.123C197.822 184.294 197.739 184.507 197.739 184.761V190.531C197.739 190.785 197.822 190.998 197.988 191.169C198.154 191.34 198.362 191.425 198.609 191.425V191.427Z" fill="#1348BA"/>
<path d="M211.597 189.549C211.93 188.971 212.098 188.334 212.098 187.641C212.098 186.947 211.932 186.311 211.597 185.739C211.263 185.167 210.81 184.712 210.233 184.372C209.655 184.035 209.026 183.867 208.34 183.867C207.655 183.867 207.024 184.033 206.448 184.366C205.871 184.699 205.42 185.154 205.092 185.732C204.764 186.311 204.599 186.947 204.599 187.641C204.599 188.334 204.764 188.973 205.092 189.549C205.42 190.127 205.871 190.584 206.442 190.922C207.013 191.259 207.647 191.427 208.343 191.427C209.038 191.427 209.659 191.259 210.235 190.922C210.81 190.584 211.265 190.125 211.6 189.549H211.597ZM210.075 188.749C209.898 189.077 209.662 189.333 209.36 189.519C209.061 189.705 208.721 189.799 208.338 189.799C207.956 189.799 207.613 189.709 207.31 189.528C207.005 189.346 206.768 189.092 206.596 188.763C206.423 188.435 206.338 188.065 206.338 187.656C206.338 187.246 206.425 186.872 206.602 186.539C206.778 186.206 207.019 185.948 207.323 185.76C207.628 185.574 207.971 185.48 208.351 185.48C208.731 185.48 209.057 185.576 209.358 185.766C209.659 185.956 209.896 186.217 210.073 186.546C210.249 186.874 210.337 187.244 210.337 187.653C210.337 188.063 210.249 188.42 210.073 188.746L210.075 188.749Z" fill="#1348BA"/>
<path d="M219.291 190.202C219.505 189.865 219.613 189.485 219.613 189.064C219.613 188.576 219.464 188.172 219.163 187.852C218.973 187.653 218.739 187.498 218.467 187.376C218.591 187.269 218.699 187.148 218.791 187.007C218.976 186.723 219.069 186.4 219.069 186.038C219.069 185.421 218.843 184.932 218.39 184.569C217.937 184.206 217.353 184.025 216.639 184.025H214.337C214.09 184.025 213.88 184.11 213.708 184.281C213.535 184.451 213.45 184.669 213.45 184.934V190.367C213.45 190.621 213.535 190.834 213.708 191.005C213.88 191.176 214.088 191.261 214.337 191.261H217.081C217.576 191.261 218.014 191.167 218.396 190.981C218.776 190.796 219.075 190.533 219.289 190.196L219.291 190.202ZM215.112 185.393H216.57C216.876 185.393 217.104 185.455 217.256 185.576C217.407 185.698 217.484 185.882 217.484 186.127C217.484 186.373 217.405 186.56 217.249 186.693C217.094 186.825 216.865 186.891 216.57 186.891H215.112V185.393ZM217.719 189.673C217.524 189.835 217.254 189.914 216.911 189.914H215.11V188.166H216.911C217.254 188.166 217.524 188.243 217.719 188.394C217.914 188.546 218.012 188.755 218.012 189.017C218.012 189.28 217.914 189.508 217.719 189.671V189.673Z" fill="#1348BA"/>
<path d="M227.328 189.504C227.328 189.289 227.253 189.103 227.106 188.947C226.958 188.791 226.779 188.712 226.57 188.712C226.445 188.712 226.339 188.734 226.248 188.778C226.156 188.823 226.065 188.894 225.969 188.992C225.751 189.246 225.508 189.447 225.24 189.594C224.974 189.741 224.677 189.814 224.355 189.814C223.965 189.814 223.618 189.72 223.313 189.534C223.007 189.348 222.766 189.092 222.592 188.764C222.415 188.435 222.328 188.061 222.328 187.641C222.328 187.22 222.415 186.859 222.592 186.533C222.768 186.204 223.009 185.948 223.313 185.762C223.618 185.576 223.965 185.483 224.355 185.483C224.688 185.483 224.989 185.555 225.255 185.702C225.521 185.85 225.76 186.05 225.969 186.304C226.121 186.49 226.322 186.584 226.57 186.584C226.779 186.584 226.958 186.505 227.106 186.349C227.253 186.193 227.328 186.008 227.328 185.792C227.328 185.645 227.276 185.489 227.17 185.322C226.894 184.883 226.501 184.531 225.992 184.266C225.483 184.001 224.933 183.869 224.343 183.869C223.647 183.869 223.011 184.037 222.436 184.375C221.859 184.712 221.408 185.167 221.08 185.741C220.751 186.313 220.587 186.947 220.587 187.643C220.587 188.339 220.751 188.977 221.08 189.56C221.408 190.143 221.861 190.599 222.436 190.932C223.011 191.265 223.647 191.432 224.343 191.432C224.952 191.432 225.504 191.302 226 191.043C226.495 190.785 226.896 190.424 227.201 189.963C227.286 189.816 227.33 189.664 227.33 189.509L227.328 189.504Z" fill="#1348BA"/>
<path d="M229.498 191.427C229.737 191.427 229.937 191.342 230.099 191.171C230.261 191.001 230.342 190.787 230.342 190.533V184.761C230.342 184.507 230.261 184.294 230.099 184.123C229.937 183.952 229.737 183.867 229.498 183.867C229.26 183.867 229.044 183.952 228.877 184.123C228.711 184.294 228.628 184.507 228.628 184.761V190.531C228.628 190.785 228.711 190.998 228.877 191.169C229.044 191.34 229.251 191.425 229.498 191.425V191.427Z" fill="#1348BA"/>
<path d="M232.554 187.636L234.571 185.275C234.733 185.09 234.814 184.889 234.814 184.673C234.814 184.458 234.737 184.257 234.585 184.101C234.434 183.946 234.243 183.867 234.014 183.867C233.767 183.867 233.566 183.954 233.414 184.131L230.986 187.009C230.882 187.137 230.805 187.248 230.757 187.346C230.709 187.444 230.687 187.542 230.687 187.641C230.687 187.747 230.705 187.854 230.745 187.957C230.782 188.059 230.849 188.166 230.944 188.272L233.516 191.165C233.678 191.342 233.877 191.43 234.116 191.43C234.334 191.43 234.523 191.351 234.681 191.195C234.839 191.039 234.918 190.847 234.918 190.623C234.918 190.399 234.851 190.221 234.718 190.066L232.558 187.638L232.554 187.636Z" fill="#1348BA"/>
<path d="M238.829 183.867C238.314 183.867 237.836 183.95 237.394 184.116C236.951 184.283 236.577 184.518 236.272 184.821C236.044 185.047 235.929 185.286 235.929 185.54C235.929 185.737 236 185.905 236.143 186.046C236.287 186.189 236.457 186.26 236.658 186.26C236.754 186.26 236.841 186.242 236.922 186.208C237.003 186.174 237.097 186.112 237.201 186.025C237.419 185.82 237.651 185.668 237.894 185.57C238.137 185.472 238.397 185.423 238.673 185.423C239.12 185.423 239.469 185.544 239.716 185.79C239.963 186.035 240.088 186.383 240.088 186.832V187.214H238.202C237.392 187.214 236.752 187.402 236.28 187.779C235.809 188.157 235.574 188.667 235.574 189.314C235.574 189.961 235.801 190.463 236.253 190.849C236.706 191.235 237.294 191.43 238.019 191.43C238.534 191.43 238.993 191.331 239.398 191.135C239.676 191.001 239.917 190.823 240.125 190.612C240.138 190.83 240.214 191.018 240.362 191.173C240.524 191.344 240.73 191.43 240.977 191.43C241.224 191.43 241.413 191.346 241.569 191.18C241.727 191.013 241.806 190.802 241.806 190.548V186.921C241.806 185.952 241.544 185.201 241.02 184.667C240.497 184.133 239.768 183.867 238.835 183.867H238.829ZM239.866 189.344C239.718 189.579 239.519 189.765 239.265 189.901C239.012 190.038 238.733 190.106 238.43 190.106C238.087 190.106 237.815 190.031 237.616 189.878C237.417 189.726 237.317 189.513 237.317 189.239C237.317 188.966 237.41 188.774 237.595 188.638C237.78 188.501 238.06 188.433 238.43 188.433H240.088V188.55C240.088 188.845 240.013 189.107 239.866 189.342V189.344Z" fill="#1348BA"/>
<path d="M248.98 184.285C248.814 184.114 248.602 184.029 248.345 184.029H246.13C245.283 184.029 244.608 184.251 244.109 184.697C243.609 185.143 243.359 185.737 243.359 186.482C243.359 187.227 243.617 187.828 244.13 188.258C244.313 188.411 244.516 188.535 244.741 188.635L243.731 189.918C243.636 190.036 243.565 190.145 243.517 190.241C243.469 190.339 243.447 190.446 243.447 190.563C243.447 190.798 243.53 191.001 243.696 191.171C243.862 191.342 244.066 191.427 244.302 191.427C244.568 191.427 244.784 191.325 244.946 191.12L246.631 188.932H247.518V190.533C247.518 190.787 247.599 191.001 247.761 191.171C247.923 191.342 248.128 191.427 248.376 191.427C248.623 191.427 248.828 191.342 248.99 191.171C249.153 191.001 249.234 190.787 249.234 190.533V184.938C249.234 184.673 249.15 184.456 248.984 184.285H248.98ZM247.516 187.493H246.215C245.873 187.493 245.601 187.404 245.401 187.222C245.202 187.041 245.102 186.8 245.102 186.494C245.102 186.189 245.202 185.956 245.401 185.79C245.601 185.623 245.869 185.54 246.201 185.54H247.516V187.493Z" fill="#1348BA"/>
<path d="M176.269 198.459C175.75 198.137 175.177 197.974 174.547 197.974C173.822 197.974 173.209 198.171 172.705 198.561C172.445 198.762 172.223 198.997 172.036 199.259C172.05 198.529 172.136 197.953 172.298 197.535C172.474 197.076 172.786 196.721 173.234 196.478C173.681 196.233 174.321 196.062 175.15 195.964C175.55 195.914 175.891 195.861 176.171 195.801C176.452 195.742 176.736 195.669 177.021 195.581C177.231 195.522 177.391 195.43 177.499 195.302C177.609 195.174 177.663 195.003 177.663 194.787C177.663 194.572 177.586 194.401 177.434 194.245C177.283 194.089 177.1 194.01 176.892 194.01C176.815 194.01 176.678 194.03 176.477 194.068L176.205 194.141C175.937 194.209 175.538 194.292 175.004 194.39C173.889 194.557 173.002 194.841 172.339 195.242C171.677 195.643 171.197 196.215 170.896 196.96C170.596 197.705 170.445 198.679 170.445 199.883V201.014C170.445 201.885 170.605 202.641 170.923 203.283C171.242 203.924 171.685 204.415 172.252 204.752C172.819 205.089 173.463 205.258 174.188 205.258C174.913 205.258 175.542 205.096 176.109 204.773C176.676 204.451 177.117 204.013 177.43 203.458C177.744 202.905 177.902 202.291 177.902 201.616C177.902 200.942 177.758 200.34 177.474 199.78C177.187 199.223 176.786 198.781 176.267 198.459H176.269ZM175.883 202.651C175.706 202.959 175.467 203.204 175.168 203.386C174.869 203.567 174.537 203.657 174.175 203.657C173.814 203.657 173.479 203.567 173.174 203.386C172.869 203.204 172.628 202.961 172.453 202.651C172.277 202.344 172.19 201.998 172.19 201.616C172.19 201.234 172.277 200.901 172.453 200.587C172.63 200.273 172.869 200.03 173.174 199.853C173.479 199.676 173.812 199.588 174.175 199.588C174.539 199.588 174.869 199.676 175.168 199.853C175.467 200.03 175.706 200.273 175.883 200.587C176.059 200.901 176.147 201.243 176.147 201.616C176.147 201.99 176.059 202.342 175.883 202.651Z" fill="#1348BA"/>
<path d="M184.457 198.218C183.88 197.881 183.25 197.712 182.565 197.712C181.88 197.712 181.248 197.878 180.673 198.211C180.095 198.544 179.645 198.999 179.316 199.578C178.988 200.156 178.824 200.792 178.824 201.486C178.824 202.18 178.988 202.818 179.316 203.394C179.645 203.973 180.095 204.43 180.666 204.767C181.238 205.104 181.871 205.273 182.567 205.273C183.263 205.273 183.884 205.104 184.459 204.767C185.035 204.43 185.49 203.971 185.824 203.394C186.156 202.816 186.325 202.18 186.325 201.486C186.325 200.792 186.158 200.156 185.824 199.584C185.49 199.012 185.037 198.557 184.459 198.218H184.457ZM184.299 202.594C184.123 202.923 183.886 203.179 183.585 203.364C183.286 203.55 182.945 203.644 182.563 203.644C182.181 203.644 181.838 203.554 181.535 203.373C181.229 203.192 180.993 202.938 180.82 202.609C180.648 202.28 180.563 201.911 180.563 201.501C180.563 201.091 180.65 200.717 180.826 200.384C181.003 200.051 181.244 199.793 181.547 199.605C181.853 199.42 182.195 199.326 182.575 199.326C182.956 199.326 183.282 199.422 183.583 199.612C183.884 199.802 184.121 200.062 184.297 200.391C184.474 200.72 184.561 201.089 184.561 201.499C184.561 201.909 184.474 202.265 184.297 202.592L184.299 202.594Z" fill="#1348BA"/>
<path d="M192.778 197.872H189.135C188.888 197.872 188.68 197.957 188.514 198.128C188.348 198.299 188.265 198.517 188.265 198.781C188.254 199.065 188.246 199.353 188.236 199.648C188.225 200.549 188.186 201.29 188.115 201.872C188.045 202.455 187.934 202.895 187.787 203.194C187.64 203.492 187.442 203.65 187.195 203.672C187.137 203.672 187.077 203.691 187.01 203.732C186.859 203.761 186.732 203.843 186.632 203.973C186.532 204.103 186.483 204.259 186.483 204.436C186.483 204.622 186.534 204.784 186.64 204.921C186.744 205.057 186.883 205.14 187.056 205.17C187.17 205.209 187.299 205.228 187.442 205.228C188.013 205.228 188.472 205.042 188.821 204.671C189.168 204.299 189.426 203.725 189.592 202.952C189.758 202.18 189.852 201.157 189.87 199.883V199.383H191.956V204.376C191.956 204.63 192.037 204.844 192.199 205.014C192.361 205.185 192.567 205.271 192.814 205.271C193.061 205.271 193.252 205.185 193.414 205.014C193.576 204.844 193.657 204.63 193.657 204.376V198.781C193.657 198.517 193.574 198.299 193.408 198.128C193.242 197.957 193.034 197.872 192.787 197.872H192.778Z" fill="#1348BA"/>
<path d="M200.024 200.369C199.596 200.165 199.103 200.062 198.553 200.062H197.167V198.608C197.167 198.354 197.086 198.141 196.924 197.97C196.762 197.799 196.563 197.714 196.324 197.714C196.085 197.714 195.869 197.799 195.703 197.97C195.537 198.141 195.454 198.354 195.454 198.608V204.218C195.454 204.472 195.539 204.686 195.711 204.857C195.884 205.027 196.091 205.113 196.341 205.113H198.555C199.108 205.113 199.598 205.012 200.026 204.812C200.454 204.611 200.792 204.319 201.039 203.93C201.286 203.544 201.411 203.095 201.411 202.587C201.411 202.079 201.286 201.62 201.039 201.245C200.792 200.869 200.454 200.577 200.026 200.372L200.024 200.369ZM199.344 203.337C199.139 203.514 198.856 203.601 198.495 203.601H197.165V201.576H198.48C198.842 201.576 199.128 201.665 199.338 201.847C199.548 202.028 199.652 202.28 199.652 202.602C199.652 202.925 199.55 203.159 199.344 203.337Z" fill="#1348BA"/>
<path d="M208.154 197.712C207.906 197.712 207.701 197.797 207.539 197.968C207.377 198.139 207.296 198.352 207.296 198.606V200.574H204.467V198.606C204.467 198.352 204.388 198.139 204.23 197.968C204.072 197.797 203.87 197.712 203.623 197.712C203.376 197.712 203.168 197.797 203.002 197.968C202.836 198.139 202.753 198.352 202.753 198.606V204.376C202.753 204.63 202.836 204.844 203.002 205.015C203.168 205.185 203.376 205.271 203.623 205.271C203.87 205.271 204.074 205.185 204.23 205.015C204.386 204.844 204.467 204.63 204.467 204.376V202.086H207.296V204.376C207.296 204.63 207.377 204.844 207.539 205.015C207.701 205.185 207.904 205.271 208.154 205.271C208.403 205.271 208.604 205.185 208.76 205.015C208.916 204.844 208.995 204.63 208.995 204.376V198.606C208.995 198.352 208.916 198.139 208.76 197.968C208.602 197.797 208.401 197.712 208.154 197.712Z" fill="#1348BA"/>
<path d="M216.284 197.712C215.978 197.712 215.716 197.859 215.498 198.152L212.526 202.252V198.606C212.526 198.352 212.445 198.139 212.283 197.968C212.121 197.797 211.922 197.712 211.683 197.712C211.444 197.712 211.228 197.797 211.062 197.968C210.895 198.139 210.812 198.352 210.812 198.606V204.376C210.812 204.63 210.895 204.844 211.062 205.014C211.228 205.185 211.431 205.271 211.668 205.271C211.963 205.271 212.221 205.128 212.439 204.844L215.411 200.837V204.374C215.411 204.628 215.494 204.842 215.66 205.012C215.827 205.183 216.03 205.269 216.267 205.269C216.504 205.269 216.72 205.183 216.882 205.012C217.044 204.842 217.125 204.628 217.125 204.374V198.604C217.125 198.35 217.044 198.137 216.882 197.966C216.72 197.795 216.52 197.71 216.281 197.71L216.284 197.712Z" fill="#1348BA"/>
<path d="M225.313 203.599L225.026 203.702V198.606C225.026 198.352 224.947 198.139 224.79 197.968C224.632 197.797 224.43 197.712 224.183 197.712C223.936 197.712 223.73 197.797 223.568 197.968C223.406 198.139 223.325 198.352 223.325 198.606V203.599H220.654V198.606C220.654 198.352 220.573 198.139 220.411 197.968C220.249 197.797 220.049 197.712 219.811 197.712C219.572 197.712 219.356 197.797 219.19 197.968C219.023 198.139 218.94 198.352 218.94 198.606V204.216C218.94 204.47 219.025 204.684 219.198 204.854C219.37 205.025 219.578 205.111 219.827 205.111H224.542V206.549C224.542 206.795 224.621 207 224.777 207.166C224.935 207.333 225.132 207.416 225.369 207.416C225.606 207.416 225.803 207.333 225.955 207.166C226.106 207 226.183 206.795 226.183 206.549V204.509C226.183 204.244 226.1 204.026 225.934 203.855C225.768 203.685 225.56 203.599 225.313 203.599Z" fill="#1348BA"/>
<path d="M230.228 197.712C229.712 197.712 229.235 197.795 228.792 197.962C228.35 198.128 227.976 198.363 227.671 198.666C227.442 198.892 227.328 199.131 227.328 199.385C227.328 199.582 227.398 199.751 227.542 199.891C227.685 200.034 227.855 200.105 228.057 200.105C228.152 200.105 228.24 200.088 228.321 200.054C228.402 200.019 228.495 199.958 228.599 199.87C228.817 199.665 229.05 199.514 229.293 199.415C229.536 199.317 229.795 199.268 230.072 199.268C230.518 199.268 230.867 199.39 231.114 199.635C231.362 199.881 231.486 200.229 231.486 200.677V201.059H229.6C228.79 201.059 228.15 201.247 227.679 201.625C227.207 202.003 226.973 202.513 226.973 203.16C226.973 203.806 227.199 204.308 227.652 204.694C228.105 205.081 228.692 205.275 229.417 205.275C229.933 205.275 230.392 205.177 230.797 204.98C231.075 204.846 231.316 204.669 231.524 204.457C231.536 204.675 231.613 204.863 231.76 205.019C231.922 205.19 232.128 205.275 232.375 205.275C232.622 205.275 232.811 205.192 232.967 205.025C233.125 204.859 233.204 204.647 233.204 204.393V200.767C233.204 199.797 232.942 199.046 232.419 198.512C231.895 197.979 231.166 197.712 230.234 197.712H230.228ZM231.264 203.189C231.117 203.424 230.917 203.61 230.664 203.747C230.41 203.883 230.132 203.951 229.829 203.951C229.486 203.951 229.214 203.877 229.014 203.723C228.815 203.572 228.715 203.358 228.715 203.085C228.715 202.812 228.809 202.619 228.994 202.483C229.179 202.346 229.459 202.278 229.829 202.278H231.486V202.395C231.486 202.69 231.411 202.952 231.264 203.187V203.189Z" fill="#1348BA"/>
<path d="M143.826 200.603H138.289C137.742 200.603 137.491 199.901 137.91 199.539L139.887 197.822C141.851 196.133 143.238 194.619 144.048 193.282C144.858 191.945 145.264 190.514 145.264 188.987C145.264 187.46 144.933 186.235 144.272 185.096C143.609 183.959 142.691 183.06 141.514 182.402C140.336 181.746 139.006 181.416 137.522 181.416C136.198 181.416 134.965 181.693 133.823 182.242C132.682 182.794 131.745 183.546 131.016 184.495C130.284 185.445 129.816 186.531 129.611 187.751C129.497 188.41 129.474 188.995 129.542 189.511C129.588 190.215 129.822 190.778 130.245 191.199C130.667 191.621 131.198 191.834 131.838 191.834C132.479 191.834 132.97 191.646 133.38 191.272C133.79 190.897 134.041 190.392 134.134 189.758L134.203 189.336C134.226 189.148 134.248 188.948 134.271 188.737C134.339 188.128 134.516 187.605 134.802 187.17C135.088 186.736 135.446 186.401 135.881 186.167C136.314 185.933 136.818 185.816 137.388 185.816C138.324 185.816 139.077 186.127 139.649 186.748C140.218 187.37 140.504 188.199 140.504 189.229C140.504 190.169 140.254 191.042 139.75 191.851C139.246 192.66 138.368 193.629 137.112 194.756L130.193 200.78C129.553 201.321 129.234 201.977 129.234 202.752C129.234 203.387 129.455 203.938 129.901 204.407C130.346 204.878 130.889 205.112 131.527 205.112L143.824 205.076C144.487 205.076 145.028 204.865 145.451 204.441C145.873 204.019 146.085 203.478 146.085 202.822C146.085 202.167 145.873 201.662 145.451 201.238C145.028 200.816 144.485 200.603 143.824 200.603H143.826Z" fill="#1348BA"/>
<path d="M155.134 200.069H152.759C152.096 200.069 151.566 199.852 151.166 199.417C150.766 198.983 150.567 198.474 150.567 197.886C150.567 197.3 150.768 196.783 151.166 196.338C151.566 195.893 152.096 195.669 152.759 195.669H155.134C155.46 195.669 155.721 195.399 155.721 195.067V192.598C155.721 191.919 155.942 191.348 156.388 190.89C156.833 190.433 157.376 190.205 158.015 190.205C158.653 190.205 159.231 190.433 159.677 190.89C160.122 191.348 160.344 191.917 160.344 192.598V195.067C160.344 195.401 160.607 195.669 160.93 195.669H163.305C163.968 195.669 164.499 195.893 164.899 196.338C165.298 196.783 165.497 197.3 165.497 197.886C165.497 198.472 165.296 198.983 164.899 199.417C164.499 199.852 163.968 200.069 163.305 200.069H160.93C160.605 200.069 160.344 200.339 160.344 200.672V203.172C160.344 203.853 160.122 204.428 159.677 204.897C159.231 205.365 158.678 205.602 158.015 205.602C157.422 205.602 156.858 205.372 156.433 204.946C155.957 204.469 155.719 203.877 155.719 203.174V200.674C155.719 200.339 155.455 200.071 155.132 200.071L155.134 200.069Z" fill="#E30613"/>
<path d="M149.197 197.083L155.035 184.657C155.149 184.376 155.207 184.095 155.207 183.812C155.207 183.156 154.979 182.591 154.521 182.123C154.063 181.654 153.516 181.418 152.878 181.418C152.399 181.418 151.97 181.565 151.593 181.859C151.216 182.153 150.926 182.521 150.72 182.968L144.384 196.585C144.247 196.936 144.178 197.277 144.178 197.605C144.178 198.24 144.406 198.791 144.864 199.26C145.32 199.73 145.857 199.965 146.474 199.965H149.295C149.529 199.965 149.697 199.677 149.541 199.498C149.143 199.038 148.824 197.922 149.204 197.083H149.197Z" fill="#1348BA"/>
</svg>
