<svg width="552" height="492" viewBox="0 0 552 492" fill="none" xmlns="http://www.w3.org/2000/svg">
<g clip-path="url(#clip0_1081_10012)">
<path d="M91.67 488.662C91.67 488.662 2.48001 463.39 13.59 319.562C24.7 175.722 158.58 236.875 237.83 149.789C317.08 62.6921 315.98 -16.0604 435.79 43.2397C555.6 102.529 448.74 253.077 460.71 286.205C472.68 319.323 536.8 360.775 533.38 404.437C529.96 448.099 502.6 483.948 484.65 488.727L91.68 488.662H91.67Z" fill="#D7E9F4"/>
<path d="M412.91 100.947C414.26 105.585 414.05 110.028 413.45 113.409C419.68 99.5054 424.21 90.6082 424.33 90.3698C424.44 90.1422 424.7 90.0663 424.91 90.1855C425.12 90.3048 425.19 90.5865 425.08 90.8141C424.94 91.085 419.25 102.269 411.83 119.196C411.75 119.402 411.69 119.532 411.67 119.575C411.67 119.575 411.66 119.597 411.65 119.597C407.82 128.343 403.55 138.594 399.34 149.648C402.77 144.338 409.24 135.17 414.37 132.732L416.13 131.897C419.17 130.456 423.38 128.462 427.22 126.533C436.2 106.474 448.51 82.5455 435.78 71.8493C424.15 62.0852 415.93 76.8669 410.57 91.7027C411.19 94.5204 411.97 97.7173 412.9 100.925L412.91 100.947Z" fill="white"/>
<path d="M426.64 127.855C423.52 129.405 420.01 131.084 416.48 132.753L414.72 133.588C408.12 136.72 398.8 152.13 397.77 153.853C390.74 172.774 384.08 193.733 380.26 213.413C380.22 213.63 380.04 213.782 379.84 213.782C379.81 213.782 379.78 213.782 379.75 213.782C379.52 213.727 379.37 213.478 379.42 213.229C383.24 193.581 389.87 172.655 396.89 153.745C396.89 153.669 396.91 153.582 396.95 153.517C396.96 153.495 396.98 153.463 397.01 153.419C401.76 140.653 406.67 128.819 411 118.925C411.6 117.451 414.52 109.562 412.09 101.228C411.29 98.4759 410.6 95.7449 410.03 93.2416C406.93 102.106 404.85 110.7 403.67 113.756C400.44 122.09 392.8 125.796 378.26 138.118C363.73 150.439 370.57 197.45 370.57 197.45L368.96 199.358C368.96 199.358 382.11 252.697 410.71 247.539C439.31 242.38 421.43 169.328 419.75 151.263C419.22 145.573 422.49 137.186 426.64 127.855Z" fill="white"/>
<path d="M109.87 378.396C95.36 347.868 82.11 324.287 81.98 324.048C81.86 323.831 81.92 323.55 82.12 323.409C82.32 323.279 82.58 323.344 82.71 323.561C82.84 323.799 96.11 347.402 110.63 377.962C122.07 402.02 136.3 434.705 144.01 462.859L155.8 379.545C155.8 379.545 124.64 335.741 119.39 318.641C114.14 301.54 66.79 301.952 66.79 301.952C73.5 321.025 57.27 359.799 57.27 359.799L62.63 377.995H51.47C44.78 399.528 55.3 429.406 55.3 429.406L66.79 436.786L57.26 439.917C63.21 481.239 140.6 486.983 140.6 486.983L143.71 465.016C136.15 436.525 121.55 402.952 109.87 378.385V378.396ZM113.31 404.372C113.23 404.502 113.09 404.567 112.96 404.567C112.88 404.567 112.79 404.535 112.72 404.48C101.12 395.681 87.45 393.156 78.03 392.581C67.81 391.964 60.26 393.448 60.18 393.459C59.95 393.503 59.73 393.34 59.68 393.091C59.64 392.842 59.79 392.603 60.02 392.549C60.1 392.538 67.75 391.032 78.07 391.66C87.6 392.235 101.44 394.803 113.2 403.722C113.39 403.874 113.44 404.155 113.31 404.372Z" fill="white"/>
<path d="M482.61 400.449C481.69 400.546 480.77 400.644 479.82 400.731C449.86 403.733 438.84 409.043 434.81 412.272L383.29 476.405C383.21 476.514 383.09 476.568 382.97 476.568C382.87 476.568 382.77 476.536 382.69 476.46C382.51 476.286 382.49 475.994 382.65 475.809L431.72 414.732C431.84 414.309 432.32 413.117 434.29 411.535L441.42 402.66C442.58 401.208 443.33 385.721 440.85 373.432C440.48 371.601 440.35 369.672 440.4 367.732C438.92 368.686 437.39 369.607 435.8 370.495C417.12 380.921 411.74 362.92 403.12 365.64C394.5 368.361 377.55 404.632 377.55 404.632C377.55 404.632 346.21 474.704 381.95 486.679C381.95 486.679 457.64 497.256 467.68 466.75C472.63 451.719 457.07 442.442 468.95 424.724C473.24 418.33 478.64 409.747 482.61 400.46V400.449Z" fill="white"/>
<path d="M479.95 356.082L442.05 403.256L436.77 409.834C442.45 406.518 454.44 402.345 479.74 399.81C480.86 399.701 481.96 399.582 483.02 399.474C489.16 384.681 491.49 368.252 479.95 356.082Z" fill="white"/>
<path d="M441.67 373.226C443.64 382.958 443.7 395.616 442.78 400.937L479.33 355.443C478.37 354.489 477.33 353.557 476.19 352.669C466.24 344.833 456.65 357.025 441.28 367.147C441.18 369.228 441.28 371.287 441.68 373.226H441.67Z" fill="white"/>
<path d="M409.61 305.506C404.79 305.506 400.51 304.162 396.78 301.475C384.13 292.361 382.2 270.893 391.05 237.666C397.96 211.722 409.85 184.229 418.6 165.73C420.96 160.745 425.07 157.115 429.87 155.749C434.14 154.546 438.44 155.273 441.96 157.808L448.9 162.815L445.9 167.703L438.96 162.696C436.74 161.103 434 160.648 431.24 161.428C427.92 162.36 425.07 164.907 423.42 168.407C414.77 186.678 403.04 213.803 396.25 239.292C392.46 253.51 390.7 265.507 391.03 274.924C391.39 285.371 394.33 292.664 399.78 296.587C405.22 300.51 412.56 300.629 421.59 296.956C429.73 293.639 439.25 287.246 449.89 277.958C468.95 261.313 487.5 239.097 499.7 223.394C502.04 220.381 503.1 216.556 502.61 212.882C502.21 209.815 500.76 207.258 498.54 205.654L492.47 201.276L495.47 196.388L501.54 200.766C505.06 203.302 507.34 207.312 507.97 212.048C508.67 217.379 507.17 222.885 503.84 227.176C491.48 243.085 472.68 265.593 453.28 282.531C435.76 297.823 421.14 305.506 409.6 305.506H409.61Z" fill="#2E6B99"/>
<path d="M490.1 188.668L483.526 199.378C482.48 201.082 482.907 203.383 484.479 204.517L486.053 205.651C487.626 206.785 489.748 206.322 490.795 204.618L497.369 193.907C498.415 192.203 497.988 189.902 496.415 188.769L494.841 187.634C493.269 186.501 491.146 186.963 490.1 188.668Z" fill="#0E2549"/>
<path d="M450.285 159.962L443.713 170.674C442.667 172.379 443.094 174.679 444.667 175.812L446.241 176.947C447.814 178.08 449.937 177.617 450.983 175.912L457.555 165.2C458.601 163.496 458.173 161.195 456.601 160.062L455.027 158.928C453.454 157.795 451.331 158.258 450.285 159.962Z" fill="#0E2549"/>
<path d="M445.68 441.933C444.72 441.933 443.76 441.478 443.11 440.611C441.96 439.072 442.18 436.818 443.6 435.583C443.76 435.442 460.37 420.573 460.57 400.947C460.69 389.243 454.96 377.962 443.53 367.429C417.91 343.804 399.26 314.858 398.48 313.634C397.44 312.008 397.81 309.787 399.31 308.659C400.81 307.532 402.86 307.933 403.9 309.559C404.09 309.852 422.86 338.981 447.8 361.978C460.81 373.974 467.32 387.119 467.16 401.077C466.9 424.084 448.52 440.459 447.74 441.142C447.13 441.673 446.4 441.933 445.67 441.933H445.68Z" fill="#0E2549"/>
<path d="M440.57 488.727C454.123 488.727 465.11 476.821 465.11 462.133C465.11 447.446 454.123 435.539 440.57 435.539C427.017 435.539 416.03 447.446 416.03 462.133C416.03 476.821 427.017 488.727 440.57 488.727Z" fill="#2E6B99"/>
<path d="M443.315 480.949C452.615 479.313 458.93 469.816 457.421 459.738C455.911 449.659 447.148 442.815 437.848 444.451C428.548 446.087 422.232 455.583 423.742 465.662C425.251 475.741 434.014 482.585 443.315 480.949Z" fill="white"/>
<path d="M440.57 481.661C430.93 481.661 423.08 473.154 423.08 462.708C423.08 452.261 430.92 443.754 440.57 443.754C450.22 443.754 458.06 452.25 458.06 462.708C458.06 473.165 450.22 481.661 440.57 481.661ZM440.57 444.686C431.4 444.686 423.94 452.77 423.94 462.708C423.94 472.645 431.4 480.73 440.57 480.73C449.74 480.73 457.2 472.645 457.2 462.708C457.2 452.77 449.74 444.686 440.57 444.686Z" fill="#0E2549"/>
<path d="M348.68 63.5698L322.16 33.3129L343.65 11.1946L370.17 41.4515L348.68 63.5698ZM323.37 33.3454L348.71 62.2585L368.96 41.419L343.62 12.5059L323.37 33.3454Z" fill="#0E2549"/>
<path d="M334.32 35.8271C333.68 35.8271 333.05 35.5562 332.58 35.0144C332.14 34.505 331.9 33.8548 331.92 33.1504C331.94 32.4568 332.2 31.8066 332.67 31.3298C333.63 30.3436 335.15 30.387 336.07 31.4273C336.98 32.4677 336.94 34.1149 335.98 35.1119C335.52 35.5887 334.92 35.8271 334.33 35.8271H334.32ZM334.32 31.5465C333.94 31.5465 333.55 31.6982 333.25 32.0017C332.63 32.6411 332.61 33.7031 333.19 34.375C333.78 35.0469 334.76 35.0685 335.38 34.44C336 33.8006 336.02 32.7386 335.44 32.0667C335.14 31.7199 334.73 31.5465 334.32 31.5465Z" fill="#0E2549"/>
<path d="M341.85 44.4318C341.85 44.4318 341.81 44.4318 341.79 44.4318C341.15 44.4101 340.55 44.1283 340.11 43.619C339.67 43.1096 339.43 42.4594 339.45 41.755C339.47 41.0614 339.73 40.4112 340.2 39.9344C340.67 39.4576 341.27 39.1975 341.92 39.2191C342.56 39.2408 343.16 39.5226 343.6 40.0319C344.04 40.5413 344.28 41.1915 344.26 41.8959C344.24 42.5895 343.98 43.2397 343.51 43.7165C343.06 44.1825 342.48 44.4318 341.86 44.4318H341.85ZM341.85 40.1511C341.45 40.1511 341.08 40.3137 340.79 40.6171C340.17 41.2565 340.15 42.3185 340.73 42.9904C341.01 43.3155 341.4 43.4998 341.81 43.5106C342.22 43.5214 342.62 43.3589 342.92 43.0555C343.22 42.752 343.39 42.3294 343.4 41.8851C343.41 41.4407 343.26 41.0073 342.97 40.6821C342.69 40.357 342.3 40.1728 341.89 40.162C341.88 40.162 341.86 40.162 341.85 40.162V40.1511Z" fill="#0E2549"/>
<path d="M349.39 53.0255C349.39 53.0255 349.35 53.0255 349.33 53.0255C348.69 53.0038 348.09 52.7221 347.65 52.2127C347.21 51.7034 346.97 51.0532 346.99 50.3488C347.01 49.6552 347.27 49.005 347.74 48.5281C348.21 48.0513 348.81 47.7912 349.46 47.8129C350.1 47.8346 350.7 48.1163 351.14 48.6257C351.58 49.135 351.82 49.7852 351.8 50.4896C351.78 51.1832 351.52 51.8334 351.05 52.3103C350.6 52.7762 350.02 53.0255 349.4 53.0255H349.39ZM349.39 48.7449C348.99 48.7449 348.62 48.9074 348.33 49.2109C347.71 49.8503 347.69 50.9123 348.27 51.5842C348.55 51.9093 348.94 52.0935 349.35 52.1044C349.77 52.1152 350.16 51.9526 350.46 51.6492C350.76 51.3458 350.93 50.9231 350.94 50.4788C350.95 50.0345 350.8 49.601 350.51 49.2759C350.23 48.9508 349.84 48.7666 349.43 48.7557C349.42 48.7557 349.4 48.7557 349.39 48.7557V48.7449Z" fill="#0E2549"/>
<path d="M342.7 27.19C342.06 27.19 341.43 26.9191 340.96 26.3773C340.05 25.3369 340.09 23.6897 341.05 22.6927C342.01 21.7065 343.53 21.7499 344.45 22.7902C345.36 23.8306 345.32 25.4778 344.36 26.4748C343.9 26.9516 343.3 27.19 342.71 27.19H342.7ZM342.7 22.9094C342.32 22.9094 341.93 23.0611 341.63 23.3646C341.01 24.004 340.99 25.066 341.57 25.7379C342.16 26.4098 343.14 26.4315 343.76 25.8029C344.38 25.1635 344.4 24.1015 343.82 23.4296C343.52 23.0828 343.11 22.9094 342.7 22.9094Z" fill="#0E2549"/>
<path d="M350.24 35.7947C349.6 35.7947 348.97 35.5237 348.5 34.9819C348.06 34.4725 347.82 33.8223 347.84 33.1179C347.86 32.4244 348.12 31.7741 348.59 31.2973C349.55 30.3111 351.07 30.3545 351.99 31.3948C352.9 32.4352 352.86 34.0824 351.9 35.0794C351.44 35.5562 350.84 35.7947 350.25 35.7947H350.24ZM350.24 31.514C349.86 31.514 349.47 31.6658 349.17 31.9692C348.87 32.2726 348.7 32.6953 348.69 33.1396C348.68 33.5839 348.83 34.0174 349.12 34.3425C349.71 35.0144 350.69 35.0361 351.31 34.4075C351.93 33.7681 351.95 32.7061 351.37 32.0342C351.07 31.6874 350.66 31.514 350.25 31.514H350.24Z" fill="#0E2549"/>
<path d="M357.78 44.3884C357.14 44.3884 356.51 44.1175 356.04 43.5756C355.6 43.0663 355.36 42.4161 355.38 41.7117C355.4 41.0181 355.66 40.3679 356.13 39.8911C357.09 38.9049 358.61 38.9482 359.53 39.9886C360.44 41.0289 360.4 42.6762 359.44 43.6732C358.98 44.15 358.38 44.3884 357.79 44.3884H357.78ZM357.78 40.1078C357.4 40.1078 357.01 40.2595 356.71 40.5629C356.41 40.8664 356.24 41.289 356.23 41.7333C356.22 42.1777 356.37 42.6111 356.66 42.9362C357.25 43.6081 358.23 43.6298 358.85 43.0013C359.47 42.3619 359.49 41.2999 358.91 40.628C358.61 40.2812 358.2 40.1078 357.79 40.1078H357.78Z" fill="#0E2549"/>
<path d="M26.33 401.695L-0.669983 388.452L15.21 350.436L42.21 363.679L26.33 401.695ZM0.460017 387.986L25.9 400.46L41.07 364.134L15.63 351.661L0.460017 387.986Z" fill="#0E2549"/>
<path d="M19.86 365.207C19.53 365.207 19.19 365.131 18.87 364.979C17.66 364.383 17.13 362.845 17.67 361.533C18.22 360.222 19.64 359.648 20.85 360.233C22.06 360.829 22.59 362.368 22.05 363.679C21.65 364.643 20.77 365.207 19.86 365.207ZM19.86 360.926C19.68 360.926 19.49 360.959 19.31 361.035C18.92 361.197 18.62 361.501 18.45 361.913C18.28 362.324 18.27 362.78 18.41 363.191C18.56 363.614 18.84 363.939 19.22 364.123C20 364.503 20.92 364.123 21.27 363.289C21.62 362.444 21.27 361.447 20.5 361.067C20.3 360.97 20.08 360.916 19.86 360.916V360.926Z" fill="#0E2549"/>
<path d="M15.34 376.012C15.01 376.012 14.67 375.936 14.35 375.784C13.14 375.188 12.61 373.649 13.15 372.338C13.7 371.027 15.12 370.452 16.33 371.037C17.54 371.633 18.07 373.172 17.53 374.484C17.13 375.448 16.25 376.012 15.34 376.012ZM15.34 371.731C15.16 371.731 14.97 371.763 14.79 371.839C14.4 372.002 14.1 372.305 13.93 372.717C13.76 373.129 13.75 373.584 13.89 373.996C14.04 374.419 14.32 374.744 14.7 374.928C15.48 375.307 16.4 374.928 16.75 374.093C17.1 373.248 16.75 372.251 15.98 371.872C15.78 371.774 15.56 371.72 15.34 371.72V371.731Z" fill="#0E2549"/>
<path d="M10.83 386.816C10.5 386.816 10.16 386.74 9.84003 386.588C9.26003 386.307 8.81003 385.787 8.58003 385.136C8.35003 384.486 8.37003 383.782 8.64003 383.142C9.19003 381.831 10.61 381.257 11.82 381.842C13.03 382.438 13.56 383.977 13.02 385.288C12.62 386.253 11.74 386.816 10.83 386.816ZM10.83 382.535C10.24 382.535 9.68003 382.904 9.42003 383.522C9.25003 383.933 9.24003 384.389 9.38003 384.8C9.53003 385.223 9.81003 385.548 10.19 385.732C10.57 385.917 10.99 385.927 11.37 385.776C11.76 385.613 12.06 385.31 12.23 384.898C12.4 384.486 12.41 384.031 12.27 383.619C12.13 383.207 11.84 382.871 11.46 382.687C11.25 382.59 11.04 382.535 10.82 382.535H10.83Z" fill="#0E2549"/>
<path d="M30.4 370.376C30.07 370.376 29.73 370.3 29.41 370.149C28.2 369.553 27.67 368.014 28.21 366.703C28.47 366.074 28.95 365.586 29.55 365.337C30.15 365.088 30.8 365.11 31.39 365.402C32.6 365.998 33.13 367.537 32.59 368.848C32.19 369.813 31.31 370.376 30.4 370.376ZM30.4 366.096C30.22 366.096 30.03 366.128 29.85 366.204C29.46 366.367 29.16 366.67 28.99 367.082C28.82 367.494 28.81 367.949 28.95 368.361C29.1 368.783 29.38 369.108 29.76 369.293C30.54 369.672 31.46 369.293 31.81 368.458C31.98 368.046 31.99 367.591 31.85 367.179C31.7 366.757 31.42 366.432 31.04 366.247C30.84 366.15 30.62 366.096 30.4 366.096Z" fill="#0E2549"/>
<path d="M25.88 381.181C25.55 381.181 25.21 381.105 24.89 380.953C23.68 380.357 23.15 378.818 23.69 377.507C24.24 376.196 25.66 375.621 26.87 376.207C28.08 376.803 28.61 378.341 28.07 379.653C27.67 380.617 26.79 381.181 25.88 381.181ZM25.88 376.9C25.7 376.9 25.51 376.933 25.33 377.009C24.94 377.171 24.64 377.475 24.47 377.886C24.3 378.298 24.29 378.753 24.43 379.165C24.58 379.588 24.86 379.913 25.24 380.097C25.62 380.281 26.04 380.292 26.42 380.14C26.81 379.978 27.11 379.674 27.28 379.263C27.63 378.417 27.28 377.42 26.51 377.041C26.31 376.944 26.09 376.889 25.87 376.889L25.88 376.9Z" fill="#0E2549"/>
<path d="M21.37 391.985C21.04 391.985 20.7 391.909 20.38 391.758C19.17 391.162 18.64 389.623 19.18 388.311C19.73 387 21.15 386.426 22.36 387.011C23.57 387.607 24.1 389.146 23.56 390.457C23.16 391.422 22.28 391.985 21.37 391.985ZM21.37 387.705C20.78 387.705 20.22 388.073 19.96 388.691C19.61 389.536 19.96 390.533 20.73 390.912C21.11 391.097 21.53 391.107 21.91 390.956C22.3 390.793 22.6 390.49 22.77 390.078C22.94 389.666 22.95 389.211 22.81 388.799C22.66 388.376 22.38 388.051 22 387.867C21.79 387.77 21.58 387.715 21.36 387.715L21.37 387.705Z" fill="#0E2549"/>
<path d="M89.45 207.301C86.55 206.748 83.77 208.851 83.26 212.004L81.47 223.036C80.96 226.179 82.9 229.192 85.81 229.745C86.12 229.799 86.43 229.831 86.74 229.831C89.28 229.831 91.54 227.848 92 225.041L93.79 214.009C94.3 210.866 92.36 207.854 89.45 207.301ZM85.95 228.823C83.51 228.357 81.88 225.832 82.31 223.188L83.13 218.127L91.97 219.818L91.15 224.879C90.72 227.523 88.39 229.289 85.95 228.823ZM92.94 213.847L92.12 218.908L83.28 217.217L84.1 212.156C84.53 209.512 86.86 207.745 89.3 208.211C91.74 208.677 93.37 211.202 92.94 213.847Z" fill="#0E2549"/>
<path d="M514 361.284C513.84 359.171 512.95 357.263 511.47 355.898L509.51 354.088C506.45 351.26 501.84 351.661 499.23 354.977L486.46 371.222C483.85 374.538 484.22 379.534 487.28 382.362L489.24 384.172C490.61 385.44 492.29 386.057 493.96 386.057C496.02 386.057 498.07 385.115 499.51 383.283L512.28 367.038C513.54 365.435 514.14 363.397 513.99 361.284H514ZM498.87 382.676C496.57 385.602 492.5 385.949 489.8 383.457L487.84 381.647C485.14 379.154 484.82 374.744 487.12 371.818L493.23 364.047L504.98 374.895L498.87 382.665V382.676ZM511.64 366.432L505.53 374.202L493.78 363.354L499.89 355.584C502.19 352.658 506.26 352.311 508.96 354.803L510.92 356.613C512.22 357.816 513.01 359.507 513.15 361.371C513.29 363.235 512.75 365.034 511.64 366.442V366.432Z" fill="#0E2549"/>
<path d="M480.88 319.464L479.52 307.132C479.13 303.642 476.2 301.139 472.98 301.561C469.76 301.984 467.45 305.159 467.84 308.649L468.52 314.815L469.2 320.981C469.39 322.661 470.17 324.178 471.41 325.229C472.46 326.129 473.73 326.595 475.04 326.595C475.27 326.595 475.51 326.584 475.74 326.551C477.29 326.346 478.69 325.5 479.66 324.156C480.63 322.813 481.07 321.144 480.88 319.464ZM473.08 302.472C473.28 302.45 473.48 302.428 473.68 302.428C476.19 302.428 478.36 304.466 478.67 307.229L479.3 312.94L469.32 314.23L468.69 308.519C468.36 305.539 470.33 302.818 473.08 302.461V302.472ZM478.99 323.582C478.16 324.731 476.97 325.457 475.64 325.63C474.31 325.804 473 325.403 471.94 324.492C470.88 323.593 470.21 322.303 470.05 320.862L469.42 315.151L479.4 313.861L480.03 319.572C480.19 321.014 479.82 322.433 478.98 323.582H478.99Z" fill="#0E2549"/>
<path d="M389.36 102.388H139.52V488.706H389.36V102.388Z" fill="#666666"/>
<path d="M363.61 128.473H163.14V463.423H363.61V128.473Z" fill="white"/>
<path d="M364.03 463.889H162.71V128.007H364.03V463.889ZM163.56 462.968H363.17V128.939H163.56V462.968Z" fill="#0E2549"/>
<path d="M216.99 196.226C216.84 196.031 216.57 195.998 216.39 196.161L206.96 204.581C203.82 200.333 198.99 197.602 193.59 197.602C187.82 197.602 182.71 200.712 179.6 205.47L178.39 204.061C178.23 203.877 177.96 203.866 177.79 204.039C177.62 204.212 177.61 204.505 177.77 204.689L179.12 206.25C177.44 209.122 176.46 212.514 176.46 216.155C176.46 226.396 184.15 234.719 193.59 234.719C203.03 234.719 210.72 226.385 210.72 216.155C210.72 212.102 209.51 208.363 207.48 205.307L216.94 196.854C217.12 196.692 217.15 196.399 217 196.204L216.99 196.226ZM193.58 198.534C198.72 198.534 203.31 201.135 206.29 205.177L191.04 218.799L180.18 206.163C183.12 201.557 188.03 198.534 193.57 198.534H193.58ZM209.86 216.177C209.86 225.908 202.56 233.819 193.58 233.819C184.6 233.819 177.3 225.908 177.3 216.177C177.3 212.806 178.18 209.653 179.7 206.965L190.97 220.067L206.81 205.914C208.73 208.807 209.86 212.351 209.86 216.177Z" fill="#0E2549"/>
<path d="M214.58 260.933C214.43 260.738 214.16 260.706 213.98 260.868L204.55 269.289C201.41 265.041 196.58 262.31 191.18 262.31C185.41 262.31 180.3 265.42 177.19 270.177L175.98 268.769C175.82 268.584 175.55 268.573 175.38 268.747C175.21 268.92 175.2 269.213 175.36 269.397L176.71 270.958C175.03 273.829 174.05 277.221 174.05 280.863C174.05 291.104 181.74 299.426 191.18 299.426C200.62 299.426 208.31 291.093 208.31 280.863C208.31 276.81 207.1 273.071 205.07 270.015L214.53 261.562C214.71 261.399 214.74 261.107 214.59 260.912L214.58 260.933ZM191.17 263.242C196.31 263.242 200.9 265.843 203.88 269.885L188.63 283.507L177.77 270.871C180.71 266.265 185.62 263.242 191.16 263.242H191.17ZM207.45 280.884C207.45 290.616 200.15 298.527 191.17 298.527C182.19 298.527 174.89 290.616 174.89 280.884C174.89 277.514 175.77 274.36 177.29 271.673L188.56 284.775L204.4 270.622C206.32 273.515 207.45 277.059 207.45 280.884Z" fill="#0E2549"/>
<path d="M213.81 325.641C213.66 325.446 213.39 325.414 213.21 325.576L203.78 333.997C200.64 329.748 195.81 327.017 190.41 327.017C184.64 327.017 179.53 330.128 176.42 334.885L175.21 333.476C175.05 333.292 174.78 333.281 174.61 333.455C174.44 333.628 174.43 333.921 174.59 334.105L175.94 335.665C174.26 338.537 173.28 341.929 173.28 345.57C173.28 355.811 180.97 364.134 190.41 364.134C199.85 364.134 207.54 355.801 207.54 345.57C207.54 341.517 206.33 337.779 204.3 334.723L213.76 326.27C213.94 326.107 213.97 325.815 213.82 325.619L213.81 325.641ZM190.4 327.949C195.54 327.949 200.13 330.55 203.11 334.593L187.86 348.215L177 335.579C179.94 330.973 184.85 327.949 190.39 327.949H190.4ZM206.68 345.592C206.68 355.324 199.38 363.235 190.4 363.235C181.42 363.235 174.12 355.324 174.12 345.592C174.12 342.222 175 339.068 176.52 336.381L187.79 349.483L203.63 335.329C205.55 338.223 206.68 341.767 206.68 345.592Z" fill="#0E2549"/>
<path d="M348.24 201.438H226.63C226.39 201.438 226.2 201.232 226.2 200.972C226.2 200.712 226.39 200.506 226.63 200.506H348.24C348.48 200.506 348.67 200.712 348.67 200.972C348.67 201.232 348.48 201.438 348.24 201.438Z" fill="#0E2549"/>
<path d="M315.06 222.776H225.61C225.37 222.776 225.18 222.57 225.18 222.31C225.18 222.05 225.37 221.844 225.61 221.844H315.06C315.3 221.844 315.49 222.05 315.49 222.31C315.49 222.57 315.3 222.776 315.06 222.776Z" fill="#0E2549"/>
<path d="M347 268.617H224.07C223.83 268.617 223.64 268.411 223.64 268.151C223.64 267.891 223.83 267.685 224.07 267.685H347C347.24 267.685 347.43 267.891 347.43 268.151C347.43 268.411 347.24 268.617 347 268.617Z" fill="#0E2549"/>
<path d="M281.79 289.944H223.05C222.81 289.944 222.62 289.738 222.62 289.478C222.62 289.218 222.81 289.012 223.05 289.012H281.79C282.03 289.012 282.22 289.218 282.22 289.478C282.22 289.738 282.03 289.944 281.79 289.944Z" fill="#0E2549"/>
<path d="M348.24 335.785H221.79C221.55 335.785 221.36 335.579 221.36 335.319C221.36 335.058 221.55 334.853 221.79 334.853H348.24C348.48 334.853 348.67 335.058 348.67 335.319C348.67 335.579 348.48 335.785 348.24 335.785Z" fill="#0E2549"/>
<path d="M319.98 357.123H220.77C220.53 357.123 220.34 356.917 220.34 356.657C220.34 356.397 220.53 356.191 220.77 356.191H319.98C320.22 356.191 320.41 356.397 320.41 356.657C320.41 356.917 320.22 357.123 319.98 357.123Z" fill="#0E2549"/>
<path d="M300.5 386.025H182.02C181.78 386.025 181.59 385.819 181.59 385.559C181.59 385.299 181.78 385.093 182.02 385.093H300.5C300.74 385.093 300.93 385.299 300.93 385.559C300.93 385.819 300.74 386.025 300.5 386.025Z" fill="#0E2549"/>
<path d="M299.47 407.883H180.99C180.75 407.883 180.56 407.677 180.56 407.417C180.56 407.157 180.75 406.951 180.99 406.951H299.47C299.71 406.951 299.9 407.157 299.9 407.417C299.9 407.677 299.71 407.883 299.47 407.883Z" fill="#0E2549"/>
<path d="M215.87 104.599C215.87 151.371 195.78 189.279 171 189.279C146.22 189.279 126.13 151.371 126.13 104.599C126.13 104.599 142.65 98.5842 147.91 95.9725C154.06 92.9273 171.76 81.9928 171.76 81.9928C171.76 81.9928 189.06 93.014 194.84 95.9725C200.09 98.6601 215.87 104.599 215.87 104.599Z" fill="#D2EBFC"/>
<path d="M171 189.734C158.85 189.734 147.45 180.848 138.9 164.701C130.39 148.64 125.7 127.291 125.7 104.588V104.252L125.99 104.144C126.16 104.079 142.55 98.1074 147.73 95.539C153.79 92.5372 171.37 81.6893 171.55 81.581L171.76 81.4509L171.97 81.5918C172.14 81.7002 189.32 92.6347 195.01 95.5499C200.18 98.1941 215.84 104.1 216 104.154L216.29 104.263V104.588C216.29 127.291 211.6 148.63 203.09 164.701C194.54 180.848 183.14 189.734 170.99 189.734H171ZM126.56 104.924C126.65 151.209 146.56 188.813 171 188.813C195.44 188.813 215.35 151.209 215.44 104.924C213.27 104.1 199.47 98.8551 194.65 96.3951C189.27 93.6426 173.76 83.8026 171.75 82.5346C169.71 83.7917 153.81 93.5559 148.08 96.3951C143.25 98.7901 128.79 104.111 126.55 104.935L126.56 104.924Z" fill="#0E2549"/>
<path d="M207.7 111.09C207.7 149.345 191.27 180.349 171 180.349C150.73 180.349 134.3 149.345 134.3 111.09C134.3 111.09 148.95 105.975 153.58 103.667C158.32 101.315 171.78 92.4504 171.78 92.4504C171.78 92.4504 185.11 101.738 189.86 104.198C194.09 106.387 207.69 111.09 207.69 111.09H207.7Z" fill="white"/>
<path d="M171 180.815C161.04 180.815 151.69 173.533 144.68 160.301C137.71 147.145 133.87 129.676 133.87 111.09V110.754L134.17 110.646C134.32 110.592 148.85 105.509 153.41 103.244C158.07 100.925 171.44 92.1362 171.57 92.0495L171.8 91.8978L172.02 92.0495C172.15 92.1471 185.38 101.348 190.05 103.775C194.2 105.932 207.69 110.592 207.83 110.646L208.13 110.743V111.079C208.13 129.665 204.29 147.134 197.32 160.29C190.31 173.522 180.96 180.805 171 180.805V180.815ZM134.73 111.426C134.83 149.204 151.06 179.883 171 179.883C190.94 179.883 207.18 149.204 207.27 111.426C205.2 110.711 193.59 106.647 189.68 104.61C185.24 102.301 173.6 94.2603 171.78 92.9924C169.98 94.1736 158.13 101.911 153.76 104.089C149.47 106.224 136.88 110.668 134.72 111.426H134.73Z" fill="#0E2549"/>
<path d="M194.84 127.595H178.41V109.801H163.58V127.595H147.16V143.666H163.58V161.471H178.41V143.666H194.84V127.595Z" fill="#0E2549"/>
<path d="M477.31 147.893L471.5 146.56L472.67 140.589L467.16 139.321L468.39 133.024L473.9 134.292L475.07 128.321L480.88 129.654L479.71 135.625L485.22 136.893L483.99 143.189L478.48 141.921L477.31 147.893ZM472.52 145.844L476.65 146.798L477.82 140.827L483.33 142.095L484.21 137.619L478.7 136.351L479.87 130.38L475.74 129.426L474.57 135.398L469.06 134.13L468.18 138.605L473.69 139.873L472.52 145.844Z" fill="#0E2549"/>
<path d="M472.09 160.399L471.88 160.138C471.08 159.163 452.24 136.145 453.68 120.15C454.04 116.086 455.71 112.813 458.64 110.418C460.26 109.085 462.12 108.619 464.15 109.02C471.04 110.386 477.97 121.331 479.31 123.553C481.53 122.176 493.09 115.338 499.54 117.441C501.18 117.972 502.38 119.045 503.09 120.638C504.58 123.943 504.73 127.508 503.53 131.236C498.66 146.43 473.45 159.683 472.38 160.236L472.09 160.388V160.399ZM462.77 109.811C461.46 109.811 460.24 110.267 459.15 111.155C456.42 113.388 454.87 116.444 454.53 120.237C453.21 134.932 470.19 156.616 472.31 159.25C475.18 157.7 498.25 144.902 502.73 130.933C503.85 127.443 503.71 124.116 502.33 121.049C501.71 119.684 500.72 118.795 499.3 118.329C492.64 116.162 479.52 124.496 479.39 124.582L479.03 124.81L478.81 124.431C478.73 124.3 471.14 111.35 464 109.931C463.59 109.844 463.18 109.811 462.78 109.811H462.77Z" fill="#0E2549"/>
<path d="M402.01 52.722C401.75 51.0423 400.91 49.5685 399.63 48.5823C398.36 47.5961 396.8 47.206 395.25 47.4878C393.7 47.7695 392.34 48.6798 391.43 50.067L384.76 60.1779C382.87 63.0389 383.49 67.0269 386.12 69.0751C387.12 69.8554 388.3 70.2563 389.52 70.2563C389.85 70.2563 390.18 70.2238 390.5 70.1696C392.05 69.8879 393.41 68.9776 394.32 67.6013L400.99 57.4903C401.9 56.114 402.26 54.4234 402 52.7437L402.01 52.722ZM393.64 67.0377C392.03 69.4761 388.88 70.0504 386.63 68.3057C384.37 66.5609 383.85 63.1472 385.46 60.7089L388.55 56.0273L396.73 62.367L393.64 67.0486V67.0377ZM400.31 56.9268L397.22 61.6084L389.04 55.2687L392.13 50.5872C392.91 49.4059 394.07 48.6257 395.4 48.3872C395.68 48.3331 395.96 48.3114 396.24 48.3114C397.28 48.3114 398.29 48.6582 399.15 49.3192C400.24 50.1645 400.96 51.4216 401.18 52.8629C401.4 54.3042 401.09 55.7456 400.32 56.9268H400.31Z" fill="#0E2549"/>
<path d="M53.31 255.276L54.97 290.941L76.92 282.694L58.59 253.369C56.95 250.747 53.16 252.112 53.31 255.287V255.276Z" fill="#D2EBFC"/>
<path d="M54.58 291.57L52.89 255.298C52.81 253.64 53.7 252.231 55.15 251.7C56.6 251.169 58.09 251.722 58.95 253.098L77.59 282.922L54.57 291.57H54.58ZM56.24 252.437C55.95 252.437 55.67 252.491 55.43 252.578C54.61 252.871 53.68 253.748 53.75 255.244L55.38 290.291L76.27 282.445L58.26 253.618C57.71 252.741 56.94 252.437 56.25 252.437H56.24Z" fill="#0E2549"/>
<path d="M130 486.961C122.77 489.681 114.88 485.53 112.37 477.695L55.06 298.614C52.55 290.778 56.38 282.228 63.61 279.508C70.84 276.788 78.73 280.938 81.24 288.774L138.55 467.855C141.06 475.69 137.23 484.241 130 486.961Z" fill="#D2EBFC"/>
<path d="M125.45 488.261C123.32 488.261 121.2 487.741 119.23 486.701C115.8 484.902 113.22 481.748 111.97 477.847L54.66 298.765C52.08 290.703 56.03 281.87 63.47 279.074C70.91 276.279 79.06 280.559 81.64 288.622L138.95 467.703C140.2 471.605 139.97 475.809 138.31 479.527C136.65 483.244 133.74 486.04 130.14 487.394C128.61 487.969 127.02 488.261 125.45 488.261ZM68.14 279.15C66.68 279.15 65.2 279.41 63.75 279.952C56.75 282.586 53.04 290.887 55.46 298.473L112.77 477.554C113.95 481.228 116.37 484.186 119.6 485.877C122.83 487.578 126.47 487.806 129.86 486.527C133.25 485.248 135.98 482.626 137.54 479.126C139.11 475.625 139.32 471.681 138.14 468.007L80.83 288.925C78.91 282.922 73.69 279.139 68.13 279.139L68.14 279.15Z" fill="#0E2549"/>
<path d="M101.53 373.692C101.45 373.454 101.21 373.324 100.99 373.411L96.01 375.285L93.86 368.577L95.82 367.84C96.04 367.754 96.16 367.494 96.08 367.255C96 367.017 95.76 366.887 95.54 366.973L93.58 367.71L91.43 361.002L96.42 359.127C96.64 359.041 96.76 358.781 96.68 358.542C96.6 358.304 96.36 358.174 96.14 358.26L91.15 360.135L89 353.427L90.96 352.69C91.18 352.604 91.3 352.343 91.22 352.105C91.14 351.867 90.9 351.737 90.68 351.823L88.72 352.56L86.57 345.852L91.55 343.977C91.77 343.891 91.89 343.631 91.81 343.392C91.73 343.154 91.49 343.024 91.27 343.11L86.29 344.985L84.14 338.277L86.1 337.54C86.32 337.453 86.44 337.193 86.36 336.955C86.28 336.717 86.04 336.586 85.82 336.673L83.86 337.41L81.71 330.702L86.7 328.827C86.92 328.74 87.04 328.48 86.96 328.242C86.88 328.004 86.64 327.874 86.42 327.96L81.43 329.835L79.28 323.127L81.24 322.39C81.46 322.303 81.58 322.043 81.5 321.805C81.42 321.566 81.18 321.436 80.96 321.523L79 322.26L76.85 315.552L81.84 313.677C82.06 313.59 82.18 313.33 82.1 313.092C82.02 312.853 81.78 312.723 81.56 312.81L76.57 314.685L74.42 307.977L76.39 307.24C76.61 307.153 76.73 306.893 76.65 306.655C76.57 306.416 76.33 306.286 76.11 306.373L74.14 307.11L71.99 300.402L76.98 298.527C77.2 298.44 77.32 298.18 77.24 297.942C77.16 297.703 76.92 297.573 76.7 297.66L71.71 299.535L69.56 292.827L71.53 292.09C71.75 292.003 71.87 291.743 71.79 291.505C71.71 291.266 71.47 291.136 71.25 291.223L69.28 291.96L65.33 279.606C66.29 278.543 66.68 276.95 66.2 275.444L62.48 263.816C61.81 261.714 59.68 260.597 57.74 261.323C55.8 262.05 54.77 264.358 55.44 266.46L59.16 278.088C59.64 279.584 60.84 280.57 62.2 280.765L66.16 293.13L64.21 293.867C63.99 293.954 63.87 294.214 63.95 294.452C64.01 294.647 64.18 294.766 64.35 294.766C64.4 294.766 64.44 294.766 64.49 294.745L66.44 294.008L68.59 300.716L63.61 302.591C63.39 302.677 63.27 302.938 63.35 303.176C63.41 303.371 63.58 303.49 63.75 303.49C63.8 303.49 63.84 303.49 63.89 303.469L68.87 301.594L71.02 308.302L69.07 309.039C68.85 309.126 68.73 309.386 68.81 309.624C68.87 309.819 69.04 309.938 69.21 309.938C69.26 309.938 69.3 309.938 69.35 309.917L71.3 309.18L73.45 315.888L68.46 317.763C68.24 317.849 68.12 318.109 68.2 318.348C68.26 318.543 68.43 318.662 68.6 318.662C68.65 318.662 68.69 318.662 68.74 318.64L73.73 316.766L75.88 323.474L73.93 324.211C73.71 324.297 73.59 324.557 73.67 324.796C73.73 324.991 73.9 325.11 74.07 325.11C74.12 325.11 74.16 325.11 74.21 325.088L76.16 324.351L78.31 331.06L73.33 332.934C73.11 333.021 72.99 333.281 73.07 333.52C73.13 333.715 73.3 333.834 73.47 333.834C73.52 333.834 73.56 333.834 73.61 333.812L78.59 331.937L80.74 338.645L78.79 339.382C78.57 339.469 78.45 339.729 78.53 339.968C78.59 340.163 78.76 340.282 78.93 340.282C78.98 340.282 79.02 340.282 79.07 340.26L81.02 339.523L83.17 346.231L78.18 348.106C77.96 348.193 77.84 348.453 77.92 348.691C77.98 348.886 78.15 349.006 78.32 349.006C78.37 349.006 78.41 349.006 78.46 348.984L83.45 347.109L85.6 353.817L83.65 354.554C83.43 354.641 83.31 354.901 83.39 355.139C83.45 355.334 83.62 355.454 83.79 355.454C83.84 355.454 83.88 355.454 83.93 355.432L85.88 354.695L88.03 361.403L83.04 363.278C82.82 363.365 82.7 363.625 82.78 363.863C82.84 364.058 83.01 364.177 83.18 364.177C83.23 364.177 83.27 364.177 83.32 364.156L88.31 362.281L90.46 368.989L88.51 369.726C88.29 369.813 88.17 370.073 88.25 370.311C88.31 370.506 88.48 370.625 88.65 370.625C88.7 370.625 88.74 370.626 88.79 370.604L90.74 369.867L92.89 376.575L87.9 378.45C87.68 378.537 87.56 378.797 87.64 379.035C87.7 379.23 87.87 379.349 88.04 379.349C88.09 379.349 88.13 379.349 88.18 379.328L93.17 377.453L95.32 384.161L93.38 384.887C93.16 384.974 93.04 385.234 93.12 385.472C93.18 385.667 93.35 385.786 93.52 385.786C93.57 385.786 93.61 385.786 93.66 385.765L95.6 385.039L97.2 390.045L100.33 388.864L98.73 383.857L100.7 383.121C100.92 383.034 101.04 382.774 100.96 382.535C100.88 382.297 100.64 382.167 100.42 382.254L98.45 382.991L96.3 376.282L101.28 374.408C101.5 374.321 101.62 374.061 101.54 373.822L101.53 373.692Z" fill="#0E2549"/>
<path d="M130.68 464.712C130.6 464.474 130.36 464.344 130.14 464.431L124.97 466.37L122.82 459.662L124.97 458.86C125.19 458.774 125.31 458.514 125.23 458.275C125.15 458.037 124.91 457.907 124.69 457.993L122.54 458.795L120.39 452.087L125.56 450.147C125.78 450.061 125.9 449.801 125.82 449.562C125.74 449.324 125.5 449.194 125.28 449.281L120.11 451.22L117.96 444.512L120.11 443.71C120.33 443.624 120.45 443.364 120.37 443.125C120.29 442.887 120.05 442.757 119.83 442.843L117.68 443.645L115.53 436.937L120.7 434.997C120.92 434.911 121.04 434.651 120.96 434.412C120.88 434.174 120.64 434.044 120.42 434.13L115.25 436.07L113.1 429.362L115.25 428.56C115.47 428.473 115.59 428.213 115.51 427.975C115.43 427.737 115.19 427.607 114.97 427.693L112.82 428.495L110.67 421.787L115.84 419.847C116.06 419.761 116.18 419.5 116.1 419.262C116.02 419.024 115.78 418.894 115.56 418.98L110.39 420.92L108.24 414.212L110.39 413.41C110.61 413.323 110.73 413.063 110.65 412.825C110.57 412.586 110.33 412.456 110.11 412.543L107.96 413.345L105.81 406.637L110.97 404.697C111.19 404.61 111.31 404.35 111.23 404.112C111.15 403.873 110.91 403.743 110.69 403.83L105.53 405.77L103.38 399.062L105.52 398.26C105.74 398.173 105.86 397.913 105.78 397.675C105.7 397.436 105.46 397.306 105.24 397.393L103.1 398.195L100.95 391.487L106.12 389.547C106.34 389.46 106.46 389.2 106.38 388.962C106.3 388.723 106.06 388.593 105.84 388.68L100.67 390.62L90.19 357.87L90.05 357.437L87.27 358.477L97.89 391.66L92.74 393.6C92.52 393.687 92.4 393.947 92.48 394.185C92.54 394.38 92.71 394.499 92.88 394.499C92.93 394.499 92.97 394.499 93.02 394.478L98.17 392.538L100.32 399.246L98.2 400.048C97.98 400.135 97.86 400.395 97.94 400.633C98 400.828 98.17 400.947 98.34 400.947C98.39 400.947 98.43 400.947 98.48 400.926L100.6 400.124L102.75 406.832L97.59 408.772C97.37 408.859 97.25 409.119 97.33 409.357C97.39 409.552 97.56 409.671 97.73 409.671C97.78 409.671 97.82 409.671 97.87 409.65L103.03 407.71L105.18 414.418L103.07 415.209C102.85 415.296 102.73 415.556 102.81 415.794C102.87 415.989 103.04 416.108 103.21 416.108C103.26 416.108 103.3 416.108 103.35 416.087L105.46 415.296L107.61 422.004L102.46 423.933C102.24 424.019 102.12 424.28 102.2 424.518C102.26 424.713 102.43 424.832 102.6 424.832C102.65 424.832 102.69 424.832 102.74 424.811L107.89 422.882L110.04 429.59L107.93 430.381C107.71 430.467 107.59 430.728 107.67 430.966C107.73 431.161 107.9 431.28 108.07 431.28C108.12 431.28 108.16 431.28 108.21 431.259L110.32 430.467L112.47 437.176L107.32 439.115C107.1 439.202 106.98 439.462 107.06 439.701C107.12 439.896 107.29 440.015 107.46 440.015C107.51 440.015 107.55 440.015 107.6 439.993L112.75 438.053L114.9 444.761L112.79 445.553C112.57 445.639 112.45 445.899 112.53 446.138C112.59 446.333 112.76 446.452 112.93 446.452C112.98 446.452 113.02 446.452 113.07 446.43L115.18 445.639L117.33 452.347L112.18 454.287C111.96 454.374 111.84 454.634 111.92 454.872C111.98 455.067 112.15 455.187 112.32 455.187C112.37 455.187 112.41 455.187 112.46 455.165L117.61 453.225L119.76 459.933L117.65 460.724C117.43 460.811 117.31 461.071 117.39 461.31C117.45 461.505 117.62 461.624 117.79 461.624C117.84 461.624 117.88 461.624 117.93 461.602L120.04 460.811L122.19 467.519L117.04 469.459C116.82 469.546 116.7 469.806 116.78 470.044C116.84 470.239 117.01 470.358 117.18 470.358C117.23 470.358 117.27 470.358 117.32 470.337L122.47 468.397L123.01 470.098L123.15 470.532L125.93 469.492L125.25 467.357L130.42 465.417C130.64 465.33 130.76 465.07 130.68 464.832V464.712ZM88.38 358.943L89.55 358.51L99.89 390.826L98.72 391.259L88.38 358.943ZM99 392.126L100.17 391.693L102.32 398.401L101.15 398.834L99 392.126ZM101.43 399.712L102.6 399.279L104.75 405.987L103.58 406.42L101.43 399.712ZM103.86 407.298L105.03 406.864L107.18 413.573L106.01 414.006L103.86 407.298ZM106.29 414.884L107.46 414.45L109.61 421.158L108.44 421.592L106.29 414.884ZM108.72 422.47L109.89 422.036L112.04 428.744L110.87 429.178L108.72 422.47ZM111.15 430.056L112.32 429.622L114.47 436.33L113.3 436.764L111.15 430.056ZM113.58 437.642L114.75 437.208L116.9 443.916L115.73 444.35L113.58 437.642ZM116.01 445.227L117.18 444.794L119.33 451.502L118.16 451.936L116.01 445.227ZM118.44 452.813L119.61 452.38L121.76 459.088L120.59 459.521L118.44 452.813ZM120.87 460.399L122.04 459.966L124.19 466.674L123.02 467.107L120.87 460.399ZM124.87 468.809L123.7 469.242L123.3 467.974L124.47 467.541L124.87 468.809Z" fill="#0E2549"/>
<path d="M281.35 486.95C276.41 483.688 274.83 476.644 277.84 471.291L289.34 450.841C292.35 445.488 298.85 443.775 303.79 447.037C308.73 450.299 310.31 457.343 307.3 462.697L295.8 483.146C292.79 488.5 286.29 490.212 281.35 486.95Z" fill="#A1C5E2"/>
<path d="M308.95 453.973C308.26 450.884 306.51 448.284 304.02 446.636C298.87 443.234 292.12 445.011 288.98 450.592L277.48 471.041C275.96 473.74 275.51 476.915 276.2 480.003C276.89 483.092 278.64 485.693 281.13 487.34C282.9 488.511 284.87 489.074 286.81 489.074C290.5 489.074 294.11 487.048 296.17 483.385L307.67 462.935C309.19 460.237 309.64 457.062 308.95 453.973ZM295.44 482.908C292.54 488.055 286.32 489.692 281.57 486.549C279.28 485.032 277.67 482.637 277.03 479.787C276.39 476.937 276.81 474 278.21 471.518L283.74 461.689L300.97 473.068L295.44 482.897V482.908ZM306.94 462.458L301.41 472.288L284.18 460.909L289.71 451.08C291.61 447.709 294.94 445.834 298.34 445.834C300.13 445.834 301.94 446.344 303.57 447.427C305.86 448.945 307.47 451.34 308.11 454.19C308.75 457.04 308.33 459.977 306.93 462.458H306.94Z" fill="#0E2549"/>
<path d="M296.96 481.098C296.96 481.098 294.08 487.102 290.58 487.849C287.08 488.597 282.06 489.443 277.84 483.103C273.62 476.763 279.29 468.722 279.29 468.722L283.6 461.05L301.56 472.916L296.96 481.087V481.098Z" fill="#0E2549"/>
<path d="M324.75 403.841V378.135H379.51V403.841C388.14 404.827 394.88 413.204 394.88 423.402V488.673H309.37V423.402C309.37 413.204 316.15 404.708 324.74 403.841H324.75Z" fill="#D2EBFC"/>
<path d="M309.37 471.67H355.9L356.42 431.367H309.37V471.67Z" fill="white"/>
<path d="M379.93 403.418V377.67H324.32V403.418C315.67 404.524 308.95 413.215 308.95 423.402V489.139H395.31V423.402C395.31 413.161 388.73 404.643 379.94 403.429L379.93 403.418ZM360.89 378.591H365.52V403.364H360.89V378.591ZM355.75 378.591H360.04V403.364H355.75V378.591ZM350.13 378.591H354.89V403.364H350.13V378.591ZM344.05 378.591H349.27V403.364H344.05V378.591ZM337.78 378.591H343.19V403.364H337.78V378.591ZM331.23 378.591H336.93V403.364H331.23V378.591ZM325.17 378.591H330.37V403.364H325.17V378.591ZM309.8 431.833H355.99L355.48 471.204H309.8V431.833ZM394.45 488.207H309.8V472.136H356.32L356.85 430.912H309.8V423.402C309.8 413.551 316.37 405.163 324.77 404.307H368.29V403.386H366.37V378.612H379.07V404.264L379.45 404.307C388 405.282 394.44 413.497 394.44 423.413V488.218L394.45 488.207Z" fill="#0E2549"/>
<path d="M363.6 466.999L363.62 476.698H376.02L377.05 467.498L363.6 466.999Z" fill="white"/>
<path d="M376.4 477.164H363.2L363.18 466.522L377.54 467.053L376.4 477.164ZM364.05 476.243H375.64L376.57 467.953L364.03 467.487V476.243H364.05Z" fill="#0E2549"/>
<path d="M407.25 354.576V373.497L392.01 372.489L394.21 355.345L407.25 354.576Z" fill="#8DAEC4"/>
<path d="M362.94 476.113C362.94 476.113 345.02 482.279 344.4 487.362H376.53V476.113H362.94Z" fill="#E2474B"/>
<path d="M413.59 467.205L413.93 477.023H426.32L426.91 466.999L413.59 467.205Z" fill="white"/>
<path d="M426.73 477.478H413.52L413.15 466.75L427.38 466.522L426.74 477.478H426.73ZM414.34 476.557H425.93L426.46 467.465L414.03 467.66L414.34 476.557Z" fill="#0E2549"/>
<path d="M413.24 476.438C413.24 476.438 395.32 482.604 394.7 487.687H426.83V476.438H413.23H413.24Z" fill="#E2474B"/>
<path d="M374.98 486.224C375.84 486.23 376.535 486.929 376.535 487.79V487.79C376.535 488.655 375.834 489.356 374.969 489.356H346.068C345.15 489.356 344.405 488.611 344.405 487.693V487.693C344.405 486.77 345.157 486.023 346.079 486.029L374.98 486.224Z" fill="#E2474B"/>
<path d="M425.885 486.224C426.745 486.23 427.44 486.929 427.44 487.79V487.79C427.44 488.655 426.739 489.356 425.874 489.356H396.973C396.055 489.356 395.31 488.611 395.31 487.693V487.693C395.31 486.77 396.062 486.023 396.984 486.029L425.885 486.224Z" fill="#E2474B"/>
<path d="M414.98 238.512L414.21 238.111C414.27 237.97 420.36 224.077 417.16 217.152C416.27 215.223 414.71 214.009 412.53 213.532H399.7C399.63 213.532 389.95 214.204 389.82 220.49C389.69 226.613 390.94 233.31 390.96 233.375L390.12 233.559C390.11 233.494 388.84 226.688 388.97 220.468C389.12 213.326 399.25 212.633 399.68 212.6H412.62H412.66C415.14 213.131 416.92 214.518 417.93 216.718C421.32 224.044 415.24 237.905 414.98 238.49V238.512Z" fill="#0E2549"/>
<path d="M430.89 297.573L430.4 348.041L430.1 378.114L429.21 468.993H409.48L400.65 376.293L399.32 362.346L396.76 376.066L379.46 468.993H360.47L368.29 376.066L371.9 333.173L374.01 308.215L400.66 303.23L410.99 301.29L430.89 297.573Z" fill="#0E2549"/>
<path d="M397.15 203.27C397.15 203.27 398.55 219.157 397.37 220.912C396.2 222.668 389.43 225.908 389.43 225.908L400.78 262.071L425.02 259.535L426.59 232.649C426.59 232.649 415.53 222.885 414.86 220.88C413.94 218.106 413.93 203.28 413.93 203.28H397.15V203.27Z" fill="white"/>
<path d="M400.49 262.581L388.9 225.67L389.26 225.496C391.11 224.608 396.12 222.007 397.03 220.652C397.82 219.471 397.26 209.403 396.73 203.324C396.71 203.075 396.88 202.847 397.11 202.815C397.35 202.793 397.55 202.977 397.58 203.226C397.82 205.903 398.93 219.384 397.72 221.183C396.63 222.809 391.48 225.41 389.96 226.157L401.08 261.573L424.62 259.102L426.15 232.844C424.42 231.316 415.12 223.004 414.46 221.021C413.52 218.203 413.51 203.866 413.51 203.259C413.51 202.999 413.7 202.793 413.94 202.793C414.18 202.793 414.37 202.999 414.37 203.259C414.37 203.411 414.38 218.041 415.27 220.706C415.73 222.094 422.46 228.379 426.87 232.28L427.04 232.432L425.43 259.947L400.49 262.559V262.581Z" fill="#0E2549"/>
<path d="M330.6 234.48C334.31 236.745 349.03 253.618 349.03 253.618L338.47 259.08C338.47 259.08 329.9 241.73 328.38 241.514C325.53 241.102 316.91 241.373 314.13 239.357C309.92 236.301 307.75 232.41 308.25 231.197C308.52 230.546 315.82 235.282 317.42 235.326C321.94 235.456 327.96 232.855 330.61 234.469L330.6 234.48Z" fill="white"/>
<path d="M338.28 259.698L338.09 259.308C334.04 251.104 329.27 242.37 328.3 241.969C327.56 241.86 326.34 241.806 324.93 241.73C321.16 241.535 316 241.275 313.89 239.747C309.64 236.669 307.2 232.595 307.86 231.012C307.92 230.872 308.02 230.774 308.16 230.72C308.61 230.546 309.44 230.937 312.49 232.573C314.37 233.592 316.72 234.849 317.43 234.87C319.22 234.925 321.28 234.524 323.27 234.144C326.28 233.57 329.11 233.028 330.82 234.068C334.54 236.344 348.75 252.6 349.35 253.293L349.75 253.759L338.29 259.687L338.28 259.698ZM308.6 231.663C308.62 232.822 310.48 236.16 314.37 238.988C316.29 240.376 321.31 240.636 324.97 240.82C326.4 240.896 327.63 240.95 328.43 241.069C328.81 241.123 329.59 241.243 334.35 250.161C336.26 253.738 338.06 257.325 338.64 258.484L348.31 253.478C345.92 250.757 333.66 236.886 330.39 234.881C328.95 234.003 326.26 234.513 323.41 235.065C321.38 235.456 319.28 235.857 317.4 235.802C316.56 235.781 314.76 234.838 312.1 233.407C310.87 232.746 309.24 231.869 308.59 231.652L308.6 231.663Z" fill="#0E2549"/>
<path d="M385.74 224.499C378.41 227.393 380.18 269.798 380.18 269.798C378.98 274.783 376.17 301.475 376.17 301.475L427.52 312.561L433.57 279.237C433.57 279.237 437.36 223.145 417.24 219.861C415.31 219.547 409.41 222.538 403.11 221.877C400.38 221.595 398.98 225.128 397.62 219.937C397.62 219.937 387.33 223.86 385.74 224.499Z" fill="#0E2549"/>
<path d="M431.19 349.938L430.52 378.136L430.1 378.114L400.65 376.293L399.32 362.346L396.76 376.066H368.29L371.9 333.173L382.47 312.561L400.66 303.23L409.83 298.527L410.99 301.29L430.4 348.041L431.19 349.938Z" fill="#091A33"/>
<path d="M397.66 275.314L392.78 220.869C389.42 220.869 375.07 230.655 375.07 230.655C374.84 230.156 362.82 253.944 359.51 262.797C359.13 263.816 341.77 243.172 341.87 244.396C341.87 244.396 331.63 247.777 331.7 249.717C331.77 251.657 347.61 284.688 359.28 290.649C361.44 291.754 373.75 283.225 374.4 270.546L372.81 301.821L367.54 371.2L393.29 371.243L397.04 306.601L397.67 275.303L397.66 275.314Z" fill="#A1C5E2"/>
<path d="M415.99 218.81L397.31 276.474C397.26 281.069 396.32 299.524 397.31 319.052C398.65 345.57 402.03 374.072 402.03 372.489C402.03 371.85 433.45 373.996 433.45 373.996L434.96 319.562C434.96 319.562 446.86 310.632 446.86 285.371C446.86 257.054 445.43 247.43 441.96 233.223C441.46 231.175 422.83 218.821 415.99 218.821V218.81Z" fill="#A1C5E2"/>
<path d="M405.5 172.536C402.45 172.46 395.04 172.189 394.35 178.02C393.56 184.673 393.59 193.376 393.67 197.97C393.7 199.78 394.95 201.297 396.61 201.525L415.16 204.104C416.86 204.343 418.45 203.161 418.86 201.352C420.24 195.272 423.06 182.387 422.62 180.317C421.12 173.295 410.34 172.644 405.51 172.536H405.5Z" fill="#0E2549"/>
<path d="M413.2 208.266C414.33 207.279 415.26 202.869 415.98 197.797C416 197.645 416.09 197.526 416.21 197.472C417.52 196.854 419.48 195.413 419.73 192.888C419.94 190.699 418.43 190.948 417.2 191.49C416.98 191.587 416.75 191.392 416.78 191.121C417.42 184.977 417.74 179.547 417.74 179.547L395.7 176.481C395.7 176.481 395.1 181.953 394.58 188.12C394.56 188.401 393.75 203.161 394.12 204.559C394.32 205.318 394.8 206.001 395.49 206.586C395.49 206.586 396.76 208.038 404.77 209.154L413.2 208.255V208.266Z" fill="white"/>
<path d="M404.78 209.631C404.78 209.631 404.74 209.631 404.73 209.631C397.16 208.58 395.49 207.214 395.23 206.954C394.45 206.282 393.95 205.524 393.73 204.711C393.33 203.194 394.16 188.239 394.17 188.098C394.68 181.997 395.28 176.491 395.29 176.437L395.34 175.971L418.2 179.147L418.17 179.58C418.17 179.58 417.84 184.966 417.23 190.981C418.29 190.547 419.09 190.536 419.6 190.959C420.06 191.338 420.25 191.999 420.15 192.931C419.86 195.933 417.44 197.385 416.39 197.884C415.5 204.158 414.54 207.68 413.46 208.623C413.28 208.786 413.01 208.753 412.86 208.547C412.71 208.352 412.74 208.06 412.93 207.897C413.44 207.453 414.45 205.545 415.56 197.721C415.6 197.418 415.78 197.158 416.04 197.038C416.94 196.616 419.06 195.359 419.3 192.834C419.34 192.433 419.33 191.902 419.08 191.696C418.8 191.468 418.18 191.555 417.36 191.913C417.12 192.021 416.85 191.978 416.64 191.815C416.43 191.642 416.32 191.36 416.35 191.067C416.88 185.985 417.19 181.357 417.28 179.948L396.07 177.001C395.91 178.453 395.43 183.102 395 188.163C394.95 188.737 394.19 203.172 394.53 204.429C394.7 205.069 395.11 205.665 395.75 206.228L395.79 206.272C395.79 206.272 397.23 207.637 404.81 208.699C405.04 208.732 405.21 208.959 405.18 209.219C405.15 209.458 404.97 209.62 404.76 209.62L404.78 209.631Z" fill="#0E2549"/>
<path d="M407.99 192.498C407.99 192.498 407.95 192.498 407.93 192.498C407.54 192.465 407.24 192.097 407.27 191.663L407.31 191.165C407.34 190.742 407.69 190.417 408.08 190.45C408.47 190.482 408.77 190.85 408.74 191.284L408.7 191.782C408.67 192.183 408.36 192.498 407.99 192.498Z" fill="#0E2549"/>
<path d="M398.31 191.468C398.31 191.468 398.25 191.468 398.23 191.468C397.84 191.414 397.56 191.035 397.61 190.612L397.67 190.027C397.72 189.604 398.07 189.301 398.46 189.355C398.85 189.409 399.13 189.788 399.08 190.211L399.02 190.796C398.98 191.186 398.67 191.479 398.31 191.479V191.468Z" fill="#0E2549"/>
<path d="M410.72 188.791C410.65 188.791 410.58 188.77 410.51 188.737C408.83 187.729 407.04 188.304 407.02 188.304C406.79 188.38 406.56 188.239 406.49 188C406.42 187.751 406.55 187.502 406.77 187.426C406.86 187.393 408.92 186.722 410.93 187.935C411.14 188.055 411.21 188.336 411.1 188.564C411.02 188.716 410.88 188.802 410.73 188.802L410.72 188.791Z" fill="#0E2549"/>
<path d="M401.72 197.916C401.72 197.916 401.62 197.916 401.58 197.895C401.26 197.775 399.66 197.103 399.6 196.052C399.56 195.261 399.66 195.077 400.84 192.714C401.1 192.205 401.4 191.598 401.78 190.85C401.96 190.417 402.38 189.171 402.33 188.412C402.33 188.38 402.25 188.217 401.92 188C400.96 187.383 398.79 186.906 397.42 187.556C397.2 187.654 396.95 187.556 396.86 187.318C396.77 187.079 396.86 186.808 397.08 186.711C398.63 185.985 401.11 186.396 402.37 187.22C402.88 187.556 403.16 187.935 403.18 188.347C403.26 189.507 402.58 191.176 402.55 191.241V191.273C402.16 192.032 401.85 192.649 401.59 193.159C400.46 195.413 400.42 195.489 400.45 195.998C400.46 196.28 401.22 196.778 401.86 197.017C402.08 197.103 402.2 197.364 402.12 197.613C402.06 197.808 401.89 197.927 401.72 197.927V197.916Z" fill="#0E2549"/>
<path d="M424.01 322.758C423.92 322.758 423.83 322.726 423.75 322.661L409.58 310.989C409.39 310.838 409.36 310.545 409.5 310.339C409.64 310.133 409.91 310.101 410.1 310.253L424.27 321.924C424.46 322.076 424.49 322.368 424.35 322.574C424.27 322.693 424.14 322.758 424.01 322.758Z" fill="#0E2549"/>
<path d="M374.11 320.017C373.95 320.017 373.8 319.919 373.73 319.768C373.62 319.54 373.71 319.258 373.92 319.15L389.17 310.762C389.38 310.643 389.64 310.74 389.74 310.968C389.85 311.195 389.76 311.477 389.55 311.586L374.3 319.973C374.24 320.006 374.17 320.028 374.11 320.028V320.017Z" fill="#0E2549"/>
<path d="M393.2 219.254L382.96 231.511L391.26 235.13L386.49 248.709L397.46 273.678C397.5 273.775 397.63 273.732 397.62 273.634L393.2 219.265V219.254Z" fill="white"/>
<path d="M397.53 274.187C397.34 274.187 397.15 274.068 397.07 273.873L386.02 248.72L390.71 235.391L382.23 231.695L393.54 218.16L398.05 273.591C398.07 273.862 397.92 274.1 397.68 274.176C397.63 274.187 397.59 274.198 397.54 274.198L397.53 274.187ZM386.95 248.688L397.03 271.619L392.86 220.36L383.69 231.337L391.81 234.87L386.95 248.688Z" fill="#0E2549"/>
<path d="M415.99 218.81L425.89 235.076L414.72 236.127L417.23 250.519L398.28 273.396C398.15 273.548 397.93 273.396 397.99 273.212L415.98 218.81H415.99Z" fill="white"/>
<path d="M398.16 273.927C398.05 273.927 397.94 273.894 397.85 273.829C397.6 273.667 397.5 273.342 397.6 273.049L415.88 217.791L426.64 235.477L415.23 236.55L417.69 250.671L398.6 273.721C398.48 273.862 398.32 273.938 398.16 273.938V273.927ZM416.1 219.839L398.84 272.03L416.77 250.378L414.21 235.705L425.13 234.675L416.1 219.839Z" fill="#0E2549"/>
<path d="M432.17 374.451C432.17 374.451 432.16 374.451 432.15 374.451L401.75 372.934L401.64 372.674C398.98 366.182 396.67 313.309 396.58 311.054L397.2 273.613C397.2 273.353 397.41 273.157 397.64 273.157C397.88 273.157 398.06 273.374 398.06 273.634L397.44 311.044C397.46 311.553 399.78 364.611 402.33 372.034L432.2 373.519C432.44 373.53 432.62 373.747 432.61 374.007C432.6 374.256 432.41 374.451 432.18 374.451H432.17Z" fill="#0E2549"/>
<path d="M400.51 295.98C400.51 296.728 401.07 297.346 401.77 297.346C402.47 297.346 403.03 296.739 403.03 295.98C403.03 295.222 402.47 294.615 401.77 294.615C401.07 294.615 400.51 295.222 400.51 295.98Z" fill="white"/>
<path d="M401.77 297.801C400.84 297.801 400.09 296.977 400.09 295.98C400.09 294.983 400.85 294.16 401.77 294.16C402.69 294.16 403.45 294.983 403.45 295.98C403.45 296.977 402.69 297.801 401.77 297.801ZM401.77 295.081C401.31 295.081 400.94 295.482 400.94 295.98C400.94 296.479 401.31 296.88 401.77 296.88C402.23 296.88 402.6 296.479 402.6 295.98C402.6 295.482 402.23 295.081 401.77 295.081Z" fill="#0E2549"/>
<path d="M392.17 371.666H367.08L367.11 371.167L374.81 259.535C374.83 259.275 375.04 259.091 375.27 259.113C375.51 259.134 375.68 259.351 375.66 259.611L367.99 370.745H392.16C392.4 370.745 392.59 370.951 392.59 371.211C392.59 371.471 392.4 371.677 392.16 371.677L392.17 371.666Z" fill="#0E2549"/>
<path d="M421.37 221.487L415.41 216.458L403.11 221.877L407.05 226.981L421.37 221.487Z" fill="#0E2549"/>
<path d="M406.92 227.523L402.41 221.682L415.49 215.917L422.25 221.628L406.92 227.512V227.523ZM403.81 222.061L407.19 226.428L420.49 221.324L415.35 216.979L403.81 222.061Z" fill="#0E2549"/>
<path d="M389.52 222.061L393.67 217.293L403.11 221.877L399.55 226.58L389.52 222.061Z" fill="#0E2549"/>
<path d="M399.68 227.144L388.78 222.224L393.56 216.729L403.79 221.703L399.67 227.144H399.68ZM390.25 221.888L399.42 226.027L402.42 222.061L393.77 217.856L390.25 221.898V221.888Z" fill="#0E2549"/>
<path d="M407.05 226.981L403.11 221.877L399.18 226.981L400.9 229.17L396.31 256.382L397.99 273.212L404.35 253.976L404.19 229.593L407.05 226.981Z" fill="#E2474B"/>
<path d="M380.38 463.423H358.81V470.066H380.38V463.423Z" fill="#0E2549"/>
<path d="M430.51 462.35H408.94V468.993H430.51V462.35Z" fill="#0E2549"/>
<path d="M380.5 463.889C380.5 463.889 380.44 463.889 380.41 463.889C380.18 463.835 380.03 463.596 380.08 463.347L389.67 411.828C387.64 412.348 381.98 413.638 380.11 412.326C379.74 412.066 379.51 411.709 379.44 411.286C379.38 410.907 379.47 410.527 379.7 410.191C380.75 408.674 384.92 407.894 386.95 407.591C385.18 406.106 384.4 405.044 384.63 404.415C384.86 403.798 385.67 403.917 385.94 403.949C388.06 404.253 389.82 405.542 390.69 406.279L393.04 393.752C393.09 393.502 393.31 393.34 393.54 393.394C393.77 393.448 393.92 393.687 393.87 393.936L391.23 408.057L390.67 407.482C390.67 407.482 388.5 405.261 385.83 404.881C385.69 404.86 385.58 404.86 385.51 404.86C385.81 405.38 386.99 406.518 388.31 407.547L389.23 408.262L388.11 408.393C386.28 408.598 381.32 409.422 380.38 410.766C380.26 410.939 380.26 411.069 380.27 411.145C380.29 411.253 380.34 411.416 380.57 411.568C382.14 412.662 388 411.362 390.12 410.777L390.78 410.592L380.92 463.553C380.88 463.77 380.7 463.921 380.5 463.921V463.889Z" fill="#A1C5E2"/>
<path d="M429.55 462.426C429.31 462.426 429.12 462.22 429.12 461.96L429.35 409.4C427.45 410.332 422.13 412.781 420.05 411.893C419.64 411.719 419.35 411.416 419.2 411.015C419.07 410.657 419.09 410.267 419.26 409.888C420.02 408.187 423.97 406.539 425.91 405.824C423.91 404.74 422.95 403.852 423.07 403.191C423.18 402.541 424 402.486 424.27 402.465C426.4 402.324 428.36 403.212 429.35 403.754L429.42 390.977C429.42 390.717 429.62 390.511 429.85 390.522C430.09 390.522 430.28 390.728 430.27 390.988L430.19 405.391L429.54 404.935C429.54 404.935 427.01 403.212 424.32 403.397C424.18 403.397 424.08 403.418 424 403.44C424.39 403.884 425.75 404.762 427.23 405.488L428.25 405.998L427.17 406.355C425.41 406.94 420.69 408.793 420.01 410.3C419.92 410.495 419.95 410.614 419.97 410.69C420.01 410.787 420.08 410.939 420.34 411.048C422.08 411.795 427.59 409.292 429.57 408.273L430.18 407.959L429.95 461.981C429.95 462.242 429.76 462.447 429.52 462.447L429.55 462.426Z" fill="#A1C5E2"/>
<path d="M418.05 181.314C418.05 181.314 395.89 183.189 388.65 176.903C384.52 173.316 389.64 165.102 393.43 164.582C396.28 164.191 399.27 168.841 402.27 169.22C404.58 169.512 410.01 170.715 412.99 171.366C419.03 172.688 421.17 178.388 418.05 181.325V181.314Z" fill="#0E2549"/>
<path d="M434.46 308.67L407.78 321.469L416.87 341.593L443.11 328.708L434.46 308.67Z" fill="white"/>
<path d="M416.67 342.2L407.2 321.231L434.67 308.053L443.68 328.925L416.67 342.189V342.2ZM408.36 321.686L417.07 340.976L442.54 328.47L434.25 309.266L408.36 321.686Z" fill="#0E2549"/>
<path d="M431.19 312.561C430.68 317.362 427.47 325.847 425.12 329.477C423.97 331.255 420.11 337.735 419.7 339.382C419.45 340.379 424.09 337.93 424.3 337.865L424.59 339.751C424.59 339.751 425.51 340.715 426.32 340.336C427.02 340.011 427.36 338.819 428.03 338.645C428.09 338.624 429.38 338.851 429.83 338.732C430.4 338.58 430.83 337.334 431.25 336.955C431.56 336.673 432.65 337.161 433.14 336.814C433.93 336.251 433.62 335.069 434.17 334.657C434.69 334.267 435.48 335.08 436.35 334.365C437.21 333.66 433.62 328.123 433.69 326.866C433.93 322.466 450.36 297.931 442.22 281.068C438.57 273.504 432.89 296.316 431.17 312.55L431.19 312.561Z" fill="white"/>
<path d="M425.92 340.9C425.07 340.9 424.32 340.13 424.29 340.098L424.19 339.989L423.97 338.537C420.62 340.163 419.85 340.282 419.46 339.924C419.29 339.773 419.23 339.523 419.29 339.274C419.74 337.486 423.78 330.745 424.78 329.217C427.05 325.717 430.26 317.318 430.77 312.507C432.16 299.383 436.39 279.952 440.38 279.15C441.23 278.977 441.99 279.551 442.62 280.863C448.82 293.705 440.92 311.087 436.68 320.418C435.29 323.474 434.19 325.89 434.14 326.898C434.12 327.31 434.85 328.816 435.38 329.911C436.67 332.588 437.37 334.127 436.63 334.733C435.98 335.275 435.33 335.145 434.91 335.059C434.7 335.015 434.51 334.983 434.43 335.037C434.32 335.124 434.26 335.384 434.2 335.665C434.1 336.142 433.96 336.792 433.39 337.193C433 337.475 432.48 337.41 432.02 337.356C431.85 337.334 431.61 337.313 431.51 337.323C431.4 337.443 431.25 337.692 431.12 337.909C430.81 338.429 430.45 339.025 429.94 339.166C429.57 339.263 428.91 339.198 428.27 339.112C428.2 339.112 428.14 339.09 428.1 339.09C427.91 339.177 427.7 339.458 427.51 339.74C427.24 340.119 426.94 340.542 426.5 340.737C426.31 340.824 426.12 340.856 425.93 340.856L425.92 340.9ZM424.98 339.523C425.2 339.718 425.74 340.119 426.15 339.924C426.38 339.816 426.6 339.502 426.82 339.209C427.12 338.786 427.44 338.342 427.93 338.212C428.02 338.19 428.07 338.19 428.36 338.234C428.66 338.277 429.47 338.375 429.73 338.31C429.91 338.255 430.22 337.757 430.4 337.454C430.59 337.128 430.77 336.825 430.98 336.641C431.26 336.381 431.67 336.435 432.11 336.478C432.38 336.511 432.79 336.554 432.92 336.467C433.21 336.261 433.28 335.915 433.37 335.503C433.46 335.08 433.56 334.603 433.95 334.322C434.32 334.051 434.71 334.127 435.06 334.192C435.43 334.267 435.74 334.322 436.08 334.062C436.17 333.563 435.21 331.58 434.63 330.377C433.78 328.621 433.26 327.505 433.29 326.877C433.35 325.685 434.43 323.311 435.92 320.038C440.1 310.849 447.87 293.748 441.87 281.318C441.43 280.408 440.99 279.996 440.54 280.082C439.15 280.364 437.26 284.569 435.48 291.331C433.81 297.66 432.37 305.625 431.62 312.626C431.1 317.557 427.81 326.172 425.48 329.759C424.21 331.721 420.99 337.193 420.25 339.144C420.71 339.036 421.67 338.667 423.62 337.714C424.05 337.508 424.14 337.464 424.21 337.443L424.66 337.323L425 339.545L424.98 339.523Z" fill="#0E2549"/>
<path d="M435.79 325.435C435.79 325.435 448.28 316.679 450.37 297.942C452.46 279.205 444.94 247.896 444.94 247.896L429.85 263.989C429.85 263.989 433.27 289.402 432.13 295.211C430.99 301.03 422.89 325.424 422.89 325.424H435.79V325.435Z" fill="#A1C5E2"/>
<path d="M435.79 325.901H422.34L422.48 325.316C423.82 319.832 425.56 315.108 427.24 310.534C429.53 304.281 431.52 298.885 431.92 293.13C433.13 275.65 427.76 261.215 427.71 261.074C427.62 260.836 427.72 260.565 427.94 260.467C428.16 260.37 428.41 260.489 428.5 260.717C428.56 260.858 434 275.498 432.77 293.195C432.36 299.09 430.26 304.812 428.04 310.87C426.43 315.259 424.77 319.778 423.46 324.969H435.8C436.04 324.969 436.23 325.175 436.23 325.435C436.23 325.695 436.04 325.901 435.8 325.901H435.79Z" fill="#0E2549"/>
<path d="M411.93 260.164V269.44L425.09 269.473V260.164H411.93Z" fill="white"/>
<path d="M425.52 269.939L411.51 269.906V259.709H425.52V269.939ZM412.36 268.985L424.66 269.007V260.63H412.36V268.974V268.985Z" fill="#0E2549"/>
<path d="M421.32 260.164H415.94C415.94 258.918 416.87 257.91 418.02 257.91H419.23C420.38 257.91 421.31 258.918 421.31 260.164H421.32Z" fill="white"/>
<path d="M421.74 260.63H415.51V260.164C415.51 258.668 416.64 257.444 418.02 257.444H419.23C420.61 257.444 421.74 258.668 421.74 260.164V260.63ZM416.42 259.709H420.83C420.64 258.939 420 258.376 419.23 258.376H418.02C417.26 258.376 416.61 258.939 416.42 259.709Z" fill="#0E2549"/>
<path d="M422.81 263.513H414.55C414.31 263.513 414.12 263.307 414.12 263.047C414.12 262.786 414.31 262.581 414.55 262.581H422.81C423.05 262.581 423.24 262.786 423.24 263.047C423.24 263.307 423.05 263.513 422.81 263.513Z" fill="#0E2549"/>
<path d="M421.32 265.983H415.79C415.55 265.983 415.36 265.777 415.36 265.517C415.36 265.257 415.55 265.051 415.79 265.051H421.32C421.56 265.051 421.75 265.257 421.75 265.517C421.75 265.777 421.56 265.983 421.32 265.983Z" fill="#0E2549"/>
<path d="M417.74 241.719C417.74 243.594 416.33 245.122 414.6 245.122C412.87 245.122 411.46 243.594 411.46 241.719C411.46 239.845 412.87 238.317 414.6 238.317C416.33 238.317 417.74 239.845 417.74 241.719Z" fill="#EBF4FE"/>
<path d="M414.6 245.588C412.63 245.588 411.03 243.854 411.03 241.719C411.03 239.585 412.63 237.851 414.6 237.851C416.57 237.851 418.17 239.585 418.17 241.719C418.17 243.854 416.57 245.588 414.6 245.588ZM414.6 238.783C413.1 238.783 411.89 240.105 411.89 241.719C411.89 243.334 413.11 244.656 414.6 244.656C416.09 244.656 417.31 243.334 417.31 241.719C417.31 240.105 416.09 238.783 414.6 238.783Z" fill="#0E2549"/>
<path d="M393.66 255.201L392.83 254.962C393.28 253.152 393.12 239.823 389.79 235.347C389.04 234.339 388.21 233.884 387.25 233.938C386.41 233.993 385.69 234.394 385.06 235.163C381.68 239.303 382.43 252.036 382.44 252.166L381.59 252.231C381.56 251.689 380.8 238.988 384.42 234.556C385.2 233.602 386.14 233.082 387.2 233.017C388.43 232.941 389.52 233.537 390.45 234.773C394.02 239.552 394.14 253.261 393.65 255.211L393.66 255.201Z" fill="#0E2549"/>
<path d="M393.1 256.349C392.57 256.349 392.14 255.883 392.14 255.309C392.14 254.735 392.57 254.269 393.1 254.269C393.63 254.269 394.06 254.735 394.06 255.309C394.06 255.883 393.63 256.349 393.1 256.349ZM393.1 255.201C393.04 255.201 393 255.255 393 255.309C393 255.363 393.05 255.417 393.1 255.417C393.15 255.417 393.2 255.363 393.2 255.309C393.2 255.255 393.15 255.201 393.1 255.201Z" fill="#0E2549"/>
<path d="M381.94 253.683C381.41 253.683 380.98 253.217 380.98 252.643C380.98 252.069 381.41 251.603 381.94 251.603C382.47 251.603 382.9 252.069 382.9 252.643C382.9 253.217 382.47 253.683 381.94 253.683ZM381.94 252.535C381.88 252.535 381.84 252.589 381.84 252.643C381.84 252.697 381.89 252.751 381.94 252.751C381.99 252.751 382.04 252.697 382.04 252.643C382.04 252.589 381.99 252.535 381.94 252.535Z" fill="#0E2549"/>
<path d="M387.64 233.624L386.83 233.342C386.85 233.277 388.84 226.591 388.97 220.49C389.03 217.759 390.45 214.248 396.89 213.066L397.03 213.977C392.32 214.844 389.89 217.043 389.82 220.511C389.69 226.753 387.66 233.559 387.64 233.635V233.624Z" fill="#0E2549"/>
<path d="M414.98 238.512L414.21 238.111C414.29 237.926 422.32 219.569 415.03 214.583L415.49 213.803C423.42 219.233 415.33 237.731 414.98 238.512Z" fill="#0E2549"/>
<path d="M393.77 193.863C393.77 193.863 391.52 203.952 394.18 206.564C396.85 209.165 408.18 210.595 410.21 209.609C412.25 208.634 415.83 197.223 415.83 197.223C415.83 197.223 411.31 199.076 408.8 199.054C406.29 199.032 400.07 199.13 397.24 197.233C395.27 195.911 393.76 193.863 393.76 193.863H393.77Z" fill="#0E2549"/>
<path d="M404.24 200.246C404.39 200.983 402.4 203.183 400.69 202.847C397.9 202.305 397.67 199.076 398.31 199.379C398.56 199.498 399.39 200.56 401.08 200.831C402.9 201.124 404.15 199.748 404.25 200.246H404.24Z" fill="white"/>
<path d="M522.29 489.182H25.56C25.32 489.182 25.13 488.976 25.13 488.716C25.13 488.456 25.32 488.25 25.56 488.25H522.28C522.52 488.25 522.71 488.456 522.71 488.716C522.71 488.976 522.52 489.182 522.28 489.182H522.29Z" fill="#205080"/>
<path d="M130.94 256.046L131.59 243.323H144.32L148.05 258.137L130.94 256.046Z" fill="white"/>
<path d="M93.23 427.065L83.61 472.06L70.3 485.27L92.43 481.25L91.44 471.41L113.57 426.295L93.23 427.065Z" fill="white"/>
<path d="M68.95 485.986L83.23 471.822L92.9 426.62L114.31 425.808L91.89 471.507L92.91 481.64L68.95 485.996V485.986ZM93.58 427.52L84 472.309L71.66 484.555L91.97 480.87L91 471.323L91.06 471.193L112.85 426.783L93.58 427.52Z" fill="#0E2549"/>
<path d="M154.95 426.295L152.79 472.06L166.1 485.27L143.97 481.25L144.96 471.41L139.32 426.295H154.95Z" fill="white"/>
<path d="M167.46 485.985L143.5 481.629L144.53 471.41L138.83 425.829H155.4L153.22 471.865L167.45 485.985H167.46ZM144.44 480.86L164.75 484.544L152.36 472.244L154.51 426.75H139.82L145.4 471.399L144.44 480.86Z" fill="#0E2549"/>
<path d="M143.45 474.617C142.38 483.222 144.73 488.651 144.73 488.651H146.76L147.36 482.268L154.98 488.695L171.35 488.651V486.647C171.35 486.647 165.64 482.388 165.03 483.753C163.14 487.947 144.05 469.762 143.45 474.607V474.617Z" fill="#E2474B"/>
<path d="M169.55 435.799L73.56 434.271C73.56 434.271 112.18 339.729 117.06 318.456C118.43 312.474 119.82 308.183 121.1 305.094C124.39 297.216 127 297.259 127 297.259L157.51 297.584C157.51 297.584 163.08 300.814 165.9 315.953C165.99 316.43 166.08 316.928 166.16 317.427C168.88 333.834 169.55 435.799 169.55 435.799Z" fill="#E2474B"/>
<path d="M92.95 474.617C94.02 483.222 91.67 488.651 91.67 488.651H89.64L89.04 482.268L81.54 488.695L65.05 488.651V486.647C65.05 486.647 70.76 482.388 71.37 483.753C73.26 487.947 92.35 469.762 92.95 474.607V474.617Z" fill="#E2474B"/>
<path d="M141.29 192.975C141.29 192.975 149.31 194.21 153.72 202.619C158.14 211.029 157.53 212.351 155.38 217.542C153.23 222.733 152.05 225.529 155.27 228.813C157.33 230.915 156.68 235.705 155.34 237.265C153.42 239.498 149.97 244.06 150.51 246.564C152.47 255.612 158.06 258.614 158.06 258.614L110.84 258.668C110.84 258.668 98.49 253.293 105.9 237.168C107.11 234.534 113.3 231.446 114.2 228.195C114.82 225.973 112.82 219.601 114.57 217.141C117.78 212.644 120.06 213.045 120.02 207.529C120 204.57 124.35 188.434 141.3 192.985L141.29 192.975Z" fill="#0E2549"/>
<path d="M149.71 244.916L136.18 238.36L136.11 238.273C135.71 237.721 133.76 234.881 134.49 233.364C134.78 232.757 135.41 232.475 136.35 232.53C139.99 232.725 151.38 237.363 151.86 237.558L152.26 237.721L149.7 244.927L149.71 244.916ZM136.73 237.601L149.24 243.67L151.17 238.252C149.08 237.417 139.45 233.613 136.32 233.44C135.92 233.418 135.41 233.462 135.26 233.776C134.92 234.491 135.9 236.409 136.73 237.601Z" fill="#0E2549"/>
<path d="M129.61 221.649C129.61 221.649 130.22 237.786 129.65 238.642C127.7 241.546 121.94 244.104 120.62 244.494C119.3 244.873 142.14 254.323 142.14 254.323L153.1 248.503L148.87 244.374C148.87 244.374 145.32 242.435 143.76 240.69C142.2 238.945 141.44 222.516 141.44 222.516L129.61 221.66V221.649Z" fill="white"/>
<path d="M142.17 254.81L142 254.735C141.95 254.713 136.53 252.47 131.19 250.161C120.11 245.361 120.13 244.981 120.15 244.504C120.16 244.277 120.31 244.093 120.52 244.028C122.01 243.594 127.48 241.069 129.3 238.382C129.65 237.406 129.42 227.62 129.2 221.66L129.18 221.14L141.87 222.061L141.89 222.473C142.18 228.758 143.03 239.162 144.09 240.343C145.58 242.012 149.05 243.919 149.09 243.941L149.14 243.973L153.88 248.612L142.18 254.821L142.17 254.81ZM121.47 244.667C124.09 246.173 135.03 250.855 142.13 253.803L152.36 248.373L148.64 244.743C148.17 244.483 144.97 242.684 143.46 240.993C141.93 239.281 141.18 225.876 141.04 222.939L130.06 222.148C130.25 227.295 130.57 238.056 130 238.913C128.22 241.568 123.53 243.865 121.47 244.678V244.667Z" fill="#0E2549"/>
<path d="M130.12 223.437C128.57 221.899 125.9 218.875 126.17 216.404C126.44 213.933 128.98 214.659 129.72 215.18C130.21 215.526 131.44 203.161 131.44 203.161L149.12 205.123C149.12 205.123 150.19 216.122 148.59 222.787C146.98 229.484 143.84 230.763 139.24 230.211C136.96 229.94 135.26 229.105 133.96 228.086L130.12 223.448V223.437Z" fill="white"/>
<path d="M141.05 230.785C140.44 230.785 139.81 230.742 139.19 230.666C137.1 230.416 135.26 229.669 133.71 228.455C133.52 228.303 133.48 228.011 133.61 227.805C133.75 227.599 134.02 227.555 134.21 227.696C135.64 228.813 137.34 229.506 139.28 229.734C143.59 230.254 146.58 229.246 148.17 222.657C149.57 216.827 148.89 207.507 148.72 205.524L131.81 203.649C130.64 215.212 130.18 215.451 129.93 215.581C129.78 215.656 129.61 215.646 129.48 215.548C129.06 215.255 127.97 214.898 127.26 215.255C126.88 215.451 126.66 215.841 126.59 216.437C126.41 218.073 127.8 220.49 130.4 223.08C130.57 223.253 130.59 223.546 130.43 223.73C130.27 223.914 130 223.936 129.83 223.763C127.81 221.758 125.47 218.853 125.75 216.328C125.88 215.169 126.45 214.649 126.91 214.41C127.74 213.988 128.84 214.204 129.55 214.54C129.91 213.11 130.55 207.832 131.02 203.086L131.07 202.63L149.51 204.668L149.55 205.047C149.59 205.502 150.61 216.198 149.01 222.885C147.46 229.333 144.39 230.774 141.06 230.774L141.05 230.785Z" fill="#0E2549"/>
<path d="M158.7 273.504L157.52 297.584L145.67 297.812C145.67 297.812 122.27 299.09 116.51 294.16C107.92 286.823 104.01 257.14 113.2 246.91C116.31 243.442 119.06 243.085 120.58 243.085C125.15 243.085 145.13 263.144 150.77 243.334C151.58 240.484 157.76 244.049 159.5 245.545" fill="#2E6B99"/>
<path d="M145.59 217.423C145.59 217.423 145.58 217.423 145.57 217.423C145.18 217.423 144.87 217.054 144.88 216.632V216.003C144.9 215.58 145.22 215.255 145.61 215.255C145.61 215.255 145.62 215.255 145.63 215.255C146.02 215.255 146.33 215.624 146.32 216.046V216.675C146.3 217.098 145.98 217.423 145.59 217.423Z" fill="#0E2549"/>
<path d="M137.75 216.469C137.75 216.469 137.74 216.469 137.73 216.469C137.34 216.469 137.03 216.101 137.04 215.678V215.05C137.06 214.627 137.38 214.28 137.78 214.302C138.17 214.302 138.48 214.67 138.47 215.093V215.721C138.45 216.144 138.13 216.469 137.74 216.469H137.75Z" fill="#0E2549"/>
<path d="M135.5 213.207C135.33 213.207 135.18 213.099 135.11 212.925C135.02 212.687 135.11 212.416 135.34 212.319C137.17 211.473 138.9 212.264 138.97 212.297C139.19 212.394 139.29 212.676 139.19 212.904C139.1 213.142 138.85 213.251 138.63 213.142C138.63 213.142 137.16 212.481 135.67 213.164C135.62 213.186 135.56 213.196 135.5 213.196V213.207Z" fill="#0E2549"/>
<path d="M143.02 221.205C142.63 221.205 142.29 221.107 142.16 220.988L141.95 220.815L141.99 220.501C142.04 220.251 142.27 220.089 142.5 220.143C142.57 220.154 142.63 220.186 142.68 220.23C142.85 220.284 143.32 220.327 143.59 220.121C143.69 220.045 143.82 219.894 143.81 219.493C143.8 219.103 143.69 218.604 143.54 217.976C143.45 217.564 143.34 217.109 143.24 216.578C142.94 214.952 142.94 214.085 143.26 213.576C143.52 213.164 143.91 213.088 144.22 213.034C144.27 213.034 144.32 213.012 144.36 213.001C145.52 212.741 147.47 213.565 147.69 213.652C147.91 213.749 148.02 214.02 147.93 214.248C147.84 214.486 147.6 214.605 147.38 214.508C146.85 214.28 145.31 213.727 144.54 213.901C144.48 213.912 144.43 213.923 144.38 213.933C144.14 213.977 144.03 214.009 143.98 214.085C143.89 214.237 143.78 214.724 144.09 216.383C144.19 216.892 144.29 217.347 144.38 217.748C144.53 218.431 144.66 218.962 144.67 219.46C144.69 220.165 144.42 220.706 143.92 220.988C143.64 221.14 143.33 221.194 143.03 221.194L143.02 221.205ZM142.82 220.652C142.82 220.652 142.82 220.685 142.82 220.696C142.82 220.685 142.82 220.663 142.82 220.652Z" fill="#0E2549"/>
<path d="M162.77 311.163C162.77 311.163 162.73 311.163 162.7 311.163L147.84 308.66C147.61 308.616 147.45 308.389 147.48 308.129C147.52 307.879 147.74 307.706 147.97 307.738L162.83 310.242C163.06 310.285 163.22 310.513 163.19 310.773C163.16 311 162.98 311.163 162.77 311.163Z" fill="#0E2549"/>
<path d="M145.26 282.889C145.26 282.889 145.21 282.889 145.19 282.889C144.96 282.846 144.8 282.607 144.84 282.358C147.65 264.054 141.66 253.142 141.6 253.033C141.48 252.817 141.54 252.535 141.74 252.394C141.94 252.264 142.2 252.329 142.33 252.546C142.39 252.654 148.54 263.87 145.68 282.51C145.65 282.737 145.46 282.9 145.26 282.9V282.889Z" fill="#0E2549"/>
<path d="M151.54 205.242C151.54 205.242 133.89 207.323 129.72 215.602C129.72 215.602 129.15 215.201 128.41 215.18C127.45 215.147 126.98 215.429 126.98 215.429L129.67 200.972L151.53 205.242H151.54Z" fill="#0E2549"/>
<path d="M159.92 312.994C159.87 313.265 160.47 322.498 160.58 323.246C160.17 325.023 158.41 329.402 158.75 330.171C159.18 331.125 161.75 327.061 161.75 327.061C161.75 327.061 162.98 330.052 163.08 330.984C163.26 332.707 163.93 337.486 164.45 338.364C164.6 338.613 165.89 337.399 165.89 337.399C165.89 337.399 167.64 331.688 167.67 329.846C167.68 329.011 165.3 325.403 164.55 323.821C164.54 323.268 164.53 322.596 164.55 322.195C164.66 319.464 170.07 312.702 167.94 307.359C165.81 302.016 159.16 310.599 159.92 312.994Z" fill="white"/>
<path d="M164.52 338.873C164.52 338.873 164.46 338.873 164.43 338.873C164.28 338.851 164.15 338.765 164.07 338.624C163.42 337.529 162.74 332.067 162.63 331.038C162.57 330.496 162.04 329.044 161.65 328.025C160.7 329.445 159.59 330.832 158.89 330.789C158.65 330.767 158.45 330.615 158.35 330.377C158.07 329.759 158.47 328.383 159.38 325.609C159.68 324.687 159.98 323.799 160.12 323.214C160.01 322.097 159.48 314.36 159.47 313.081C158.95 311.076 161.99 306.568 164.65 305.441C166.27 304.758 167.62 305.387 168.33 307.175C169.83 310.935 167.81 315.335 166.34 318.532C165.63 320.071 165.02 321.404 164.99 322.217C164.98 322.52 165.12 322.986 165.13 323.658C165.4 324.211 165.72 325.034 166.2 325.858C167.51 328.123 168.13 329.25 168.12 329.857C168.09 331.753 166.35 337.172 166.22 337.378C165.53 338.516 164.71 338.884 164.53 338.884L164.52 338.873ZM161.83 326.075L162.15 326.855C162.28 327.169 163.41 329.933 163.51 330.93C163.71 332.848 164.27 336.565 164.68 337.789C165.57 337.649 167.2 331.428 167.22 329.824C167.21 329.402 166.1 327.494 165.43 326.346C164.91 325.457 164.23 323.886 164.23 323.886C164.23 323.886 164.07 322.498 164.09 322.162C164.13 321.155 164.75 319.8 165.54 318.099C167.02 314.891 168.86 310.903 167.51 307.543C166.98 306.221 166.15 305.82 164.96 306.319C162.48 307.359 159.93 311.607 160.32 312.832L160.36 312.951L160.34 313.049C160.33 313.742 161.01 323.257 161.01 323.257C161.01 323.257 160.53 324.926 160.2 325.923C159.82 327.082 159.21 328.925 159.13 329.694C159.61 329.293 160.54 328.101 161.37 326.779L161.81 326.075H161.83Z" fill="#122859"/>
<path d="M138.14 222.852C138.14 222.852 141.57 227.165 144.01 223.416C144.01 223.416 143.14 222.592 141.77 223.08C141.77 223.08 140.43 222.375 138.14 222.852Z" fill="#E2474B"/>
<path d="M165.9 315.942C165.02 316.419 164.06 317.448 163.16 319.464C160.4 325.598 157.4 322.867 157.4 322.867L157.51 316.3H155.34C155.34 316.3 152.25 314.934 150.58 318.229C148.92 321.523 145.68 321.935 144.82 321.957C143.96 321.967 146.22 301.247 146.22 301.247L122.88 301.41C125.05 297.248 127 297.248 127 297.248L157.51 297.573C157.51 297.573 163.08 300.803 165.9 315.942Z" fill="#C13344"/>
<path d="M153.74 287.061C153.74 287.061 158.87 288.503 161.72 287.061C164.57 285.62 164.19 283.03 165.43 283.496C166.66 283.973 165.6 286.812 165.6 286.812C165.6 286.812 167.33 287.094 171.71 283.128C172.28 282.607 173.03 287.289 171.6 289.12C170.17 290.952 167.8 293.444 163.81 293.542C159.82 293.639 152.32 294.16 152.32 294.16L153.74 287.061Z" fill="white"/>
<path d="M140.39 264.726C141.257 264.726 141.96 263.965 141.96 263.025C141.96 262.085 141.257 261.323 140.39 261.323C139.523 261.323 138.82 262.085 138.82 263.025C138.82 263.965 139.523 264.726 140.39 264.726Z" fill="white"/>
<path d="M155.03 295.796L157.22 295.514L159.55 323.105L169.08 324.102C169.08 324.102 169.79 254.865 161.3 246.26C158.43 243.345 152.92 242.586 151.71 242.749" fill="#2E6B99"/>
<path d="M141.32 274.566C140.22 274.566 139.33 273.602 139.33 272.41C139.33 271.218 140.22 270.253 141.32 270.253C142.42 270.253 143.31 271.218 143.31 272.41C143.31 273.602 142.42 274.566 141.32 274.566ZM141.32 271.174C140.69 271.174 140.18 271.727 140.18 272.41C140.18 273.092 140.69 273.645 141.32 273.645C141.95 273.645 142.46 273.092 142.46 272.41C142.46 271.727 141.95 271.174 141.32 271.174Z" fill="#0E2549"/>
<path d="M151.78 294.322L153.41 286.693L153.84 286.801C153.84 286.801 158.82 288.091 161.48 286.823C162.89 286.151 163.44 285.187 163.84 284.493C164.19 283.875 164.59 283.171 165.49 283.485C165.81 283.604 166.06 283.832 166.21 284.168C166.51 284.84 166.33 285.815 166.14 286.476C166.93 286.259 168.58 285.555 171.32 283.214C171.56 283.019 171.88 283.03 172.1 283.268C172.75 283.93 173.2 287.744 171.81 289.424C170.32 291.212 167.87 293.607 163.75 293.704C159.84 293.802 152.42 294.279 152.34 294.279L151.78 294.311V294.322Z" fill="white"/>
<path d="M151.78 294.658L153.42 286.487L153.85 286.606C153.85 286.606 158.86 287.983 161.54 286.639C162.96 285.924 163.51 284.894 163.91 284.135C164.27 283.464 164.67 282.716 165.57 283.052C165.9 283.171 166.14 283.431 166.29 283.778C166.59 284.493 166.41 285.544 166.22 286.249C167.01 286.021 168.67 285.263 171.43 282.759C171.67 282.542 171.99 282.564 172.22 282.813C172.88 283.529 173.32 287.614 171.93 289.402C170.44 291.32 167.97 293.889 163.83 293.997C159.89 294.095 152.43 294.604 152.35 294.615L151.79 294.658H151.78ZM154.07 287.614L152.86 293.661C154.68 293.542 160.49 293.163 163.8 293.076C167.6 292.978 169.88 290.594 171.27 288.817C172.27 287.527 172.02 284.612 171.72 283.702C167.5 287.462 165.72 287.3 165.53 287.257L165 287.17L165.2 286.628C165.44 285.978 165.74 284.721 165.51 284.157C165.46 284.038 165.39 283.962 165.28 283.919C165.1 283.854 165.05 283.832 164.65 284.591C164.22 285.403 163.57 286.628 161.9 287.462C159.41 288.72 155.39 287.918 154.07 287.603V287.614Z" fill="#0E2549"/>
<path d="M140.11 283.453L139.5 297.953L157.51 297.573V284.742L140.11 283.453Z" fill="#2E6B99"/>
<path d="M157.51 285.208C157.51 285.208 157.49 285.208 157.48 285.208C154.6 284.992 129.27 283.019 126.95 280.711C124.59 278.37 125 268.498 125.06 267.371C125.07 267.11 125.28 266.926 125.51 266.937C125.75 266.948 125.93 267.165 125.91 267.425C125.77 270.34 125.78 278.294 127.53 280.028C129.12 281.61 146.35 283.442 157.54 284.287C157.78 284.309 157.95 284.526 157.94 284.786C157.92 285.035 157.74 285.219 157.51 285.219V285.208Z" fill="#0E2549"/>
<path d="M140.39 265.192C139.29 265.192 138.4 264.228 138.4 263.036C138.4 261.844 139.29 260.879 140.39 260.879C141.49 260.879 142.38 261.844 142.38 263.036C142.38 264.228 141.49 265.192 140.39 265.192ZM140.39 261.8C139.76 261.8 139.25 262.353 139.25 263.036C139.25 263.718 139.76 264.271 140.39 264.271C141.02 264.271 141.53 263.718 141.53 263.036C141.53 262.353 141.02 261.8 140.39 261.8Z" fill="#0E2549"/>
<path d="M141.32 274.111C142.187 274.111 142.89 273.349 142.89 272.41C142.89 271.47 142.187 270.708 141.32 270.708C140.453 270.708 139.75 271.47 139.75 272.41C139.75 273.349 140.453 274.111 141.32 274.111Z" fill="white"/>
<path d="M156.12 283.171C156.23 283.171 156.52 282.889 156.52 282.889C156.02 275.227 155.26 267.479 155.11 265.908C155.11 265.908 155.11 265.886 155.11 265.875C155.07 265.637 154.87 265.474 154.64 265.496C154.41 265.528 154.24 265.756 154.26 266.005C154.76 271.044 155.3 277.232 155.66 282.878C155.66 282.878 156.02 283.16 156.12 283.16V283.171Z" fill="#0E2549"/>
<path d="M155.66 282.9C155.66 282.9 155.66 282.922 155.66 282.933C155.7 283.171 155.9 283.344 156.13 283.312C156.37 283.279 156.54 283.052 156.51 282.802C156.48 282.532 156.46 282.25 156.43 281.979" fill="#0E2549"/>
<rect x="141" y="103.889" width="60" height="65.022" rx="30" fill="white"/>
<path d="M169.083 143.776H163.309C162.738 143.776 162.477 143.003 162.913 142.605L164.975 140.718C167.024 138.862 168.47 137.197 169.315 135.727C170.16 134.257 170.583 132.684 170.583 131.005C170.583 129.327 170.237 127.981 169.548 126.728C168.856 125.478 167.899 124.49 166.672 123.767C165.444 123.046 164.057 122.683 162.509 122.683C161.128 122.683 159.843 122.987 158.652 123.591C157.461 124.198 156.484 125.024 155.724 126.068C154.961 127.112 154.472 128.306 154.258 129.648C154.14 130.371 154.116 131.015 154.187 131.581C154.235 132.356 154.479 132.974 154.92 133.438C155.361 133.901 155.914 134.135 156.582 134.135C157.249 134.135 157.761 133.929 158.189 133.517C158.617 133.105 158.879 132.55 158.976 131.853L159.047 131.389C159.071 131.183 159.095 130.963 159.119 130.731C159.19 130.062 159.374 129.486 159.672 129.008C159.97 128.531 160.344 128.163 160.798 127.906C161.249 127.648 161.775 127.52 162.369 127.52C163.346 127.52 164.13 127.861 164.727 128.545C165.321 129.228 165.619 130.139 165.619 131.272C165.619 132.305 165.358 133.264 164.833 134.154C164.307 135.044 163.391 136.109 162.081 137.347L154.866 143.97C154.198 144.565 153.865 145.286 153.865 146.138C153.865 146.836 154.096 147.442 154.561 147.957C155.026 148.474 155.592 148.732 156.257 148.732L169.081 148.692C169.773 148.692 170.337 148.46 170.778 147.994C171.219 147.531 171.439 146.936 171.439 146.215C171.439 145.494 171.219 144.939 170.778 144.473C170.337 144.01 169.771 143.776 169.081 143.776H169.083Z" fill="#1348BA"/>
<path d="M180.876 143.188H178.4C177.708 143.188 177.155 142.95 176.738 142.472C176.321 141.994 176.113 141.435 176.113 140.789C176.113 140.145 176.323 139.576 176.738 139.087C177.155 138.597 177.708 138.352 178.4 138.352H180.876C181.216 138.352 181.488 138.054 181.488 137.689V134.976C181.488 134.229 181.719 133.602 182.184 133.098C182.648 132.595 183.215 132.344 183.88 132.344C184.546 132.344 185.149 132.595 185.613 133.098C186.078 133.602 186.309 134.227 186.309 134.976V137.689C186.309 138.057 186.584 138.352 186.921 138.352H189.397C190.089 138.352 190.642 138.597 191.059 139.087C191.476 139.576 191.684 140.145 191.684 140.789C191.684 141.432 191.474 141.994 191.059 142.472C190.642 142.95 190.089 143.188 189.397 143.188H186.921C186.582 143.188 186.309 143.486 186.309 143.851V146.599C186.309 147.348 186.078 147.98 185.613 148.495C185.149 149.011 184.572 149.27 183.88 149.27C183.262 149.27 182.674 149.018 182.231 148.549C181.734 148.025 181.486 147.374 181.486 146.602V143.853C181.486 143.486 181.211 143.191 180.874 143.191L180.876 143.188Z" fill="#E30613"/>
<path d="M174.685 139.906L180.773 126.246C180.891 125.937 180.952 125.628 180.952 125.317C180.952 124.595 180.714 123.975 180.237 123.46C179.759 122.945 179.189 122.685 178.523 122.685C178.024 122.685 177.576 122.847 177.183 123.17C176.79 123.493 176.487 123.898 176.273 124.389L169.665 139.358C169.522 139.745 169.451 140.119 169.451 140.48C169.451 141.177 169.688 141.784 170.166 142.299C170.641 142.816 171.201 143.074 171.845 143.074H174.786C175.031 143.074 175.206 142.757 175.044 142.561C174.629 142.055 174.296 140.828 174.691 139.906H174.685Z" fill="#1348BA"/>
</g>
<defs>
<clipPath id="clip0_1081_10012">
<rect width="552" height="492" fill="white"/>
</clipPath>
</defs>
</svg>
