<svg width="341" height="225" viewBox="0 0 341 225" fill="none" xmlns="http://www.w3.org/2000/svg">
<g clip-path="url(#clip0_1163_5973)">
<path d="M266.55 52.48C266.55 52.48 266.57 52.44 266.55 52.44C266.53 52.44 266.53 52.48 266.55 52.48Z" fill="#CFD5EE"/>
<path d="M319.56 28.26H192.71L193.78 25.83C196.24 20.24 201.77 16.63 207.88 16.63H303.98C309.51 16.63 314.62 19.59 317.36 24.4L319.56 28.26Z" fill="#CFD5EE"/>
<path d="M214.06 0.0599976H212.65V17.12H214.06V0.0599976Z" fill="#CFD5EE"/>
<path d="M299.62 0.0599976H298.21V17.12H299.62V0.0599976Z" fill="#CFD5EE"/>
<path d="M163.35 160.42H-1.46997V169.1H163.35V160.42Z" fill="#ABB6D8"/>
<g opacity="0.45">
<path d="M71.4501 169.1H121.13H152.69V13.46H71.4501V169.1Z" fill="#ABB6D8"/>
</g>
<path d="M77.3801 169.1H120.91H148.56V17.96H77.3801V169.1Z" fill="#90AADE"/>
<path d="M149.5 168.21V24.06C149.5 22.11 149.54 20.16 149.5 18.22C149.5 18.13 149.5 18.05 149.5 17.96C149.5 17.46 149.07 17.03 148.57 17.03H86.16C83.28 17.03 80.38 16.91 77.5 17.03C77.46 17.03 77.42 17.03 77.38 17.03C76.88 17.03 76.45 17.46 76.45 17.96V162.12C76.45 164.07 76.41 166.02 76.45 167.96C76.45 168.05 76.45 168.13 76.45 168.22C76.45 169.42 78.31 169.42 78.31 168.22V24.06C78.31 22.12 78.42 20.15 78.31 18.22C78.31 18.14 78.31 18.05 78.31 17.96C78 18.27 77.69 18.58 77.38 18.89H145.66C146.56 18.89 147.55 19.01 148.44 18.89C148.48 18.89 148.52 18.89 148.56 18.89C148.25 18.58 147.94 18.27 147.63 17.96V162.12C147.63 164.07 147.59 166.02 147.63 167.96C147.63 168.05 147.63 168.13 147.63 168.22C147.63 169.42 149.49 169.42 149.49 168.22L149.5 168.21Z" fill="#90AADE"/>
<path opacity="0.19" d="M148.56 17.96H77.3801V169.1H148.56V17.96Z" stroke="white" stroke-width="0.82" stroke-miterlimit="10"/>
<path d="M141.78 25.5H84.8601V168.84H141.78V25.5Z" fill="white"/>
<path d="M87.9801 25.5H84.8601V168.84H87.9801V25.5Z" fill="#8197D0"/>
<path d="M88.17 26.21L128.08 29.91V165.33L88.17 168.14V26.21Z" fill="#546A9B"/>
<path d="M122.87 38.51C119.81 38.12 116.75 37.73 113.69 37.34C108.85 36.73 104.02 36.11 99.1801 35.5C98.0601 35.36 96.93 35.21 95.81 35.07C95.66 35.05 95.52 35.22 95.52 35.36V150.86C95.52 152.42 95.49 153.98 95.52 155.54C95.52 155.61 95.52 155.68 95.52 155.74C95.52 155.89 95.65 156.03 95.81 156.03L104.97 155.63C109.83 155.42 114.69 155.21 119.55 155C120.66 154.95 121.77 154.9 122.87 154.86C123.02 154.86 123.16 154.73 123.16 154.57V43.49C123.16 41.99 123.19 40.49 123.16 38.98C123.16 38.92 123.16 38.85 123.16 38.79C123.16 38.42 122.59 38.42 122.59 38.79V152.82C122.59 153.33 122.53 153.88 122.59 154.38C122.59 154.44 122.59 154.51 122.59 154.57L122.88 154.28C119.83 154.41 116.78 154.54 113.72 154.68C108.86 154.89 104 155.1 99.14 155.31C98.03 155.36 96.9201 155.41 95.8201 155.45C95.9201 155.55 96.0101 155.64 96.1101 155.74V37.17C96.1101 36.64 96.1701 36.08 96.1101 35.56C96.1101 35.49 96.1101 35.42 96.1101 35.36C96.0101 35.46 95.9201 35.55 95.8201 35.65C98.8801 36.04 101.94 36.43 105 36.82C109.84 37.43 114.67 38.05 119.51 38.66C120.63 38.8 121.76 38.95 122.88 39.09C123.24 39.14 123.24 38.56 122.88 38.52L122.87 38.51Z" fill="#627EAF"/>
<path d="M119.17 44.57L100.98 42.86V68.53L119.17 68.29V44.57Z" fill="#627EAF"/>
<path opacity="0.19" d="M148.56 17.96L141.78 25.5" stroke="#E0EEF7" stroke-width="0.82" stroke-miterlimit="10"/>
<path opacity="0.19" d="M77.3801 17.96L84.8601 25.5" stroke="white" stroke-width="0.82" stroke-miterlimit="10"/>
<mask id="mask0_1163_5973" style="mask-type:luminance" maskUnits="userSpaceOnUse" x="-2" y="0" width="87" height="184">
<path d="M84.21 0.0599976H-1.46997V183.12H84.21V0.0599976Z" fill="white"/>
</mask>
<g mask="url(#mask0_1163_5973)">
<path d="M18.62 144.83V106.64C18.62 101.69 22.24 97.69 26.7 97.69H51.61C56.07 97.69 59.69 101.7 59.69 106.64V144.83H18.62Z" fill="#ABB6D8"/>
<path d="M59.69 106.64V108.2C59.69 103.26 56.07 99.25 51.61 99.25H26.7C22.24 99.25 18.62 103.26 18.62 108.2V106.64C18.62 101.7 22.24 97.69 26.7 97.69H51.61C56.07 97.69 59.69 101.7 59.69 106.64Z" fill="#C1CDEA"/>
<path opacity="0.38" d="M59.69 147.02H18.62V148.58H59.69V147.02Z" fill="#371F74"/>
<path d="M59.69 145.48V147.41C59.69 149.22 58.22 150.69 56.41 150.69H21.9C20.09 150.69 18.62 149.22 18.62 147.41V145.48C18.62 143.67 20.09 142.2 21.9 142.2H56.41C58.22 142.2 59.69 143.67 59.69 145.48Z" fill="#8FA0C9"/>
<path d="M-27.7 144.83V106.64C-27.7 101.69 -24.08 97.69 -19.62 97.69H5.29005C9.75005 97.69 13.37 101.7 13.37 106.64V144.83H-27.7Z" fill="#ABB6D8"/>
<path d="M13.37 106.64V108.2C13.37 103.26 9.75005 99.25 5.29005 99.25H-19.62C-24.08 99.25 -27.7 103.26 -27.7 108.2V106.64C-27.7 101.7 -24.08 97.69 -19.62 97.69H5.29005C9.75005 97.69 13.37 101.7 13.37 106.64Z" fill="#C1CDEA"/>
<path opacity="0.38" d="M13.37 147.02H-27.7V148.58H13.37V147.02Z" fill="#371F74"/>
<path d="M13.37 145.48V147.41C13.37 149.22 11.9001 150.69 10.09 150.69H-24.42C-26.23 150.69 -27.7 149.22 -27.7 147.41V145.48C-27.7 143.67 -26.23 142.2 -24.42 142.2H10.09C11.9001 142.2 13.37 143.67 13.37 145.48Z" fill="#8FA0C9"/>
<path d="M14.9102 172.22L13.9102 170.77V158.79L15.8302 160.04L14.9102 172.22Z" fill="#546A9B"/>
<path d="M18.63 138.59H12.3V160.94H18.63V138.59Z" fill="#7C8FB5"/>
<path d="M16.7502 160.94H14.9102V172.22H16.7502V160.94Z" fill="#7186BC"/>
<path d="M18.62 129.06V139.49C18.62 141.24 17.21 142.65 15.46 142.65C14.59 142.65 13.8 142.3 13.23 141.73C12.66 141.16 12.3 140.36 12.3 139.49V129.06H18.63H18.62Z" fill="#8FA0C9"/>
<path d="M18.62 129.06V131.44C18.51 131.46 18.39 131.47 18.27 131.47H12.64C12.52 131.47 12.41 131.46 12.29 131.44V129.06H18.62Z" fill="#7C8FB5"/>
<path d="M17.6501 130.34H13.2601C11.7901 130.34 10.6001 129.15 10.6001 127.68V126.68C10.6001 125.21 11.7901 124.02 13.2601 124.02H17.6501C19.1201 124.02 20.3101 125.21 20.3101 126.68V127.68C20.3101 129.15 19.1201 130.34 17.6501 130.34Z" fill="#8FA0C9"/>
<path d="M20.3101 126.05V126.75C20.3101 125.62 19.4001 124.71 18.2701 124.71H12.6401C11.5101 124.71 10.6001 125.62 10.6001 126.75V126.05C10.6001 124.92 11.5201 124.01 12.6401 124.01H18.2701C19.4001 124.01 20.3101 124.92 20.3101 126.05Z" fill="#8CA2D3"/>
<path d="M62.3 172.22L61.3 170.77V158.79L63.2201 160.04L62.3 172.22Z" fill="#546A9B"/>
<path d="M66.0199 138.59H59.6899V160.94H66.0199V138.59Z" fill="#7C8FB5"/>
<path d="M64.14 160.94H62.3V172.22H64.14V160.94Z" fill="#7186BC"/>
<path d="M66.0099 129.06V139.49C66.0099 141.24 64.5999 142.65 62.8499 142.65C61.9799 142.65 61.1899 142.3 60.6199 141.73C60.0499 141.16 59.6899 140.36 59.6899 139.49V129.06H66.0199H66.0099Z" fill="#8FA0C9"/>
<path d="M66.0101 129.06V131.44C65.9001 131.46 65.7801 131.47 65.6601 131.47H60.0301C59.9101 131.47 59.8001 131.46 59.6801 131.44V129.06H66.0101Z" fill="#7C8FB5"/>
<path d="M65.05 130.34H60.66C59.19 130.34 58 129.15 58 127.68V126.67C58 125.2 59.19 124.01 60.66 124.01H65.05C66.52 124.01 67.71 125.2 67.71 126.67V127.67C67.71 129.14 66.52 130.33 65.05 130.33V130.34Z" fill="#8FA0C9"/>
<path d="M67.71 126.05V126.75C67.71 125.62 66.8 124.71 65.67 124.71H60.04C58.91 124.71 58 125.62 58 126.75V126.05C58 124.92 58.92 124.01 60.04 124.01H65.67C66.8 124.01 67.71 124.92 67.71 126.05Z" fill="#8CA2D3"/>
</g>
<path d="M341.96 113.85H163.41V186.67H341.96V113.85Z" fill="white"/>
<path d="M341.96 177.99H163.41V186.67H341.96V177.99Z" fill="#E1E6F4"/>
<path d="M253.83 90.31C254.23 89.45 254.16 88.4 253.65 87.6C253.51 87.38 253.34 87.16 253.35 86.9C253.37 86.6 253.62 86.39 253.81 86.16C254.29 85.56 254.35 84.65 253.93 84.01C253.79 83.78 253.59 83.59 253.46 83.36C253.1 82.7 253.3 81.89 253.52 81.17C253.68 80.62 253.85 80.07 254.17 79.59C254.36 79.31 254.61 79.04 254.69 78.71C254.78 78.36 254.67 77.96 254.81 77.63C254.98 77.24 255.43 77.06 255.65 76.7C255.95 76.23 255.77 75.6 255.47 75.13C255.28 74.83 255.04 74.55 254.96 74.2C254.89 73.9 254.96 73.59 254.96 73.29C255.02 72.08 254.28 70.86 253.17 70.36C252.54 70.08 251.79 70 251.27 69.54C250.9 69.21 250.69 68.73 250.3 68.42C249.81 68.02 249.11 67.97 248.5 68.13C247.89 68.29 247.35 68.64 246.82 68.98C246.38 68.83 245.88 68.87 245.44 69.02C244.12 69.46 242.99 70.47 242.41 71.74C242.22 72.15 242.08 72.59 241.86 72.98C241.55 73.52 241.08 73.94 240.72 74.44C240.36 74.94 240.08 75.58 240.25 76.17C240.39 76.66 240.8 77.05 240.9 77.55C241.12 78.68 239.68 79.48 239.49 80.62C239.33 81.57 240.07 82.52 239.83 83.46C239.65 84.17 238.98 84.61 238.4 85.06C237.82 85.51 237.25 86.16 237.41 86.87C237.52 87.39 238 87.78 238.05 88.31C238.16 89.41 236.42 90.11 236.66 91.19C236.81 91.88 237.66 92.12 238.36 92.2C243.03 92.77 247.78 92.26 252.34 91.09C252.93 90.94 253.56 90.86 253.82 90.31H253.83Z" fill="#27304C"/>
<path d="M256.2 106.56C256.48 107.29 256.91 107.98 257.04 108.76C257.16 109.46 257.29 109.99 257.62 110.44C257.73 110.58 257.93 110.46 258.1 110.52C258.34 110.61 258.6 110.51 258.83 110.4C260.81 109.42 261.93 106.96 261.37 104.82C261.27 104.43 261.11 104.04 260.86 103.72C260.31 103.01 259.32 102.72 258.44 102.87C257.55 103.02 256.77 103.58 256.21 104.28C255.66 104.97 255.89 105.74 256.2 106.56Z" fill="#F2C7B6"/>
<path d="M251.99 88.33C251.89 88.22 251.74 88.19 251.6 88.15C251.03 88 250.49 87.76 250 87.43C249.87 87.34 249.74 87.24 249.65 87.11C249.52 86.91 249.52 86.66 249.51 86.43C249.5 85.95 249.57 85.28 249.81 84.86C250.57 85.16 251.47 84.93 252.11 84.43C252.76 83.93 253.18 83.2 253.49 82.44C253.71 81.9 253.87 81.34 253.9 80.76C253.93 80.13 253.81 79.5 253.79 78.87C253.74 77.39 254.26 75.86 253.78 74.46C253.72 74.28 253.66 74.22 253.61 74.04C253.5 73.62 253.17 73.27 252.76 73.13C252.53 73.05 252.28 73.03 252.08 72.9C251.82 72.72 251.7 72.38 251.43 72.21C251.17 72.05 250.84 72.09 250.53 72.08C250.22 72.08 249.86 71.96 249.78 71.66C249.57 72.39 249.13 73.05 248.49 73.45C248 73.76 247.36 74 247.22 74.56C247.12 74.95 247.31 75.39 247.14 75.76C246.96 76.15 246.48 76.27 246.16 76.56C245.79 76.89 245.68 77.47 245.89 77.92C245.61 77.67 245.12 77.49 244.74 77.55C244.21 77.62 243.87 78.2 243.9 78.73C243.93 79.26 244.25 79.73 244.62 80.12C244.92 80.43 245.33 80.72 245.76 80.64C245.73 80.64 245.7 80.64 245.67 80.64C245.81 82.28 245.79 84.14 245.27 85.7C244.75 87.26 243.66 88.69 242.14 89.3C241.15 90.81 240.96 92.86 241.02 94.67C241.05 95.54 241.13 96.42 241.52 97.2C242.02 98.2 242.97 98.9 243.92 99.49C245.7 100.6 247.61 101.5 249.61 102.16C250.31 102.39 251.05 102.59 251.77 102.44C252.84 102.22 253.63 101.26 253.95 100.22C254.27 99.18 254.2 98.06 254.11 96.98C253.95 95.08 253.73 93.18 253.46 91.29C253.3 90.2 252.74 89.15 251.99 88.33Z" fill="#F2C7B6"/>
<path d="M256.77 114.21C254.63 115.08 252.24 115 249.94 114.81C247.23 114.59 244.6 114.32 241.92 113.86C241.96 112.67 242 111.47 241.84 110.29C241.75 109.58 241.59 108.89 241.43 108.19C241.2 107.19 240.99 106.2 240.76 105.2C238.98 105.37 237.28 105.03 235.67 104.25C235.25 101.42 235.25 98.54 235.67 95.71C235.92 94.02 236.38 92.24 237.68 91.13C238.18 90.7 238.77 90.41 239.36 90.12C240.68 89.48 242.05 89 243.39 88.41C245.24 90.95 247.56 93.13 250.21 94.82C251.43 92.87 251.88 90.55 251.82 88.26C253.65 88.57 255.21 89.47 256.82 90.4C257.36 90.71 257.91 91.03 258.35 91.47C259.29 92.41 259.62 93.79 259.89 95.09C260.55 98.19 261.14 101.31 261.49 104.46C260.43 104.25 259.06 104.59 258.13 105.12C257.79 105.32 257.45 105.59 257.35 105.97C256.8 108.11 257.14 110.33 257.35 112.54C257.39 112.92 257.42 113.31 257.3 113.67C257.18 114.03 257.12 114.08 256.77 114.22V114.21Z" fill="#75AAF5"/>
<path d="M256.62 96.93C256.02 98.03 256.56 99.26 257.04 100.28C257.32 100.89 257.61 101.53 257.63 102.21C257.65 102.85 257.48 103.48 257.29 104.09C257.18 104.44 257.07 104.79 256.99 105.14C256.91 105.45 256.81 105.81 256.86 106.13C256.87 106.21 256.99 106.2 257.02 106.13C257.12 105.85 257.13 105.53 257.21 105.24C257.29 104.93 257.39 104.62 257.48 104.32C257.66 103.75 257.83 103.18 257.87 102.58C257.95 101.27 257.15 100.25 256.73 99.07C256.49 98.4 256.38 97.64 256.73 96.98C256.76 96.92 256.67 96.86 256.64 96.93H256.62Z" fill="#609BE2"/>
<path d="M237.96 91.79C239.05 92.2 240.19 92.65 241.09 93.42C241.53 93.8 241.9 94.26 242.2 94.76C242.5 95.26 242.69 95.81 242.97 96.32C243 96.38 243.09 96.34 243.08 96.28C242.96 95.7 242.64 95.12 242.32 94.62C242.01 94.12 241.64 93.66 241.19 93.29C240.26 92.51 239.12 92.11 237.99 91.7C237.92 91.67 237.89 91.78 237.96 91.81V91.79Z" fill="#609BE2"/>
<path d="M242.84 96.99C243.12 99.32 243.32 101.66 243.5 104.01C243.5 104.09 243.63 104.09 243.62 104.01C243.49 101.66 243.24 99.32 242.95 96.99C242.95 96.92 242.83 96.92 242.84 96.99Z" fill="#609BE2"/>
<path d="M235.96 102.65C237.07 102.91 238.21 103.07 239.35 103.14C239.89 103.17 240.44 103.19 240.99 103.16C241.45 103.13 242.04 103.08 242.42 102.8C242.49 102.75 242.45 102.62 242.36 102.65C242.12 102.73 241.9 102.83 241.65 102.88C241.41 102.93 241.17 102.96 240.92 102.97C240.39 103 239.85 102.97 239.31 102.95C238.2 102.89 237.09 102.75 236 102.53C235.92 102.51 235.89 102.63 235.97 102.65H235.96Z" fill="#609BE2"/>
<path d="M257.89 103.24C258.29 102.99 258.75 102.82 259.22 102.75C259.45 102.71 259.69 102.71 259.93 102.72C260.05 102.72 260.17 102.74 260.3 102.76C260.41 102.78 260.52 102.82 260.64 102.81C260.7 102.81 260.72 102.74 260.67 102.7C260.57 102.63 260.44 102.62 260.33 102.6C260.22 102.58 260.1 102.57 259.99 102.56C259.74 102.54 259.49 102.56 259.24 102.59C258.74 102.66 258.26 102.85 257.84 103.13C257.77 103.17 257.84 103.28 257.9 103.24H257.89Z" fill="#609BE2"/>
<path d="M261.76 116.38C261.12 115.18 260.07 114.07 258.72 113.87C257.23 113.65 255.63 115.07 254.2 114.58C252.21 113.9 250.31 112.97 248.35 112.21C246.39 111.45 244.33 110.94 242.23 111C241.85 109.08 242.05 106.88 241.98 104.91C240.29 105.05 237.53 105.01 236.33 104.51C236.49 106.93 236.92 109.29 237.42 111.67C237.55 112.3 237.78 113.02 238.05 113.61C238.23 114.01 238.46 114.42 238.85 114.62C239.07 114.73 239.31 114.76 239.56 114.79C243.43 115.27 247.31 115.59 251.2 115.74C252.36 115.78 253.12 117.18 254.22 117.53C254.71 117.68 255.23 117.68 255.73 117.66C257.82 117.57 259.81 117.09 261.77 116.38H261.76Z" fill="#F2C7B6"/>
<path d="M241.91 111.4C241.43 111.77 241.03 112.33 240.97 112.94C240.97 112.99 241.04 112.99 241.05 112.95C241.14 112.67 241.24 112.39 241.4 112.14C241.55 111.89 241.74 111.66 241.97 111.47C242.01 111.44 241.96 111.37 241.92 111.4H241.91Z" fill="#EFA88F"/>
<path d="M245.22 88.35C245.71 88.37 246.2 88.39 246.69 88.4C246.81 88.4 246.93 88.4 247.04 88.41C247.16 88.42 247.21 88.49 247.28 88.57C247.35 88.65 247.47 88.78 247.57 88.69C247.59 88.68 247.59 88.65 247.57 88.63C247.52 88.59 247.46 88.57 247.41 88.52C247.36 88.46 247.32 88.4 247.25 88.35C247.1 88.23 246.86 88.27 246.68 88.26C246.19 88.24 245.7 88.23 245.21 88.21C245.12 88.21 245.12 88.34 245.21 88.34L245.22 88.35Z" fill="#EFA88F"/>
<path d="M248.72 88.5C249.28 88.02 250.06 88.5 250.69 88.27C250.74 88.25 250.74 88.16 250.68 88.17C250.49 88.2 250.29 88.21 250.1 88.19C249.91 88.18 249.71 88.15 249.52 88.15C249.2 88.15 248.88 88.2 248.63 88.41C248.56 88.47 248.66 88.56 248.73 88.51L248.72 88.5Z" fill="#EFA88F"/>
<path d="M246.13 83.17C246.18 84.7 246.56 86.29 247.36 87.61C247.38 87.65 247.44 87.61 247.42 87.57C247.09 86.88 246.79 86.18 246.59 85.43C246.39 84.69 246.28 83.93 246.25 83.17C246.25 83.1 246.13 83.1 246.14 83.17H246.13Z" fill="#EFA88F"/>
<path d="M245.8 78.99C245.72 78.72 245.63 78.42 245.4 78.23C245.22 78.08 244.95 78.03 244.74 78.14C244.63 78.19 244.55 78.3 244.55 78.42C244.55 78.45 244.6 78.47 244.61 78.44C244.66 78.34 244.74 78.26 244.85 78.22C244.97 78.18 245.1 78.19 245.21 78.23C245.5 78.36 245.61 78.73 245.7 79C245.72 79.05 245.8 79.03 245.79 78.98L245.8 78.99Z" fill="#EFA88F"/>
<path d="M245.43 78.28C245.3 78.28 245.16 78.29 245.04 78.34C244.91 78.39 244.79 78.45 244.71 78.57C244.68 78.61 244.74 78.67 244.78 78.64C244.88 78.58 244.98 78.52 245.09 78.48C245.2 78.44 245.32 78.43 245.43 78.44C245.47 78.44 245.51 78.4 245.51 78.36C245.51 78.32 245.47 78.28 245.43 78.28Z" fill="#EFA88F"/>
<path d="M247.69 83.07C247.94 83.47 248.25 83.84 248.59 84.17C248.76 84.33 248.94 84.48 249.13 84.62C249.32 84.76 249.52 84.91 249.75 84.97C249.79 84.98 249.83 84.93 249.79 84.9C249.62 84.75 249.42 84.64 249.24 84.51C249.05 84.38 248.87 84.23 248.7 84.08C248.35 83.77 248.05 83.41 247.79 83.03C247.75 82.97 247.66 83.03 247.69 83.09V83.07Z" fill="#EFA88F"/>
<path d="M248.89 98.83C248.73 97.95 248.32 95.84 248.33 95.81C247.02 95.85 245.38 96.07 244.09 96.28C244.29 97.17 244.39 98.52 244.5 99.42C245.82 99.22 247.56 98.97 248.89 98.83Z" fill="white"/>
<path d="M246.73 96.47C246.46 96.51 246.21 96.52 245.9 96.59C245.75 96.62 245.6 96.52 245.56 96.37C245.52 96.22 245.49 96.07 245.45 95.92C245.41 95.75 245.52 95.58 245.7 95.56C245.98 95.52 246.26 95.49 246.54 95.46C246.68 95.44 246.82 95.53 246.86 95.67C246.91 95.84 246.94 95.96 246.98 96.12C247.02 96.29 246.91 96.46 246.74 96.48L246.73 96.47Z" fill="#3C7ECE"/>
<path d="M241.19 79.93C240.83 80.26 240.73 80.76 240.76 81.23C240.8 81.82 240.98 82.39 240.92 82.99C240.86 83.54 240.66 84.08 240.34 84.54C240.04 84.97 239.63 85.27 239.23 85.61C238.87 85.91 238.49 86.29 238.46 86.78C238.46 86.85 238.56 86.86 238.57 86.8C238.7 86.16 239.2 85.8 239.68 85.42C240.17 85.03 240.56 84.57 240.81 83.99C241.05 83.43 241.13 82.81 241.05 82.2C240.96 81.49 240.66 80.59 241.27 80.02C241.33 79.97 241.24 79.88 241.18 79.93H241.19Z" fill="#3E4E72"/>
<path d="M243.99 83.98C243.88 84.99 243.86 86.02 243.26 86.88C242.99 87.27 242.62 87.57 242.24 87.84C241.89 88.09 241.49 88.32 241.21 88.65C241.18 88.69 241.22 88.73 241.26 88.7C241.66 88.38 242.08 88.1 242.49 87.8C242.84 87.54 243.16 87.25 243.41 86.88C244 86.02 244.03 84.97 244.11 83.97C244.11 83.9 244.01 83.9 244 83.97L243.99 83.98Z" fill="#3E4E72"/>
<path d="M251.26 85.64C251.19 85.9 251.16 86.18 251.19 86.45C251.22 86.71 251.3 86.99 251.46 87.2C251.49 87.24 251.56 87.22 251.54 87.17C251.45 86.93 251.37 86.7 251.33 86.44C251.3 86.18 251.31 85.92 251.37 85.68C251.39 85.6 251.27 85.57 251.25 85.65L251.26 85.64Z" fill="#3E4E72"/>
<path d="M242.81 75.61C242.59 76.01 242.51 76.47 242.58 76.92C242.61 77.14 242.69 77.35 242.79 77.55C242.91 77.77 243.07 77.98 243.13 78.24C243.19 78.51 243.07 78.77 243.05 79.04C243.03 79.25 243.09 79.47 243.2 79.65C243.42 80.05 243.85 80.33 244.27 80.47C244.35 80.49 244.39 80.38 244.32 80.34C243.92 80.11 243.49 79.92 243.29 79.46C243.1 79.02 243.4 78.6 243.29 78.16C243.18 77.77 242.88 77.46 242.77 77.07C242.64 76.6 242.68 76.1 242.9 75.66C242.93 75.6 242.85 75.55 242.81 75.61Z" fill="#3E4E72"/>
<path d="M247.68 72.66C247.24 72.8 246.85 73.06 246.57 73.42C246.25 73.83 246.13 74.29 246.07 74.8C246.01 75.34 245.98 76.01 245.5 76.37C245.17 76.61 244.62 76.61 244.42 77.02C244.4 77.07 244.46 77.12 244.5 77.08C244.8 76.76 245.26 76.75 245.6 76.5C245.96 76.23 246.11 75.78 246.17 75.35C246.25 74.78 246.24 74.21 246.54 73.7C246.8 73.26 247.22 72.93 247.71 72.77C247.78 72.75 247.75 72.64 247.68 72.66Z" fill="#3E4E72"/>
<path d="M246.08 72.8C245.86 73 245.69 73.24 245.58 73.51C245.48 73.77 245.4 74.09 245.47 74.36C245.48 74.4 245.53 74.39 245.53 74.36C245.57 74.08 245.58 73.82 245.69 73.56C245.79 73.3 245.95 73.07 246.16 72.88C246.21 72.83 246.14 72.76 246.09 72.81L246.08 72.8Z" fill="#3E4E72"/>
<path d="M245.04 70.3C244.39 70.54 243.65 70.85 243.43 71.57C243.31 71.99 243.34 72.43 243.1 72.82C242.88 73.18 242.53 73.42 242.13 73.53C242.05 73.55 242.09 73.66 242.16 73.65C242.51 73.58 242.83 73.38 243.06 73.11C243.31 72.81 243.42 72.48 243.47 72.1C243.5 71.86 243.53 71.62 243.64 71.4C243.73 71.23 243.85 71.09 243.99 70.97C244.3 70.71 244.69 70.55 245.06 70.4C245.12 70.38 245.1 70.28 245.03 70.3H245.04Z" fill="#3E4E72"/>
<path d="M247.37 69.56C247.81 69.62 248.22 69.79 248.57 70.05C248.74 70.18 248.9 70.33 249.04 70.5C249.11 70.59 249.18 70.68 249.24 70.78C249.3 70.87 249.34 70.98 249.41 71.06C249.44 71.1 249.5 71.08 249.49 71.03C249.45 70.81 249.3 70.61 249.16 70.44C249.02 70.26 248.85 70.1 248.66 69.96C248.29 69.68 247.85 69.51 247.39 69.45C247.33 69.45 247.32 69.55 247.38 69.55L247.37 69.56Z" fill="#3E4E72"/>
<path d="M250.4 71.03C250.97 71.23 251.61 71.09 252.15 71.37C252.45 71.52 252.56 71.78 252.68 72.08C252.76 72.3 252.87 72.48 253.07 72.62C253.28 72.76 253.54 72.83 253.75 72.97C253.97 73.12 254.13 73.34 254.25 73.57C254.49 74.05 254.54 74.6 254.51 75.13C254.47 75.87 254.32 76.63 254.49 77.36C254.49 77.4 254.57 77.39 254.56 77.35C254.45 76.12 254.94 74.82 254.44 73.64C254.24 73.16 253.9 72.85 253.42 72.64C253.28 72.58 253.14 72.52 253.03 72.42C252.9 72.3 252.83 72.13 252.77 71.96C252.68 71.73 252.58 71.53 252.38 71.38C251.82 70.96 251.06 71.15 250.43 70.93C250.36 70.91 250.33 71.01 250.4 71.04V71.03Z" fill="#3E4E72"/>
<path d="M249.65 70.21C249.91 70.1 250.2 70.05 250.48 70.07C250.62 70.07 250.76 70.1 250.9 70.14C251.03 70.18 251.16 70.23 251.29 70.27C251.33 70.28 251.36 70.23 251.33 70.2C251.1 70.01 250.77 69.95 250.49 69.93C250.18 69.92 249.88 69.98 249.6 70.1C249.53 70.13 249.59 70.23 249.66 70.2L249.65 70.21Z" fill="#3E4E72"/>
<path d="M252.74 84.73C253 85.01 253.12 85.4 253.07 85.78C253.02 86.16 252.77 86.44 252.62 86.78C252.37 87.39 252.79 88.05 253.27 88.42C253.31 88.45 253.37 88.39 253.34 88.35C253.12 88.05 252.82 87.8 252.71 87.43C252.58 87.01 252.81 86.69 253 86.34C253.3 85.78 253.25 85.12 252.8 84.65C252.75 84.6 252.68 84.68 252.72 84.73H252.74Z" fill="#3E4E72"/>
<path d="M244.23 83.44C244.33 83.1 244.19 82.76 244.13 82.43C244.09 82.23 244.1 82.04 244.16 81.85C244.22 81.66 244.34 81.5 244.39 81.31C244.4 81.27 244.35 81.24 244.33 81.27C244.2 81.4 244.12 81.58 244.06 81.76C243.99 81.93 243.96 82.12 243.98 82.3C244.02 82.67 244.22 83.03 244.14 83.41C244.13 83.47 244.22 83.5 244.23 83.44Z" fill="#3E4E72"/>
<path d="M238.47 87.22C238.34 87.9 238.88 88.46 238.86 89.12C238.85 89.76 238.38 90.31 237.77 90.49C237.69 90.51 237.73 90.62 237.8 90.61C238.4 90.49 238.85 89.95 238.97 89.37C239.03 89.05 238.97 88.74 238.86 88.43C238.73 88.05 238.53 87.67 238.61 87.26C238.63 87.16 238.48 87.12 238.46 87.22H238.47Z" fill="#3E4E72"/>
<path d="M236.13 104.52C237.22 104.97 238.41 105.15 239.58 105.17C240.5 105.18 241.44 105.1 242.32 104.87C242.58 104.8 242.87 104.72 243.07 104.54C243.12 104.49 243.06 104.42 243 104.45C242.45 104.72 241.79 104.82 241.19 104.9C240.16 105.03 239.1 105.03 238.07 104.88C237.42 104.78 236.77 104.62 236.16 104.39C236.07 104.36 236.04 104.49 236.12 104.53L236.13 104.52Z" fill="#609BE2"/>
<path d="M260.26 106.03C262.05 102.94 263.86 99.87 265.69 96.8C266.16 96.01 266.65 95.16 266.65 94.24C266.65 93.55 266.37 92.87 266.47 92.19C266.64 91.04 267.87 90.1 267.63 88.95C268.16 88.94 268.37 89.65 268.29 90.17C268.21 90.69 268.01 91.28 268.32 91.71C269.52 90.26 270.75 88.74 271.96 87.29C272.19 87.02 272.5 86.72 272.84 86.81C272.96 87.1 272.77 87.43 272.58 87.69C271.81 88.75 271.05 89.81 270.28 90.86C270.51 90.73 270.73 90.57 270.89 90.36C271.7 89.28 272.5 88.2 273.31 87.11C273.41 86.98 273.51 86.85 273.65 86.77C273.79 86.69 273.99 86.7 274.1 86.82C274.25 86.98 274.15 87.24 274.04 87.43C273.16 88.96 271.87 90.22 271.01 91.76C271.92 90.84 273 90.02 274.01 89.2C274.06 89.16 274.12 89.11 274.18 89.11C274.32 89.09 274.42 89.23 274.45 89.37C274.5 89.64 274.34 89.9 274.15 90.11C273.97 90.32 273.76 90.51 273.67 90.77C273.75 90.59 274.03 90.65 274.16 90.79C274.29 90.93 274.29 91.16 274.2 91.34C274.12 91.52 273.97 91.65 273.82 91.78C272.07 93.34 270.32 94.9 268.57 96.46C268.33 96.67 268.07 96.92 268.03 97.24C267.41 101.33 265.54 105.01 264.15 108.91C263.76 110.01 263.3 111.12 262.46 111.93C261.62 112.74 260.32 113.17 259.26 112.68C258.24 112.2 257.82 111.18 257.43 110.12C257.46 110.03 257.47 109.89 257.52 109.8C258.33 108.51 259.2 107.25 260.14 106.05C260.22 105.95 260.2 106.13 260.27 106.02L260.26 106.03Z" fill="#F2C7B6"/>
<path d="M261.1 104.84C260.55 105.41 260.13 106.08 259.84 106.81C259.55 107.54 259.35 108.38 259.44 109.16C259.44 109.21 259.51 109.21 259.52 109.16C259.6 108.39 259.7 107.64 259.97 106.91C260.24 106.17 260.66 105.49 261.16 104.89C261.19 104.85 261.14 104.8 261.11 104.84H261.1Z" fill="#EFA88F"/>
<path d="M273.67 90.72C273.19 91.01 272.72 91.32 272.26 91.66C272.05 91.82 271.83 91.98 271.63 92.16C271.42 92.33 271.19 92.5 271.04 92.73C271.01 92.77 271.06 92.81 271.1 92.79C271.32 92.66 271.51 92.46 271.7 92.3C271.92 92.12 272.13 91.94 272.36 91.76C272.8 91.42 273.25 91.11 273.72 90.81C273.77 90.78 273.72 90.69 273.67 90.72Z" fill="#EFA88F"/>
<path d="M270.52 93.09C270.02 93.66 269.22 93.78 268.56 94.08C268.03 94.32 267.4 94.84 267.52 95.5C267.52 95.55 267.6 95.53 267.6 95.49C267.76 93.94 269.76 94.15 270.58 93.15C270.61 93.11 270.56 93.05 270.52 93.09Z" fill="#EFA88F"/>
<path d="M269.44 91.47C269.7 91.63 269.93 91.83 270.14 92.06C270.24 92.17 270.34 92.29 270.42 92.42C270.5 92.54 270.57 92.68 270.67 92.8C270.7 92.84 270.75 92.8 270.74 92.76C270.7 92.61 270.61 92.48 270.52 92.35C270.43 92.22 270.33 92.1 270.22 91.98C270.01 91.75 269.75 91.56 269.48 91.4C269.43 91.37 269.39 91.44 269.44 91.48V91.47Z" fill="#EFA88F"/>
<path d="M268.13 91.62C268.26 91.82 268.34 92.05 268.38 92.29C268.42 92.53 268.38 92.76 268.38 93C268.38 93.05 268.44 93.05 268.46 93.01C268.55 92.78 268.54 92.51 268.5 92.27C268.46 92.02 268.35 91.79 268.21 91.58C268.18 91.54 268.12 91.58 268.14 91.62H268.13Z" fill="#EFA88F"/>
<path d="M247.56 77.48C247.8 77.2 248.14 77.02 248.5 76.94C248.67 76.9 248.85 76.89 249.03 76.91C249.21 76.93 249.39 76.99 249.57 77.03C249.66 77.05 249.75 76.93 249.67 76.86C249.35 76.59 248.83 76.58 248.44 76.67C248.02 76.77 247.66 77.01 247.4 77.36C247.33 77.45 247.48 77.56 247.55 77.48H247.56Z" fill="#27304C"/>
<path d="M249.5 76.96C249.31 76.9 249.13 76.85 248.93 76.84C248.73 76.84 248.54 76.84 248.34 76.88C248.15 76.91 247.97 76.97 247.79 77.05C247.61 77.13 247.43 77.21 247.31 77.39C247.27 77.45 247.34 77.54 247.41 77.52C247.58 77.47 247.73 77.37 247.89 77.29C248.05 77.22 248.22 77.16 248.39 77.13C248.73 77.05 249.11 77.05 249.46 77.11C249.55 77.13 249.59 76.99 249.5 76.96Z" fill="#27304C"/>
<path d="M248.76 77.71C248.59 77.9 248.54 78.18 248.58 78.42C248.6 78.54 248.64 78.65 248.73 78.73C248.83 78.82 248.97 78.85 249.07 78.75C249.16 78.65 249.16 78.48 249.16 78.36C249.16 78.22 249.15 78.08 249.13 77.95C249.11 77.83 249.09 77.67 248.95 77.63C248.89 77.61 248.82 77.63 248.77 77.65C248.7 77.68 248.66 77.75 248.64 77.82C248.6 77.96 248.61 78.12 248.63 78.25C248.65 78.39 248.7 78.53 248.77 78.65C248.82 78.74 248.95 78.74 249 78.65C249.12 78.44 249.1 78.17 248.97 77.97C248.92 77.9 248.82 77.9 248.78 77.97C248.73 78.04 248.71 78.13 248.72 78.21C248.73 78.3 248.78 78.37 248.86 78.43C248.9 78.46 248.96 78.44 248.99 78.4C249.02 78.36 249.01 78.31 248.99 78.27C248.97 78.25 248.96 78.2 248.95 78.18V78.16C248.95 78.16 248.95 78.13 248.95 78.14C248.95 78.13 248.95 78.12 248.96 78.11C248.96 78.12 248.97 78.1 248.96 78.11C248.9 78.11 248.84 78.09 248.78 78.09C248.82 78.16 248.84 78.24 248.83 78.31C248.83 78.35 248.83 78.37 248.81 78.42C248.8 78.47 248.79 78.48 248.76 78.53H248.99C248.9 78.38 248.86 78.21 248.86 78.03C248.86 77.99 248.86 77.94 248.86 77.92C248.86 77.92 248.86 77.9 248.86 77.89C248.86 77.86 248.86 77.87 248.86 77.88C248.86 77.88 248.87 77.86 248.86 77.87C248.86 77.87 248.86 77.87 248.87 77.86C248.88 77.84 248.88 77.86 248.87 77.86H248.86C248.85 77.86 248.86 77.84 248.86 77.86C248.86 77.88 248.87 77.91 248.87 77.93C248.87 77.95 248.87 77.98 248.88 78C248.91 78.19 248.9 78.39 248.86 78.58C248.86 78.58 248.88 78.58 248.88 78.57C248.88 78.57 248.86 78.55 248.87 78.57L248.85 78.55C248.85 78.55 248.83 78.53 248.84 78.54C248.84 78.55 248.83 78.52 248.83 78.52C248.83 78.52 248.83 78.51 248.82 78.5C248.81 78.46 248.8 78.41 248.79 78.37C248.79 78.3 248.79 78.18 248.79 78.11C248.81 78.01 248.85 77.92 248.89 77.83C248.93 77.74 248.79 77.67 248.72 77.73L248.76 77.71Z" fill="#27304C"/>
<path d="M253.8 77.34C253.59 77.01 253.26 76.76 252.88 76.66C252.53 76.57 252.06 76.59 251.78 76.85C251.71 76.92 251.78 77.03 251.87 77.01C252.03 76.97 252.18 76.91 252.34 76.89C252.5 76.87 252.66 76.89 252.81 76.92C253.14 77 253.43 77.19 253.64 77.46C253.71 77.54 253.84 77.44 253.79 77.35L253.8 77.34Z" fill="#27304C"/>
<path d="M251.98 77.07C252.28 77 252.62 77.01 252.92 77.08C253.07 77.12 253.22 77.17 253.36 77.24C253.51 77.32 253.63 77.42 253.79 77.47C253.86 77.49 253.91 77.41 253.88 77.35C253.79 77.19 253.63 77.1 253.47 77.02C253.31 76.94 253.14 76.88 252.97 76.85C252.8 76.82 252.63 76.8 252.46 76.81C252.28 76.81 252.11 76.86 251.94 76.93C251.85 76.96 251.89 77.09 251.98 77.07Z" fill="#27304C"/>
<path d="M252.44 77.78C252.47 77.86 252.5 77.94 252.52 78.02C252.54 78.1 252.54 78.18 252.54 78.27C252.54 78.31 252.54 78.34 252.53 78.37C252.53 78.39 252.53 78.41 252.52 78.44C252.52 78.44 252.52 78.46 252.52 78.47C252.52 78.49 252.52 78.47 252.52 78.48C252.52 78.49 252.5 78.51 252.5 78.52C252.5 78.52 252.47 78.55 252.48 78.54C252.46 78.54 252.46 78.55 252.48 78.54C252.46 78.54 252.47 78.54 252.48 78.54L252.5 78.55C252.5 78.55 252.5 78.53 252.5 78.52C252.5 78.5 252.5 78.49 252.5 78.47C252.5 78.42 252.49 78.37 252.49 78.31C252.49 78.21 252.49 78.11 252.49 78.01C252.49 77.97 252.49 77.92 252.5 77.88C252.5 77.86 252.5 77.84 252.51 77.82C252.51 77.82 252.51 77.8 252.51 77.79H252.48C252.48 77.79 252.5 77.81 252.5 77.82C252.51 77.85 252.52 77.88 252.52 77.92C252.53 78.12 252.5 78.32 252.41 78.49H252.62C252.56 78.36 252.54 78.19 252.62 78.05H252.44C252.48 78.11 252.47 78.2 252.42 78.27C252.37 78.34 252.47 78.45 252.55 78.4C252.62 78.34 252.67 78.27 252.68 78.18C252.68 78.1 252.67 78.02 252.63 77.95C252.59 77.88 252.49 77.88 252.45 77.95C252.33 78.15 252.32 78.42 252.42 78.63C252.46 78.71 252.59 78.71 252.63 78.63C252.74 78.4 252.79 78.15 252.76 77.9C252.74 77.76 252.69 77.63 252.53 77.61C252.47 77.61 252.41 77.62 252.37 77.67C252.33 77.72 252.32 77.79 252.3 77.85C252.27 77.98 252.26 78.11 252.25 78.24C252.25 78.3 252.25 78.37 252.25 78.43C252.25 78.5 252.25 78.57 252.27 78.63C252.31 78.76 252.45 78.83 252.57 78.76C252.67 78.7 252.73 78.59 252.76 78.48C252.82 78.22 252.78 77.91 252.61 77.7C252.55 77.63 252.42 77.7 252.46 77.79L252.44 77.78Z" fill="#27304C"/>
<path d="M251.14 77.96C251.06 78.45 251.25 78.91 251.51 79.32C251.63 79.51 251.89 79.74 251.79 79.98C251.7 80.19 251.41 80.36 251.44 80.61C251.44 80.7 251.55 80.72 251.6 80.65C251.68 80.55 251.73 80.44 251.81 80.33C251.88 80.24 251.95 80.15 251.99 80.04C252.09 79.79 251.97 79.61 251.82 79.42C251.51 79 251.2 78.51 251.25 77.97C251.25 77.9 251.14 77.88 251.13 77.95L251.14 77.96Z" fill="#EFA88F"/>
<path d="M199.86 86.67L198.95 87.64L236.46 111.36L237.31 110.17L235.84 86.67H199.86Z" fill="#867D7B"/>
<path d="M198.95 87.64L235.04 87.58L236.46 111.36L200.08 111.42L198.95 87.64Z" fill="#ADA19F"/>
<path d="M213.82 102.96H221.31L219.21 118.57L210.02 118.23L213.82 102.96Z" fill="#867D7B"/>
<path d="M210.54 99.84C211 99.83 211.45 99.81 211.91 99.8C213 99.76 214.09 99.73 215.18 99.69C216.5 99.65 217.83 99.6 219.15 99.56C220.29 99.52 221.43 99.49 222.57 99.45C222.95 99.44 223.33 99.43 223.71 99.41C223.88 99.41 224.08 99.43 224.25 99.39H224.27C224.21 99.33 224.15 99.27 224.09 99.21C224.15 100.22 224.2 101.23 224.26 102.24C224.35 103.85 224.44 105.46 224.54 107.07C224.56 107.44 224.58 107.81 224.6 108.18C224.66 108.12 224.72 108.06 224.78 108H211.18C211.01 108 210.79 107.97 210.62 108C210.62 108 210.6 108 210.59 108C210.65 108.06 210.71 108.12 210.77 108.18C210.77 107.22 210.77 106.26 210.76 105.3C210.76 103.77 210.74 102.24 210.74 100.71C210.74 100.36 210.74 100.01 210.74 99.66C210.74 99.43 210.38 99.43 210.38 99.66C210.38 100.62 210.38 101.58 210.39 102.54C210.39 104.07 210.41 105.6 210.41 107.13C210.41 107.48 210.41 107.83 210.41 108.18C210.41 108.28 210.49 108.36 210.59 108.36H223.02C223.59 108.36 224.18 108.4 224.75 108.36C224.75 108.36 224.77 108.36 224.78 108.36C224.87 108.36 224.96 108.28 224.96 108.18C224.9 107.17 224.85 106.16 224.79 105.15C224.7 103.54 224.61 101.93 224.51 100.32C224.49 99.95 224.47 99.58 224.45 99.21C224.45 99.12 224.37 99.03 224.27 99.03C223.81 99.05 223.36 99.06 222.9 99.07C221.81 99.11 220.72 99.14 219.63 99.18C218.31 99.22 216.98 99.27 215.66 99.31C214.52 99.35 213.38 99.38 212.24 99.42C211.69 99.44 211.12 99.42 210.57 99.47H210.55C210.32 99.47 210.32 99.84 210.55 99.83L210.54 99.84Z" fill="#867D7B"/>
<path d="M200.54 89.41C202.1 89.39 203.66 89.38 205.21 89.36C205.43 89.36 205.65 89.36 205.87 89.36C205.81 89.3 205.75 89.24 205.69 89.18C205.76 90.56 205.82 91.93 205.89 93.31C205.89 93.51 205.91 93.7 205.92 93.9C205.98 93.84 206.04 93.78 206.1 93.72C204.56 93.8 203.03 93.89 201.49 93.97C201.27 93.98 201.05 93.99 200.82 94.01C200.88 94.07 200.94 94.13 201 94.19C200.92 92.75 200.83 91.31 200.75 89.87C200.74 89.67 200.73 89.46 200.71 89.26C200.7 89.03 200.34 89.03 200.35 89.26C200.43 90.7 200.52 92.14 200.6 93.58C200.61 93.78 200.62 93.99 200.64 94.19C200.64 94.28 200.72 94.37 200.82 94.37C202.36 94.29 203.89 94.2 205.43 94.12C205.65 94.11 205.87 94.1 206.1 94.08C206.19 94.08 206.28 94 206.28 93.9C206.21 92.52 206.15 91.15 206.08 89.77C206.08 89.57 206.06 89.38 206.05 89.18C206.05 89.08 205.97 89 205.87 89C204.31 89.02 202.75 89.03 201.2 89.05C200.98 89.05 200.76 89.05 200.54 89.05C200.31 89.05 200.31 89.41 200.54 89.41Z" fill="#867D7B"/>
<path d="M341.95 113.85H160.84V122.13H341.95V113.85Z" fill="#1C1E3D"/>
<path d="M302.56 187.93L302.44 182.34L306.78 182.66L305.91 188.66L303.92 189.68L302.56 187.93Z" fill="#F2C7B6"/>
<path d="M302.19 191.05C302.41 190.69 302.49 190.24 302.41 189.82C302.39 189.69 302.35 189.55 302.39 189.42C302.41 189.35 302.46 189.28 302.48 189.21C302.52 189.04 302.39 188.89 302.33 188.73C302.22 188.45 302.33 188.1 302.57 187.93C303.65 188.2 304.71 188.14 305.8 187.93C305.97 187.9 306.22 187.93 306.21 188.1C306.21 188.19 306.12 188.25 306.12 188.34C306.12 188.45 306.24 188.51 306.28 188.61C306.39 188.85 306.04 189.05 306 189.31C305.98 189.41 306.02 189.5 306.04 189.6C306.09 189.82 306.08 190.04 306.08 190.26C306.06 191.02 306.04 191.77 306.03 192.53C306.03 192.64 306.03 192.76 305.96 192.85C305.88 192.95 305.74 192.99 305.61 193.01C304.93 193.13 304.23 193.25 303.54 193.14C302.85 193.03 302.17 192.65 301.89 192.01C301.81 191.84 301.77 191.65 301.82 191.47C301.87 191.29 302.04 191.05 302.22 191.05H302.19Z" fill="white"/>
<path d="M306.34 194.36C305.56 194.64 304.7 194.7 303.89 194.53C303.51 194.45 303.13 194.32 302.74 194.38C302.42 194.43 302.13 194.61 301.82 194.72C301.33 194.89 300.8 194.89 300.28 194.88C299.44 194.87 298.6 194.85 297.77 194.84C297.07 194.83 296.2 194.69 296.02 194.01C295.89 193.52 296.26 193.02 296.7 192.8C297.15 192.57 297.67 192.55 298.16 192.48C299.62 192.27 301.08 191.6 301.91 190.39C302.31 190.32 302.82 190.51 303.02 190.86C303.22 191.21 303.18 191.68 302.92 191.99C304.07 192.18 305.3 191.8 306.14 190.99C306.35 191.5 306.54 192.03 306.7 192.56C306.76 192.75 306.81 192.94 306.83 193.13C306.88 193.86 307.02 194.12 306.33 194.37L306.34 194.36Z" fill="#191C26"/>
<path d="M308.79 177.44C308.97 177.49 309.15 177.54 309.33 177.59C309.47 179.35 309.42 181.13 309.18 182.88C309.15 183.06 309.12 183.26 309.01 183.4C308.89 183.55 308.7 183.62 308.52 183.67C307.65 183.92 306.73 183.87 305.83 183.8C303.9 183.65 301.97 183.4 300.06 183.06C299.93 183.04 299.79 183.01 299.71 182.91C299.65 182.83 299.63 182.73 299.62 182.63C299.43 181.1 299.42 179.55 299.56 178.01C299.58 177.8 299.61 177.58 299.73 177.42C299.85 177.26 300.12 177.17 300.28 177.3C300.46 174.5 300.68 171.51 300.58 168.71C300.51 166.65 300.29 164.54 300.87 162.56C303.64 161.98 306.59 162.27 309.19 163.39C308.83 168 308.64 172.83 308.78 177.45L308.79 177.44Z" fill="#191C26"/>
<path d="M300.52 177.55C301.87 177.79 303.25 177.91 304.62 177.93C305.31 177.94 305.99 177.93 306.68 177.89C307.18 177.86 307.86 177.83 308.21 177.42C308.24 177.38 308.21 177.31 308.16 177.33C307.9 177.42 307.65 177.54 307.37 177.6C307.1 177.66 306.82 177.67 306.54 177.69C305.88 177.73 305.21 177.74 304.55 177.73C303.22 177.71 301.89 177.59 300.57 177.4C300.47 177.39 300.43 177.53 300.53 177.55H300.52Z" fill="#4F4F68"/>
<path d="M319.1 186.42L318.44 181.08L322.63 180.96L322.38 186.8L320.57 187.96L319.1 186.42Z" fill="#F2C7B6"/>
<path d="M319.05 189.45C319.22 189.08 319.26 188.65 319.14 188.25C319.1 188.12 319.05 188 319.08 187.87C319.1 187.8 319.14 187.73 319.14 187.66C319.16 187.5 319.02 187.36 318.95 187.22C318.82 186.96 318.88 186.62 319.1 186.43C320.16 186.58 321.17 186.42 322.2 186.12C322.36 186.07 322.6 186.08 322.61 186.24C322.61 186.32 322.54 186.39 322.55 186.48C322.55 186.58 322.68 186.64 322.73 186.72C322.86 186.94 322.54 187.17 322.53 187.42C322.53 187.51 322.56 187.6 322.59 187.69C322.66 187.89 322.67 188.11 322.69 188.32C322.75 189.05 322.8 189.78 322.86 190.5C322.86 190.61 322.87 190.72 322.82 190.81C322.75 190.92 322.62 190.96 322.5 191C321.86 191.18 321.2 191.37 320.53 191.33C319.86 191.29 319.17 190.99 318.84 190.41C318.75 190.25 318.69 190.07 318.72 189.9C318.75 189.72 318.89 189.47 319.07 189.46L319.05 189.45Z" fill="white"/>
<path d="M323.35 192.21C322.63 192.55 321.81 192.69 321.02 192.61C320.65 192.57 320.27 192.48 319.9 192.58C319.59 192.66 319.34 192.86 319.05 193C318.6 193.21 318.09 193.26 317.59 193.3C316.79 193.37 315.98 193.44 315.18 193.51C314.51 193.57 313.66 193.51 313.42 192.89C313.25 192.44 313.55 191.92 313.96 191.66C314.37 191.4 314.86 191.32 315.33 191.21C316.71 190.87 318.04 190.09 318.72 188.84C319.09 188.73 319.6 188.86 319.83 189.18C320.06 189.5 320.06 189.95 319.85 190.28C320.97 190.35 322.11 189.87 322.84 189.01C323.09 189.48 323.32 189.96 323.53 190.46C323.6 190.63 323.67 190.81 323.71 190.99C323.83 191.69 323.99 191.92 323.35 192.23V192.21Z" fill="#191C26"/>
<path d="M323.78 175.7C323.96 175.73 324.15 175.76 324.33 175.79C324.65 177.53 324.77 179.3 324.71 181.06C324.71 181.25 324.69 181.44 324.59 181.6C324.49 181.76 324.31 181.85 324.13 181.92C323.29 182.25 322.37 182.3 321.46 182.32C319.52 182.36 317.58 182.32 315.64 182.17C315.51 182.17 315.37 182.14 315.28 182.05C315.21 181.98 315.18 181.88 315.16 181.78C314.82 180.27 314.65 178.73 314.64 177.19C314.64 176.98 314.64 176.76 314.75 176.58C314.86 176.4 315.11 176.29 315.29 176.41C315.18 173.61 315.11 170.61 314.72 167.83C314.44 165.79 314.01 163.71 314.39 161.68C317.09 160.82 320.05 160.81 322.75 161.66C322.85 166.28 323.15 171.11 323.76 175.69L323.78 175.7Z" fill="#191C26"/>
<path d="M315.59 176.65C316.98 176.75 318.38 176.74 319.77 176.61C320.44 176.55 321.1 176.47 321.76 176.36C322.25 176.28 322.91 176.18 323.22 175.74C323.25 175.69 323.19 175.65 323.15 175.67C322.88 175.8 322.63 175.94 322.35 176.02C322.09 176.1 321.83 176.14 321.57 176.18C320.9 176.29 320.22 176.37 319.54 176.42C318.23 176.53 316.91 176.55 315.6 176.49C315.5 176.49 315.5 176.64 315.6 176.64L315.59 176.65Z" fill="#4F4F68"/>
<path d="M301.8 67.91C300.68 67.82 299.67 68.77 299.28 69.74C299.06 70.28 298.99 70.88 299.08 71.46C299.18 72.1 299.48 72.62 299.82 73.17C300.02 73.48 300.21 73.8 300.3 74.16C300.39 74.54 300.34 74.86 300.2 75.22C300.19 75.25 300.24 75.28 300.26 75.25C300.56 74.88 300.49 74.3 300.34 73.88C300.14 73.32 299.74 72.86 299.49 72.33C298.95 71.19 299.12 69.81 299.97 68.88C300.44 68.37 301.11 67.98 301.81 67.99C301.86 67.99 301.86 67.91 301.81 67.91H301.8Z" fill="#6C3939"/>
<path d="M298.87 75.59C299.13 75.98 299.5 76.3 299.96 76.41C300.37 76.5 300.86 76.41 301.13 76.07C301.16 76.04 301.12 76 301.09 76.03C300.77 76.3 300.35 76.39 299.94 76.29C299.52 76.19 299.17 75.89 298.91 75.56C298.89 75.53 298.84 75.56 298.86 75.6L298.87 75.59Z" fill="#6C3939"/>
<path d="M276.35 94.09L277.44 93.53L277.48 92.34L280.22 92.44L280.19 93.39L281.35 94.27L281.04 102.9C281.04 102.9 280 103.15 278.77 103.1C277.46 103.05 276.16 102.72 276.16 102.72L276.36 94.09H276.35Z" fill="#CFD5EE"/>
<path d="M283.19 100.73C283.28 100.08 283.23 99.41 283.05 98.78C282.97 98.49 282.85 98.2 282.65 97.98C282.26 97.55 281.61 97.42 281.24 96.97C281.18 97.23 281.08 97.45 281.1 97.72C281.12 98 281.01 98.18 280.76 98.31C280.52 98.44 280.23 98.45 279.95 98.45C279.78 98.45 279.6 98.45 279.43 98.45C278.79 98.45 278.13 98.45 277.53 98.24C276.93 98.03 276.39 97.53 276.3 96.89C276.19 96.81 275.98 96.82 275.91 96.94C275.84 97.06 275.84 97.2 275.85 97.34C275.85 97.67 275.87 97.99 275.88 98.32C275.88 98.52 275.89 98.72 275.96 98.91C276.01 99.04 276.08 99.16 276.11 99.3C276.15 99.48 276.09 99.67 276.09 99.86C276.1 100.34 276.5 100.72 276.89 100.99C277.65 101.52 278.51 101.92 279.41 102.14C280.55 102.42 281.87 102.49 282.67 103.35C283.13 103.03 283.57 102.62 283.72 102.08C283.87 101.54 283.72 100.87 283.17 100.73H283.19Z" fill="#F2C7B6"/>
<path d="M276.11 99.65C276.62 99.98 277.13 100.3 277.66 100.6C277.91 100.74 278.16 100.88 278.43 101C278.64 101.09 278.89 101.18 279.12 101.12C279.16 101.11 279.16 101.05 279.12 101.04C278.86 100.96 278.61 100.92 278.37 100.8C278.12 100.68 277.88 100.55 277.65 100.41C277.15 100.13 276.67 99.84 276.19 99.53C276.11 99.48 276.03 99.61 276.11 99.66V99.65Z" fill="#EFA88F"/>
<path d="M275.88 98.52C276.34 98.86 276.83 99.14 277.35 99.35C277.61 99.46 277.88 99.55 278.15 99.62C278.4 99.69 278.69 99.78 278.95 99.73C279 99.73 279 99.65 278.96 99.63C278.73 99.51 278.45 99.49 278.2 99.42C277.94 99.35 277.67 99.26 277.42 99.16C276.9 98.95 276.41 98.68 275.96 98.35C275.86 98.28 275.77 98.44 275.87 98.51L275.88 98.52Z" fill="#EFA88F"/>
<path d="M286.96 103.19C285.45 102.47 283.99 101.41 283.36 99.86C282.77 100.8 281.95 101.45 281.68 102.52C281.63 102.72 281.6 102.92 281.63 103.12C283.31 104.13 283.95 106.1 285.43 107.38C285.48 107.42 285.53 107.47 285.6 107.48C285.7 107.5 285.8 107.43 285.88 107.36C286.81 106.55 287.36 105.31 287.34 104.08C287.34 103.62 287.39 103.39 286.97 103.2L286.96 103.19Z" fill="#191C26"/>
<path d="M301.86 67.92C300.98 68.09 299.95 68.81 299.6 69.64C299.25 70.47 299.27 71.42 299.55 72.28C299.7 72.74 299.92 73.17 300.04 73.64C300.16 74.11 300.17 74.63 299.91 75.04C299.65 75.45 299.07 75.67 298.66 75.41C299.04 76 299.68 76.23 300.38 76.19C301.08 76.15 301.75 75.71 302.06 75.08C302.34 74.5 302.33 73.83 302.54 73.22C302.78 72.52 303.32 71.92 303.42 71.19C303.5 70.61 303.31 70.02 302.98 69.53C302.65 69.05 302.32 68.28 301.86 67.92Z" fill="#6C3939"/>
<path d="M307.55 86.5C307 85.24 306.45 83.99 305.9 82.73C305.75 82.39 305.56 82.01 305.21 81.9C304.63 81.71 304.08 82.36 303.47 82.35C303.04 82.35 302.67 82.01 302.46 81.63C302.25 81.25 302.17 80.81 302.01 80.41C301.65 79.44 300.89 78.63 299.94 78.21C300.45 77.53 300.89 76.74 300.89 75.88C300.89 75.14 300.57 74.44 300.42 73.71C300.25 72.89 300.31 72.03 300.57 71.24C300.67 70.96 300.94 70.71 301.21 70.6C302.67 70.01 304.37 70 305.81 70.63C307.25 71.26 308.41 72.54 308.82 74.06C309.51 76.59 308.17 79.26 308.48 81.86C308.58 82.72 308.86 83.55 308.85 84.41C308.84 85.27 308.35 86.22 307.53 86.49L307.55 86.5Z" fill="#F2C7B6"/>
<path d="M325.9 128.57C324.8 128.87 323.26 128.92 322.17 129.22C321.33 129.45 320.48 129.68 319.61 129.79C318.7 129.9 315.26 130.12 314.34 130.09C312.95 130.05 303.82 129.29 299.14 128.28C299.12 127.27 299.91 111.98 300.09 110.66C299.69 112.12 298.41 114.55 297.21 115.19C295.78 115.95 294.02 115.59 292.52 114.99C289.22 113.67 286.46 111.47 283.75 109.18C283.78 107.32 284.53 105.56 285.26 103.85C285.55 103.17 286.02 102.64 286.31 101.96C287.71 103.12 289.42 104.26 291.1 104.98C291.17 104.69 291.5 104.48 291.78 104.39C292.98 101.67 294.18 98.95 295.38 96.23C296.24 94.28 297.13 92.28 298.58 90.72C300.89 88.24 304.4 87.07 306.54 84.44C309.61 84.25 312.66 83.8 315.73 83.61C317.3 84.52 318.66 85.39 320.22 86.32C321.54 87.12 322.89 87.95 323.81 89.19C324.87 90.61 325.25 92.41 325.59 94.15C326.69 99.76 327.64 105.4 328.46 111.05C328.68 112.59 328.76 114.48 327.48 115.37C326.54 116.02 325.28 115.82 324.16 115.59C324.71 117.47 325.31 124.1 325.9 128.56V128.57Z" fill="#7A86DE"/>
<path d="M285.56 110.92C285.76 110.35 285.97 109.78 286.17 109.21C286.27 108.93 286.37 108.64 286.39 108.34C286.4 108.04 286.31 107.72 286.07 107.53C285.88 107.37 285.61 107.32 285.37 107.39C285.13 107.46 284.93 107.63 284.81 107.84C284.72 108 284.68 108.19 284.64 108.37C284.52 108.93 284.41 109.48 284.29 110.04C284.79 110.33 285.09 110.58 285.56 110.92Z" fill="#B77A62"/>
<path d="M285.34 108.11C285.23 108.23 285.27 108.46 285.42 108.53C285.57 108.6 285.78 108.47 285.77 108.31C285.76 108.15 285.53 108.04 285.4 108.15" fill="#915743"/>
<path d="M300.22 110.24C300.79 108.89 301.3 107.52 301.83 106.15C302.11 105.42 302.39 104.7 302.68 103.97C302.98 103.2 303.3 102.45 303.49 101.64C303.79 100.36 303.9 98.99 303.71 97.68C303.71 97.63 303.63 97.65 303.63 97.69C303.66 98.91 303.67 100.11 303.42 101.31C303.24 102.15 302.93 102.94 302.61 103.74C302.03 105.22 301.47 106.7 300.89 108.18C300.63 108.85 300.38 109.52 300.11 110.18C300.09 110.24 300.19 110.28 300.21 110.22L300.22 110.24Z" fill="#596BC1"/>
<path d="M324.4 92.26C324.52 95.22 323.75 98.08 323.22 100.97C322.68 103.94 322.63 106.95 322.99 109.95C323.09 110.78 323.21 111.6 323.35 112.43C323.49 113.28 323.6 114.15 323.82 114.98C323.84 115.05 323.97 115.04 323.96 114.96C323.88 114.23 323.72 113.5 323.61 112.77C323.49 112 323.39 111.23 323.31 110.46C323.15 108.95 323.04 107.44 323.05 105.93C323.06 104.42 323.21 102.92 323.45 101.43C323.69 99.99 324 98.57 324.24 97.13C324.51 95.52 324.69 93.89 324.56 92.26C324.56 92.16 324.4 92.16 324.41 92.26H324.4Z" fill="#596BC1"/>
<path d="M299.4 91.27C301.03 92.4 302.21 94.02 302.96 95.85C302.98 95.9 303.07 95.88 303.05 95.82C302.48 93.89 301.15 92.22 299.51 91.08C299.39 91 299.29 91.19 299.4 91.27Z" fill="#596BC1"/>
<path d="M317.4 89.5C317.9 88.47 317.8 87.18 317.14 86.24C316.78 85.72 316.26 85.3 316.03 84.71C315.55 83.47 316.56 82.15 316.6 80.82C316.63 79.57 315.81 78.48 315.49 77.27C315.01 75.51 315.62 73.63 315.38 71.82C315.1 69.6 313.52 67.65 311.52 66.64C309.52 65.63 307.15 65.5 304.96 65.96C303.59 66.25 302.18 66.89 301.62 68.17C300.92 68.51 300.78 69.5 300.56 70.24C300.43 70.65 300.67 71.11 301.01 71.38C301.34 71.66 301.76 71.81 302.15 72C302.54 72.19 302.92 72.46 303.08 72.87C303.17 73.1 303.19 73.36 303.27 73.6C303.43 74.04 303.83 74.36 304.28 74.49C304.6 74.59 304.98 74.61 305.19 74.87C305.43 74.37 306.12 74.13 306.61 74.38C306.98 74.57 307.21 74.97 307.29 75.37C307.37 75.78 307.33 76.2 307.29 76.61C307.26 76.89 307.23 77.19 307.09 77.43C306.95 77.67 306.66 77.86 306.38 77.79C306.62 78.69 306.63 79.79 306.45 80.71C306.28 81.53 305.77 82.28 305.71 83.12C305.65 84.08 306.18 84.97 306.27 85.93C306.34 86.69 306.12 87.44 306.02 88.19C305.92 88.94 305.97 89.78 306.47 90.35C306.7 90.38 306.87 90.33 307.09 90.28C306.92 89.79 307.06 89.21 307.18 88.7C307.26 88.39 307.39 88.09 307.43 87.77C307.52 87.07 307.17 86.31 307.48 85.68C307.44 86.34 307.99 86.89 308.12 87.54C308.29 88.4 307.68 89.32 308.02 90.13C309.14 90.03 310.3 90 311.43 90.04C311.96 90.06 312.5 90.11 313.03 90.09C314.59 90.01 315.87 89.23 317.41 89.49L317.4 89.5Z" fill="#6C3939"/>
<path d="M277.76 93.38C278.09 93.42 278.42 93.43 278.76 93.43C278.93 93.43 279.09 93.42 279.26 93.4C279.42 93.39 279.58 93.38 279.73 93.33C279.77 93.32 279.76 93.26 279.72 93.25C279.56 93.24 279.39 93.25 279.22 93.26C279.06 93.26 278.9 93.27 278.74 93.27C278.41 93.27 278.09 93.27 277.76 93.25C277.68 93.25 277.68 93.36 277.76 93.37V93.38Z" fill="#95A1C4"/>
<path d="M276.5 94.29C277.25 94.56 278.02 94.71 278.83 94.71C279.21 94.71 279.59 94.68 279.97 94.61C280.16 94.58 280.35 94.54 280.54 94.49C280.71 94.45 280.9 94.41 281.04 94.3C281.08 94.27 281.04 94.22 281.01 94.22C280.84 94.22 280.67 94.29 280.5 94.34C280.31 94.39 280.12 94.43 279.93 94.46C279.55 94.53 279.17 94.56 278.79 94.57C278.03 94.57 277.24 94.48 276.51 94.25C276.48 94.25 276.47 94.28 276.5 94.29Z" fill="#95A1C4"/>
<path d="M277.9 92.53C277.9 92.64 277.9 92.74 277.89 92.85C277.89 92.96 277.89 93.06 277.89 93.17C277.89 93.24 277.99 93.23 277.99 93.17C278 93.06 278.02 92.96 278.02 92.85C278.02 92.74 278.02 92.64 278.03 92.53C278.03 92.44 277.89 92.44 277.89 92.53H277.9Z" fill="#95A1C4"/>
<path d="M278.65 92.54C278.65 92.76 278.65 92.98 278.68 93.2C278.68 93.26 278.78 93.27 278.78 93.2C278.78 92.98 278.76 92.76 278.75 92.54C278.75 92.48 278.65 92.48 278.65 92.54Z" fill="#95A1C4"/>
<path d="M279.32 92.52C279.32 92.65 279.33 92.78 279.34 92.91C279.34 92.97 279.34 93.04 279.35 93.1C279.35 93.15 279.35 93.25 279.43 93.25C279.51 93.25 279.5 93.14 279.5 93.1C279.5 93.04 279.5 92.97 279.5 92.91C279.5 92.78 279.49 92.65 279.48 92.52C279.48 92.43 279.33 92.42 279.33 92.52H279.32Z" fill="#95A1C4"/>
<path d="M279.94 92.56C279.94 92.67 279.94 92.79 279.94 92.9C279.94 92.96 279.94 93.01 279.94 93.07C279.94 93.1 279.94 93.12 279.94 93.15C279.94 93.18 279.95 93.21 279.96 93.24C279.97 93.27 280.02 93.28 280.03 93.24C280.03 93.21 280.05 93.18 280.05 93.15C280.05 93.12 280.05 93.1 280.05 93.07C280.05 93.01 280.05 92.96 280.04 92.9C280.04 92.79 280.02 92.67 280.01 92.56C280.01 92.52 279.94 92.51 279.94 92.56Z" fill="#95A1C4"/>
<path d="M306.02 76.43C306.09 76.26 306.07 76.07 306.02 75.9C305.97 75.72 305.87 75.52 305.89 75.33C305.9 75.15 306.11 75.03 306.27 75C306.45 74.96 306.62 75.03 306.71 75.19C306.75 75.25 306.85 75.21 306.83 75.14C306.69 74.71 306.06 74.78 305.83 75.09C305.53 75.5 306.06 75.97 305.89 76.41C305.86 76.49 305.99 76.52 306.02 76.45V76.43Z" fill="#EFA88F"/>
<path d="M306 75.95C306 75.83 306 75.69 306.05 75.57C306.07 75.52 306.1 75.49 306.14 75.46C306.15 75.45 306.17 75.43 306.2 75.42C306.22 75.41 306.24 75.4 306.27 75.39C306.34 75.37 306.32 75.27 306.25 75.26C306.11 75.26 305.99 75.36 305.93 75.48C305.86 75.63 305.87 75.79 305.88 75.94C305.88 76.01 305.99 76.01 305.99 75.94L306 75.95Z" fill="#EFA88F"/>
<path d="M300.75 70.69C300.7 70.16 300.89 69.64 301.24 69.24C301.3 69.17 301.2 69.07 301.13 69.13C300.72 69.53 300.52 70.12 300.57 70.68C300.57 70.79 300.75 70.79 300.74 70.68L300.75 70.69Z" fill="#492424"/>
<path d="M301.96 71.04C302.31 71.23 302.66 71.42 302.97 71.67C303.3 71.94 303.53 72.26 303.66 72.67C303.79 73.05 303.95 73.38 304.24 73.68C304.51 73.96 304.83 74.21 305.18 74.38C305.23 74.4 305.29 74.34 305.25 74.3C304.96 74.02 304.61 73.82 304.34 73.52C304.19 73.36 304.06 73.19 303.97 72.99C303.87 72.79 303.82 72.56 303.73 72.36C303.42 71.65 302.69 71.26 302.03 70.93C301.96 70.89 301.89 71 301.96 71.04Z" fill="#492424"/>
<path d="M304.97 73.42C305.09 73.58 305.22 73.72 305.36 73.86C305.43 73.93 305.51 73.99 305.58 74.05C305.62 74.08 305.66 74.11 305.7 74.13C305.72 74.14 305.74 74.16 305.76 74.17C305.79 74.18 305.82 74.18 305.85 74.19C305.89 74.19 305.92 74.14 305.9 74.11C305.89 74.09 305.88 74.07 305.86 74.05C305.84 74.03 305.82 74.02 305.8 74.01C305.76 73.98 305.72 73.96 305.69 73.93C305.61 73.88 305.54 73.82 305.47 73.76C305.33 73.64 305.2 73.5 305.08 73.35C305.03 73.29 304.92 73.37 304.97 73.44V73.42Z" fill="#492424"/>
<path d="M306.73 78.26C307.1 78.8 307.4 79.38 307.35 80.05C307.31 80.6 307.07 81.12 306.87 81.62C306.67 82.12 306.45 82.62 306.37 83.16C306.34 83.4 306.33 83.64 306.37 83.88C306.42 84.21 306.57 84.51 306.69 84.82C306.85 85.23 306.89 85.61 306.84 86.04C306.8 86.46 306.71 86.88 306.62 87.29C306.62 87.33 306.68 87.35 306.69 87.31C306.86 86.61 306.96 85.95 306.88 85.23C306.8 84.58 306.47 83.99 306.54 83.33C306.65 82.19 307.45 81.26 307.54 80.11C307.6 79.39 307.28 78.76 306.87 78.18C306.81 78.09 306.66 78.18 306.72 78.27L306.73 78.26Z" fill="#492424"/>
<path d="M307.98 82.55C307.55 83.82 308.51 84.97 309.03 86.05C309.17 86.35 309.29 86.67 309.34 87C309.38 87.33 309.35 87.65 309.31 87.98C309.24 88.51 309.09 89.23 309.47 89.68C309.5 89.71 309.55 89.68 309.54 89.64C309.47 89.32 309.4 89.02 309.42 88.69C309.43 88.39 309.48 88.1 309.52 87.8C309.59 87.21 309.52 86.66 309.29 86.11C308.82 84.99 307.74 83.89 308.11 82.58C308.13 82.5 308.01 82.47 307.99 82.55H307.98Z" fill="#492424"/>
<path d="M314.36 75.89C314.3 76.3 314.3 76.71 314.39 77.12C314.47 77.52 314.65 77.88 314.85 78.24C315.06 78.61 315.28 78.99 315.38 79.41C315.49 79.88 315.46 80.36 315.36 80.82C315.16 81.7 314.73 82.51 314.53 83.39C314.35 84.21 314.41 84.98 314.88 85.69C315.16 86.12 315.43 86.52 315.57 87.01C315.63 87.24 315.67 87.48 315.69 87.73C315.7 87.98 315.67 88.23 315.66 88.48C315.66 88.55 315.76 88.56 315.78 88.5C315.91 88.13 315.87 87.69 315.81 87.3C315.74 86.9 315.61 86.51 315.4 86.16C315.18 85.77 314.87 85.43 314.72 85C314.57 84.58 314.57 84.11 314.64 83.67C314.78 82.78 315.18 81.96 315.42 81.1C315.65 80.28 315.66 79.49 315.27 78.73C315.05 78.3 314.76 77.9 314.59 77.44C314.41 76.95 314.35 76.43 314.42 75.91C314.42 75.88 314.36 75.87 314.36 75.91V75.89Z" fill="#492424"/>
<path d="M313.18 86.21C313.37 86.79 313.63 87.34 313.79 87.93C313.86 88.2 313.9 88.48 313.88 88.77C313.88 88.92 313.85 89.06 313.81 89.2C313.77 89.33 313.69 89.45 313.68 89.58C313.68 89.61 313.72 89.63 313.74 89.61C313.92 89.47 313.96 89.14 313.99 88.93C314.03 88.64 314.02 88.34 313.97 88.05C313.86 87.38 313.54 86.79 313.29 86.17C313.26 86.11 313.16 86.13 313.18 86.2V86.21Z" fill="#492424"/>
<path d="M306.34 77.97C306.56 78.86 306.49 79.81 306.1 80.64C305.92 81.03 305.68 81.39 305.5 81.78C305.33 82.14 305.21 82.53 305.17 82.93C305.13 83.34 305.16 83.77 305.27 84.17C305.37 84.56 305.56 84.91 305.74 85.27C305.95 85.7 306.06 86.13 306.04 86.61C306.01 87.09 305.88 87.56 305.79 88.03C305.65 88.8 305.65 89.75 306.36 90.24C306.4 90.27 306.46 90.2 306.42 90.17C305.71 89.58 305.79 88.62 305.96 87.81C306.13 86.99 306.29 86.22 305.96 85.43C305.79 85.04 305.57 84.68 305.45 84.27C305.32 83.85 305.27 83.4 305.32 82.96C305.37 82.49 305.52 82.06 305.73 81.65C305.92 81.29 306.14 80.94 306.29 80.56C306.63 79.73 306.68 78.81 306.44 77.94C306.43 77.89 306.35 77.91 306.36 77.96L306.34 77.97Z" fill="#6C3939"/>
<path d="M307.5 85.37C307.14 86.23 307.8 87.03 307.8 87.88C307.8 88.53 307.15 89.51 307.75 90.07C307.79 90.1 307.84 90.07 307.82 90.02C307.63 89.66 307.62 89.31 307.72 88.92C307.82 88.54 307.96 88.17 307.93 87.77C307.88 86.97 307.27 86.2 307.58 85.39C307.6 85.34 307.52 85.32 307.51 85.37H307.5Z" fill="#6C3939"/>
<path d="M315.14 76.02C315.19 77.74 316.76 78.92 316.9 80.61C316.94 81.11 316.87 81.62 316.7 82.09C316.54 82.54 316.3 82.97 316.21 83.44C316.13 83.84 316.16 84.24 316.37 84.6C316.56 84.94 316.86 85.21 317.13 85.49C317.47 85.86 317.7 86.28 317.8 86.77C317.91 87.27 317.89 87.79 317.86 88.3C317.86 88.34 317.93 88.36 317.94 88.31C318.08 87.52 318.03 86.63 317.62 85.92C317.2 85.18 316.27 84.73 316.31 83.78C316.33 83.28 316.56 82.81 316.74 82.36C316.91 81.93 317.03 81.48 317.05 81.01C317.08 80.14 316.75 79.37 316.33 78.63C315.86 77.81 315.26 76.99 315.21 76.02C315.21 75.98 315.15 75.98 315.15 76.02H315.14Z" fill="#6C3939"/>
<path d="M307.4 85.85C307.34 86.22 307.33 86.6 307.38 86.98C307.44 87.42 307.56 87.83 307.44 88.27C307.28 88.88 306.88 89.58 307.27 90.18C307.31 90.24 307.4 90.18 307.37 90.12C306.99 89.45 307.49 88.75 307.58 88.08C307.63 87.73 307.54 87.41 307.47 87.07C307.39 86.67 307.38 86.26 307.43 85.85C307.43 85.83 307.39 85.82 307.39 85.85H307.4Z" fill="#6C3939"/>
<path d="M291.07 105.04C291.65 105.91 291.94 106.96 291.87 108.01C291.87 108.04 291.91 108.03 291.91 108.01C292.05 106.94 291.81 105.86 291.22 104.96C291.16 104.87 291.01 104.96 291.07 105.05V105.04Z" fill="#596BC1"/>
<path d="M291.72 104.61C292.07 104.77 292.35 105.06 292.53 105.39C292.55 105.42 292.6 105.4 292.59 105.37C292.53 105.18 292.42 105 292.28 104.85C292.14 104.7 291.97 104.59 291.78 104.5C291.75 104.49 291.71 104.5 291.7 104.52C291.68 104.55 291.7 104.59 291.72 104.6V104.61Z" fill="#596BC1"/>
<path d="M287.52 103.28C287.24 103.82 286.99 104.38 286.78 104.96C286.67 105.25 286.58 105.55 286.5 105.85C286.42 106.13 286.34 106.43 286.34 106.72C286.34 106.77 286.41 106.77 286.42 106.73C286.53 106.46 286.59 106.17 286.67 105.89C286.75 105.6 286.84 105.31 286.94 105.03C287.14 104.46 287.39 103.9 287.67 103.36C287.72 103.26 287.57 103.18 287.52 103.28Z" fill="#596BC1"/>
<path d="M303.79 75.05C303.53 74.61 303.12 74.28 302.63 74.13C302.18 73.99 301.57 74 301.2 74.33C301.1 74.42 301.2 74.56 301.32 74.54C301.52 74.5 301.73 74.42 301.93 74.41C302.14 74.39 302.33 74.41 302.53 74.47C302.95 74.58 303.32 74.84 303.58 75.19C303.67 75.31 303.87 75.2 303.79 75.07V75.05Z" fill="#6C3939"/>
<path d="M301.45 74.62C301.84 74.55 302.28 74.57 302.67 74.68C302.86 74.74 303.05 74.81 303.22 74.91C303.41 75.02 303.57 75.15 303.77 75.23C303.86 75.26 303.93 75.15 303.89 75.08C303.78 74.87 303.58 74.75 303.38 74.64C303.18 74.53 302.96 74.44 302.73 74.39C302.51 74.34 302.29 74.31 302.07 74.31C301.84 74.31 301.62 74.36 301.4 74.44C301.29 74.48 301.33 74.64 301.45 74.62Z" fill="#6C3939"/>
<path d="M302.02 75.57C302.05 75.67 302.09 75.78 302.11 75.88C302.13 75.98 302.13 76.1 302.12 76.2C302.12 76.25 302.12 76.29 302.1 76.33C302.1 76.36 302.09 76.39 302.08 76.42C302.08 76.45 302.08 76.45 302.06 76.47C302.06 76.48 302.05 76.49 302.04 76.5C302.02 76.52 302.05 76.49 302.04 76.5C302.04 76.51 302.02 76.52 302.01 76.53C301.99 76.55 302.01 76.52 302.01 76.53C301.96 76.51 302.01 76.54 302.01 76.53C302.02 76.53 302.03 76.53 302.04 76.54C302.03 76.53 302.03 76.53 302.04 76.54C302.04 76.55 302.04 76.54 302.04 76.53C302.04 76.52 302.04 76.51 302.04 76.5C302.04 76.5 302.04 76.52 302.04 76.48C302.04 76.46 302.04 76.45 302.04 76.44C302.04 76.37 302.04 76.3 302.03 76.24C302.03 76.11 302.03 75.98 302.05 75.86C302.05 75.8 302.07 75.75 302.08 75.7C302.08 75.68 302.11 75.59 302.1 75.58H302.06C302.06 75.58 302.08 75.61 302.09 75.62C302.1 75.65 302.11 75.7 302.11 75.75C302.11 76.01 302.06 76.26 301.93 76.48H302.21C302.17 76.4 302.15 76.29 302.15 76.19C302.15 76.09 302.18 75.99 302.22 75.9H301.98C301.98 75.9 302.01 75.98 302.01 76.02C302.01 76.07 301.99 76.13 301.96 76.16C301.92 76.21 301.91 76.27 301.96 76.32C301.99 76.36 302.06 76.38 302.11 76.35C302.2 76.28 302.27 76.19 302.28 76.08C302.3 75.97 302.28 75.86 302.22 75.77C302.17 75.68 302.04 75.68 301.98 75.77C301.82 76.03 301.79 76.37 301.92 76.65C301.97 76.76 302.14 76.75 302.2 76.65C302.35 76.37 302.43 76.03 302.4 75.71C302.39 75.54 302.33 75.36 302.14 75.33C302.06 75.32 301.97 75.33 301.91 75.4C301.86 75.46 301.84 75.54 301.82 75.61C301.78 75.78 301.75 75.96 301.74 76.14C301.73 76.3 301.72 76.48 301.75 76.63C301.79 76.81 301.97 76.91 302.14 76.82C302.27 76.75 302.35 76.61 302.39 76.48C302.44 76.32 302.45 76.14 302.43 75.97C302.41 75.79 302.36 75.61 302.25 75.46C302.21 75.41 302.16 75.38 302.1 75.41C302.05 75.43 302.01 75.5 302.03 75.55L302.02 75.57Z" fill="#6C3939"/>
<path d="M302.25 79.75C302.5 79.75 302.73 79.67 302.93 79.52C303.09 79.4 303.23 79.24 303.32 79.06C303.35 79.01 303.29 78.94 303.24 78.98C303.09 79.09 302.98 79.23 302.83 79.35C302.67 79.48 302.47 79.56 302.25 79.55C302.12 79.55 302.12 79.75 302.25 79.75Z" fill="#824631"/>
<path d="M322.61 117.73C324.75 115.46 325.15 111.92 324.17 108.95C323.9 108.15 323.55 107.37 323.04 106.69C321.95 105.24 320.28 104.38 318.69 103.51C316.6 102.37 314.54 101.12 312.85 99.44C311.92 98.52 311.12 97.48 310.25 96.5C309.5 95.67 308.7 94.88 307.99 94.01C307.43 93.32 306.94 92.58 306.45 91.84C305.56 90.5 304.68 89.16 303.79 87.82C303.7 87.68 303.6 87.53 303.45 87.46C303.31 87.39 303.16 87.31 303 87.32C302.48 87.33 302.19 87.66 301.63 88.24C301.84 89.51 302.35 89.97 303.07 91.04C305.26 94.26 307.91 97.16 310.93 99.62C311.39 99.99 311.87 100.38 312.1 100.92C312.26 101.31 312.28 101.75 312.23 102.17C311.92 104.83 309.24 106.98 309.57 109.64C309.73 110.93 310.59 112.03 311.5 112.96C312.74 114.23 314.14 115.34 315.65 116.26C317.79 117.56 320.89 119.56 322.61 117.73Z" fill="white"/>
<path d="M313.91 102.4C314.13 103.05 314.24 103.73 314.2 104.41C314.16 105.08 313.94 105.71 313.86 106.37C313.78 106.99 313.88 107.56 314.27 108.05C314.64 108.52 315.11 108.94 315.57 109.33C316.49 110.12 317.51 110.81 318.58 111.37C319.65 111.93 320.81 112.41 321.99 112.68C322.59 112.82 323.22 112.79 323.67 112.33C324.06 111.93 324.26 111.34 324.36 110.81C324.38 110.68 324.21 110.63 324.17 110.76C324.02 111.22 323.88 111.71 323.56 112.08C323.15 112.56 322.56 112.56 321.99 112.42C320.88 112.15 319.79 111.71 318.77 111.19C317.75 110.66 316.78 110.03 315.89 109.3C315.44 108.93 315 108.54 314.61 108.12C314.4 107.9 314.21 107.65 314.12 107.35C314.02 107.05 314.02 106.73 314.06 106.42C314.14 105.74 314.36 105.08 314.38 104.39C314.4 103.7 314.29 103.02 314.06 102.38C314.03 102.29 313.88 102.33 313.92 102.42L313.91 102.4Z" fill="#DDE4ED"/>
<path d="M318.1 110.42C317.9 110.59 317.74 110.8 317.61 111.03C317.49 111.25 317.36 111.54 317.41 111.8C317.46 112.05 317.74 112.19 317.96 112.04C318.06 111.97 318.14 111.86 318.22 111.76C318.3 111.66 318.36 111.55 318.42 111.43C318.53 111.2 318.6 110.93 318.6 110.67C318.6 110.57 318.57 110.44 318.45 110.41C318.31 110.37 318.2 110.5 318.11 110.59C317.94 110.78 317.79 111 317.68 111.24C317.62 111.36 317.58 111.49 317.54 111.62C317.51 111.73 317.47 111.87 317.54 111.97C317.63 112.08 317.77 112.05 317.87 111.98C317.98 111.9 318.05 111.77 318.11 111.64C318.23 111.37 318.29 111.07 318.25 110.77C318.25 110.68 318.15 110.63 318.08 110.7C317.78 110.98 317.6 111.38 317.6 111.8C317.6 111.91 317.73 111.93 317.79 111.85C317.9 111.71 317.99 111.55 318.07 111.39C318.15 111.23 318.23 111.07 318.24 110.89C318.24 110.81 318.14 110.79 318.1 110.85C318.02 111 317.97 111.16 317.89 111.31C317.81 111.46 317.72 111.6 317.61 111.74C317.67 111.76 317.74 111.77 317.8 111.79C317.81 111.43 317.96 111.09 318.22 110.84C318.16 110.82 318.1 110.79 318.05 110.77C318.07 110.97 318.06 111.16 318 111.36C317.97 111.45 317.94 111.53 317.89 111.61C317.85 111.68 317.8 111.8 317.71 111.83C317.69 111.83 317.7 111.84 317.69 111.83C317.69 111.79 317.71 111.73 317.72 111.7C317.75 111.6 317.78 111.51 317.82 111.42C317.9 111.24 318 111.06 318.12 110.9C318.17 110.83 318.24 110.76 318.3 110.69C318.31 110.67 318.38 110.61 318.38 110.61C318.4 110.63 318.38 110.72 318.38 110.74C318.36 110.93 318.32 111.12 318.24 111.29C318.16 111.47 318.05 111.64 317.92 111.79C317.87 111.84 317.81 111.92 317.73 111.91C317.63 111.9 317.59 111.78 317.58 111.7C317.58 111.59 317.62 111.48 317.65 111.37C317.69 111.27 317.73 111.17 317.79 111.08C317.9 110.88 318.05 110.71 318.21 110.56C318.31 110.47 318.16 110.33 318.07 110.42H318.1Z" fill="#DDE4ED"/>
<path d="M250.83 82.47C251.05 82.57 251.3 82.59 251.54 82.53C251.73 82.48 251.92 82.39 252.08 82.26C252.12 82.22 252.1 82.13 252.04 82.15C251.86 82.19 251.7 82.28 251.52 82.33C251.32 82.39 251.11 82.38 250.91 82.29C250.79 82.24 250.72 82.42 250.83 82.47Z" fill="#824631"/>
<path d="M244.869 145.659C245.002 145.521 245.068 145.349 245.068 145.144V138.515C245.068 138.301 245.003 138.125 244.876 137.987C244.747 137.849 244.586 137.78 244.393 137.78C244.237 137.78 244.104 137.821 243.996 137.904C243.887 137.987 243.767 138.132 243.634 138.337L241.36 141.989L239.085 138.337C238.961 138.132 238.842 137.987 238.729 137.904C238.615 137.821 238.486 137.78 238.338 137.78C238.137 137.78 237.97 137.849 237.843 137.987C237.714 138.125 237.651 138.301 237.651 138.515V145.144C237.651 145.349 237.718 145.521 237.85 145.659C237.982 145.797 238.148 145.866 238.352 145.866C238.556 145.866 238.722 145.797 238.854 145.659C238.986 145.521 239.053 145.349 239.053 145.144V140.806L240.686 143.425C240.788 143.583 240.89 143.699 240.995 143.775C241.1 143.851 241.222 143.887 241.363 143.887C241.504 143.887 241.628 143.849 241.736 143.775C241.845 143.699 241.947 143.583 242.04 143.425L243.673 140.806V145.144C243.673 145.349 243.74 145.521 243.872 145.659C244.004 145.797 244.17 145.866 244.374 145.866C244.578 145.866 244.744 145.797 244.876 145.659H244.869Z" fill="#1348BA"/>
<path d="M247.694 145.458C248.16 145.73 248.678 145.866 249.246 145.866C249.814 145.866 250.321 145.73 250.791 145.458C251.261 145.185 251.633 144.815 251.906 144.349C252.177 143.882 252.315 143.368 252.315 142.808C252.315 142.247 252.179 141.733 251.906 141.271C251.633 140.809 251.263 140.442 250.791 140.168C250.32 139.896 249.806 139.759 249.246 139.759C248.686 139.759 248.17 139.894 247.701 140.163C247.229 140.432 246.861 140.799 246.593 141.266C246.325 141.733 246.191 142.247 246.191 142.808C246.191 143.368 246.325 143.883 246.593 144.349C246.861 144.816 247.229 145.185 247.695 145.458H247.694ZM247.828 141.918C247.972 141.649 248.169 141.44 248.416 141.289C248.666 141.139 248.946 141.063 249.256 141.063C249.567 141.063 249.833 141.14 250.079 141.294C250.325 141.447 250.518 141.658 250.662 141.923C250.807 142.189 250.878 142.487 250.878 142.818C250.878 143.149 250.807 143.437 250.662 143.701C250.518 143.966 250.325 144.173 250.079 144.323C249.835 144.473 249.556 144.549 249.244 144.549C248.932 144.549 248.652 144.477 248.405 144.33C248.155 144.183 247.962 143.978 247.821 143.713C247.68 143.447 247.611 143.149 247.611 142.818C247.611 142.487 247.682 142.185 247.826 141.916L247.828 141.918Z" fill="#1348BA"/>
<path d="M258.462 144.68C258.532 144.561 258.567 144.439 258.567 144.313C258.567 144.139 258.506 143.989 258.386 143.863C258.265 143.737 258.119 143.673 257.948 143.673C257.846 143.673 257.76 143.69 257.685 143.727C257.611 143.763 257.536 143.82 257.458 143.899C257.28 144.104 257.081 144.266 256.862 144.385C256.645 144.504 256.403 144.563 256.14 144.563C255.821 144.563 255.538 144.487 255.288 144.337C255.039 144.187 254.842 143.98 254.7 143.715C254.555 143.449 254.484 143.147 254.484 142.808C254.484 142.468 254.555 142.177 254.7 141.913C254.844 141.647 255.041 141.44 255.288 141.29C255.538 141.14 255.821 141.065 256.14 141.065C256.411 141.065 256.657 141.123 256.874 141.242C257.091 141.361 257.287 141.523 257.458 141.728C257.582 141.878 257.746 141.954 257.948 141.954C258.119 141.954 258.265 141.89 258.386 141.765C258.506 141.639 258.567 141.489 258.567 141.315C258.567 141.196 258.525 141.07 258.438 140.935C258.213 140.58 257.892 140.296 257.477 140.082C257.061 139.868 256.611 139.761 256.13 139.761C255.561 139.761 255.042 139.897 254.572 140.17C254.101 140.442 253.733 140.809 253.465 141.273C253.197 141.735 253.063 142.247 253.063 142.809C253.063 143.371 253.197 143.887 253.465 144.358C253.733 144.828 254.102 145.197 254.572 145.466C255.042 145.735 255.561 145.87 256.13 145.87C256.627 145.87 257.078 145.765 257.483 145.556C257.887 145.347 258.214 145.056 258.464 144.683L258.462 144.68Z" fill="#1348BA"/>
<path d="M264.571 145.677C264.7 145.551 264.764 145.396 264.764 145.215C264.764 145.033 264.71 144.89 264.601 144.765L262.837 142.804L264.484 140.897C264.616 140.747 264.683 140.585 264.683 140.411C264.683 140.237 264.62 140.075 264.496 139.949C264.372 139.823 264.216 139.759 264.03 139.759C263.828 139.759 263.663 139.83 263.539 139.973L261.556 142.297C261.471 142.401 261.409 142.49 261.37 142.57C261.331 142.649 261.312 142.728 261.312 142.808C261.312 142.894 261.327 142.98 261.36 143.063C261.39 143.146 261.444 143.232 261.522 143.318L263.622 145.654C263.755 145.797 263.918 145.868 264.113 145.868C264.291 145.868 264.445 145.804 264.574 145.678L264.571 145.677Z" fill="#1348BA"/>
<path d="M260.342 145.866C260.537 145.866 260.7 145.797 260.832 145.659C260.964 145.521 261.03 145.349 261.03 145.144V140.482C261.03 140.277 260.964 140.104 260.832 139.966C260.7 139.828 260.537 139.759 260.342 139.759C260.147 139.759 259.97 139.828 259.835 139.966C259.699 140.104 259.631 140.277 259.631 140.482V145.142C259.631 145.347 259.699 145.52 259.835 145.658C259.97 145.796 260.14 145.865 260.342 145.865V145.866Z" fill="#1348BA"/>
<path d="M270.949 144.349C271.22 143.882 271.358 143.368 271.358 142.808C271.358 142.247 271.222 141.733 270.949 141.271C270.676 140.809 270.306 140.442 269.835 140.168C269.363 139.896 268.849 139.759 268.289 139.759C267.729 139.759 267.214 139.894 266.744 140.163C266.272 140.432 265.904 140.799 265.636 141.266C265.368 141.733 265.234 142.247 265.234 142.808C265.234 143.368 265.368 143.883 265.636 144.349C265.904 144.816 266.272 145.185 266.739 145.458C267.205 145.73 267.723 145.866 268.291 145.866C268.859 145.866 269.366 145.73 269.836 145.458C270.306 145.185 270.678 144.815 270.951 144.349H270.949ZM269.706 143.702C269.561 143.968 269.368 144.175 269.122 144.325C268.878 144.475 268.6 144.551 268.287 144.551C267.975 144.551 267.695 144.478 267.448 144.332C267.198 144.185 267.005 143.98 266.864 143.715C266.723 143.449 266.654 143.151 266.654 142.82C266.654 142.489 266.725 142.187 266.869 141.918C267.013 141.649 267.21 141.44 267.458 141.289C267.707 141.139 267.987 141.063 268.298 141.063C268.608 141.063 268.874 141.14 269.12 141.294C269.366 141.447 269.56 141.658 269.704 141.923C269.848 142.189 269.919 142.487 269.919 142.818C269.919 143.149 269.848 143.437 269.704 143.701L269.706 143.702Z" fill="#1348BA"/>
<path d="M277.232 144.877C277.407 144.604 277.495 144.297 277.495 143.958C277.495 143.563 277.373 143.237 277.127 142.978C276.973 142.818 276.781 142.692 276.559 142.594C276.66 142.508 276.749 142.409 276.823 142.296C276.974 142.066 277.051 141.806 277.051 141.513C277.051 141.015 276.866 140.62 276.496 140.327C276.126 140.033 275.649 139.887 275.066 139.887H273.186C272.985 139.887 272.813 139.956 272.672 140.094C272.532 140.232 272.462 140.408 272.462 140.621V145.009C272.462 145.215 272.532 145.387 272.672 145.525C272.813 145.663 272.983 145.732 273.186 145.732H275.427C275.831 145.732 276.189 145.656 276.501 145.506C276.811 145.356 277.056 145.144 277.23 144.871L277.232 144.877ZM273.819 140.992H275.01C275.259 140.992 275.446 141.042 275.57 141.14C275.694 141.239 275.756 141.387 275.756 141.585C275.756 141.783 275.692 141.935 275.565 142.042C275.437 142.149 275.251 142.202 275.01 142.202H273.819V140.992ZM275.948 144.449C275.789 144.58 275.568 144.644 275.288 144.644H273.817V143.232H275.288C275.568 143.232 275.789 143.294 275.948 143.416C276.107 143.539 276.187 143.708 276.187 143.92C276.187 144.132 276.107 144.316 275.948 144.447V144.449Z" fill="#1348BA"/>
<path d="M283.795 144.313C283.795 144.139 283.734 143.989 283.614 143.863C283.493 143.737 283.348 143.673 283.176 143.673C283.074 143.673 282.988 143.69 282.913 143.727C282.839 143.763 282.764 143.82 282.686 143.899C282.508 144.104 282.309 144.266 282.091 144.385C281.873 144.504 281.631 144.563 281.368 144.563C281.049 144.563 280.766 144.487 280.516 144.337C280.267 144.187 280.07 143.98 279.928 143.715C279.784 143.449 279.712 143.147 279.712 142.808C279.712 142.468 279.784 142.177 279.928 141.913C280.072 141.647 280.269 141.44 280.516 141.29C280.766 141.14 281.049 141.065 281.368 141.065C281.639 141.065 281.885 141.123 282.102 141.242C282.32 141.361 282.515 141.523 282.686 141.728C282.81 141.878 282.974 141.954 283.176 141.954C283.348 141.954 283.493 141.89 283.614 141.765C283.734 141.639 283.795 141.489 283.795 141.315C283.795 141.196 283.753 141.07 283.666 140.935C283.441 140.58 283.12 140.296 282.705 140.082C282.289 139.868 281.84 139.761 281.358 139.761C280.789 139.761 280.27 139.897 279.801 140.17C279.329 140.442 278.961 140.809 278.693 141.273C278.425 141.735 278.291 142.247 278.291 142.809C278.291 143.371 278.425 143.887 278.693 144.358C278.961 144.828 279.331 145.197 279.801 145.466C280.27 145.735 280.789 145.87 281.358 145.87C281.855 145.87 282.306 145.765 282.711 145.556C283.115 145.347 283.443 145.056 283.692 144.683C283.761 144.565 283.797 144.442 283.797 144.316L283.795 144.313Z" fill="#1348BA"/>
<path d="M285.568 145.866C285.763 145.866 285.926 145.797 286.058 145.659C286.191 145.521 286.257 145.349 286.257 145.144V140.482C286.257 140.277 286.191 140.104 286.058 139.966C285.926 139.828 285.763 139.759 285.568 139.759C285.373 139.759 285.197 139.828 285.061 139.966C284.925 140.104 284.857 140.277 284.857 140.482V145.142C284.857 145.347 284.925 145.52 285.061 145.658C285.197 145.796 285.366 145.865 285.568 145.865V145.866Z" fill="#1348BA"/>
<path d="M288.063 142.804L289.71 140.897C289.843 140.747 289.909 140.585 289.909 140.411C289.909 140.237 289.846 140.075 289.722 139.949C289.599 139.823 289.442 139.759 289.256 139.759C289.054 139.759 288.889 139.83 288.766 139.973L286.783 142.297C286.698 142.401 286.635 142.49 286.596 142.57C286.557 142.649 286.538 142.728 286.538 142.808C286.538 142.894 286.554 142.98 286.586 143.063C286.616 143.146 286.671 143.232 286.749 143.318L288.849 145.654C288.981 145.797 289.144 145.868 289.339 145.868C289.517 145.868 289.671 145.804 289.8 145.678C289.929 145.552 289.994 145.397 289.994 145.216C289.994 145.035 289.94 144.892 289.831 144.766L288.067 142.806L288.063 142.804Z" fill="#1348BA"/>
<path d="M293.188 139.759C292.767 139.759 292.377 139.827 292.016 139.961C291.655 140.096 291.349 140.285 291.1 140.53C290.913 140.713 290.82 140.906 290.82 141.111C290.82 141.27 290.878 141.406 290.995 141.52C291.112 141.635 291.251 141.692 291.415 141.692C291.493 141.692 291.565 141.678 291.631 141.651C291.697 141.623 291.773 141.573 291.858 141.502C292.036 141.337 292.226 141.215 292.425 141.135C292.623 141.056 292.835 141.016 293.061 141.016C293.426 141.016 293.711 141.115 293.912 141.313C294.114 141.511 294.216 141.792 294.216 142.154V142.463H292.676C292.014 142.463 291.492 142.615 291.107 142.92C290.722 143.225 290.53 143.637 290.53 144.159C290.53 144.682 290.715 145.087 291.085 145.399C291.454 145.711 291.934 145.868 292.527 145.868C292.947 145.868 293.322 145.789 293.653 145.63C293.88 145.521 294.077 145.378 294.247 145.208C294.257 145.383 294.32 145.535 294.44 145.661C294.572 145.799 294.74 145.868 294.942 145.868C295.144 145.868 295.298 145.801 295.426 145.666C295.554 145.532 295.619 145.361 295.619 145.156V142.227C295.619 141.444 295.405 140.837 294.978 140.406C294.55 139.975 293.955 139.759 293.193 139.759H293.188ZM294.035 144.183C293.914 144.373 293.751 144.523 293.544 144.633C293.337 144.744 293.11 144.799 292.862 144.799C292.582 144.799 292.36 144.739 292.197 144.615C292.035 144.492 291.953 144.32 291.953 144.099C291.953 143.878 292.029 143.723 292.18 143.613C292.331 143.502 292.56 143.447 292.862 143.447H294.216V143.542C294.216 143.78 294.155 143.992 294.035 144.182V144.183Z" fill="#1348BA"/>
<path d="M301.478 140.097C301.342 139.959 301.169 139.89 300.959 139.89H299.151C298.459 139.89 297.907 140.07 297.5 140.43C297.091 140.79 296.888 141.27 296.888 141.871C296.888 142.473 297.098 142.959 297.517 143.306C297.666 143.43 297.833 143.53 298.016 143.611L297.191 144.647C297.113 144.742 297.056 144.83 297.017 144.908C296.978 144.987 296.959 145.073 296.959 145.168C296.959 145.358 297.027 145.521 297.163 145.659C297.298 145.797 297.465 145.866 297.658 145.866C297.875 145.866 298.052 145.783 298.184 145.618L299.56 143.851H300.284V145.144C300.284 145.349 300.35 145.521 300.482 145.659C300.615 145.797 300.783 145.866 300.984 145.866C301.186 145.866 301.354 145.797 301.487 145.659C301.619 145.521 301.685 145.349 301.685 145.144V140.625C301.685 140.411 301.617 140.235 301.482 140.097H301.478ZM300.282 142.689H299.22C298.94 142.689 298.718 142.616 298.555 142.47C298.392 142.323 298.311 142.128 298.311 141.882C298.311 141.635 298.392 141.447 298.555 141.313C298.718 141.178 298.937 141.111 299.208 141.111H300.282V142.689Z" fill="#1348BA"/>
<path d="M242.097 151.546C241.673 151.285 241.205 151.154 240.691 151.154C240.099 151.154 239.599 151.313 239.187 151.628C238.975 151.79 238.793 151.98 238.64 152.192C238.652 151.602 238.722 151.137 238.854 150.799C238.998 150.428 239.253 150.142 239.619 149.946C239.984 149.747 240.506 149.609 241.183 149.53C241.511 149.49 241.789 149.447 242.018 149.399C242.247 149.351 242.479 149.292 242.712 149.221C242.883 149.173 243.014 149.099 243.102 148.996C243.192 148.892 243.236 148.754 243.236 148.58C243.236 148.406 243.173 148.268 243.049 148.142C242.925 148.016 242.776 147.952 242.606 147.952C242.544 147.952 242.432 147.968 242.267 147.999L242.045 148.058C241.826 148.113 241.5 148.18 241.064 148.259C240.153 148.394 239.429 148.623 238.888 148.947C238.347 149.271 237.955 149.733 237.709 150.335C237.465 150.937 237.341 151.723 237.341 152.696V153.609C237.341 154.313 237.472 154.923 237.731 155.442C237.992 155.959 238.354 156.356 238.817 156.628C239.28 156.901 239.806 157.037 240.398 157.037C240.99 157.037 241.504 156.906 241.967 156.646C242.43 156.385 242.79 156.032 243.046 155.583C243.302 155.137 243.431 154.64 243.431 154.096C243.431 153.551 243.314 153.065 243.081 152.613C242.847 152.163 242.52 151.806 242.096 151.546H242.097ZM241.782 154.932C241.638 155.18 241.443 155.378 241.198 155.525C240.954 155.671 240.683 155.744 240.388 155.744C240.092 155.744 239.819 155.671 239.57 155.525C239.321 155.378 239.124 155.182 238.981 154.932C238.837 154.683 238.766 154.404 238.766 154.096C238.766 153.787 238.837 153.518 238.981 153.265C239.125 153.011 239.321 152.815 239.57 152.671C239.819 152.528 240.091 152.458 240.388 152.458C240.684 152.458 240.954 152.528 241.198 152.671C241.443 152.815 241.638 153.011 241.782 153.265C241.926 153.518 241.997 153.794 241.997 154.096C241.997 154.397 241.926 154.682 241.782 154.932Z" fill="#1348BA"/>
<path d="M248.784 151.351C248.313 151.078 247.799 150.942 247.239 150.942C246.679 150.942 246.164 151.077 245.694 151.346C245.222 151.615 244.854 151.982 244.586 152.449C244.318 152.916 244.184 153.43 244.184 153.99C244.184 154.551 244.318 155.066 244.586 155.532C244.854 155.999 245.222 156.368 245.689 156.64C246.155 156.913 246.673 157.049 247.241 157.049C247.809 157.049 248.316 156.913 248.786 156.64C249.256 156.368 249.628 155.997 249.901 155.532C250.172 155.065 250.309 154.551 250.309 153.99C250.309 153.43 250.174 152.916 249.901 152.454C249.628 151.992 249.258 151.625 248.786 151.351H248.784ZM248.656 154.885C248.511 155.151 248.318 155.358 248.072 155.508C247.828 155.658 247.55 155.733 247.237 155.733C246.925 155.733 246.645 155.661 246.398 155.515C246.148 155.368 245.955 155.163 245.814 154.897C245.673 154.632 245.604 154.333 245.604 154.002C245.604 153.671 245.675 153.37 245.819 153.101C245.963 152.832 246.16 152.623 246.408 152.471C246.657 152.321 246.937 152.246 247.248 152.246C247.558 152.246 247.824 152.323 248.07 152.477C248.316 152.63 248.51 152.84 248.654 153.106C248.798 153.371 248.869 153.67 248.869 154.001C248.869 154.332 248.798 154.62 248.654 154.883L248.656 154.885Z" fill="#1348BA"/>
<path d="M255.58 151.071H252.605C252.403 151.071 252.233 151.14 252.098 151.278C251.962 151.416 251.894 151.592 251.894 151.806C251.885 152.035 251.879 152.268 251.87 152.506C251.862 153.233 251.829 153.832 251.772 154.302C251.714 154.773 251.624 155.128 251.504 155.37C251.383 155.611 251.222 155.739 251.02 155.756C250.973 155.756 250.924 155.771 250.869 155.804C250.746 155.828 250.642 155.894 250.561 155.999C250.479 156.104 250.438 156.23 250.438 156.373C250.438 156.523 250.481 156.654 250.567 156.765C250.652 156.875 250.766 156.942 250.907 156.966C251 156.997 251.105 157.013 251.222 157.013C251.689 157.013 252.064 156.863 252.349 156.563C252.632 156.263 252.842 155.799 252.978 155.175C253.114 154.551 253.19 153.725 253.205 152.696V152.292H254.908V156.325C254.908 156.53 254.975 156.702 255.107 156.84C255.239 156.978 255.407 157.047 255.609 157.047C255.811 157.047 255.967 156.978 256.099 156.84C256.232 156.702 256.298 156.53 256.298 156.325V151.806C256.298 151.592 256.23 151.416 256.094 151.278C255.958 151.14 255.789 151.071 255.587 151.071H255.58Z" fill="#1348BA"/>
<path d="M261.497 153.089C261.147 152.923 260.745 152.84 260.296 152.84H259.164V151.666C259.164 151.461 259.098 151.289 258.966 151.151C258.834 151.013 258.671 150.944 258.476 150.944C258.281 150.944 258.104 151.013 257.968 151.151C257.833 151.289 257.765 151.461 257.765 151.666V156.197C257.765 156.402 257.834 156.575 257.975 156.713C258.116 156.851 258.286 156.92 258.489 156.92H260.298C260.749 156.92 261.149 156.839 261.499 156.677C261.848 156.515 262.125 156.278 262.326 155.965C262.528 155.652 262.63 155.29 262.63 154.88C262.63 154.47 262.528 154.099 262.326 153.796C262.125 153.492 261.848 153.256 261.499 153.09L261.497 153.089ZM260.942 155.485C260.774 155.628 260.544 155.699 260.248 155.699H259.163V154.063H260.236C260.532 154.063 260.766 154.135 260.937 154.282C261.108 154.428 261.193 154.632 261.193 154.892C261.193 155.152 261.11 155.342 260.942 155.485Z" fill="#1348BA"/>
<path d="M268.136 150.942C267.935 150.942 267.767 151.011 267.634 151.149C267.502 151.287 267.436 151.459 267.436 151.665V153.254H265.125V151.665C265.125 151.459 265.061 151.287 264.932 151.149C264.803 151.011 264.639 150.942 264.437 150.942C264.235 150.942 264.065 151.011 263.93 151.149C263.794 151.287 263.726 151.459 263.726 151.665V156.325C263.726 156.53 263.794 156.702 263.93 156.84C264.065 156.978 264.235 157.047 264.437 157.047C264.639 157.047 264.805 156.978 264.932 156.84C265.059 156.702 265.125 156.53 265.125 156.325V154.475H267.436V156.325C267.436 156.53 267.502 156.702 267.634 156.84C267.767 156.978 267.933 157.047 268.136 157.047C268.34 157.047 268.505 156.978 268.632 156.84C268.759 156.702 268.823 156.53 268.823 156.325V151.665C268.823 151.459 268.759 151.287 268.632 151.149C268.503 151.011 268.338 150.942 268.136 150.942Z" fill="#1348BA"/>
<path d="M274.776 150.942C274.527 150.942 274.313 151.061 274.135 151.297L271.707 154.609V151.665C271.707 151.459 271.641 151.287 271.509 151.149C271.376 151.011 271.214 150.942 271.019 150.942C270.823 150.942 270.647 151.011 270.511 151.149C270.376 151.287 270.308 151.459 270.308 151.665V156.325C270.308 156.53 270.376 156.702 270.511 156.84C270.647 156.978 270.813 157.047 271.007 157.047C271.248 157.047 271.458 156.932 271.636 156.702L274.063 153.466V156.323C274.063 156.528 274.131 156.701 274.267 156.839C274.403 156.977 274.569 157.046 274.762 157.046C274.956 157.046 275.132 156.977 275.264 156.839C275.397 156.701 275.463 156.528 275.463 156.323V151.663C275.463 151.458 275.397 151.285 275.264 151.147C275.132 151.009 274.969 150.94 274.774 150.94L274.776 150.942Z" fill="#1348BA"/>
<path d="M282.15 155.697L281.916 155.78V151.665C281.916 151.459 281.851 151.287 281.722 151.149C281.594 151.011 281.429 150.942 281.227 150.942C281.025 150.942 280.857 151.011 280.725 151.149C280.593 151.287 280.527 151.459 280.527 151.665V155.697H278.345V151.665C278.345 151.459 278.279 151.287 278.147 151.149C278.014 151.011 277.851 150.942 277.656 150.942C277.461 150.942 277.285 151.011 277.149 151.149C277.013 151.287 276.946 151.459 276.946 151.665V156.196C276.946 156.401 277.015 156.573 277.156 156.711C277.297 156.849 277.466 156.918 277.67 156.918H281.521V158.08C281.521 158.278 281.585 158.444 281.712 158.578C281.841 158.713 282.002 158.78 282.196 158.78C282.389 158.78 282.55 158.713 282.674 158.578C282.798 158.444 282.861 158.278 282.861 158.08V156.432C282.861 156.218 282.793 156.042 282.657 155.904C282.521 155.766 282.352 155.697 282.15 155.697Z" fill="#1348BA"/>
<path d="M286.164 150.942C285.743 150.942 285.353 151.009 284.991 151.144C284.63 151.278 284.325 151.468 284.075 151.713C283.889 151.896 283.795 152.089 283.795 152.294C283.795 152.452 283.853 152.589 283.97 152.702C284.087 152.818 284.226 152.875 284.391 152.875C284.469 152.875 284.54 152.861 284.606 152.833C284.672 152.806 284.749 152.756 284.834 152.685C285.012 152.52 285.202 152.397 285.4 152.318C285.599 152.239 285.811 152.199 286.036 152.199C286.401 152.199 286.686 152.297 286.888 152.496C287.09 152.694 287.192 152.975 287.192 153.337V153.646H285.651C284.99 153.646 284.467 153.797 284.082 154.102C283.697 154.408 283.505 154.82 283.505 155.342C283.505 155.865 283.69 156.27 284.06 156.582C284.43 156.894 284.91 157.051 285.502 157.051C285.923 157.051 286.298 156.971 286.628 156.813C286.856 156.704 287.052 156.561 287.222 156.39C287.232 156.566 287.295 156.718 287.415 156.844C287.548 156.982 287.716 157.051 287.918 157.051C288.119 157.051 288.274 156.983 288.401 156.849C288.53 156.715 288.594 156.544 288.594 156.339V153.409C288.594 152.627 288.381 152.02 287.953 151.589C287.526 151.158 286.93 150.942 286.169 150.942H286.164ZM287.01 155.366C286.89 155.556 286.727 155.706 286.52 155.816C286.313 155.927 286.086 155.982 285.838 155.982C285.558 155.982 285.336 155.921 285.173 155.797C285.01 155.675 284.929 155.502 284.929 155.282C284.929 155.061 285.005 154.906 285.156 154.796C285.307 154.685 285.536 154.63 285.838 154.63H287.192V154.725C287.192 154.963 287.13 155.175 287.01 155.365V155.366Z" fill="#1348BA"/>
<path d="M215.602 153.278H211.08C210.634 153.278 210.429 152.71 210.771 152.418L212.385 151.031C213.99 149.667 215.122 148.444 215.783 147.364C216.445 146.284 216.777 145.128 216.777 143.895C216.777 142.661 216.506 141.672 215.966 140.752C215.425 139.834 214.675 139.108 213.714 138.576C212.752 138.047 211.666 137.78 210.454 137.78C209.373 137.78 208.366 138.004 207.434 138.447C206.501 138.893 205.736 139.5 205.14 140.267C204.543 141.034 204.161 141.912 203.993 142.897C203.9 143.429 203.881 143.902 203.937 144.318C203.974 144.887 204.166 145.341 204.511 145.682C204.856 146.022 205.289 146.194 205.812 146.194C206.335 146.194 206.736 146.043 207.071 145.74C207.406 145.438 207.611 145.03 207.687 144.517L207.743 144.177C207.762 144.025 207.78 143.864 207.799 143.694C207.855 143.202 207.999 142.778 208.232 142.428C208.466 142.077 208.759 141.807 209.114 141.617C209.468 141.428 209.879 141.334 210.344 141.334C211.109 141.334 211.724 141.585 212.191 142.087C212.656 142.589 212.89 143.258 212.89 144.091C212.89 144.849 212.685 145.555 212.274 146.208C211.862 146.862 211.145 147.644 210.119 148.554L204.469 153.42C203.946 153.857 203.685 154.387 203.685 155.013C203.685 155.526 203.866 155.971 204.23 156.35C204.594 156.73 205.037 156.919 205.558 156.919L215.601 156.89C216.142 156.89 216.584 156.719 216.929 156.377C217.274 156.037 217.447 155.6 217.447 155.07C217.447 154.54 217.274 154.132 216.929 153.79C216.584 153.45 216.14 153.278 215.601 153.278H215.602Z" fill="#1348BA"/>
<path d="M224.837 152.846H222.898C222.356 152.846 221.923 152.67 221.597 152.32C221.27 151.969 221.107 151.558 221.107 151.083C221.107 150.61 221.272 150.192 221.597 149.832C221.923 149.473 222.356 149.292 222.898 149.292H224.837C225.103 149.292 225.316 149.074 225.316 148.805V146.812C225.316 146.263 225.497 145.802 225.861 145.432C226.225 145.063 226.668 144.879 227.19 144.879C227.711 144.879 228.183 145.063 228.547 145.432C228.911 145.802 229.092 146.262 229.092 146.812V148.805C229.092 149.076 229.307 149.292 229.571 149.292H231.51C232.052 149.292 232.485 149.473 232.811 149.832C233.138 150.192 233.301 150.61 233.301 151.083C233.301 151.556 233.136 151.969 232.811 152.32C232.485 152.67 232.052 152.846 231.51 152.846H229.571C229.305 152.846 229.092 153.064 229.092 153.333V155.352C229.092 155.902 228.911 156.367 228.547 156.745C228.183 157.124 227.731 157.315 227.19 157.315C226.706 157.315 226.245 157.129 225.898 156.785C225.509 156.399 225.315 155.921 225.315 155.354V153.334C225.315 153.064 225.1 152.848 224.836 152.848L224.837 152.846Z" fill="#E30613"/>
<path d="M219.989 150.434L224.756 140.398C224.849 140.171 224.897 139.944 224.897 139.715C224.897 139.185 224.71 138.729 224.336 138.351C223.962 137.973 223.516 137.782 222.994 137.782C222.603 137.782 222.253 137.9 221.945 138.138C221.637 138.375 221.4 138.673 221.233 139.034L216.058 150.032C215.946 150.316 215.89 150.591 215.89 150.856C215.89 151.368 216.076 151.814 216.45 152.192C216.822 152.572 217.261 152.762 217.765 152.762H220.068C220.26 152.762 220.397 152.529 220.27 152.385C219.945 152.013 219.684 151.112 219.994 150.434H219.989Z" fill="#1348BA"/>
<path d="M299.82 110.2C295.78 126.18 297.23 143.43 291.16 158.75C293.36 162.01 296.57 163.89 300.48 164.34C305.61 164.94 310.72 162.62 315.86 163.05C318.56 163.27 321.14 164.24 323.82 164.63C326.5 165.02 329.52 164.68 331.41 162.74C330.26 147.09 327.94 129.6 324.05 114.39C321.48 112.65 318.53 112.67 315.96 110.93C314.8 110.14 313.61 109.34 312.28 108.89C310.84 108.4 309.29 108.35 307.78 108.37C305.33 108.41 302.23 109.73 299.82 110.18V110.2Z" fill="#7A86DE"/>
</g>
<defs>
<clipPath id="clip0_1163_5973">
<rect width="341" height="225" fill="white"/>
</clipPath>
</defs>
</svg>
