<svg width="341" height="214" viewBox="0 0 341 214" fill="none" xmlns="http://www.w3.org/2000/svg">
<g clip-path="url(#clip0_1163_6500)">
<g clip-path="url(#clip1_1163_6500)">
<path d="M342.21 142.72H-1.20996V207H342.21V142.72Z" fill="#CFD5EE"/>
<mask id="mask0_1163_6500" style="mask-type:luminance" maskUnits="userSpaceOnUse" x="-2" y="142" width="345" height="65">
<path d="M342.21 142.79H-1.20996V207H342.21V142.79Z" fill="white"/>
</mask>
<g mask="url(#mask0_1163_6500)">
<path d="M208.95 135.76L271.26 279.8" stroke="#E1E6F3" stroke-miterlimit="10"/>
<path d="M166.23 135.76L193.37 284" stroke="#E1E6F3" stroke-miterlimit="10"/>
<path d="M119.99 135.76L122 288.73" stroke="#E1E6F3" stroke-miterlimit="10"/>
<path d="M73.2601 135.76L39.5901 288.73" stroke="#E1E6F3" stroke-miterlimit="10"/>
<path d="M24.0101 138.91L-37.7999 281.37" stroke="#E1E6F3" stroke-miterlimit="10"/>
<path d="M262.72 143.12L338.6 276.64" stroke="#E1E6F3" stroke-miterlimit="10"/>
<path d="M319.51 134.18L402.93 266.13" stroke="#E1E6F3" stroke-miterlimit="10"/>
<path d="M-6.13989 172.03H347.15" stroke="#E1E6F3" stroke-miterlimit="10"/>
<path d="M-6.13989 205.15H347.15" stroke="#E1E6F3" stroke-miterlimit="10"/>
</g>
</g>
<path d="M266.55 49.9141C266.55 49.9141 266.57 49.8763 266.55 49.8763C266.53 49.8763 266.53 49.9141 266.55 49.9141Z" fill="#CFD5EE"/>
<path d="M319.56 26.8784H192.71L193.78 24.5672C196.24 19.2505 201.77 15.817 207.88 15.817H303.98C309.51 15.817 314.62 18.6323 317.36 23.2071L319.56 26.8784Z" fill="#CFD5EE"/>
<path d="M214.06 0.0570679H212.65V16.283H214.06V0.0570679Z" fill="#CFD5EE"/>
<path d="M299.62 0.0570679H298.21V16.283H299.62V0.0570679Z" fill="#CFD5EE"/>
<path d="M163.35 152.577H-1.46997V160.833H163.35V152.577Z" fill="#ABB6D8"/>
<g opacity="0.45">
<path d="M71.4501 160.833H121.13H152.69V12.8019H71.4501V160.833Z" fill="#ABB6D8"/>
</g>
<path d="M77.3801 160.833H120.91H148.56V17.0819H77.3801V160.833Z" fill="#2D7CFA"/>
<path d="M149.5 159.986V22.8837C149.5 21.029 149.54 19.1744 149.5 17.3292C149.5 17.2436 149.5 17.1675 149.5 17.0819C149.5 16.6064 149.07 16.1974 148.57 16.1974H86.16C83.28 16.1974 80.38 16.0833 77.5 16.1974C77.46 16.1974 77.42 16.1974 77.38 16.1974C76.88 16.1974 76.45 16.6064 76.45 17.0819V154.194C76.45 156.049 76.41 157.903 76.45 159.749C76.45 159.834 76.45 159.91 76.45 159.996C76.45 161.137 78.31 161.137 78.31 159.996V22.8837C78.31 21.0385 78.42 19.1649 78.31 17.3292C78.31 17.2531 78.31 17.1675 78.31 17.0819C78 17.3768 77.69 17.6716 77.38 17.9665H145.66C146.56 17.9665 147.55 18.0806 148.44 17.9665C148.48 17.9665 148.52 17.9665 148.56 17.9665C148.25 17.6716 147.94 17.3768 147.63 17.0819V154.194C147.63 156.049 147.59 157.903 147.63 159.749C147.63 159.834 147.63 159.91 147.63 159.996C147.63 161.137 149.49 161.137 149.49 159.996L149.5 159.986Z" fill="#ECECEC"/>
<path opacity="0.19" d="M148.56 17.0819H77.3801V160.833H148.56V17.0819Z" stroke="white" stroke-width="0.82" stroke-miterlimit="10"/>
<path d="M141.78 24.2533H84.8601V160.586H141.78V24.2533Z" fill="white"/>
<path d="M87.9801 24.2533H84.8601V160.586H87.9801V24.2533Z" fill="#2965C1"/>
<path d="M88 25L127.91 28.5191V157.319L88 159.991V25Z" fill="#2D7CFA"/>
<path d="M122.87 36.6273C119.81 36.2563 116.75 35.8854 113.69 35.5145C108.85 34.9343 104.02 34.3446 99.1801 33.7644C98.0601 33.6313 96.93 33.4886 95.81 33.3554C95.66 33.3364 95.52 33.4981 95.52 33.6313V143.485C95.52 144.968 95.49 146.452 95.52 147.936C95.52 148.002 95.52 148.069 95.52 148.126C95.52 148.269 95.65 148.402 95.81 148.402L104.97 148.021C109.83 147.822 114.69 147.622 119.55 147.422C120.66 147.375 121.77 147.327 122.87 147.289C123.02 147.289 123.16 147.165 123.16 147.013V41.3638C123.16 39.9371 123.19 38.5105 123.16 37.0743C123.16 37.0172 123.16 36.9506 123.16 36.8936C123.16 36.5417 122.59 36.5417 122.59 36.8936V145.349C122.59 145.834 122.53 146.357 122.59 146.833C122.59 146.89 122.59 146.956 122.59 147.013L122.88 146.737C119.83 146.861 116.78 146.985 113.72 147.118C108.86 147.318 104 147.517 99.14 147.717C98.03 147.765 96.9201 147.812 95.8201 147.85C95.9201 147.945 96.0101 148.031 96.1101 148.126V35.3528C96.1101 34.8487 96.1701 34.3161 96.1101 33.8215C96.1101 33.7549 96.1101 33.6883 96.1101 33.6313C96.0101 33.7264 95.9201 33.812 95.8201 33.9071C98.8801 34.278 101.94 34.649 105 35.0199C109.84 35.6001 114.67 36.1898 119.51 36.7699C120.63 36.9031 121.76 37.0458 122.88 37.1789C123.24 37.2265 123.24 36.6748 122.88 36.6368L122.87 36.6273Z" fill="#ECECEC"/>
<path d="M119.17 42.391L100.98 40.7646V65.1796L119.17 64.9514V42.391Z" fill="#ECECEC"/>
<path opacity="0.19" d="M148.56 17.0819L141.78 24.2533" stroke="#E0EEF7" stroke-width="0.82" stroke-miterlimit="10"/>
<path opacity="0.19" d="M77.3801 17.0819L84.8601 24.2533" stroke="white" stroke-width="0.82" stroke-miterlimit="10"/>
<mask id="mask1_1163_6500" style="mask-type:luminance" maskUnits="userSpaceOnUse" x="-2" y="0" width="87" height="175">
<path d="M84.21 0.0570679H-1.46997V174.167H84.21V0.0570679Z" fill="white"/>
</mask>
<g mask="url(#mask1_1163_6500)">
<path d="M18.3199 137.835V101.512C18.3199 96.8044 21.9399 93 26.3999 93H51.3099C55.7699 93 59.3899 96.814 59.3899 101.512V137.835H18.3199Z" fill="#2965C1"/>
<path d="M59.3899 101.512V102.996C59.3899 98.2977 55.7699 94.4837 51.3099 94.4837H26.3999C21.9399 94.4837 18.3199 98.2977 18.3199 102.996V101.512C18.3199 96.814 21.9399 93 26.3999 93H51.3099C55.7699 93 59.3899 96.814 59.3899 101.512Z" fill="#2D7CFA"/>
<path opacity="0.38" d="M59.3899 139.918H18.3199V141.402H59.3899V139.918Z" fill="#371F74"/>
<path d="M59.3899 138.454V140.289C59.3899 142.011 57.9199 143.409 56.1099 143.409H21.5999C19.7899 143.409 18.3199 142.011 18.3199 140.289V138.454C18.3199 136.732 19.7899 135.334 21.5999 135.334H56.1099C57.9199 135.334 59.3899 136.732 59.3899 138.454Z" fill="#2965C1"/>
<path d="M-28 137.835V101.512C-28 96.8044 -24.38 93 -19.92 93H4.99C9.45 93 13.07 96.814 13.07 101.512V137.835H-28Z" fill="#2965C1"/>
<path d="M13.07 101.512V102.996C13.07 98.2977 9.45 94.4837 4.99 94.4837H-19.92C-24.38 94.4837 -28 98.2977 -28 102.996V101.512C-28 96.814 -24.38 93 -19.92 93H4.99C9.45 93 13.07 96.814 13.07 101.512Z" fill="#2D7CFA"/>
<path opacity="0.38" d="M13.07 139.918H-28V141.402H13.07V139.918Z" fill="#371F74"/>
<path d="M13.07 138.454V140.289C13.07 142.011 11.6 143.409 9.79 143.409H-24.72C-26.53 143.409 -28 142.011 -28 140.289V138.454C-28 136.732 -26.53 135.334 -24.72 135.334H9.79C11.6 135.334 13.07 136.732 13.07 138.454Z" fill="#2965C1"/>
<path d="M14.6101 163.886L13.6101 162.507V151.113L15.5301 152.302L14.6101 163.886Z" fill="#546A9B"/>
<path d="M18.33 131.9H12V153.158H18.33V131.9Z" fill="#7C8FB5"/>
<path d="M16.4501 153.158H14.6101V163.886H16.4501V153.158Z" fill="#7186BC"/>
<path d="M18.32 122.836V132.756C18.32 134.421 16.91 135.762 15.16 135.762C14.29 135.762 13.5 135.429 12.93 134.887C12.36 134.345 12 133.584 12 132.756V122.836H18.33H18.32Z" fill="#ECECEC"/>
<path d="M18.32 122.836V125.1C18.21 125.119 18.09 125.129 17.97 125.129H12.34C12.22 125.129 12.11 125.119 11.99 125.1V122.836H18.32Z" fill="#7C8FB5"/>
<path d="M17.35 124.054H12.96C11.49 124.054 10.3 122.922 10.3 121.524V120.573C10.3 119.175 11.49 118.043 12.96 118.043H17.35C18.82 118.043 20.01 119.175 20.01 120.573V121.524C20.01 122.922 18.82 124.054 17.35 124.054Z" fill="#ECECEC"/>
<path d="M20.01 119.974V120.639C20.01 119.565 19.1 118.699 17.97 118.699H12.34C11.21 118.699 10.3 119.565 10.3 120.639V119.974C10.3 118.899 11.22 118.033 12.34 118.033H17.97C19.1 118.033 20.01 118.899 20.01 119.974Z" fill="#8CA2D3"/>
<path d="M62 163.886L61 162.507V151.113L62.92 152.302L62 163.886Z" fill="#546A9B"/>
<path d="M65.7199 131.9H59.3899V153.158H65.7199V131.9Z" fill="#7C8FB5"/>
<path d="M63.84 153.158H62V163.886H63.84V153.158Z" fill="#7186BC"/>
<path d="M65.7099 122.836V132.756C65.7099 134.421 64.2999 135.762 62.5499 135.762C61.6799 135.762 60.8899 135.429 60.3199 134.887C59.7499 134.345 59.3899 133.584 59.3899 132.756V122.836H65.7199H65.7099Z" fill="#ECECEC"/>
<path d="M65.71 122.836V125.1C65.6 125.119 65.48 125.129 65.36 125.129H59.73C59.61 125.129 59.5 125.119 59.38 125.1V122.836H65.71Z" fill="#7C8FB5"/>
<path d="M64.75 124.054H60.36C58.89 124.054 57.7 122.922 57.7 121.524V120.563C57.7 119.165 58.89 118.033 60.36 118.033H64.75C66.22 118.033 67.41 119.165 67.41 120.563V121.514C67.41 122.912 66.22 124.044 64.75 124.044V124.054Z" fill="#ECECEC"/>
<path d="M67.41 119.974V120.639C67.41 119.565 66.4999 118.699 65.3699 118.699H59.74C58.61 118.699 57.7 119.565 57.7 120.639V119.974C57.7 118.899 58.62 118.033 59.74 118.033H65.3699C66.4999 118.033 67.41 118.899 67.41 119.974Z" fill="#8CA2D3"/>
</g>
<path d="M341.96 108.284H163.41V177.544H341.96V108.284Z" fill="white"/>
<path d="M341.96 169.288H163.41V177.544H341.96V169.288Z" fill="#E1E6F4"/>
<path d="M253.83 85.8948C254.23 85.0769 254.16 84.0782 253.65 83.3173C253.51 83.1081 253.34 82.8988 253.35 82.6516C253.37 82.3662 253.62 82.1665 253.81 81.9477C254.29 81.3771 254.35 80.5116 253.93 79.9028C253.79 79.6841 253.59 79.5034 253.46 79.2846C253.1 78.6569 253.3 77.8865 253.52 77.2017C253.68 76.6786 253.85 76.1555 254.17 75.6989C254.36 75.4326 254.61 75.1758 254.69 74.862C254.78 74.5291 254.67 74.1486 254.81 73.8348C254.98 73.4638 255.43 73.2926 255.65 72.9502C255.95 72.5032 255.77 71.904 255.47 71.457C255.28 71.1716 255.04 70.9053 254.96 70.5724C254.89 70.2871 254.96 69.9923 254.96 69.7069C255.02 68.5561 254.28 67.3957 253.17 66.9202C252.54 66.6539 251.79 66.5778 251.27 66.1403C250.9 65.8264 250.69 65.3699 250.3 65.075C249.81 64.6946 249.11 64.647 248.5 64.7992C247.89 64.9514 247.35 65.2843 246.82 65.6076C246.38 65.465 245.88 65.503 245.44 65.6457C244.12 66.0642 242.99 67.0248 242.41 68.2327C242.22 68.6227 242.08 69.0412 241.86 69.4121C241.55 69.9257 241.08 70.3252 240.72 70.8007C240.36 71.2763 240.08 71.885 240.25 72.4461C240.39 72.9122 240.8 73.2831 240.9 73.7587C241.12 74.8334 239.68 75.5943 239.49 76.6786C239.33 77.5821 240.07 78.4857 239.83 79.3797C239.65 80.055 238.98 80.4735 238.4 80.9015C237.82 81.3295 237.25 81.9477 237.41 82.623C237.52 83.1176 238 83.4885 238.05 83.9926C238.16 85.0388 236.42 85.7046 236.66 86.7318C236.81 87.3881 237.66 87.6164 238.36 87.6924C243.03 88.2346 247.78 87.7495 252.34 86.6367C252.93 86.494 253.56 86.418 253.82 85.8948H253.83Z" fill="#27304C"/>
<path d="M256.2 101.35C256.48 102.045 256.91 102.701 257.04 103.443C257.16 104.109 257.29 104.613 257.62 105.041C257.73 105.174 257.93 105.06 258.1 105.117C258.34 105.202 258.6 105.107 258.83 105.003C260.81 104.071 261.93 101.731 261.37 99.6955C261.27 99.3245 261.11 98.9536 260.86 98.6492C260.31 97.974 259.32 97.6981 258.44 97.8408C257.55 97.9835 256.77 98.5161 256.21 99.1819C255.66 99.8381 255.89 100.57 256.2 101.35Z" fill="#F2C7B6"/>
<path d="M251.99 84.0116C251.89 83.907 251.74 83.8785 251.6 83.8404C251.03 83.6978 250.49 83.4695 250 83.1556C249.87 83.07 249.74 82.9749 249.65 82.8513C249.52 82.6611 249.52 82.4233 249.51 82.2045C249.5 81.748 249.57 81.1107 249.81 80.7113C250.57 80.9966 251.47 80.7779 252.11 80.3023C252.76 79.8267 253.18 79.1324 253.49 78.4096C253.71 77.896 253.87 77.3634 253.9 76.8117C253.93 76.2125 253.81 75.6133 253.79 75.0141C253.74 73.6065 254.26 72.1513 253.78 70.8197C253.72 70.6485 253.66 70.5915 253.61 70.4203C253.5 70.0208 253.17 69.6879 252.76 69.5547C252.53 69.4787 252.28 69.4596 252.08 69.336C251.82 69.1648 251.7 68.8414 251.43 68.6797C251.17 68.5275 250.84 68.5656 250.53 68.5561C250.22 68.5561 249.86 68.4419 249.78 68.1566C249.57 68.8509 249.13 69.4787 248.49 69.8591C248 70.1539 247.36 70.3822 247.22 70.9148C247.12 71.2858 247.31 71.7043 247.14 72.0562C246.96 72.4271 246.48 72.5412 246.16 72.8171C245.79 73.1309 245.68 73.6826 245.89 74.1106C245.61 73.8728 245.12 73.7016 244.74 73.7587C244.21 73.8252 243.87 74.3769 243.9 74.881C243.93 75.3851 244.25 75.8321 244.62 76.203C244.92 76.4979 245.33 76.7737 245.76 76.6976C245.73 76.6976 245.7 76.6976 245.67 76.6976C245.81 78.2574 245.79 80.0265 245.27 81.5102C244.75 82.9939 243.66 84.354 242.14 84.9342C241.15 86.3704 240.96 88.3202 241.02 90.0417C241.05 90.8691 241.13 91.7061 241.52 92.448C242.02 93.3991 242.97 94.0649 243.92 94.626C245.7 95.6818 247.61 96.5378 249.61 97.1655C250.31 97.3843 251.05 97.5745 251.77 97.4318C252.84 97.2226 253.63 96.3095 253.95 95.3203C254.27 94.3312 254.2 93.2659 254.11 92.2388C253.95 90.4316 253.73 88.6245 253.46 86.8269C253.3 85.7902 252.74 84.7915 251.99 84.0116Z" fill="#F2C7B6"/>
<path d="M256.77 108.626C254.63 109.454 252.24 109.378 249.94 109.197C247.23 108.988 244.6 108.731 241.92 108.294C241.96 107.162 242 106.02 241.84 104.898C241.75 104.223 241.59 103.566 241.43 102.901C241.2 101.95 240.99 101.008 240.76 100.057C238.98 100.219 237.28 99.8952 235.67 99.1533C235.25 96.4617 235.25 93.7225 235.67 91.0308C235.92 89.4235 236.38 87.7305 237.68 86.6748C238.18 86.2658 238.77 85.99 239.36 85.7141C240.68 85.1054 242.05 84.6489 243.39 84.0877C245.24 86.5036 247.56 88.577 250.21 90.1844C251.43 88.3297 251.88 86.1231 251.82 83.9451C253.65 84.2399 255.21 85.0959 256.82 85.9804C257.36 86.2753 257.91 86.5796 258.35 86.9981C259.29 87.8922 259.62 89.2047 259.89 90.4412C260.55 93.3896 261.14 96.3571 261.49 99.3531C260.43 99.1533 259.06 99.4767 258.13 99.9808C257.79 100.171 257.45 100.428 257.35 100.789C256.8 102.825 257.14 104.936 257.35 107.038C257.39 107.399 257.42 107.77 257.3 108.113C257.18 108.455 257.12 108.503 256.77 108.636V108.626Z" fill="#75AAF5"/>
<path d="M256.62 92.1912C256.02 93.2374 256.56 94.4073 257.04 95.3774C257.32 95.9576 257.61 96.5663 257.63 97.2131C257.65 97.8218 257.48 98.421 257.29 99.0012C257.18 99.334 257.07 99.6669 256.99 99.9998C256.91 100.295 256.81 100.637 256.86 100.941C256.87 101.018 256.99 101.008 257.02 100.941C257.12 100.675 257.13 100.371 257.21 100.095C257.29 99.8001 257.39 99.5052 257.48 99.2199C257.66 98.6778 257.83 98.1357 257.87 97.565C257.95 96.319 257.15 95.3489 256.73 94.2266C256.49 93.5893 256.38 92.8665 256.73 92.2388C256.76 92.1817 256.67 92.1246 256.64 92.1912H256.62Z" fill="#609BE2"/>
<path d="M237.96 87.3025C239.05 87.6924 240.19 88.1204 241.09 88.8528C241.53 89.2142 241.9 89.6517 242.2 90.1273C242.5 90.6028 242.69 91.126 242.97 91.611C243 91.6681 243.09 91.63 243.08 91.573C242.96 91.0213 242.64 90.4697 242.32 89.9941C242.01 89.5186 241.64 89.0811 241.19 88.7292C240.26 87.9873 239.12 87.6068 237.99 87.2169C237.92 87.1884 237.89 87.293 237.96 87.3215V87.3025Z" fill="#609BE2"/>
<path d="M242.84 92.2483C243.12 94.4644 243.32 96.69 243.5 98.9251C243.5 99.0012 243.63 99.0012 243.62 98.9251C243.49 96.69 243.24 94.4644 242.95 92.2483C242.95 92.1817 242.83 92.1817 242.84 92.2483Z" fill="#609BE2"/>
<path d="M235.96 97.6316C237.07 97.8788 238.21 98.031 239.35 98.0976C239.89 98.1261 240.44 98.1452 240.99 98.1166C241.45 98.0881 242.04 98.0405 242.42 97.7742C242.49 97.7267 242.45 97.603 242.36 97.6316C242.12 97.7076 241.9 97.8028 241.65 97.8503C241.41 97.8979 241.17 97.9264 240.92 97.9359C240.39 97.9644 239.85 97.9359 239.31 97.9169C238.2 97.8598 237.09 97.7267 236 97.5174C235.92 97.4984 235.89 97.6125 235.97 97.6316H235.96Z" fill="#609BE2"/>
<path d="M257.89 98.1927C258.29 97.9549 258.75 97.7932 259.22 97.7267C259.45 97.6886 259.69 97.6886 259.93 97.6981C260.05 97.6981 260.17 97.7172 260.3 97.7362C260.41 97.7552 260.52 97.7932 260.64 97.7837C260.7 97.7837 260.72 97.7172 260.67 97.6791C260.57 97.6125 260.44 97.603 260.33 97.584C260.22 97.565 260.1 97.5555 259.99 97.546C259.74 97.5269 259.49 97.546 259.24 97.5745C258.74 97.6411 258.26 97.8218 257.84 98.0881C257.77 98.1261 257.84 98.2308 257.9 98.1927H257.89Z" fill="#609BE2"/>
<path d="M261.76 110.69C261.12 109.549 260.07 108.493 258.72 108.303C257.23 108.094 255.63 109.444 254.2 108.978C252.21 108.332 250.31 107.447 248.35 106.724C246.39 106.001 244.33 105.516 242.23 105.573C241.85 103.747 242.05 101.655 241.98 99.7811C240.29 99.9142 237.53 99.8762 236.33 99.4006C236.49 101.702 236.92 103.947 237.42 106.211C237.55 106.81 237.78 107.495 238.05 108.056C238.23 108.436 238.46 108.826 238.85 109.016C239.07 109.121 239.31 109.15 239.56 109.178C243.43 109.635 247.31 109.939 251.2 110.082C252.36 110.12 253.12 111.451 254.22 111.784C254.71 111.927 255.23 111.927 255.73 111.908C257.82 111.822 259.81 111.366 261.77 110.69H261.76Z" fill="#F2C7B6"/>
<path d="M241.91 105.954C241.43 106.306 241.03 106.838 240.97 107.419C240.97 107.466 241.04 107.466 241.05 107.428C241.14 107.162 241.24 106.895 241.4 106.658C241.55 106.42 241.74 106.201 241.97 106.02C242.01 105.992 241.96 105.925 241.92 105.954H241.91Z" fill="#EFA88F"/>
<path d="M245.22 84.0307C245.71 84.0497 246.2 84.0687 246.69 84.0782C246.81 84.0782 246.93 84.0782 247.04 84.0877C247.16 84.0973 247.21 84.1638 247.28 84.2399C247.35 84.316 247.47 84.4397 247.57 84.3541C247.59 84.3445 247.59 84.316 247.57 84.297C247.52 84.2589 247.46 84.2399 247.41 84.1924C247.36 84.1353 247.32 84.0782 247.25 84.0307C247.1 83.9165 246.86 83.9546 246.68 83.9451C246.19 83.9261 245.7 83.9165 245.21 83.8975C245.12 83.8975 245.12 84.0212 245.21 84.0212L245.22 84.0307Z" fill="#EFA88F"/>
<path d="M248.72 84.1733C249.28 83.7168 250.06 84.1733 250.69 83.9546C250.74 83.9356 250.74 83.85 250.68 83.8595C250.49 83.888 250.29 83.8975 250.1 83.8785C249.91 83.869 249.71 83.8405 249.52 83.8405C249.2 83.8405 248.88 83.888 248.63 84.0877C248.56 84.1448 248.66 84.2304 248.73 84.1829L248.72 84.1733Z" fill="#EFA88F"/>
<path d="M246.13 79.1039C246.18 80.5591 246.56 82.0714 247.36 83.3269C247.38 83.3649 247.44 83.3269 247.42 83.2888C247.09 82.6325 246.79 81.9668 246.59 81.2534C246.39 80.5496 246.28 79.8268 246.25 79.1039C246.25 79.0373 246.13 79.0373 246.14 79.1039H246.13Z" fill="#EFA88F"/>
<path d="M245.8 75.1283C245.72 74.8715 245.63 74.5861 245.4 74.4054C245.22 74.2628 244.95 74.2152 244.74 74.3198C244.63 74.3674 244.55 74.472 244.55 74.5861C244.55 74.6147 244.6 74.6337 244.61 74.6052C244.66 74.5101 244.74 74.434 244.85 74.3959C244.97 74.3579 245.1 74.3674 245.21 74.4054C245.5 74.5291 245.61 74.881 245.7 75.1378C245.72 75.1853 245.8 75.1663 245.79 75.1188L245.8 75.1283Z" fill="#EFA88F"/>
<path d="M245.43 74.453C245.3 74.453 245.16 74.4625 245.04 74.51C244.91 74.5576 244.79 74.6147 244.71 74.7288C244.68 74.7668 244.74 74.8239 244.78 74.7954C244.88 74.7383 244.98 74.6812 245.09 74.6432C245.2 74.6052 245.32 74.5956 245.43 74.6052C245.47 74.6052 245.51 74.5671 245.51 74.5291C245.51 74.491 245.47 74.453 245.43 74.453Z" fill="#EFA88F"/>
<path d="M247.69 79.0088C247.94 79.3892 248.25 79.7412 248.59 80.055C248.76 80.2072 248.94 80.3499 249.13 80.483C249.32 80.6162 249.52 80.7588 249.75 80.8159C249.79 80.8254 249.83 80.7779 249.79 80.7493C249.62 80.6067 249.42 80.502 249.24 80.3784C249.05 80.2548 248.87 80.1121 248.7 79.9694C248.35 79.6746 248.05 79.3322 247.79 78.9708C247.75 78.9137 247.66 78.9707 247.69 79.0278V79.0088Z" fill="#EFA88F"/>
<path d="M248.89 93.9983C248.73 93.1613 248.32 91.1545 248.33 91.1259C247.02 91.164 245.38 91.3732 244.09 91.573C244.29 92.4195 244.39 93.7035 244.5 94.5595C245.82 94.3692 247.56 94.1315 248.89 93.9983Z" fill="white"/>
<path d="M246.73 91.7537C246.46 91.7917 246.21 91.8012 245.9 91.8678C245.75 91.8964 245.6 91.8013 245.56 91.6586C245.52 91.5159 245.49 91.3733 245.45 91.2306C245.41 91.0689 245.52 90.9072 245.7 90.8882C245.98 90.8501 246.26 90.8216 246.54 90.7931C246.68 90.7741 246.82 90.8597 246.86 90.9928C246.91 91.1545 246.94 91.2686 246.98 91.4208C247.02 91.5825 246.91 91.7442 246.74 91.7632L246.73 91.7537Z" fill="#3C7ECE"/>
<path d="M241.19 76.0223C240.83 76.3362 240.73 76.8117 240.76 77.2587C240.8 77.8199 240.98 78.362 240.92 78.9327C240.86 79.4558 240.66 79.9694 240.34 80.4069C240.04 80.8159 239.63 81.1012 239.23 81.4246C238.87 81.7099 238.49 82.0714 238.46 82.5374C238.46 82.604 238.56 82.6135 238.57 82.5564C238.7 81.9477 239.2 81.6053 239.68 81.2439C240.17 80.873 240.56 80.4354 240.81 79.8838C241.05 79.3512 241.13 78.7615 241.05 78.1813C240.96 77.506 240.66 76.65 241.27 76.1079C241.33 76.0603 241.24 75.9747 241.18 76.0223H241.19Z" fill="#3E4E72"/>
<path d="M243.99 79.8743C243.88 80.8349 243.86 81.8146 243.26 82.6325C242.99 83.0034 242.62 83.2888 242.24 83.5456C241.89 83.7834 241.49 84.0021 241.21 84.316C241.18 84.354 241.22 84.3921 241.26 84.3635C241.66 84.0592 242.08 83.7929 242.49 83.5075C242.84 83.2603 243.16 82.9844 243.41 82.6325C244 81.8146 244.03 80.8159 244.11 79.8648C244.11 79.7982 244.01 79.7982 244 79.8648L243.99 79.8743Z" fill="#3E4E72"/>
<path d="M251.26 81.4532C251.19 81.7004 251.16 81.9668 251.19 82.2236C251.22 82.4708 251.3 82.7372 251.46 82.9369C251.49 82.9749 251.56 82.9559 251.54 82.9084C251.45 82.6801 251.37 82.4613 251.33 82.214C251.3 81.9668 251.31 81.7195 251.37 81.4912C251.39 81.4151 251.27 81.3866 251.25 81.4627L251.26 81.4532Z" fill="#3E4E72"/>
<path d="M242.81 71.9135C242.59 72.294 242.51 72.7315 242.58 73.1595C242.61 73.3687 242.69 73.5685 242.79 73.7587C242.91 73.9679 243.07 74.1676 243.13 74.4149C243.19 74.6717 243.07 74.919 243.05 75.1758C243.03 75.3756 243.09 75.5848 243.2 75.756C243.42 76.1365 243.85 76.4028 244.27 76.5359C244.35 76.5549 244.39 76.4503 244.32 76.4123C243.92 76.1935 243.49 76.0128 243.29 75.5753C243.1 75.1568 243.4 74.7573 243.29 74.3389C243.18 73.9679 242.88 73.6731 242.77 73.3021C242.64 72.8551 242.68 72.3796 242.9 71.9611C242.93 71.904 242.85 71.8564 242.81 71.9135Z" fill="#3E4E72"/>
<path d="M247.68 69.1077C247.24 69.2409 246.85 69.4882 246.57 69.8306C246.25 70.2205 246.13 70.658 246.07 71.1431C246.01 71.6567 245.98 72.294 245.5 72.6364C245.17 72.8646 244.62 72.8646 244.42 73.2546C244.4 73.3021 244.46 73.3497 244.5 73.3116C244.8 73.0073 245.26 72.9978 245.6 72.76C245.96 72.5032 246.11 72.0752 246.17 71.6662C246.25 71.1241 246.24 70.582 246.54 70.0969C246.8 69.6784 247.22 69.3645 247.71 69.2124C247.78 69.1933 247.75 69.0887 247.68 69.1077Z" fill="#3E4E72"/>
<path d="M246.08 69.2409C245.86 69.4311 245.69 69.6594 245.58 69.9162C245.48 70.1635 245.4 70.4678 245.47 70.7246C245.48 70.7627 245.53 70.7532 245.53 70.7246C245.57 70.4583 245.58 70.211 245.69 69.9637C245.79 69.7164 245.95 69.4977 246.16 69.317C246.21 69.2694 246.14 69.2028 246.09 69.2504L246.08 69.2409Z" fill="#3E4E72"/>
<path d="M245.04 66.8631C244.39 67.0914 243.65 67.3862 243.43 68.071C243.31 68.4705 243.34 68.889 243.1 69.2599C242.88 69.6023 242.53 69.8306 242.13 69.9352C242.05 69.9542 242.09 70.0588 242.16 70.0493C242.51 69.9827 242.83 69.7925 243.06 69.5357C243.31 69.2504 243.42 68.9365 243.47 68.5751C243.5 68.3468 243.53 68.1186 243.64 67.9093C243.73 67.7476 243.85 67.6145 243.99 67.5003C244.3 67.2531 244.69 67.1009 245.06 66.9582C245.12 66.9392 245.1 66.8441 245.03 66.8631H245.04Z" fill="#3E4E72"/>
<path d="M247.37 66.1593C247.81 66.2163 248.22 66.378 248.57 66.6253C248.74 66.749 248.9 66.8916 249.04 67.0533C249.11 67.1389 249.18 67.2245 249.24 67.3196C249.3 67.4052 249.34 67.5099 249.41 67.5859C249.44 67.624 249.5 67.605 249.49 67.5574C249.45 67.3482 249.3 67.158 249.16 66.9963C249.02 66.8251 248.85 66.6729 248.66 66.5397C248.29 66.2734 247.85 66.1117 247.39 66.0547C247.33 66.0547 247.32 66.1498 247.38 66.1498L247.37 66.1593Z" fill="#3E4E72"/>
<path d="M250.4 67.5574C250.97 67.7476 251.61 67.6145 252.15 67.8808C252.45 68.0235 252.56 68.2707 252.68 68.5561C252.76 68.7653 252.87 68.9365 253.07 69.0697C253.28 69.2028 253.54 69.2694 253.75 69.4026C253.97 69.5452 254.13 69.7545 254.25 69.9732C254.49 70.4298 254.54 70.9529 254.51 71.457C254.47 72.1608 254.32 72.8836 254.49 73.5779C254.49 73.616 254.57 73.6065 254.56 73.5684C254.45 72.3986 254.94 71.1621 254.44 70.0398C254.24 69.5833 253.9 69.2884 253.42 69.0887C253.28 69.0316 253.14 68.9746 253.03 68.8795C252.9 68.7653 252.83 68.6036 252.77 68.4419C252.68 68.2232 252.58 68.033 252.38 67.8903C251.82 67.4908 251.06 67.6715 250.43 67.4623C250.36 67.4433 250.33 67.5384 250.4 67.5669V67.5574Z" fill="#3E4E72"/>
<path d="M249.65 66.7775C249.91 66.6729 250.2 66.6253 250.48 66.6443C250.62 66.6443 250.76 66.6729 250.9 66.7109C251.03 66.749 251.16 66.7965 251.29 66.8346C251.33 66.8441 251.36 66.7965 251.33 66.768C251.1 66.5873 250.77 66.5302 250.49 66.5112C250.18 66.5017 249.88 66.5587 249.6 66.6729C249.53 66.7014 249.59 66.7965 249.66 66.768L249.65 66.7775Z" fill="#3E4E72"/>
<path d="M252.74 80.5876C253 80.8539 253.12 81.2249 253.07 81.5863C253.02 81.9477 252.77 82.214 252.62 82.5374C252.37 83.1176 252.79 83.7453 253.27 84.0972C253.31 84.1258 253.37 84.0687 253.34 84.0307C253.12 83.7453 252.82 83.5075 252.71 83.1556C252.58 82.7562 252.81 82.4518 253 82.1189C253.3 81.5863 253.25 80.9586 252.8 80.5115C252.75 80.464 252.68 80.5401 252.72 80.5876H252.74Z" fill="#3E4E72"/>
<path d="M244.23 79.3607C244.33 79.0373 244.19 78.7139 244.13 78.4001C244.09 78.2098 244.1 78.0291 244.16 77.8484C244.22 77.6677 244.34 77.5155 244.39 77.3348C244.4 77.2968 244.35 77.2682 244.33 77.2968C244.2 77.4204 244.12 77.5916 244.06 77.7628C243.99 77.9245 243.96 78.1052 243.98 78.2764C244.02 78.6283 244.22 78.9707 244.14 79.3322C244.13 79.3892 244.22 79.4178 244.23 79.3607Z" fill="#3E4E72"/>
<path d="M238.47 82.9559C238.34 83.6027 238.88 84.1353 238.86 84.763C238.85 85.3717 238.38 85.8948 237.77 86.066C237.69 86.0851 237.73 86.1897 237.8 86.1802C238.4 86.066 238.85 85.5524 238.97 85.0008C239.03 84.6964 238.97 84.4016 238.86 84.1068C238.73 83.7453 238.53 83.3839 238.61 82.994C238.63 82.8988 238.48 82.8608 238.46 82.9559H238.47Z" fill="#3E4E72"/>
<path d="M236.13 99.4101C237.22 99.8381 238.41 100.009 239.58 100.028C240.5 100.038 241.44 99.9618 242.32 99.743C242.58 99.6764 242.87 99.6004 243.07 99.4292C243.12 99.3816 243.06 99.315 243 99.3436C242.45 99.6004 241.79 99.6955 241.19 99.7716C240.16 99.8952 239.1 99.8952 238.07 99.7525C237.42 99.6574 236.77 99.5052 236.16 99.2865C236.07 99.258 236.04 99.3816 236.12 99.4196L236.13 99.4101Z" fill="#609BE2"/>
<path d="M260.26 100.846C262.05 97.9074 263.86 94.9875 265.69 92.0675C266.16 91.3162 266.65 90.5077 266.65 89.6327C266.65 88.9764 266.37 88.3297 266.47 87.6829C266.64 86.5891 267.87 85.6951 267.63 84.6013C268.16 84.5918 268.37 85.2671 268.29 85.7617C268.21 86.2563 268.01 86.8174 268.32 87.2264C269.52 85.8473 270.75 84.4016 271.96 83.0225C272.19 82.7657 272.5 82.4803 272.84 82.5659C272.96 82.8418 272.77 83.1556 272.58 83.4029C271.81 84.4111 271.05 85.4193 270.28 86.4179C270.51 86.2943 270.73 86.1421 270.89 85.9424C271.7 84.9152 272.5 83.888 273.31 82.8513C273.41 82.7276 273.51 82.604 273.65 82.5279C273.79 82.4518 273.99 82.4613 274.1 82.5755C274.25 82.7276 274.15 82.9749 274.04 83.1556C273.16 84.6108 271.87 85.8092 271.01 87.2739C271.92 86.3989 273 85.619 274.01 84.8391C274.06 84.8011 274.12 84.7535 274.18 84.7535C274.32 84.7345 274.42 84.8676 274.45 85.0008C274.5 85.2576 274.34 85.5049 274.15 85.7046C273.97 85.9043 273.76 86.0851 273.67 86.3323C273.75 86.1611 274.03 86.2182 274.16 86.3514C274.29 86.4845 274.29 86.7033 274.2 86.8745C274.12 87.0457 273.97 87.1693 273.82 87.293C272.07 88.7767 270.32 90.2604 268.57 91.7442C268.33 91.9439 268.07 92.1817 268.03 92.486C267.41 96.3761 265.54 99.8762 264.15 103.586C263.76 104.632 263.3 105.687 262.46 106.458C261.62 107.228 260.32 107.637 259.26 107.171C258.24 106.715 257.82 105.745 257.43 104.736C257.46 104.651 257.47 104.518 257.52 104.432C258.33 103.205 259.2 102.007 260.14 100.865C260.22 100.77 260.2 100.941 260.27 100.837L260.26 100.846Z" fill="#F2C7B6"/>
<path d="M261.1 99.7145C260.55 100.257 260.13 100.894 259.84 101.588C259.55 102.282 259.35 103.081 259.44 103.823C259.44 103.871 259.51 103.871 259.52 103.823C259.6 103.091 259.7 102.378 259.97 101.683C260.24 100.979 260.66 100.333 261.16 99.762C261.19 99.724 261.14 99.6764 261.11 99.7145H261.1Z" fill="#EFA88F"/>
<path d="M273.67 86.2848C273.19 86.5606 272.72 86.8555 272.26 87.1788C272.05 87.331 271.83 87.4832 271.63 87.6544C271.42 87.8161 271.19 87.9778 271.04 88.1965C271.01 88.2346 271.06 88.2726 271.1 88.2536C271.32 88.13 271.51 87.9397 271.7 87.7876C271.92 87.6164 272.13 87.4452 272.36 87.274C272.8 86.9506 273.25 86.6557 273.72 86.3704C273.77 86.3419 273.72 86.2563 273.67 86.2848Z" fill="#EFA88F"/>
<path d="M270.52 88.5389C270.02 89.081 269.22 89.1952 268.56 89.4805C268.03 89.7088 267.4 90.2034 267.52 90.8311C267.52 90.8786 267.6 90.8596 267.6 90.8216C267.76 89.3474 269.76 89.5471 270.58 88.596C270.61 88.5579 270.56 88.5009 270.52 88.5389Z" fill="#EFA88F"/>
<path d="M269.44 86.9981C269.7 87.1503 269.93 87.3405 270.14 87.5593C270.24 87.6639 270.34 87.7781 270.42 87.9017C270.5 88.0158 270.57 88.149 270.67 88.2631C270.7 88.3012 270.75 88.2631 270.74 88.2251C270.7 88.0824 270.61 87.9588 270.52 87.8351C270.43 87.7115 270.33 87.5973 270.22 87.4832C270.01 87.2645 269.75 87.0837 269.48 86.9316C269.43 86.903 269.39 86.9696 269.44 87.0077V86.9981Z" fill="#EFA88F"/>
<path d="M268.13 87.1408C268.26 87.331 268.34 87.5498 268.38 87.7781C268.42 88.0063 268.38 88.2251 268.38 88.4533C268.38 88.5009 268.44 88.5009 268.46 88.4629C268.55 88.2441 268.54 87.9873 268.5 87.759C268.46 87.5212 268.35 87.3025 268.21 87.1028C268.18 87.0647 268.12 87.1028 268.14 87.1408H268.13Z" fill="#EFA88F"/>
<path d="M247.56 73.6921C247.8 73.4258 248.14 73.2546 248.5 73.1785C248.67 73.1405 248.85 73.1309 249.03 73.15C249.21 73.169 249.39 73.226 249.57 73.2641C249.66 73.2831 249.75 73.169 249.67 73.1024C249.35 72.8456 248.83 72.8361 248.44 72.9217C248.02 73.0168 247.66 73.2451 247.4 73.578C247.33 73.6636 247.48 73.7682 247.55 73.6921H247.56Z" fill="#27304C"/>
<path d="M249.5 73.1975C249.31 73.1404 249.13 73.0929 248.93 73.0834C248.73 73.0834 248.54 73.0834 248.34 73.1214C248.15 73.15 247.97 73.207 247.79 73.2831C247.61 73.3592 247.43 73.4353 247.31 73.6065C247.27 73.6636 247.34 73.7492 247.41 73.7301C247.58 73.6826 247.73 73.5875 247.89 73.5114C248.05 73.4448 248.22 73.3877 248.39 73.3592C248.73 73.2831 249.11 73.2831 249.46 73.3402C249.55 73.3592 249.59 73.226 249.5 73.1975Z" fill="#27304C"/>
<path d="M248.76 73.9108C248.59 74.0916 248.54 74.3579 248.58 74.5861C248.6 74.7003 248.64 74.8049 248.73 74.881C248.83 74.9666 248.97 74.9951 249.07 74.9C249.16 74.8049 249.16 74.6432 249.16 74.5291C249.16 74.3959 249.15 74.2628 249.13 74.1391C249.11 74.025 249.09 73.8728 248.95 73.8348C248.89 73.8157 248.82 73.8348 248.77 73.8538C248.7 73.8823 248.66 73.9489 248.64 74.0155C248.6 74.1486 248.61 74.3008 248.63 74.4244C248.65 74.5576 248.7 74.6908 248.77 74.8049C248.82 74.8905 248.95 74.8905 249 74.8049C249.12 74.6052 249.1 74.3484 248.97 74.1581C248.92 74.0916 248.82 74.0916 248.78 74.1581C248.73 74.2247 248.71 74.3103 248.72 74.3864C248.73 74.472 248.78 74.5386 248.86 74.5956C248.9 74.6242 248.96 74.6052 248.99 74.5671C249.02 74.5291 249.01 74.4815 248.99 74.4435C248.97 74.4244 248.96 74.3769 248.95 74.3579V74.3388C248.95 74.3388 248.95 74.3103 248.95 74.3198C248.95 74.3103 248.95 74.3008 248.96 74.2913C248.96 74.3008 248.97 74.2818 248.96 74.2913C248.9 74.2913 248.84 74.2723 248.78 74.2723C248.82 74.3388 248.84 74.4149 248.83 74.4815C248.83 74.5196 248.83 74.5386 248.81 74.5861C248.8 74.6337 248.79 74.6432 248.76 74.6908H248.99C248.9 74.5481 248.86 74.3864 248.86 74.2152C248.86 74.1772 248.86 74.1296 248.86 74.1106C248.86 74.1106 248.86 74.0916 248.86 74.082C248.86 74.0535 248.86 74.063 248.86 74.0725C248.86 74.0725 248.87 74.0535 248.86 74.063C248.86 74.063 248.86 74.063 248.87 74.0535C248.88 74.0345 248.88 74.0535 248.87 74.0535H248.86C248.85 74.0535 248.86 74.0345 248.86 74.0535C248.86 74.0725 248.87 74.1011 248.87 74.1201C248.87 74.1391 248.87 74.1676 248.88 74.1867C248.91 74.3674 248.9 74.5576 248.86 74.7383C248.86 74.7383 248.88 74.7383 248.88 74.7288C248.88 74.7288 248.86 74.7098 248.87 74.7288L248.85 74.7098C248.85 74.7098 248.83 74.6908 248.84 74.7003C248.84 74.7098 248.83 74.6812 248.83 74.6812C248.83 74.6812 248.83 74.6717 248.82 74.6622C248.81 74.6242 248.8 74.5766 248.79 74.5386C248.79 74.472 248.79 74.3579 248.79 74.2913C248.81 74.1962 248.85 74.1106 248.89 74.025C248.93 73.9394 248.79 73.8728 248.72 73.9299L248.76 73.9108Z" fill="#27304C"/>
<path d="M253.8 73.5589C253.59 73.2451 253.26 73.0073 252.88 72.9122C252.53 72.8266 252.06 72.8456 251.78 73.0929C251.71 73.1595 251.78 73.2641 251.87 73.2451C252.03 73.207 252.18 73.15 252.34 73.131C252.5 73.1119 252.66 73.1309 252.81 73.1595C253.14 73.2356 253.43 73.4163 253.64 73.6731C253.71 73.7492 253.84 73.6541 253.79 73.5685L253.8 73.5589Z" fill="#27304C"/>
<path d="M251.98 73.3021C252.28 73.2356 252.62 73.2451 252.92 73.3116C253.07 73.3497 253.22 73.3972 253.36 73.4638C253.51 73.5399 253.63 73.635 253.79 73.6826C253.86 73.7016 253.91 73.6255 253.88 73.5684C253.79 73.4163 253.63 73.3307 253.47 73.2546C253.31 73.1785 253.14 73.1214 252.97 73.0929C252.8 73.0644 252.63 73.0453 252.46 73.0548C252.28 73.0548 252.11 73.1024 251.94 73.169C251.85 73.1975 251.89 73.3212 251.98 73.3021Z" fill="#27304C"/>
<path d="M252.44 73.9774C252.47 74.0535 252.5 74.1296 252.52 74.2057C252.54 74.2818 252.54 74.3579 252.54 74.4435C252.54 74.4815 252.54 74.51 252.53 74.5386C252.53 74.5576 252.53 74.5766 252.52 74.6052C252.52 74.6052 252.52 74.6242 252.52 74.6337C252.52 74.6527 252.52 74.6337 252.52 74.6432C252.52 74.6527 252.5 74.6717 252.5 74.6812C252.5 74.6812 252.47 74.7098 252.48 74.7003C252.46 74.7003 252.46 74.7098 252.48 74.7003C252.46 74.7003 252.47 74.7003 252.48 74.7003L252.5 74.7098C252.5 74.7098 252.5 74.6908 252.5 74.6812C252.5 74.6622 252.5 74.6527 252.5 74.6337C252.5 74.5861 252.49 74.5386 252.49 74.4815C252.49 74.3864 252.49 74.2913 252.49 74.1962C252.49 74.1581 252.49 74.1106 252.5 74.0725C252.5 74.0535 252.5 74.0345 252.51 74.0155C252.51 74.0155 252.51 73.9964 252.51 73.9869H252.48C252.48 73.9869 252.5 74.006 252.5 74.0155C252.51 74.044 252.52 74.0725 252.52 74.1106C252.53 74.3008 252.5 74.491 252.41 74.6527H252.62C252.56 74.5291 252.54 74.3674 252.62 74.2342H252.44C252.48 74.2913 252.47 74.3769 252.42 74.4435C252.37 74.51 252.47 74.6147 252.55 74.5671C252.62 74.51 252.67 74.4435 252.68 74.3579C252.68 74.2818 252.67 74.2057 252.63 74.1391C252.59 74.0725 252.49 74.0725 252.45 74.1391C252.33 74.3293 252.32 74.5861 252.42 74.7859C252.46 74.862 252.59 74.862 252.63 74.7859C252.74 74.5671 252.79 74.3293 252.76 74.0916C252.74 73.9584 252.69 73.8348 252.53 73.8157C252.47 73.8157 252.41 73.8252 252.37 73.8728C252.33 73.9204 252.32 73.9869 252.3 74.044C252.27 74.1676 252.26 74.2913 252.25 74.4149C252.25 74.472 252.25 74.5386 252.25 74.5956C252.25 74.6622 252.25 74.7288 252.27 74.7859C252.31 74.9095 252.45 74.9761 252.57 74.9095C252.67 74.8524 252.73 74.7478 252.76 74.6432C252.82 74.3959 252.78 74.1011 252.61 73.9013C252.55 73.8348 252.42 73.9013 252.46 73.9869L252.44 73.9774Z" fill="#27304C"/>
<path d="M251.14 74.1486C251.06 74.6147 251.25 75.0522 251.51 75.4421C251.63 75.6228 251.89 75.8416 251.79 76.0699C251.7 76.2696 251.41 76.4313 251.44 76.6691C251.44 76.7547 251.55 76.7737 251.6 76.7071C251.68 76.612 251.73 76.5074 251.81 76.4028C251.88 76.3172 251.95 76.2316 251.99 76.1269C252.09 75.8892 251.97 75.718 251.82 75.5372C251.51 75.1378 251.2 74.6717 251.25 74.1581C251.25 74.0916 251.14 74.0725 251.13 74.1391L251.14 74.1486Z" fill="#EFA88F"/>
<path d="M199.86 82.4328L198.95 83.3554L236.46 105.916L237.31 104.784L235.84 82.4328H199.86Z" fill="#867D7B"/>
<path d="M198.95 83.3554L235.04 83.2983L236.46 105.916L200.08 105.973L198.95 83.3554Z" fill="#757575"/>
<path d="M213.82 97.9264H221.31L219.21 112.773L210.02 112.45L213.82 97.9264Z" fill="#867D7B"/>
<path d="M210.54 94.9589C211 94.9494 211.45 94.9304 211.91 94.9209C213 94.8829 214.09 94.8543 215.18 94.8163C216.5 94.7782 217.83 94.7307 219.15 94.6926C220.29 94.6546 221.43 94.626 222.57 94.588C222.95 94.5785 223.33 94.569 223.71 94.55C223.88 94.55 224.08 94.569 224.25 94.5309H224.27C224.21 94.4739 224.15 94.4168 224.09 94.3597C224.15 95.3204 224.2 96.281 224.26 97.2416C224.35 98.7729 224.44 100.304 224.54 101.835C224.56 102.187 224.58 102.539 224.6 102.891C224.66 102.834 224.72 102.777 224.78 102.72H211.18C211.01 102.72 210.79 102.691 210.62 102.72C210.62 102.72 210.6 102.72 210.59 102.72C210.65 102.777 210.71 102.834 210.77 102.891C210.77 101.978 210.77 101.065 210.76 100.152C210.76 98.6968 210.74 97.2416 210.74 95.7864C210.74 95.4535 210.74 95.1206 210.74 94.7877C210.74 94.569 210.38 94.569 210.38 94.7877C210.38 95.7008 210.38 96.6139 210.39 97.5269C210.39 98.9821 210.41 100.437 210.41 101.893C210.41 102.225 210.41 102.558 210.41 102.891C210.41 102.986 210.49 103.062 210.59 103.062H223.02C223.59 103.062 224.18 103.1 224.75 103.062C224.75 103.062 224.77 103.062 224.78 103.062C224.87 103.062 224.96 102.986 224.96 102.891C224.9 101.931 224.85 100.97 224.79 100.009C224.7 98.4781 224.61 96.9468 224.51 95.4155C224.49 95.0636 224.47 94.7116 224.45 94.3597C224.45 94.2741 224.37 94.1885 224.27 94.1885C223.81 94.2076 223.36 94.2171 222.9 94.2266C221.81 94.2646 220.72 94.2932 219.63 94.3312C218.31 94.3693 216.98 94.4168 215.66 94.4548C214.52 94.4929 213.38 94.5214 212.24 94.5595C211.69 94.5785 211.12 94.5595 210.57 94.607H210.55C210.32 94.607 210.32 94.9589 210.55 94.9494L210.54 94.9589Z" fill="#867D7B"/>
<path d="M200.54 85.0389C202.1 85.0198 203.66 85.0103 205.21 84.9913C205.43 84.9913 205.65 84.9913 205.87 84.9913C205.81 84.9342 205.75 84.8772 205.69 84.8201C205.76 86.1326 205.82 87.4356 205.89 88.7482C205.89 88.9384 205.91 89.1191 205.92 89.3093C205.98 89.2523 206.04 89.1952 206.1 89.1381C204.56 89.2142 203.03 89.2998 201.49 89.3759C201.27 89.3854 201.05 89.3949 200.82 89.414C200.88 89.471 200.94 89.5281 201 89.5852C200.92 88.2156 200.83 86.846 200.75 85.4764C200.74 85.2861 200.73 85.0864 200.71 84.8962C200.7 84.6774 200.34 84.6774 200.35 84.8962C200.43 86.2658 200.52 87.6354 200.6 89.005C200.61 89.1952 200.62 89.3949 200.64 89.5852C200.64 89.6708 200.72 89.7564 200.82 89.7564C202.36 89.6803 203.89 89.5947 205.43 89.5186C205.65 89.5091 205.87 89.4996 206.1 89.4805C206.19 89.4805 206.28 89.4045 206.28 89.3093C206.21 87.9968 206.15 86.6938 206.08 85.3812C206.08 85.191 206.06 85.0103 206.05 84.8201C206.05 84.725 205.97 84.6489 205.87 84.6489C204.31 84.6679 202.75 84.6774 201.2 84.6965C200.98 84.6965 200.76 84.6965 200.54 84.6965C200.31 84.6965 200.31 85.0389 200.54 85.0389Z" fill="#867D7B"/>
<path d="M341.95 108.284H160.84V116.159H341.95V108.284Z" fill="#1C1E3D"/>
<path d="M302.56 178.742L302.44 173.426L306.78 173.73L305.91 179.437L303.92 180.407L302.56 178.742Z" fill="#F2C7B6"/>
<path d="M302.19 181.71C302.41 181.367 302.49 180.939 302.41 180.54C302.39 180.416 302.35 180.283 302.39 180.159C302.41 180.093 302.46 180.026 302.48 179.96C302.52 179.798 302.39 179.655 302.33 179.503C302.22 179.237 302.33 178.904 302.57 178.742C303.65 178.999 304.71 178.942 305.8 178.742C305.97 178.714 306.22 178.742 306.21 178.904C306.21 178.99 306.12 179.047 306.12 179.132C306.12 179.237 306.24 179.294 306.28 179.389C306.39 179.617 306.04 179.808 306 180.055C305.98 180.15 306.02 180.236 306.04 180.331C306.09 180.54 306.08 180.749 306.08 180.958C306.06 181.681 306.04 182.395 306.03 183.117C306.03 183.222 306.03 183.336 305.96 183.422C305.88 183.517 305.74 183.555 305.61 183.574C304.93 183.688 304.23 183.802 303.54 183.698C302.85 183.593 302.17 183.232 301.89 182.623C301.81 182.461 301.77 182.28 301.82 182.109C301.87 181.938 302.04 181.71 302.22 181.71H302.19Z" fill="white"/>
<path d="M306.34 184.858C305.56 185.124 304.7 185.181 303.89 185.02C303.51 184.944 303.13 184.82 302.74 184.877C302.42 184.925 302.13 185.096 301.82 185.2C301.33 185.362 300.8 185.362 300.28 185.353C299.44 185.343 298.6 185.324 297.77 185.314C297.07 185.305 296.2 185.172 296.02 184.525C295.89 184.059 296.26 183.583 296.7 183.374C297.15 183.155 297.67 183.136 298.16 183.07C299.62 182.87 301.08 182.233 301.91 181.082C302.31 181.015 302.82 181.196 303.02 181.529C303.22 181.862 303.18 182.309 302.92 182.604C304.07 182.785 305.3 182.423 306.14 181.653C306.35 182.138 306.54 182.642 306.7 183.146C306.76 183.327 306.81 183.507 306.83 183.688C306.88 184.382 307.02 184.63 306.33 184.867L306.34 184.858Z" fill="#191C26"/>
<path d="M308.79 168.765C308.97 168.813 309.15 168.86 309.33 168.908C309.47 170.582 309.42 172.275 309.18 173.939C309.15 174.11 309.12 174.301 309.01 174.434C308.89 174.576 308.7 174.643 308.52 174.691C307.65 174.928 306.73 174.881 305.83 174.814C303.9 174.672 301.97 174.434 300.06 174.11C299.93 174.091 299.79 174.063 299.71 173.968C299.65 173.892 299.63 173.797 299.62 173.701C299.43 172.246 299.42 170.772 299.56 169.307C299.58 169.108 299.61 168.898 299.73 168.746C299.85 168.594 300.12 168.508 300.28 168.632C300.46 165.969 300.68 163.125 300.58 160.462C300.51 158.503 300.29 156.496 300.87 154.613C303.64 154.061 306.59 154.337 309.19 155.402C308.83 159.787 308.64 164.381 308.78 168.775L308.79 168.765Z" fill="#191C26"/>
<path d="M300.52 168.87C301.87 169.098 303.25 169.212 304.62 169.231C305.31 169.241 305.99 169.231 306.68 169.193C307.18 169.165 307.86 169.136 308.21 168.746C308.24 168.708 308.21 168.641 308.16 168.661C307.9 168.746 307.65 168.86 307.37 168.917C307.1 168.974 306.82 168.984 306.54 169.003C305.88 169.041 305.21 169.05 304.55 169.041C303.22 169.022 301.89 168.908 300.57 168.727C300.47 168.718 300.43 168.851 300.53 168.87H300.52Z" fill="#4F4F68"/>
<path d="M319.1 177.306L318.44 172.227L322.63 172.113L322.38 177.668L320.57 178.771L319.1 177.306Z" fill="#F2C7B6"/>
<path d="M319.05 180.188C319.22 179.836 319.26 179.427 319.14 179.047C319.1 178.923 319.05 178.809 319.08 178.685C319.1 178.619 319.14 178.552 319.14 178.486C319.16 178.333 319.02 178.2 318.95 178.067C318.82 177.82 318.88 177.496 319.1 177.316C320.16 177.458 321.17 177.306 322.2 177.021C322.36 176.973 322.6 176.983 322.61 177.135C322.61 177.211 322.54 177.278 322.55 177.363C322.55 177.458 322.68 177.515 322.73 177.591C322.86 177.801 322.54 178.019 322.53 178.257C322.53 178.343 322.56 178.428 322.59 178.514C322.66 178.704 322.67 178.914 322.69 179.113C322.75 179.808 322.8 180.502 322.86 181.187C322.86 181.291 322.87 181.396 322.82 181.481C322.75 181.586 322.62 181.624 322.5 181.662C321.86 181.833 321.2 182.014 320.53 181.976C319.86 181.938 319.17 181.653 318.84 181.101C318.75 180.949 318.69 180.778 318.72 180.616C318.75 180.445 318.89 180.207 319.07 180.198L319.05 180.188Z" fill="white"/>
<path d="M323.35 182.813C322.63 183.136 321.81 183.27 321.02 183.194C320.65 183.155 320.27 183.07 319.9 183.165C319.59 183.241 319.34 183.431 319.05 183.564C318.6 183.764 318.09 183.812 317.59 183.85C316.79 183.916 315.98 183.983 315.18 184.05C314.51 184.107 313.66 184.05 313.42 183.46C313.25 183.032 313.55 182.537 313.96 182.29C314.37 182.043 314.86 181.967 315.33 181.862C316.71 181.539 318.04 180.797 318.72 179.608C319.09 179.503 319.6 179.627 319.83 179.931C320.06 180.236 320.06 180.664 319.85 180.977C320.97 181.044 322.11 180.587 322.84 179.77C323.09 180.217 323.32 180.673 323.53 181.149C323.6 181.31 323.67 181.482 323.71 181.653C323.83 182.318 323.99 182.537 323.35 182.832V182.813Z" fill="#191C26"/>
<path d="M323.78 167.11C323.96 167.139 324.15 167.167 324.33 167.196C324.65 168.851 324.77 170.534 324.71 172.208C324.71 172.389 324.69 172.57 324.59 172.722C324.49 172.874 324.31 172.96 324.13 173.026C323.29 173.34 322.37 173.388 321.46 173.407C319.52 173.445 317.58 173.407 315.64 173.264C315.51 173.264 315.37 173.235 315.28 173.15C315.21 173.083 315.18 172.988 315.16 172.893C314.82 171.457 314.65 169.992 314.64 168.527C314.64 168.328 314.64 168.118 314.75 167.947C314.86 167.776 315.11 167.671 315.29 167.786C315.18 165.122 315.11 162.269 314.72 159.625C314.44 157.685 314.01 155.706 314.39 153.776C317.09 152.958 320.05 152.948 322.75 153.757C322.85 158.151 323.15 162.745 323.76 167.101L323.78 167.11Z" fill="#191C26"/>
<path d="M315.59 168.014C316.98 168.109 318.38 168.099 319.77 167.976C320.44 167.919 321.1 167.843 321.76 167.738C322.25 167.662 322.91 167.567 323.22 167.148C323.25 167.101 323.19 167.063 323.15 167.082C322.88 167.205 322.63 167.338 322.35 167.415C322.09 167.491 321.83 167.529 321.57 167.567C320.9 167.671 320.22 167.747 319.54 167.795C318.23 167.9 316.91 167.919 315.6 167.862C315.5 167.862 315.5 168.004 315.6 168.004L315.59 168.014Z" fill="#4F4F68"/>
<path d="M301.8 64.59C300.68 64.5044 299.67 65.4079 299.28 66.3305C299.06 66.8441 298.99 67.4148 299.08 67.9664C299.18 68.5751 299.48 69.0697 299.82 69.5928C300.02 69.8876 300.21 70.192 300.3 70.5344C300.39 70.8958 300.34 71.2002 300.2 71.5426C300.19 71.5711 300.24 71.5996 300.26 71.5711C300.56 71.2192 300.49 70.6676 300.34 70.2681C300.14 69.7355 299.74 69.298 299.49 68.7939C298.95 67.7096 299.12 66.3971 299.97 65.5125C300.44 65.0275 301.11 64.6565 301.81 64.666C301.86 64.666 301.86 64.59 301.81 64.59H301.8Z" fill="#6C3939"/>
<path d="M298.87 71.8945C299.13 72.2654 299.5 72.5698 299.96 72.6744C300.37 72.76 300.86 72.6744 301.13 72.351C301.16 72.3225 301.12 72.2845 301.09 72.313C300.77 72.5698 300.35 72.6554 299.94 72.5603C299.52 72.4652 299.17 72.1798 298.91 71.866C298.89 71.8374 298.84 71.866 298.86 71.904L298.87 71.8945Z" fill="#6C3939"/>
<path d="M276.35 89.49L277.44 88.9574L277.48 87.8256L280.22 87.9207L280.19 88.8243L281.35 89.6612L281.04 97.8693C281.04 97.8693 280 98.1071 278.77 98.0595C277.46 98.012 276.16 97.6981 276.16 97.6981L276.36 89.49H276.35Z" fill="#CFD5EE"/>
<path d="M283.19 95.8054C283.28 95.1872 283.23 94.55 283.05 93.9508C282.97 93.6749 282.85 93.3991 282.65 93.1899C282.26 92.7809 281.61 92.6573 281.24 92.2293C281.18 92.4766 281.08 92.6858 281.1 92.9426C281.12 93.2089 281.01 93.3801 280.76 93.5037C280.52 93.6274 280.23 93.6369 279.95 93.6369C279.78 93.6369 279.6 93.6369 279.43 93.6369C278.79 93.6369 278.13 93.6369 277.53 93.4372C276.93 93.2374 276.39 92.7619 276.3 92.1532C276.19 92.0771 275.98 92.0866 275.91 92.2007C275.84 92.3149 275.84 92.448 275.85 92.5812C275.85 92.895 275.87 93.1994 275.88 93.5133C275.88 93.7035 275.89 93.8937 275.96 94.0744C276.01 94.1981 276.08 94.3122 276.11 94.4454C276.15 94.6166 276.09 94.7973 276.09 94.978C276.1 95.4345 276.5 95.7959 276.89 96.0527C277.65 96.5568 278.51 96.9373 279.41 97.1465C280.55 97.4128 281.87 97.4794 282.67 98.2973C283.13 97.993 283.57 97.603 283.72 97.0894C283.87 96.5758 283.72 95.9386 283.17 95.8054H283.19Z" fill="#F2C7B6"/>
<path d="M276.11 94.7782C276.62 95.0921 277.13 95.3964 277.66 95.6818C277.91 95.8149 278.16 95.9481 278.43 96.0622C278.64 96.1478 278.89 96.2334 279.12 96.1763C279.16 96.1668 279.16 96.1098 279.12 96.1003C278.86 96.0242 278.61 95.9861 278.37 95.872C278.12 95.7579 277.88 95.6342 277.65 95.5011C277.15 95.2347 276.67 94.9589 276.19 94.6641C276.11 94.6165 276.03 94.7402 276.11 94.7877V94.7782Z" fill="#EFA88F"/>
<path d="M275.88 93.7035C276.34 94.0269 276.83 94.2932 277.35 94.4929C277.61 94.5975 277.88 94.6831 278.15 94.7497C278.4 94.8163 278.69 94.9019 278.95 94.8543C279 94.8543 279 94.7782 278.96 94.7592C278.73 94.6451 278.45 94.6261 278.2 94.5595C277.94 94.4929 277.67 94.4073 277.42 94.3122C276.9 94.1125 276.41 93.8557 275.96 93.5418C275.86 93.4752 275.77 93.6274 275.87 93.694L275.88 93.7035Z" fill="#EFA88F"/>
<path d="M286.96 98.1452C285.45 97.4604 283.99 96.4522 283.36 94.978C282.77 95.872 281.95 96.4902 281.68 97.5079C281.63 97.6981 281.6 97.8884 281.63 98.0786C283.31 99.0392 283.95 100.913 285.43 102.13C285.48 102.168 285.53 102.216 285.6 102.225C285.7 102.244 285.8 102.178 285.88 102.111C286.81 101.341 287.36 100.162 287.34 98.9917C287.34 98.5541 287.39 98.3354 286.97 98.1547L286.96 98.1452Z" fill="#191C26"/>
<path d="M301.86 64.5995C300.98 64.7611 299.95 65.4459 299.6 66.2354C299.25 67.0248 299.27 67.9283 299.55 68.7463C299.7 69.1838 299.92 69.5928 300.04 70.0398C300.16 70.4868 300.17 70.9814 299.91 71.3714C299.65 71.7613 299.07 71.9706 298.66 71.7233C299.04 72.2844 299.68 72.5032 300.38 72.4651C301.08 72.4271 301.75 72.0086 302.06 71.4094C302.34 70.8578 302.33 70.2205 302.54 69.6403C302.78 68.9746 303.32 68.4039 303.42 67.7096C303.5 67.1579 303.31 66.5968 302.98 66.1307C302.65 65.6742 302.32 64.9419 301.86 64.5995Z" fill="#6C3939"/>
<path d="M307.55 82.2711C307 81.0727 306.45 79.8838 305.9 78.6854C305.75 78.362 305.56 78.0006 305.21 77.896C304.63 77.7153 304.08 78.3335 303.47 78.324C303.04 78.324 302.67 78.0006 302.46 77.6392C302.25 77.2778 302.17 76.8593 302.01 76.4788C301.65 75.5563 300.89 74.7859 299.94 74.3864C300.45 73.7396 300.89 72.9883 300.89 72.1703C300.89 71.4665 300.57 70.8007 300.42 70.1064C300.25 69.3265 300.31 68.5085 300.57 67.7571C300.67 67.4908 300.94 67.2531 301.21 67.1484C302.67 66.5873 304.37 66.5778 305.81 67.177C307.25 67.7762 308.41 68.9936 308.82 70.4393C309.51 72.8456 308.17 75.3851 308.48 77.8579C308.58 78.6759 308.86 79.4653 308.85 80.2833C308.84 81.1012 308.35 82.0048 307.53 82.2616L307.55 82.2711Z" fill="#F2C7B6"/>
<path d="M326.15 122.762C325.05 123.047 323.51 123.095 322.42 123.38C321.58 123.599 320.73 123.818 319.86 123.922C318.95 124.027 315.51 124.236 314.59 124.208C313.2 124.17 304.07 123.447 299.39 122.486C299.37 121.526 300.16 106.983 300.34 105.728C299.94 107.116 298.66 109.427 297.46 110.036C296.03 110.759 294.27 110.417 292.77 109.846C289.47 108.59 286.71 106.498 284 104.32C284.03 102.551 284.78 100.877 285.51 99.2505C285.8 98.6037 286.27 98.0996 286.56 97.4529C287.96 98.5562 289.67 99.6404 291.35 100.325C291.42 100.049 291.75 99.8497 292.03 99.7641C293.23 97.1771 294.43 94.59 295.63 92.003C296.49 90.1484 297.38 88.2461 298.83 86.7624C301.14 84.4036 304.65 83.2908 306.79 80.7894C309.86 80.6087 312.91 80.1807 315.98 80C317.55 80.8655 318.91 81.693 320.47 82.5775C321.79 83.3384 323.14 84.1278 324.06 85.3072C325.12 86.6578 325.5 88.3698 325.84 90.0247C326.94 95.3604 327.89 100.725 328.71 106.098C328.93 107.563 329.01 109.361 327.73 110.207C326.79 110.826 325.53 110.635 324.41 110.417C324.96 112.205 325.56 118.51 326.15 122.752V122.762Z" fill="#2D7CFA"/>
<path d="M285.56 105.497C285.76 104.955 285.97 104.413 286.17 103.871C286.27 103.605 286.37 103.329 286.39 103.043C286.4 102.758 286.31 102.454 286.07 102.273C285.88 102.121 285.61 102.073 285.37 102.14C285.13 102.206 284.93 102.368 284.81 102.568C284.72 102.72 284.68 102.901 284.64 103.072C284.52 103.605 284.41 104.128 284.29 104.66C284.79 104.936 285.09 105.174 285.56 105.497Z" fill="#B77A62"/>
<path d="M285.34 102.825C285.23 102.939 285.27 103.157 285.42 103.224C285.57 103.291 285.78 103.167 285.77 103.015C285.76 102.863 285.53 102.758 285.4 102.863" fill="#915743"/>
<path d="M300.22 104.85C300.79 103.566 301.3 102.263 301.83 100.96C302.11 100.266 302.39 99.5813 302.68 98.887C302.98 98.1547 303.3 97.4413 303.49 96.6709C303.79 95.4535 303.9 94.1505 303.71 92.9045C303.71 92.857 303.63 92.876 303.63 92.914C303.66 94.0744 303.67 95.2157 303.42 96.3571C303.24 97.156 302.93 97.9074 302.61 98.6683C302.03 100.076 301.47 101.484 300.89 102.891C300.63 103.528 300.38 104.166 300.11 104.793C300.09 104.85 300.19 104.889 300.21 104.831L300.22 104.85Z" fill="#596BC1"/>
<path d="M324.4 87.7495C324.52 90.5648 323.75 93.285 323.22 96.0337C322.68 98.8585 322.63 101.721 322.99 104.575C323.09 105.364 323.21 106.144 323.35 106.933C323.49 107.742 323.6 108.569 323.82 109.359C323.84 109.425 323.97 109.416 323.96 109.34C323.88 108.645 323.72 107.951 323.61 107.257C323.49 106.524 323.39 105.792 323.31 105.06C323.15 103.624 323.04 102.187 323.05 100.751C323.06 99.315 323.21 97.8884 323.45 96.4712C323.69 95.1016 324 93.751 324.24 92.3814C324.51 90.8501 324.69 89.2998 324.56 87.7495C324.56 87.6544 324.4 87.6544 324.41 87.7495H324.4Z" fill="#596BC1"/>
<path d="M299.4 86.8079C301.03 87.8827 302.21 89.4235 302.96 91.164C302.98 91.2116 303.07 91.1925 303.05 91.1355C302.48 89.2998 301.15 87.7115 299.51 86.6272C299.39 86.5511 299.29 86.7318 299.4 86.8079Z" fill="#596BC1"/>
<path d="M317.4 85.1244C317.9 84.1448 317.8 82.9179 317.14 82.0238C316.78 81.5292 316.26 81.1298 316.03 80.5686C315.55 79.3892 316.56 78.1338 316.6 76.8688C316.63 75.6799 315.81 74.6432 315.49 73.4923C315.01 71.8184 315.62 70.0303 315.38 68.3088C315.1 66.1973 313.52 64.3427 311.52 63.382C309.52 62.4214 307.15 62.2978 304.96 62.7353C303.59 63.0111 302.18 63.6198 301.62 64.8372C300.92 65.1606 300.78 66.1022 300.56 66.806C300.43 67.196 300.67 67.6335 301.01 67.8903C301.34 68.1566 301.76 68.2993 302.15 68.48C302.54 68.6607 302.92 68.9175 303.08 69.3075C303.17 69.5262 303.19 69.7735 303.27 70.0018C303.43 70.4203 303.83 70.7246 304.28 70.8483C304.6 70.9434 304.98 70.9624 305.19 71.2097C305.43 70.7341 306.12 70.5059 306.61 70.7436C306.98 70.9243 307.21 71.3048 307.29 71.6852C307.37 72.0752 307.33 72.4747 307.29 72.8646C307.26 73.1309 307.23 73.4163 307.09 73.6445C306.95 73.8728 306.66 74.0535 306.38 73.9869C306.62 74.8429 306.63 75.8891 306.45 76.7642C306.28 77.5441 305.77 78.2574 305.71 79.0563C305.65 79.9694 306.18 80.8159 306.27 81.729C306.34 82.4518 306.12 83.1651 306.02 83.8785C305.92 84.5918 305.97 85.3907 306.47 85.9329C306.7 85.9614 306.87 85.9139 307.09 85.8663C306.92 85.4003 307.06 84.8486 307.18 84.3635C307.26 84.0687 307.39 83.7834 307.43 83.479C307.52 82.8132 307.17 82.0904 307.48 81.4912C307.44 82.1189 307.99 82.642 308.12 83.2603C308.29 84.0782 307.68 84.9532 308.02 85.7236C309.14 85.6285 310.3 85.6 311.43 85.638C311.96 85.6571 312.5 85.7046 313.03 85.6856C314.59 85.6095 315.87 84.8676 317.41 85.1149L317.4 85.1244Z" fill="#6C3939"/>
<path d="M277.76 88.8141C278.09 88.852 278.42 88.8615 278.76 88.8615C278.93 88.8615 279.09 88.852 279.26 88.8331C279.42 88.8236 279.58 88.8142 279.73 88.7668C279.77 88.7574 279.76 88.7006 279.72 88.6911C279.56 88.6816 279.39 88.6911 279.22 88.7006C279.06 88.7006 278.9 88.71 278.74 88.71C278.41 88.71 278.09 88.71 277.76 88.6911C277.68 88.6911 277.68 88.7952 277.76 88.8047V88.8141Z" fill="#95A1C4"/>
<path d="M276.5 89.6803C277.25 89.9371 278.02 90.0798 278.83 90.0798C279.21 90.0798 279.59 90.0512 279.97 89.9846C280.16 89.9561 280.35 89.9181 280.54 89.8705C280.71 89.8325 280.9 89.7944 281.04 89.6898C281.08 89.6613 281.04 89.6137 281.01 89.6137C280.84 89.6137 280.67 89.6803 280.5 89.7278C280.31 89.7754 280.12 89.8134 279.93 89.842C279.55 89.9086 279.17 89.9371 278.79 89.9466C278.03 89.9466 277.24 89.861 276.51 89.6422C276.48 89.6422 276.47 89.6708 276.5 89.6803Z" fill="#95A1C4"/>
<path d="M277.9 88.0063C277.9 88.1109 277.9 88.206 277.89 88.3107C277.89 88.4153 277.89 88.5104 277.89 88.615C277.89 88.6816 277.99 88.6721 277.99 88.615C278 88.5104 278.02 88.4153 278.02 88.3107C278.02 88.206 278.02 88.1109 278.03 88.0063C278.03 87.9207 277.89 87.9207 277.89 88.0063H277.9Z" fill="#95A1C4"/>
<path d="M278.65 88.0158C278.65 88.2251 278.65 88.4343 278.68 88.6436C278.68 88.7006 278.78 88.7101 278.78 88.6436C278.78 88.4343 278.76 88.2251 278.75 88.0158C278.75 87.9588 278.65 87.9588 278.65 88.0158Z" fill="#95A1C4"/>
<path d="M279.32 87.9968C279.32 88.1204 279.33 88.2441 279.34 88.3677C279.34 88.4248 279.34 88.4914 279.35 88.5484C279.35 88.596 279.35 88.6911 279.43 88.6911C279.51 88.6911 279.5 88.5865 279.5 88.5484C279.5 88.4914 279.5 88.4248 279.5 88.3677C279.5 88.2441 279.49 88.1204 279.48 87.9968C279.48 87.9112 279.33 87.9017 279.33 87.9968H279.32Z" fill="#95A1C4"/>
<path d="M279.94 88.0349C279.94 88.1395 279.94 88.2536 279.94 88.3582C279.94 88.4153 279.94 88.4629 279.94 88.5199C279.94 88.5485 279.94 88.5675 279.94 88.596C279.94 88.6245 279.95 88.6531 279.96 88.6816C279.97 88.7101 280.02 88.7197 280.03 88.6816C280.03 88.6531 280.05 88.6245 280.05 88.596C280.05 88.5675 280.05 88.5485 280.05 88.5199C280.05 88.4629 280.05 88.4153 280.04 88.3582C280.04 88.2536 280.02 88.1395 280.01 88.0349C280.01 87.9968 279.94 87.9873 279.94 88.0349Z" fill="#95A1C4"/>
<path d="M306.02 72.6934C306.09 72.5317 306.07 72.351 306.02 72.1893C305.97 72.0181 305.87 71.8279 305.89 71.6472C305.9 71.476 306.11 71.3618 306.27 71.3333C306.45 71.2953 306.62 71.3619 306.71 71.514C306.75 71.5711 306.85 71.533 306.83 71.4665C306.69 71.0575 306.06 71.1241 305.83 71.4189C305.53 71.8089 306.06 72.2559 305.89 72.6744C305.86 72.7505 305.99 72.779 306.02 72.7124V72.6934Z" fill="#EFA88F"/>
<path d="M306 72.2369C306 72.1228 306 71.9896 306.05 71.8755C306.07 71.8279 306.1 71.7994 306.14 71.7708C306.15 71.7613 306.17 71.7423 306.2 71.7328C306.22 71.7233 306.24 71.7138 306.27 71.7043C306.34 71.6852 306.32 71.5901 306.25 71.5806C306.11 71.5806 305.99 71.6757 305.93 71.7899C305.86 71.9325 305.87 72.0847 305.88 72.2274C305.88 72.294 305.99 72.294 305.99 72.2274L306 72.2369Z" fill="#EFA88F"/>
<path d="M300.75 67.234C300.7 66.7299 300.89 66.2354 301.24 65.8549C301.3 65.7883 301.2 65.6932 301.13 65.7503C300.72 66.1307 300.52 66.6919 300.57 67.2245C300.57 67.3291 300.75 67.3291 300.74 67.2245L300.75 67.234Z" fill="#492424"/>
<path d="M301.96 67.5669C302.31 67.7476 302.66 67.9283 302.97 68.1661C303.3 68.4229 303.53 68.7273 303.66 69.1172C303.79 69.4787 303.95 69.7925 304.24 70.0779C304.51 70.3442 304.83 70.5819 305.18 70.7436C305.23 70.7627 305.29 70.7056 305.25 70.6675C304.96 70.4012 304.61 70.211 304.34 69.9257C304.19 69.7735 304.06 69.6118 303.97 69.4216C303.87 69.2314 303.82 69.0126 303.73 68.8224C303.42 68.1471 302.69 67.7762 302.03 67.4623C301.96 67.4243 301.89 67.5289 301.96 67.5669Z" fill="#492424"/>
<path d="M304.97 69.8306C305.09 69.9827 305.22 70.1159 305.36 70.2491C305.43 70.3156 305.51 70.3727 305.58 70.4298C305.62 70.4583 305.66 70.4868 305.7 70.5059C305.72 70.5154 305.74 70.5344 305.76 70.5439C305.79 70.5534 305.82 70.5534 305.85 70.5629C305.89 70.5629 305.92 70.5154 305.9 70.4868C305.89 70.4678 305.88 70.4488 305.86 70.4298C305.84 70.4108 305.82 70.4012 305.8 70.3917C305.76 70.3632 305.72 70.3442 305.69 70.3156C305.61 70.2681 305.54 70.211 305.47 70.154C305.33 70.0398 305.2 69.9067 305.08 69.764C305.03 69.7069 304.92 69.783 304.97 69.8496V69.8306Z" fill="#492424"/>
<path d="M306.73 74.434C307.1 74.9476 307.4 75.4992 307.35 76.1365C307.31 76.6596 307.07 77.1541 306.87 77.6297C306.67 78.1053 306.45 78.5808 306.37 79.0944C306.34 79.3227 306.33 79.5509 306.37 79.7792C306.42 80.0931 306.57 80.3784 306.69 80.6733C306.85 81.0632 306.89 81.4246 306.84 81.8336C306.8 82.2331 306.71 82.6325 306.62 83.0225C306.62 83.0605 306.68 83.0796 306.69 83.0415C306.86 82.3757 306.96 81.748 306.88 81.0632C306.8 80.445 306.47 79.8838 306.54 79.2561C306.65 78.1718 307.45 77.2873 307.54 76.1935C307.6 75.5087 307.28 74.9095 306.87 74.3579C306.81 74.2723 306.66 74.3579 306.72 74.4435L306.73 74.434Z" fill="#492424"/>
<path d="M307.98 78.5142C307.55 79.7221 308.51 80.8159 309.03 81.8431C309.17 82.1284 309.29 82.4328 309.34 82.7467C309.38 83.0605 309.35 83.3649 309.31 83.6787C309.24 84.1828 309.09 84.8676 309.47 85.2956C309.5 85.3242 309.55 85.2956 309.54 85.2576C309.47 84.9532 309.4 84.6679 309.42 84.354C309.43 84.0687 309.48 83.7929 309.52 83.5075C309.59 82.9464 309.52 82.4233 309.29 81.9002C308.82 80.8349 307.74 79.7887 308.11 78.5427C308.13 78.4667 308.01 78.4381 307.99 78.5142H307.98Z" fill="#492424"/>
<path d="M314.36 72.1798C314.3 72.5698 314.3 72.9597 314.39 73.3497C314.47 73.7301 314.65 74.0725 314.85 74.4149C315.06 74.7669 315.28 75.1283 315.38 75.5277C315.49 75.9748 315.46 76.4313 315.36 76.8688C315.16 77.7058 314.73 78.4762 314.53 79.3132C314.35 80.0931 314.41 80.8254 314.88 81.5007C315.16 81.9097 315.43 82.2901 315.57 82.7562C315.63 82.9749 315.67 83.2032 315.69 83.441C315.7 83.6788 315.67 83.9165 315.66 84.1543C315.66 84.2209 315.76 84.2304 315.78 84.1733C315.91 83.8214 315.87 83.4029 315.81 83.032C315.74 82.6516 315.61 82.2806 315.4 81.9477C315.18 81.5768 314.87 81.2534 314.72 80.8445C314.57 80.445 314.57 79.998 314.64 79.5795C314.78 78.733 315.18 77.9531 315.42 77.1351C315.65 76.3552 315.66 75.6038 315.27 74.881C315.05 74.472 314.76 74.0916 314.59 73.6541C314.41 73.188 314.35 72.6934 314.42 72.1989C314.42 72.1703 314.36 72.1608 314.36 72.1989V72.1798Z" fill="#492424"/>
<path d="M313.18 81.9953C313.37 82.5469 313.63 83.0701 313.79 83.6312C313.86 83.888 313.9 84.1543 313.88 84.4301C313.88 84.5728 313.85 84.706 313.81 84.8391C313.77 84.9628 313.69 85.0769 313.68 85.2005C313.68 85.2291 313.72 85.2481 313.74 85.2291C313.92 85.0959 313.96 84.7821 313.99 84.5823C314.03 84.3065 314.02 84.0212 313.97 83.7453C313.86 83.1081 313.54 82.5469 313.29 81.9573C313.26 81.9002 313.16 81.9192 313.18 81.9858V81.9953Z" fill="#492424"/>
<path d="M306.34 74.1581C306.56 75.0046 306.49 75.9082 306.1 76.6976C305.92 77.0685 305.68 77.4109 305.5 77.7819C305.33 78.1243 305.21 78.4952 305.17 78.8756C305.13 79.2656 305.16 79.6746 305.27 80.055C305.37 80.426 305.56 80.7588 305.74 81.1012C305.95 81.5102 306.06 81.9192 306.04 82.3757C306.01 82.8323 305.88 83.2793 305.79 83.7263C305.65 84.4587 305.65 85.3622 306.36 85.8283C306.4 85.8568 306.46 85.7902 306.42 85.7617C305.71 85.2005 305.79 84.2875 305.96 83.5171C306.13 82.7371 306.29 82.0048 305.96 81.2534C305.79 80.8825 305.57 80.5401 305.45 80.1501C305.32 79.7507 305.27 79.3227 305.32 78.9042C305.37 78.4572 305.52 78.0482 305.73 77.6582C305.92 77.3158 306.14 76.9829 306.29 76.6215C306.63 75.8321 306.68 74.9571 306.44 74.1296C306.43 74.082 306.35 74.1011 306.36 74.1486L306.34 74.1581Z" fill="#6C3939"/>
<path d="M307.5 81.1964C307.14 82.0143 307.8 82.7752 307.8 83.5837C307.8 84.2019 307.15 85.134 307.75 85.6666C307.79 85.6951 307.84 85.6666 307.82 85.619C307.63 85.2766 307.62 84.9437 307.72 84.5728C307.82 84.2114 307.96 83.8595 307.93 83.479C307.88 82.7181 307.27 81.9858 307.58 81.2154C307.6 81.1678 307.52 81.1488 307.51 81.1964H307.5Z" fill="#6C3939"/>
<path d="M315.14 72.3035C315.19 73.9394 316.76 75.0617 316.9 76.6691C316.94 77.1446 316.87 77.6297 316.7 78.0767C316.54 78.5047 316.3 78.9137 316.21 79.3607C316.13 79.7412 316.16 80.1216 316.37 80.464C316.56 80.7874 316.86 81.0442 317.13 81.3105C317.47 81.6624 317.7 82.0619 317.8 82.5279C317.91 83.0035 317.89 83.498 317.86 83.9831C317.86 84.0212 317.93 84.0402 317.94 83.9926C318.08 83.2412 318.03 82.3948 317.62 81.7195C317.2 81.0156 316.27 80.5876 316.31 79.6841C316.33 79.2085 316.56 78.7615 316.74 78.3335C316.91 77.9245 317.03 77.4965 317.05 77.0495C317.08 76.222 316.75 75.4897 316.33 74.7859C315.86 74.006 315.26 73.226 315.21 72.3035C315.21 72.2654 315.15 72.2654 315.15 72.3035H315.14Z" fill="#6C3939"/>
<path d="M307.4 81.6529C307.34 82.0048 307.33 82.3662 307.38 82.7277C307.44 83.1461 307.56 83.5361 307.44 83.9546C307.28 84.5348 306.88 85.2005 307.27 85.7712C307.31 85.8283 307.4 85.7712 307.37 85.7141C306.99 85.0769 307.49 84.4111 307.58 83.7739C307.63 83.441 307.54 83.1366 307.47 82.8133C307.39 82.4328 307.38 82.0429 307.43 81.6529C307.43 81.6339 307.39 81.6244 307.39 81.6529H307.4Z" fill="#6C3939"/>
<path d="M291.07 99.9047C291.65 100.732 291.94 101.731 291.87 102.729C291.87 102.758 291.91 102.749 291.91 102.729C292.05 101.712 291.81 100.685 291.22 99.8286C291.16 99.743 291.01 99.8286 291.07 99.9142V99.9047Z" fill="#596BC1"/>
<path d="M291.72 99.4957C292.07 99.6479 292.35 99.9237 292.53 100.238C292.55 100.266 292.6 100.247 292.59 100.219C292.53 100.038 292.42 99.8667 292.28 99.724C292.14 99.5813 291.97 99.4767 291.78 99.3911C291.75 99.3816 291.71 99.3911 291.7 99.4101C291.68 99.4387 291.7 99.4767 291.72 99.4862V99.4957Z" fill="#596BC1"/>
<path d="M287.52 98.2308C287.24 98.7444 286.99 99.277 286.78 99.8286C286.67 100.104 286.58 100.39 286.5 100.675C286.42 100.941 286.34 101.227 286.34 101.503C286.34 101.55 286.41 101.55 286.42 101.512C286.53 101.255 286.59 100.979 286.67 100.713C286.75 100.437 286.84 100.162 286.94 99.8952C287.14 99.3531 287.39 98.8204 287.67 98.3068C287.72 98.2117 287.57 98.1356 287.52 98.2308Z" fill="#596BC1"/>
<path d="M303.79 71.3809C303.53 70.9624 303.12 70.6485 302.63 70.5059C302.18 70.3727 301.57 70.3822 301.2 70.6961C301.1 70.7817 301.2 70.9149 301.32 70.8958C301.52 70.8578 301.73 70.7817 301.93 70.7722C302.14 70.7532 302.33 70.7722 302.53 70.8293C302.95 70.9339 303.32 71.1812 303.58 71.5141C303.67 71.6282 303.87 71.5236 303.79 71.3999V71.3809Z" fill="#6C3939"/>
<path d="M301.45 70.9719C301.84 70.9053 302.28 70.9244 302.67 71.029C302.86 71.086 303.05 71.1526 303.22 71.2477C303.41 71.3524 303.57 71.476 303.77 71.5521C303.86 71.5806 303.93 71.476 303.89 71.4094C303.78 71.2097 303.58 71.0956 303.38 70.9909C303.18 70.8863 302.96 70.8007 302.73 70.7532C302.51 70.7056 302.29 70.6771 302.07 70.6771C301.84 70.6771 301.62 70.7246 301.4 70.8007C301.29 70.8388 301.33 70.9909 301.45 70.9719Z" fill="#6C3939"/>
<path d="M302.02 71.8755C302.05 71.9706 302.09 72.0752 302.11 72.1703C302.13 72.2654 302.13 72.3796 302.12 72.4747C302.12 72.5222 302.12 72.5603 302.1 72.5983C302.1 72.6269 302.09 72.6554 302.08 72.6839C302.08 72.7125 302.08 72.7125 302.06 72.7315C302.06 72.741 302.05 72.7505 302.04 72.76C302.02 72.779 302.05 72.7505 302.04 72.76C302.04 72.7695 302.02 72.779 302.01 72.7886C301.99 72.8076 302.01 72.779 302.01 72.7886C301.96 72.7695 302.01 72.7981 302.01 72.7886C302.02 72.7886 302.03 72.7886 302.04 72.7981C302.03 72.7886 302.03 72.7886 302.04 72.7981C302.04 72.8076 302.04 72.7981 302.04 72.7886C302.04 72.779 302.04 72.7695 302.04 72.76C302.04 72.76 302.04 72.7791 302.04 72.741C302.04 72.722 302.04 72.7125 302.04 72.703C302.04 72.6364 302.04 72.5698 302.03 72.5127C302.03 72.3891 302.03 72.2654 302.05 72.1513C302.05 72.0942 302.07 72.0467 302.08 71.9991C302.08 71.9801 302.11 71.8945 302.1 71.885H302.06C302.06 71.885 302.08 71.9135 302.09 71.9231C302.1 71.9516 302.11 71.9991 302.11 72.0467C302.11 72.294 302.06 72.5318 301.93 72.741H302.21C302.17 72.6649 302.15 72.5603 302.15 72.4652C302.15 72.3701 302.18 72.275 302.22 72.1894H301.98C301.98 72.1894 302.01 72.2654 302.01 72.3035C302.01 72.351 301.99 72.4081 301.96 72.4367C301.92 72.4842 301.91 72.5413 301.96 72.5888C301.99 72.6269 302.06 72.6459 302.11 72.6174C302.2 72.5508 302.27 72.4652 302.28 72.3606C302.3 72.2559 302.28 72.1513 302.22 72.0657C302.17 71.9801 302.04 71.9801 301.98 72.0657C301.82 72.313 301.79 72.6364 301.92 72.9027C301.97 73.0073 302.14 72.9978 302.2 72.9027C302.35 72.6364 302.43 72.313 302.4 72.0086C302.39 71.847 302.33 71.6758 302.14 71.6472C302.06 71.6377 301.97 71.6472 301.91 71.7138C301.86 71.7709 301.84 71.847 301.82 71.9135C301.78 72.0752 301.75 72.2464 301.74 72.4176C301.73 72.5698 301.72 72.741 301.75 72.8837C301.79 73.0549 301.97 73.15 302.14 73.0644C302.27 72.9978 302.35 72.8647 302.39 72.741C302.44 72.5888 302.45 72.4176 302.43 72.2559C302.41 72.0847 302.36 71.9135 302.25 71.7709C302.21 71.7233 302.16 71.6948 302.1 71.7233C302.05 71.7423 302.01 71.8089 302.03 71.8565L302.02 71.8755Z" fill="#6C3939"/>
<path d="M302.25 75.8511C302.5 75.8511 302.73 75.775 302.93 75.6324C303.09 75.5182 303.23 75.366 303.32 75.1948C303.35 75.1473 303.29 75.0807 303.24 75.1188C303.09 75.2234 302.98 75.3565 302.83 75.4707C302.67 75.5943 302.47 75.6704 302.25 75.6609C302.12 75.6609 302.12 75.8511 302.25 75.8511Z" fill="#824631"/>
<path d="M322.61 111.974C324.75 109.815 325.15 106.448 324.17 103.624C323.9 102.863 323.55 102.121 323.04 101.474C321.95 100.095 320.28 99.277 318.69 98.4495C316.6 97.3652 314.54 96.1763 312.85 94.5785C311.92 93.7035 311.12 92.7143 310.25 91.7822C309.5 90.9928 308.7 90.2414 307.99 89.4139C307.43 88.7577 306.94 88.0539 306.45 87.35C305.56 86.0755 304.68 84.8011 303.79 83.5266C303.7 83.3934 303.6 83.2507 303.45 83.1842C303.31 83.1176 303.16 83.0415 303 83.051C302.48 83.0605 302.19 83.3744 301.63 83.926C301.84 85.1339 302.35 85.5715 303.07 86.5891C305.26 89.6517 307.91 92.4099 310.93 94.7497C311.39 95.1016 311.87 95.4725 312.1 95.9861C312.26 96.3571 312.28 96.7755 312.23 97.175C311.92 99.705 309.24 101.75 309.57 104.28C309.73 105.507 310.59 106.553 311.5 107.437C312.74 108.645 314.14 109.701 315.65 110.576C317.79 111.813 320.89 113.715 322.61 111.974Z" fill="white"/>
<path d="M313.91 97.3938C314.13 98.012 314.24 98.6588 314.2 99.3055C314.16 99.9428 313.94 100.542 313.86 101.17C313.78 101.759 313.88 102.302 314.27 102.768C314.64 103.215 315.11 103.614 315.57 103.985C316.49 104.736 317.51 105.393 318.58 105.925C319.65 106.458 320.81 106.914 321.99 107.171C322.59 107.304 323.22 107.276 323.67 106.838C324.06 106.458 324.26 105.897 324.36 105.393C324.38 105.269 324.21 105.221 324.17 105.345C324.02 105.783 323.88 106.249 323.56 106.601C323.15 107.057 322.56 107.057 321.99 106.924C320.88 106.667 319.79 106.249 318.77 105.754C317.75 105.25 316.78 104.651 315.89 103.956C315.44 103.605 315 103.234 314.61 102.834C314.4 102.625 314.21 102.387 314.12 102.102C314.02 101.816 314.02 101.512 314.06 101.217C314.14 100.57 314.36 99.9428 314.38 99.2865C314.4 98.6302 314.29 97.9835 314.06 97.3748C314.03 97.2892 313.88 97.3272 313.92 97.4128L313.91 97.3938Z" fill="#DDE4ED"/>
<path d="M318.1 105.022C317.9 105.183 317.74 105.383 317.61 105.602C317.49 105.811 317.36 106.087 317.41 106.334C317.46 106.572 317.74 106.705 317.96 106.562C318.06 106.496 318.14 106.391 318.22 106.296C318.3 106.201 318.36 106.096 318.42 105.982C318.53 105.764 318.6 105.507 318.6 105.259C318.6 105.164 318.57 105.041 318.45 105.012C318.31 104.974 318.2 105.098 318.11 105.183C317.94 105.364 317.79 105.573 317.68 105.802C317.62 105.916 317.58 106.039 317.54 106.163C317.51 106.268 317.47 106.401 317.54 106.496C317.63 106.601 317.77 106.572 317.87 106.505C317.98 106.429 318.05 106.306 318.11 106.182C318.23 105.925 318.29 105.64 318.25 105.355C318.25 105.269 318.15 105.221 318.08 105.288C317.78 105.554 317.6 105.935 317.6 106.334C317.6 106.439 317.73 106.458 317.79 106.382C317.9 106.249 317.99 106.096 318.07 105.944C318.15 105.792 318.23 105.64 318.24 105.469C318.24 105.393 318.14 105.374 318.1 105.431C318.02 105.573 317.97 105.725 317.89 105.868C317.81 106.011 317.72 106.144 317.61 106.277C317.67 106.296 317.74 106.306 317.8 106.325C317.81 105.982 317.96 105.659 318.22 105.421C318.16 105.402 318.1 105.374 318.05 105.355C318.07 105.545 318.06 105.725 318 105.916C317.97 106.001 317.94 106.077 317.89 106.153C317.85 106.22 317.8 106.334 317.71 106.363C317.69 106.363 317.7 106.372 317.69 106.363C317.69 106.325 317.71 106.268 317.72 106.239C317.75 106.144 317.78 106.058 317.82 105.973C317.9 105.802 318 105.63 318.12 105.478C318.17 105.412 318.24 105.345 318.3 105.278C318.31 105.259 318.38 105.202 318.38 105.202C318.4 105.221 318.38 105.307 318.38 105.326C318.36 105.507 318.32 105.687 318.24 105.849C318.16 106.02 318.05 106.182 317.92 106.325C317.87 106.372 317.81 106.448 317.73 106.439C317.63 106.429 317.59 106.315 317.58 106.239C317.58 106.134 317.62 106.03 317.65 105.925C317.69 105.83 317.73 105.735 317.79 105.649C317.9 105.459 318.05 105.297 318.21 105.155C318.31 105.069 318.16 104.936 318.07 105.022H318.1Z" fill="#DDE4ED"/>
<path d="M250.83 78.4381C251.05 78.5332 251.3 78.5523 251.54 78.4952C251.73 78.4476 251.92 78.362 252.08 78.2384C252.12 78.2003 252.1 78.1147 252.04 78.1338C251.86 78.1718 251.7 78.2574 251.52 78.305C251.32 78.362 251.11 78.3525 250.91 78.2669C250.79 78.2194 250.72 78.3906 250.83 78.4381Z" fill="#824631"/>
<path d="M244.869 145.659C245.002 145.521 245.068 145.349 245.068 145.144V138.515C245.068 138.301 245.003 138.125 244.876 137.987C244.747 137.849 244.586 137.78 244.393 137.78C244.237 137.78 244.104 137.821 243.996 137.904C243.887 137.987 243.767 138.132 243.634 138.337L241.36 141.989L239.085 138.337C238.961 138.132 238.842 137.987 238.729 137.904C238.615 137.821 238.486 137.78 238.338 137.78C238.137 137.78 237.97 137.849 237.843 137.987C237.714 138.125 237.651 138.301 237.651 138.515V145.144C237.651 145.349 237.718 145.521 237.85 145.659C237.982 145.797 238.148 145.866 238.352 145.866C238.556 145.866 238.722 145.797 238.854 145.659C238.986 145.521 239.053 145.349 239.053 145.144V140.806L240.686 143.425C240.788 143.583 240.89 143.699 240.995 143.775C241.1 143.851 241.222 143.887 241.363 143.887C241.504 143.887 241.628 143.849 241.736 143.775C241.845 143.699 241.947 143.583 242.04 143.425L243.673 140.806V145.144C243.673 145.349 243.74 145.521 243.872 145.659C244.004 145.797 244.17 145.866 244.374 145.866C244.578 145.866 244.744 145.797 244.876 145.659H244.869Z" fill="#1348BA"/>
<path d="M247.694 145.458C248.16 145.73 248.678 145.866 249.246 145.866C249.814 145.866 250.321 145.73 250.791 145.458C251.261 145.185 251.633 144.815 251.906 144.349C252.177 143.882 252.315 143.368 252.315 142.808C252.315 142.247 252.179 141.733 251.906 141.271C251.633 140.809 251.263 140.442 250.791 140.168C250.32 139.896 249.806 139.759 249.246 139.759C248.686 139.759 248.17 139.894 247.701 140.163C247.229 140.432 246.861 140.799 246.593 141.266C246.325 141.733 246.191 142.247 246.191 142.808C246.191 143.368 246.325 143.883 246.593 144.349C246.861 144.816 247.229 145.185 247.695 145.458H247.694ZM247.828 141.918C247.972 141.649 248.169 141.44 248.416 141.289C248.666 141.139 248.946 141.063 249.256 141.063C249.567 141.063 249.833 141.14 250.079 141.294C250.325 141.447 250.518 141.658 250.662 141.923C250.807 142.189 250.878 142.487 250.878 142.818C250.878 143.149 250.807 143.437 250.662 143.701C250.518 143.966 250.325 144.173 250.079 144.323C249.835 144.473 249.556 144.549 249.244 144.549C248.932 144.549 248.652 144.477 248.405 144.33C248.155 144.183 247.962 143.978 247.821 143.713C247.68 143.447 247.611 143.149 247.611 142.818C247.611 142.487 247.682 142.185 247.826 141.916L247.828 141.918Z" fill="#1348BA"/>
<path d="M258.462 144.68C258.532 144.561 258.567 144.439 258.567 144.313C258.567 144.139 258.506 143.989 258.386 143.863C258.265 143.737 258.119 143.673 257.948 143.673C257.846 143.673 257.76 143.69 257.685 143.727C257.611 143.763 257.536 143.82 257.458 143.899C257.28 144.104 257.081 144.266 256.862 144.385C256.645 144.504 256.403 144.563 256.14 144.563C255.821 144.563 255.538 144.487 255.288 144.337C255.039 144.187 254.842 143.98 254.7 143.715C254.555 143.449 254.484 143.147 254.484 142.808C254.484 142.468 254.555 142.177 254.7 141.913C254.844 141.647 255.041 141.44 255.288 141.29C255.538 141.14 255.821 141.065 256.14 141.065C256.411 141.065 256.657 141.123 256.874 141.242C257.091 141.361 257.287 141.523 257.458 141.728C257.582 141.878 257.746 141.954 257.948 141.954C258.119 141.954 258.265 141.89 258.386 141.765C258.506 141.639 258.567 141.489 258.567 141.315C258.567 141.196 258.525 141.07 258.438 140.935C258.213 140.58 257.892 140.296 257.477 140.082C257.061 139.868 256.611 139.761 256.13 139.761C255.561 139.761 255.042 139.897 254.572 140.17C254.101 140.442 253.733 140.809 253.465 141.273C253.197 141.735 253.063 142.247 253.063 142.809C253.063 143.371 253.197 143.887 253.465 144.358C253.733 144.828 254.102 145.197 254.572 145.466C255.042 145.735 255.561 145.87 256.13 145.87C256.627 145.87 257.078 145.765 257.483 145.556C257.887 145.347 258.214 145.056 258.464 144.683L258.462 144.68Z" fill="#1348BA"/>
<path d="M264.571 145.677C264.7 145.551 264.764 145.396 264.764 145.215C264.764 145.033 264.71 144.89 264.601 144.765L262.837 142.804L264.484 140.897C264.616 140.747 264.683 140.585 264.683 140.411C264.683 140.237 264.62 140.075 264.496 139.949C264.372 139.823 264.216 139.759 264.03 139.759C263.828 139.759 263.663 139.83 263.539 139.973L261.556 142.297C261.471 142.401 261.409 142.49 261.37 142.57C261.331 142.649 261.312 142.728 261.312 142.808C261.312 142.894 261.327 142.98 261.36 143.063C261.39 143.146 261.444 143.232 261.522 143.318L263.622 145.654C263.755 145.797 263.918 145.868 264.113 145.868C264.291 145.868 264.445 145.804 264.574 145.678L264.571 145.677Z" fill="#1348BA"/>
<path d="M260.342 145.866C260.537 145.866 260.7 145.797 260.832 145.659C260.964 145.521 261.03 145.349 261.03 145.144V140.482C261.03 140.277 260.964 140.104 260.832 139.966C260.7 139.828 260.537 139.759 260.342 139.759C260.147 139.759 259.97 139.828 259.835 139.966C259.699 140.104 259.631 140.277 259.631 140.482V145.142C259.631 145.347 259.699 145.52 259.835 145.658C259.97 145.796 260.14 145.865 260.342 145.865V145.866Z" fill="#1348BA"/>
<path d="M270.949 144.349C271.22 143.882 271.358 143.368 271.358 142.808C271.358 142.247 271.222 141.733 270.949 141.271C270.676 140.809 270.306 140.442 269.835 140.168C269.363 139.896 268.849 139.759 268.289 139.759C267.729 139.759 267.214 139.894 266.744 140.163C266.272 140.432 265.904 140.799 265.636 141.266C265.368 141.733 265.234 142.247 265.234 142.808C265.234 143.368 265.368 143.883 265.636 144.349C265.904 144.816 266.272 145.185 266.739 145.458C267.205 145.73 267.723 145.866 268.291 145.866C268.859 145.866 269.366 145.73 269.836 145.458C270.306 145.185 270.678 144.815 270.951 144.349H270.949ZM269.706 143.702C269.561 143.968 269.368 144.175 269.122 144.325C268.878 144.475 268.6 144.551 268.287 144.551C267.975 144.551 267.695 144.478 267.448 144.332C267.198 144.185 267.005 143.98 266.864 143.715C266.723 143.449 266.654 143.151 266.654 142.82C266.654 142.489 266.725 142.187 266.869 141.918C267.013 141.649 267.21 141.44 267.458 141.289C267.707 141.139 267.987 141.063 268.298 141.063C268.608 141.063 268.874 141.14 269.12 141.294C269.366 141.447 269.56 141.658 269.704 141.923C269.848 142.189 269.919 142.487 269.919 142.818C269.919 143.149 269.848 143.437 269.704 143.701L269.706 143.702Z" fill="#1348BA"/>
<path d="M277.232 144.877C277.407 144.604 277.495 144.297 277.495 143.958C277.495 143.563 277.373 143.237 277.127 142.978C276.973 142.818 276.781 142.692 276.559 142.594C276.66 142.508 276.749 142.409 276.823 142.296C276.974 142.066 277.051 141.806 277.051 141.513C277.051 141.015 276.866 140.62 276.496 140.327C276.126 140.033 275.649 139.887 275.066 139.887H273.186C272.985 139.887 272.813 139.956 272.672 140.094C272.532 140.232 272.462 140.408 272.462 140.621V145.009C272.462 145.215 272.532 145.387 272.672 145.525C272.813 145.663 272.983 145.732 273.186 145.732H275.427C275.831 145.732 276.189 145.656 276.501 145.506C276.811 145.356 277.056 145.144 277.23 144.871L277.232 144.877ZM273.819 140.992H275.01C275.259 140.992 275.446 141.042 275.57 141.14C275.694 141.239 275.756 141.387 275.756 141.585C275.756 141.783 275.692 141.935 275.565 142.042C275.437 142.149 275.251 142.202 275.01 142.202H273.819V140.992ZM275.948 144.449C275.789 144.58 275.568 144.644 275.288 144.644H273.817V143.232H275.288C275.568 143.232 275.789 143.294 275.948 143.416C276.107 143.539 276.187 143.708 276.187 143.92C276.187 144.132 276.107 144.316 275.948 144.447V144.449Z" fill="#1348BA"/>
<path d="M283.795 144.313C283.795 144.139 283.734 143.989 283.614 143.863C283.493 143.737 283.348 143.673 283.176 143.673C283.074 143.673 282.988 143.69 282.913 143.727C282.839 143.763 282.764 143.82 282.686 143.899C282.508 144.104 282.309 144.266 282.091 144.385C281.873 144.504 281.631 144.563 281.368 144.563C281.049 144.563 280.766 144.487 280.516 144.337C280.267 144.187 280.07 143.98 279.928 143.715C279.784 143.449 279.712 143.147 279.712 142.808C279.712 142.468 279.784 142.177 279.928 141.913C280.072 141.647 280.269 141.44 280.516 141.29C280.766 141.14 281.049 141.065 281.368 141.065C281.639 141.065 281.885 141.123 282.102 141.242C282.32 141.361 282.515 141.523 282.686 141.728C282.81 141.878 282.974 141.954 283.176 141.954C283.348 141.954 283.493 141.89 283.614 141.765C283.734 141.639 283.795 141.489 283.795 141.315C283.795 141.196 283.753 141.07 283.666 140.935C283.441 140.58 283.12 140.296 282.705 140.082C282.289 139.868 281.84 139.761 281.358 139.761C280.789 139.761 280.27 139.897 279.801 140.17C279.329 140.442 278.961 140.809 278.693 141.273C278.425 141.735 278.291 142.247 278.291 142.809C278.291 143.371 278.425 143.887 278.693 144.358C278.961 144.828 279.331 145.197 279.801 145.466C280.27 145.735 280.789 145.87 281.358 145.87C281.855 145.87 282.306 145.765 282.711 145.556C283.115 145.347 283.443 145.056 283.692 144.683C283.761 144.565 283.797 144.442 283.797 144.316L283.795 144.313Z" fill="#1348BA"/>
<path d="M285.568 145.866C285.763 145.866 285.926 145.797 286.058 145.659C286.191 145.521 286.257 145.349 286.257 145.144V140.482C286.257 140.277 286.191 140.104 286.058 139.966C285.926 139.828 285.763 139.759 285.568 139.759C285.373 139.759 285.197 139.828 285.061 139.966C284.925 140.104 284.857 140.277 284.857 140.482V145.142C284.857 145.347 284.925 145.52 285.061 145.658C285.197 145.796 285.366 145.865 285.568 145.865V145.866Z" fill="#1348BA"/>
<path d="M288.063 142.804L289.71 140.897C289.843 140.747 289.909 140.585 289.909 140.411C289.909 140.237 289.846 140.075 289.722 139.949C289.599 139.823 289.442 139.759 289.256 139.759C289.054 139.759 288.889 139.83 288.766 139.973L286.783 142.297C286.698 142.401 286.635 142.49 286.596 142.57C286.557 142.649 286.538 142.728 286.538 142.808C286.538 142.894 286.554 142.98 286.586 143.063C286.616 143.146 286.671 143.232 286.749 143.318L288.849 145.654C288.981 145.797 289.144 145.868 289.339 145.868C289.517 145.868 289.671 145.804 289.8 145.678C289.929 145.552 289.994 145.397 289.994 145.216C289.994 145.035 289.94 144.892 289.831 144.766L288.067 142.806L288.063 142.804Z" fill="#1348BA"/>
<path d="M293.188 139.759C292.767 139.759 292.377 139.827 292.016 139.961C291.655 140.096 291.349 140.285 291.1 140.53C290.913 140.713 290.82 140.906 290.82 141.111C290.82 141.27 290.878 141.406 290.995 141.52C291.112 141.635 291.251 141.692 291.415 141.692C291.493 141.692 291.565 141.678 291.631 141.651C291.697 141.623 291.773 141.573 291.858 141.502C292.036 141.337 292.226 141.215 292.425 141.135C292.623 141.056 292.835 141.016 293.061 141.016C293.426 141.016 293.711 141.115 293.912 141.313C294.114 141.511 294.216 141.792 294.216 142.154V142.463H292.676C292.014 142.463 291.492 142.615 291.107 142.92C290.722 143.225 290.53 143.637 290.53 144.159C290.53 144.682 290.715 145.087 291.085 145.399C291.454 145.711 291.934 145.868 292.527 145.868C292.947 145.868 293.322 145.789 293.653 145.63C293.88 145.521 294.077 145.378 294.247 145.208C294.257 145.383 294.32 145.535 294.44 145.661C294.572 145.799 294.74 145.868 294.942 145.868C295.144 145.868 295.298 145.801 295.426 145.666C295.554 145.532 295.619 145.361 295.619 145.156V142.227C295.619 141.444 295.405 140.837 294.978 140.406C294.55 139.975 293.955 139.759 293.193 139.759H293.188ZM294.035 144.183C293.914 144.373 293.751 144.523 293.544 144.633C293.337 144.744 293.11 144.799 292.862 144.799C292.582 144.799 292.36 144.739 292.197 144.615C292.035 144.492 291.953 144.32 291.953 144.099C291.953 143.878 292.029 143.723 292.18 143.613C292.331 143.502 292.56 143.447 292.862 143.447H294.216V143.542C294.216 143.78 294.155 143.992 294.035 144.182V144.183Z" fill="#1348BA"/>
<path d="M301.478 140.097C301.342 139.959 301.169 139.89 300.959 139.89H299.151C298.459 139.89 297.907 140.07 297.5 140.43C297.091 140.79 296.888 141.27 296.888 141.871C296.888 142.473 297.098 142.959 297.517 143.306C297.666 143.43 297.833 143.53 298.016 143.611L297.191 144.647C297.113 144.742 297.056 144.83 297.017 144.908C296.978 144.987 296.959 145.073 296.959 145.168C296.959 145.358 297.027 145.521 297.163 145.659C297.298 145.797 297.465 145.866 297.658 145.866C297.875 145.866 298.052 145.783 298.184 145.618L299.56 143.851H300.284V145.144C300.284 145.349 300.35 145.521 300.482 145.659C300.615 145.797 300.783 145.866 300.984 145.866C301.186 145.866 301.354 145.797 301.487 145.659C301.619 145.521 301.685 145.349 301.685 145.144V140.625C301.685 140.411 301.617 140.235 301.482 140.097H301.478ZM300.282 142.689H299.22C298.94 142.689 298.718 142.616 298.555 142.47C298.392 142.323 298.311 142.128 298.311 141.882C298.311 141.635 298.392 141.447 298.555 141.313C298.718 141.178 298.937 141.111 299.208 141.111H300.282V142.689Z" fill="#1348BA"/>
<path d="M242.097 151.546C241.673 151.285 241.205 151.154 240.691 151.154C240.099 151.154 239.599 151.313 239.187 151.628C238.975 151.79 238.793 151.98 238.64 152.192C238.652 151.602 238.722 151.137 238.854 150.799C238.998 150.428 239.253 150.142 239.619 149.946C239.984 149.747 240.506 149.609 241.183 149.53C241.511 149.49 241.789 149.447 242.018 149.399C242.247 149.351 242.479 149.292 242.712 149.221C242.883 149.173 243.014 149.099 243.102 148.996C243.192 148.892 243.236 148.754 243.236 148.58C243.236 148.406 243.173 148.268 243.049 148.142C242.925 148.016 242.776 147.952 242.606 147.952C242.544 147.952 242.432 147.968 242.267 147.999L242.045 148.058C241.826 148.113 241.5 148.18 241.064 148.259C240.153 148.394 239.429 148.623 238.888 148.947C238.347 149.271 237.955 149.733 237.709 150.335C237.465 150.937 237.341 151.723 237.341 152.696V153.609C237.341 154.313 237.472 154.923 237.731 155.442C237.992 155.959 238.354 156.356 238.817 156.628C239.28 156.901 239.806 157.037 240.398 157.037C240.99 157.037 241.504 156.906 241.967 156.646C242.43 156.385 242.79 156.032 243.046 155.583C243.302 155.137 243.431 154.64 243.431 154.096C243.431 153.551 243.314 153.065 243.081 152.613C242.847 152.163 242.52 151.806 242.096 151.546H242.097ZM241.782 154.932C241.638 155.18 241.443 155.378 241.198 155.525C240.954 155.671 240.683 155.744 240.388 155.744C240.092 155.744 239.819 155.671 239.57 155.525C239.321 155.378 239.124 155.182 238.981 154.932C238.837 154.683 238.766 154.404 238.766 154.096C238.766 153.787 238.837 153.518 238.981 153.265C239.125 153.011 239.321 152.815 239.57 152.671C239.819 152.528 240.091 152.458 240.388 152.458C240.684 152.458 240.954 152.528 241.198 152.671C241.443 152.815 241.638 153.011 241.782 153.265C241.926 153.518 241.997 153.794 241.997 154.096C241.997 154.397 241.926 154.682 241.782 154.932Z" fill="#1348BA"/>
<path d="M248.784 151.351C248.313 151.078 247.799 150.942 247.239 150.942C246.679 150.942 246.164 151.077 245.694 151.346C245.222 151.615 244.854 151.982 244.586 152.449C244.318 152.916 244.184 153.43 244.184 153.99C244.184 154.551 244.318 155.066 244.586 155.532C244.854 155.999 245.222 156.368 245.689 156.64C246.155 156.913 246.673 157.049 247.241 157.049C247.809 157.049 248.316 156.913 248.786 156.64C249.256 156.368 249.628 155.997 249.901 155.532C250.172 155.065 250.309 154.551 250.309 153.99C250.309 153.43 250.174 152.916 249.901 152.454C249.628 151.992 249.258 151.625 248.786 151.351H248.784ZM248.656 154.885C248.511 155.151 248.318 155.358 248.072 155.508C247.828 155.658 247.55 155.733 247.237 155.733C246.925 155.733 246.645 155.661 246.398 155.515C246.148 155.368 245.955 155.163 245.814 154.897C245.673 154.632 245.604 154.333 245.604 154.002C245.604 153.671 245.675 153.37 245.819 153.101C245.963 152.832 246.16 152.623 246.408 152.471C246.657 152.321 246.937 152.246 247.248 152.246C247.558 152.246 247.824 152.323 248.07 152.477C248.316 152.63 248.51 152.84 248.654 153.106C248.798 153.371 248.869 153.67 248.869 154.001C248.869 154.332 248.798 154.62 248.654 154.883L248.656 154.885Z" fill="#1348BA"/>
<path d="M255.58 151.071H252.605C252.403 151.071 252.233 151.14 252.098 151.278C251.962 151.416 251.894 151.592 251.894 151.806C251.885 152.035 251.879 152.268 251.87 152.506C251.862 153.233 251.829 153.832 251.772 154.302C251.714 154.773 251.624 155.128 251.504 155.37C251.383 155.611 251.222 155.739 251.02 155.756C250.973 155.756 250.924 155.771 250.869 155.804C250.746 155.828 250.642 155.894 250.561 155.999C250.479 156.104 250.438 156.23 250.438 156.373C250.438 156.523 250.481 156.654 250.567 156.765C250.652 156.875 250.766 156.942 250.907 156.966C251 156.997 251.105 157.013 251.222 157.013C251.689 157.013 252.064 156.863 252.349 156.563C252.632 156.263 252.842 155.799 252.978 155.175C253.114 154.551 253.19 153.725 253.205 152.696V152.292H254.908V156.325C254.908 156.53 254.975 156.702 255.107 156.84C255.239 156.978 255.407 157.047 255.609 157.047C255.811 157.047 255.967 156.978 256.099 156.84C256.232 156.702 256.298 156.53 256.298 156.325V151.806C256.298 151.592 256.23 151.416 256.094 151.278C255.958 151.14 255.789 151.071 255.587 151.071H255.58Z" fill="#1348BA"/>
<path d="M261.497 153.089C261.147 152.923 260.745 152.84 260.296 152.84H259.164V151.666C259.164 151.461 259.098 151.289 258.966 151.151C258.834 151.013 258.671 150.944 258.476 150.944C258.281 150.944 258.104 151.013 257.968 151.151C257.833 151.289 257.765 151.461 257.765 151.666V156.197C257.765 156.402 257.834 156.575 257.975 156.713C258.116 156.851 258.286 156.92 258.489 156.92H260.298C260.749 156.92 261.149 156.839 261.499 156.677C261.848 156.515 262.125 156.278 262.326 155.965C262.528 155.652 262.63 155.29 262.63 154.88C262.63 154.47 262.528 154.099 262.326 153.796C262.125 153.492 261.848 153.256 261.499 153.09L261.497 153.089ZM260.942 155.485C260.774 155.628 260.544 155.699 260.248 155.699H259.163V154.063H260.236C260.532 154.063 260.766 154.135 260.937 154.282C261.108 154.428 261.193 154.632 261.193 154.892C261.193 155.152 261.11 155.342 260.942 155.485Z" fill="#1348BA"/>
<path d="M268.136 150.942C267.935 150.942 267.767 151.011 267.634 151.149C267.502 151.287 267.436 151.459 267.436 151.665V153.254H265.125V151.665C265.125 151.459 265.061 151.287 264.932 151.149C264.803 151.011 264.639 150.942 264.437 150.942C264.235 150.942 264.065 151.011 263.93 151.149C263.794 151.287 263.726 151.459 263.726 151.665V156.325C263.726 156.53 263.794 156.702 263.93 156.84C264.065 156.978 264.235 157.047 264.437 157.047C264.639 157.047 264.805 156.978 264.932 156.84C265.059 156.702 265.125 156.53 265.125 156.325V154.475H267.436V156.325C267.436 156.53 267.502 156.702 267.634 156.84C267.767 156.978 267.933 157.047 268.136 157.047C268.34 157.047 268.505 156.978 268.632 156.84C268.759 156.702 268.823 156.53 268.823 156.325V151.665C268.823 151.459 268.759 151.287 268.632 151.149C268.503 151.011 268.338 150.942 268.136 150.942Z" fill="#1348BA"/>
<path d="M274.776 150.942C274.527 150.942 274.313 151.061 274.135 151.297L271.707 154.609V151.665C271.707 151.459 271.641 151.287 271.509 151.149C271.376 151.011 271.214 150.942 271.019 150.942C270.823 150.942 270.647 151.011 270.511 151.149C270.376 151.287 270.308 151.459 270.308 151.665V156.325C270.308 156.53 270.376 156.702 270.511 156.84C270.647 156.978 270.813 157.047 271.007 157.047C271.248 157.047 271.458 156.932 271.636 156.702L274.063 153.466V156.323C274.063 156.528 274.131 156.701 274.267 156.839C274.403 156.977 274.569 157.046 274.762 157.046C274.956 157.046 275.132 156.977 275.264 156.839C275.397 156.701 275.463 156.528 275.463 156.323V151.663C275.463 151.458 275.397 151.285 275.264 151.147C275.132 151.009 274.969 150.94 274.774 150.94L274.776 150.942Z" fill="#1348BA"/>
<path d="M282.15 155.697L281.916 155.78V151.665C281.916 151.459 281.851 151.287 281.722 151.149C281.594 151.011 281.429 150.942 281.227 150.942C281.025 150.942 280.857 151.011 280.725 151.149C280.593 151.287 280.527 151.459 280.527 151.665V155.697H278.345V151.665C278.345 151.459 278.279 151.287 278.147 151.149C278.014 151.011 277.851 150.942 277.656 150.942C277.461 150.942 277.285 151.011 277.149 151.149C277.013 151.287 276.946 151.459 276.946 151.665V156.196C276.946 156.401 277.015 156.573 277.156 156.711C277.297 156.849 277.466 156.918 277.67 156.918H281.521V158.08C281.521 158.278 281.585 158.444 281.712 158.578C281.841 158.713 282.002 158.78 282.196 158.78C282.389 158.78 282.55 158.713 282.674 158.578C282.798 158.444 282.861 158.278 282.861 158.08V156.432C282.861 156.218 282.793 156.042 282.657 155.904C282.521 155.766 282.352 155.697 282.15 155.697Z" fill="#1348BA"/>
<path d="M286.164 150.942C285.743 150.942 285.353 151.009 284.991 151.144C284.63 151.278 284.325 151.468 284.075 151.713C283.889 151.896 283.795 152.089 283.795 152.294C283.795 152.452 283.853 152.589 283.97 152.702C284.087 152.818 284.226 152.875 284.391 152.875C284.469 152.875 284.54 152.861 284.606 152.833C284.672 152.806 284.749 152.756 284.834 152.685C285.012 152.52 285.202 152.397 285.4 152.318C285.599 152.239 285.811 152.199 286.036 152.199C286.401 152.199 286.686 152.297 286.888 152.496C287.09 152.694 287.192 152.975 287.192 153.337V153.646H285.651C284.99 153.646 284.467 153.797 284.082 154.102C283.697 154.408 283.505 154.82 283.505 155.342C283.505 155.865 283.69 156.27 284.06 156.582C284.43 156.894 284.91 157.051 285.502 157.051C285.923 157.051 286.298 156.971 286.628 156.813C286.856 156.704 287.052 156.561 287.222 156.39C287.232 156.566 287.295 156.718 287.415 156.844C287.548 156.982 287.716 157.051 287.918 157.051C288.119 157.051 288.274 156.983 288.401 156.849C288.53 156.715 288.594 156.544 288.594 156.339V153.409C288.594 152.627 288.381 152.02 287.953 151.589C287.526 151.158 286.93 150.942 286.169 150.942H286.164ZM287.01 155.366C286.89 155.556 286.727 155.706 286.52 155.816C286.313 155.927 286.086 155.982 285.838 155.982C285.558 155.982 285.336 155.921 285.173 155.797C285.01 155.675 284.929 155.502 284.929 155.282C284.929 155.061 285.005 154.906 285.156 154.796C285.307 154.685 285.536 154.63 285.838 154.63H287.192V154.725C287.192 154.963 287.13 155.175 287.01 155.365V155.366Z" fill="#1348BA"/>
<path d="M215.602 153.278H211.08C210.634 153.278 210.429 152.71 210.771 152.418L212.385 151.031C213.99 149.667 215.122 148.444 215.783 147.364C216.445 146.284 216.777 145.128 216.777 143.895C216.777 142.661 216.506 141.672 215.966 140.752C215.425 139.834 214.675 139.108 213.714 138.576C212.752 138.047 211.666 137.78 210.454 137.78C209.373 137.78 208.366 138.004 207.434 138.447C206.501 138.893 205.736 139.5 205.14 140.267C204.543 141.034 204.161 141.912 203.993 142.897C203.9 143.429 203.881 143.902 203.937 144.318C203.974 144.887 204.166 145.341 204.511 145.682C204.856 146.022 205.289 146.194 205.812 146.194C206.335 146.194 206.736 146.043 207.071 145.74C207.406 145.438 207.611 145.03 207.687 144.517L207.743 144.177C207.762 144.025 207.78 143.864 207.799 143.694C207.855 143.202 207.999 142.778 208.232 142.428C208.466 142.077 208.759 141.807 209.114 141.617C209.468 141.428 209.879 141.334 210.344 141.334C211.109 141.334 211.724 141.585 212.191 142.087C212.656 142.589 212.89 143.258 212.89 144.091C212.89 144.849 212.685 145.555 212.274 146.208C211.862 146.862 211.145 147.644 210.119 148.554L204.469 153.42C203.946 153.857 203.685 154.387 203.685 155.013C203.685 155.526 203.866 155.971 204.23 156.35C204.594 156.73 205.037 156.919 205.558 156.919L215.601 156.89C216.142 156.89 216.584 156.719 216.929 156.377C217.274 156.037 217.447 155.6 217.447 155.07C217.447 154.54 217.274 154.132 216.929 153.79C216.584 153.45 216.14 153.278 215.601 153.278H215.602Z" fill="#1348BA"/>
<path d="M224.837 152.846H222.898C222.356 152.846 221.923 152.67 221.597 152.32C221.27 151.969 221.107 151.558 221.107 151.083C221.107 150.61 221.272 150.192 221.597 149.832C221.923 149.473 222.356 149.292 222.898 149.292H224.837C225.103 149.292 225.316 149.074 225.316 148.805V146.812C225.316 146.263 225.497 145.802 225.861 145.432C226.225 145.063 226.668 144.879 227.19 144.879C227.711 144.879 228.183 145.063 228.547 145.432C228.911 145.802 229.092 146.262 229.092 146.812V148.805C229.092 149.076 229.307 149.292 229.571 149.292H231.51C232.052 149.292 232.485 149.473 232.811 149.832C233.138 150.192 233.301 150.61 233.301 151.083C233.301 151.556 233.136 151.969 232.811 152.32C232.485 152.67 232.052 152.846 231.51 152.846H229.571C229.305 152.846 229.092 153.064 229.092 153.333V155.352C229.092 155.902 228.911 156.367 228.547 156.745C228.183 157.124 227.731 157.315 227.19 157.315C226.706 157.315 226.245 157.129 225.898 156.785C225.509 156.399 225.315 155.921 225.315 155.354V153.334C225.315 153.064 225.1 152.848 224.836 152.848L224.837 152.846Z" fill="#E30613"/>
<path d="M219.989 150.434L224.756 140.398C224.849 140.171 224.897 139.944 224.897 139.715C224.897 139.185 224.71 138.729 224.336 138.351C223.962 137.973 223.516 137.782 222.994 137.782C222.603 137.782 222.253 137.9 221.945 138.138C221.637 138.375 221.4 138.673 221.233 139.034L216.058 150.032C215.946 150.316 215.89 150.591 215.89 150.856C215.89 151.368 216.076 151.814 216.45 152.192C216.822 152.572 217.261 152.762 217.765 152.762H220.068C220.26 152.762 220.397 152.529 220.27 152.385C219.945 152.013 219.684 151.112 219.994 150.434H219.989Z" fill="#1348BA"/>
<path d="M300.07 105.29C296.03 120.489 297.48 136.895 291.41 151.466C293.61 154.567 296.82 156.355 300.73 156.783C305.86 157.354 310.97 155.147 316.11 155.556C318.81 155.766 321.39 156.688 324.07 157.059C326.75 157.43 329.77 157.107 331.66 155.261C330.51 140.377 328.19 123.742 324.3 109.275C321.73 107.62 318.78 107.639 316.21 105.984C315.05 105.233 313.86 104.472 312.53 104.044C311.09 103.578 309.54 103.53 308.03 103.55C305.58 103.588 302.48 104.843 300.07 105.271V105.29Z" fill="#2D7CFA"/>
</g>
<defs>
<clipPath id="clip0_1163_6500">
<rect width="341" height="214" fill="white"/>
</clipPath>
<clipPath id="clip1_1163_6500">
<rect width="341" height="225" fill="white" transform="translate(0 -18)"/>
</clipPath>
</defs>
</svg>
